<?xml version="1.0" encoding="UTF-8"?>
<svg id="Layer_1" data-name="Layer 1" xmlns="http://www.w3.org/2000/svg" xmlns:xlink="http://www.w3.org/1999/xlink" viewBox="0 0 191.53 208.4">
  <defs>
    <style>
      .cls-1 {
        fill: #fff;
      }

      .cls-2 {
        stroke: #d2d1d1;
        stroke-miterlimit: 10;
        stroke-width: .25px;
      }

      .cls-2, .cls-3, .cls-4 {
        fill: none;
      }

      .cls-5 {
        fill: #6965ab;
      }

      .cls-4 {
        clip-path: url(#clippath);
      }
    </style>
    <clipPath id="clippath">
      <rect class="cls-3" x="4.77" y="27.7" width="182" height="153"/>
    </clipPath>
  </defs>
  <rect class="cls-3" width="191.53" height="208.4"/>
  <g class="cls-4">
    <g>
      <path class="cls-5" d="m103.42,54.49c7.39,0,13.38-6,13.38-13.4s-5.99-13.4-13.38-13.4-13.38,6-13.38,13.4,5.99,13.4,13.38,13.4Z"/>
      <path class="cls-5" d="m173.39,88.74c7.39,0,13.38-6,13.38-13.4s-5.99-13.4-13.38-13.4-13.38,6-13.38,13.4,5.99,13.4,13.38,13.4Z"/>
      <path class="cls-5" d="m159.97,162.71c7.39,0,13.38-6,13.38-13.4s-5.99-13.4-13.38-13.4-13.38,6-13.38,13.4,5.99,13.4,13.38,13.4Z"/>
      <path class="cls-5" d="m89.28,180.71c7.39,0,13.38-6,13.38-13.4s-5.99-13.4-13.38-13.4-13.38,6-13.38,13.4,5.99,13.4,13.38,13.4Z"/>
      <path class="cls-5" d="m18.15,147.65c7.39,0,13.38-6,13.38-13.4s-5.99-13.4-13.38-13.4-13.38,6-13.38,13.4,5.99,13.4,13.38,13.4Z"/>
      <path class="cls-5" d="m28.67,81.28c7.39,0,13.38-6,13.38-13.4s-5.99-13.4-13.38-13.4-13.38,6-13.38,13.4,5.99,13.4,13.38,13.4Z"/>
      <path class="cls-1" d="m159.96,155.91c-.91,0-1.76-.17-2.56-.51-.8-.34-1.5-.81-2.09-1.42-.6-.6-1.07-1.3-1.42-2.09-.34-.81-.51-1.66-.51-2.57s.17-1.77.51-2.57c.34-.81.81-1.5,1.42-2.1.6-.6,1.29-1.07,2.09-1.42.8-.34,1.65-.52,2.56-.52s1.76.17,2.57.52c.8.34,1.5.82,2.09,1.42.6.6,1.06,1.3,1.41,2.1.34.8.52,1.65.52,2.56s-.17,1.77-.52,2.56c-.34.81-.82,1.5-1.41,2.1-.6.6-1.3,1.07-2.09,1.42-.8.34-1.65.51-2.57.51h0Zm0-.65c.45-.56.81-1.12,1.09-1.67.28-.55.52-1.16.7-1.83h-3.58c.19.72.42,1.35.71,1.89.28.54.64,1.09,1.08,1.62h0Zm-.88-.13c-.36-.43-.68-.94-.97-1.54-.29-.6-.51-1.22-.65-1.84h-2.87c.43.94,1.04,1.71,1.82,2.3.79.59,1.68.95,2.66,1.09Zm1.76,0c.98-.13,1.87-.49,2.66-1.09.79-.6,1.4-1.36,1.83-2.3h-2.87c-.19.63-.44,1.25-.73,1.86-.29.6-.59,1.11-.9,1.53h0Zm-6.51-4.08h2.99c-.06-.31-.1-.6-.12-.9-.02-.29-.04-.57-.04-.85s.01-.56.04-.85c.02-.29.06-.59.12-.9h-2.99c-.09.26-.16.54-.2.85-.04.31-.07.6-.07.9s.02.6.07.9c.04.31.11.59.2.85Zm3.68,0h3.91c.05-.31.09-.6.12-.88.02-.28.04-.57.04-.87s-.01-.59-.04-.86c-.02-.28-.07-.57-.12-.88h-3.91c-.06.31-.1.6-.13.88-.02.28-.04.57-.04.86s.01.59.04.87c.02.28.07.57.13.88Zm4.6,0h2.99c.08-.26.15-.54.19-.85.04-.31.07-.6.07-.9s-.02-.6-.07-.9c-.04-.31-.11-.59-.19-.85h-2.99c.06.31.1.6.12.9.02.29.04.57.04.85s-.01.56-.04.85c-.02.29-.06.59-.12.9Zm-.14-4.19h2.87c-.44-.95-1.04-1.72-1.8-2.3s-1.66-.95-2.69-1.1c.36.47.68,1,.96,1.6.28.59.51,1.19.67,1.81h0Zm-4.29,0h3.58c-.19-.7-.44-1.34-.74-1.92-.29-.57-.65-1.1-1.06-1.59-.41.49-.77,1.02-1.06,1.59-.29.57-.54,1.22-.73,1.92Zm-3.57,0h2.87c.16-.62.37-1.21.66-1.81.28-.59.6-1.12.96-1.6-1.03.16-1.93.54-2.69,1.11-.77.57-1.36,1.34-1.79,2.29h0Z"/>
      <path class="cls-1" d="m170.44,79.23l-3.89-3.89,3.87-3.88.5.5-3.39,3.39,3.39,3.39-.48.48Zm5.9,0l-.5-.5,3.39-3.39-3.39-3.39.49-.49,3.89,3.89-3.88,3.88Z"/>
      <path class="cls-1" d="m98.9,46.77c-1.01,0-1.86-.35-2.57-1.05-.71-.7-1.06-1.56-1.06-2.57,0-.93.32-1.75.97-2.48.64-.72,1.44-1.1,2.38-1.15.17-1.19.71-2.17,1.62-2.94.91-.78,1.97-1.17,3.17-1.17,1.35,0,2.5.48,3.45,1.42.95.95,1.42,2.09,1.42,3.44v.86h.51c.77,0,1.43.28,1.97.83.54.54.8,1.21.8,1.98s-.28,1.45-.82,2c-.54.54-1.21.82-2,.82h-9.83Zm0-.76h9.83c.57,0,1.06-.2,1.46-.6.39-.4.6-.88.6-1.46s-.2-1.06-.6-1.45c-.39-.4-.88-.6-1.46-.6h-1.23v-1.63c0-1.13-.4-2.1-1.2-2.9-.8-.8-1.76-1.2-2.9-1.2s-2.1.4-2.9,1.2c-.8.8-1.2,1.77-1.2,2.9h-.41c-.8,0-1.47.28-2.03.83-.56.56-.84,1.23-.84,2.03s.28,1.47.84,2.03c.56.56,1.24.83,2.03.83h0Z"/>
      <path class="cls-1" d="m87.31,166.07c-.34.34-.51.76-.51,1.25s.17.91.51,1.25.76.51,1.25.51.91-.17,1.25-.51.51-.76.51-1.25-.17-.91-.51-1.25c-.34-.34-.76-.51-1.25-.51s-.91.17-1.25.51Zm2.35,1.25c0,.3-.1.56-.32.77-.22.22-.47.32-.77.32s-.56-.1-.77-.32-.32-.47-.32-.77.1-.56.32-.78c.22-.22.47-.32.77-.32s.56.1.77.32c.21.22.32.47.32.78Z"/>
      <path class="cls-1" d="m91.15,170.27c-.21.18-.41.34-.61.45-.28.16-.6.29-.96.39l-.28,1.98h-1.41l-.23-1.96c-.37-.09-.71-.22-1.01-.39s-.6-.4-.89-.69l-1.79.77-.72-1.23,1.56-1.18c-.05-.19-.09-.36-.11-.54-.02-.18-.03-.36-.03-.54,0-.19.01-.39.04-.58.02-.19.07-.37.13-.54l-1.58-1.17.72-1.23,1.8.78c.31-.31.61-.55.9-.71.29-.16.63-.28,1-.37l.22-1.97h1.45l.22,1.98c.3.07.63.21.98.42.36.21.64.43.84.66l1.88-.79.7,1.23-.6.46c.44-.2.92-.33,1.42-.37l-1.24-2.14-1.97.8c-.22-.2-.45-.37-.66-.49-.22-.13-.47-.25-.74-.34l-.26-2.09h-2.59l-.28,2.09c-.26.09-.51.2-.77.35-.25.15-.48.31-.69.49l-1.91-.8-1.3,2.24,1.66,1.24c-.02.19-.04.34-.05.48-.01.14-.02.27-.02.38,0,.14,0,.28.01.42.01.13.03.27.06.39l-1.65,1.25,1.3,2.28,1.9-.8c.28.21.56.39.83.54.28.15.49.25.65.28l.26,2.07h2.59l.26-2.09c.28-.1.53-.22.75-.35.16-.1.33-.22.48-.34-.11-.22-.2-.46-.27-.71h.01Z"/>
      <path class="cls-1" d="m94.42,172.47l-.13-1.05c-.08-.02-.19-.07-.33-.14-.14-.07-.28-.17-.42-.27l-.96.41-.66-1.16.84-.63c-.01-.07-.02-.14-.03-.2,0-.07,0-.14,0-.21,0-.06,0-.12.01-.19,0-.07.01-.15.03-.25l-.84-.63.66-1.13.97.41c.1-.09.22-.17.35-.25.13-.07.26-.13.39-.18l.14-1.06h1.32l.13,1.06c.14.05.27.11.38.17.11.07.22.15.33.25l1-.41.66,1.13-.89.66c.01.07.03.14.03.2v.38c0,.06-.01.14-.03.23l.86.64-.66,1.16-.98-.42c-.11.1-.22.18-.33.25-.11.07-.24.13-.38.18l-.13,1.06h-1.33Zm.63-2.38c.25,0,.46-.09.63-.26.17-.17.26-.39.26-.63s-.09-.46-.26-.63c-.17-.17-.39-.26-.63-.26s-.46.09-.63.26c-.17.17-.26.39-.26.63s.09.46.26.63c.17.17.39.26.63.26Zm0-.34c-.16,0-.28-.05-.39-.16-.1-.1-.16-.24-.16-.39s.05-.28.16-.4c.1-.1.24-.16.39-.16s.28.05.39.16c.11.1.16.24.16.4s-.05.28-.16.39c-.11.11-.24.16-.39.16Zm-.34,2.38h.71l.14-1.01c.18-.05.34-.11.48-.2.14-.08.29-.2.44-.35l.92.4.36-.62-.81-.61c.03-.11.04-.2.06-.29,0-.09.01-.17.01-.26s0-.18-.01-.26c0-.08-.03-.17-.06-.28l.83-.63-.36-.63-.95.4c-.1-.11-.25-.22-.43-.34-.18-.1-.35-.18-.5-.22l-.11-1.01h-.74l-.11,1c-.19.04-.36.1-.51.19-.15.08-.3.2-.46.36l-.92-.4-.36.63.8.6c-.03.09-.05.18-.07.28s-.01.19-.01.29c0,.09,0,.19.01.27,0,.09.03.18.05.28l-.79.6.36.63.91-.39c.15.15.3.27.45.35.15.08.32.15.51.19l.12.99h.01Z"/>
      <path class="cls-1" d="m17.37,136.31l3.63-3.63-.48-.49-3.13,3.14-1.59-1.6-.48.48,2.08,2.09h0Zm.77,4.49c-1.47-.44-2.68-1.33-3.66-2.68-.97-1.35-1.45-2.87-1.45-4.56v-3.95l5.11-1.92,5.11,1.92v3.95c0,1.69-.48,3.21-1.45,4.56-.97,1.35-2.19,2.24-3.66,2.68Zm0-.73c1.28-.41,2.34-1.23,3.17-2.44.83-1.22,1.25-2.57,1.25-4.06v-3.49l-4.42-1.64-4.42,1.64v3.49c0,1.49.42,2.84,1.25,4.06.83,1.21,1.89,2.03,3.17,2.44Z"/>
      <path class="cls-1" d="m28.67,73.82c-1.73,0-3.16-.22-4.27-.66-1.11-.44-1.66-1-1.66-1.69v-7.31c0-.6.58-1.13,1.73-1.56,1.15-.43,2.55-.65,4.19-.65s3.03.22,4.19.65c1.16.43,1.74.95,1.74,1.56v7.31c0,.69-.56,1.25-1.67,1.69-1.11.44-2.53.66-4.27.66Zm0-8.32c1.04,0,2.11-.15,3.18-.44,1.07-.29,1.74-.61,2-.96-.25-.37-.91-.71-1.97-1.01-1.06-.31-2.14-.45-3.21-.45s-2.14.15-3.21.44c-1.07.29-1.74.62-1.99.97.25.38.89.72,1.96,1.01,1.06.3,2.14.45,3.24.45Zm0,3.79c.51,0,1-.01,1.5-.07.49-.05.97-.13,1.41-.22.45-.1.88-.22,1.27-.37.39-.14.75-.31,1.06-.49v-3.19c-.31.19-.66.36-1.06.51-.39.15-.82.28-1.27.38-.45.1-.92.18-1.41.22-.49.05-.99.07-1.5.07s-1.03-.03-1.53-.08c-.5-.05-.98-.13-1.42-.23-.45-.1-.87-.22-1.26-.37-.39-.14-.73-.31-1.02-.5v3.19c.3.18.65.34,1.03.48.39.14.8.26,1.26.37.45.1.92.18,1.42.23.5.05,1.01.07,1.53.07h-.01Zm0,3.83c.64,0,1.24-.04,1.82-.11.58-.07,1.1-.18,1.56-.31.46-.13.86-.3,1.18-.48.33-.19.55-.4.68-.61v-2.77c-.31.18-.66.34-1.06.49-.39.14-.82.27-1.27.37-.45.1-.92.17-1.41.22-.49.05-.99.07-1.5.07-.52,0-1.03-.02-1.53-.07-.5-.05-.98-.13-1.42-.22-.45-.1-.87-.22-1.26-.37-.39-.14-.73-.31-1.02-.48v2.77c.13.23.35.43.67.62.32.18.71.34,1.17.48.46.13.98.24,1.56.31.58.07,1.19.11,1.84.11Z"/>
      <path class="cls-2" d="m146.59,160.11l-40.93,3.66"/>
      <path class="cls-2" d="m40.59,79.23l28.6,28.63"/>
      <path class="cls-2" d="m43.18,66.02l45.71-18.64"/>
      <path class="cls-2" d="m24.89,83.86l-2.85,36.02"/>
      <path class="cls-2" d="m31.58,85.26l43.36,72.94"/>
      <path class="cls-2" d="m102.66,55.95v38.77"/>
      <path class="cls-2" d="m117.64,53.54l36.97,17.91"/>
      <path class="cls-2" d="m168.74,91.33l-5.64,42.92"/>
      <path class="cls-2" d="m156.85,80.61l-34.09,21.26"/>
      <path class="cls-2" d="m144.38,149.32l-30.47-28.46"/>
      <path class="cls-2" d="m96.04,153.45l2.11-32.59"/>
      <path class="cls-2" d="m72.04,163.77l-38.2-21.05"/>
      <path class="cls-2" d="m154.74,77.61l-104.16-10.78"/>
      <path class="cls-2" d="m139.8,151.07l-105.89-21.63"/>
      <path class="cls-5" d="m127.82,84.22h-57.84c-.71,0-1.28.58-1.28,1.29v39.44c0,.71.57,1.29,1.28,1.29h57.84c.71,0,1.28-.58,1.28-1.29v-39.44c0-.71-.57-1.29-1.28-1.29Z"/>
      <path class="cls-1" d="m128.19,124.35v-35.89c0-.45-.37-.82-.82-.82h-56.95c-.45,0-.82.37-.82.82v35.89c0,.45.37.82.82.82h56.95c.45,0,.82-.37.82-.82Z"/>
      <path class="cls-1" d="m127.76,85.93c0,.46-.37.84-.84.84s-.84-.37-.84-.84.37-.84.84-.84.84.37.84.84Z"/>
      <path class="cls-1" d="m124.99,85.93c0,.46-.37.84-.84.84s-.84-.37-.84-.84.37-.84.84-.84.84.37.84.84Z"/>
      <path class="cls-1" d="m122.22,85.93c0,.46-.37.84-.84.84s-.84-.37-.84-.84.37-.84.84-.84.84.37.84.84Z"/>
    </g>
  </g>
</svg>