<svg width="511" height="451" viewBox="0 0 511 451" fill="none" xmlns="http://www.w3.org/2000/svg">
<mask id="mask0_1733_3757" style="mask-type:alpha" maskUnits="userSpaceOnUse" x="0" y="0" width="511" height="451">
<rect x="0.42627" width="510.148" height="451" fill="#D9D9D9"/>
</mask>
<g mask="url(#mask0_1733_3757)">
<path d="M260.109 142.606C301.778 144.936 335.256 178.424 337.596 220.093H359.968C357.596 166.095 314.097 122.606 260.109 120.234V142.606Z" fill="url(#paint0_linear_1733_3757)"/>
<path d="M173.336 220.082C175.665 178.413 209.143 144.936 250.812 142.606V120.234C196.824 122.606 153.336 166.095 150.964 220.082H173.336Z" fill="url(#paint1_linear_1733_3757)"/>
<path d="M250.812 306.867C209.143 304.537 175.665 271.049 173.325 229.38H150.964C153.336 283.368 196.824 326.856 250.812 329.228V306.856V306.867Z" fill="url(#paint2_linear_1733_3757)"/>
<path d="M337.596 229.38C335.267 271.049 301.778 304.527 260.109 306.867V329.239C314.097 326.867 357.596 283.378 359.958 229.391H337.586L337.596 229.38Z" fill="url(#paint3_linear_1733_3757)"/>
<path d="M256.252 265.265C250.647 265.265 245.366 264.198 240.41 262.064C235.454 259.931 231.13 257.018 227.439 253.327C223.747 249.636 220.835 245.312 218.701 240.356C216.567 235.399 215.5 230.119 215.5 224.514C215.5 218.863 216.567 213.567 218.701 208.625C220.835 203.683 223.747 199.363 227.439 195.666C231.13 191.968 235.454 189.051 240.41 186.913C245.366 184.776 250.647 183.707 256.252 183.707C261.902 183.707 267.199 184.776 272.141 186.914C277.083 189.052 281.403 191.97 285.1 195.669C288.797 199.367 291.715 203.688 293.852 208.632C295.99 213.575 297.058 218.86 297.058 224.486C297.058 230.11 295.99 235.399 293.852 240.356C291.715 245.312 288.797 249.636 285.1 253.327C281.403 257.018 277.083 259.931 272.141 262.064C267.199 264.198 261.902 265.265 256.252 265.265ZM256.279 261.258C259.033 257.782 261.29 254.335 263.05 250.918C264.81 247.502 266.254 243.714 267.383 239.557H245.22C246.408 243.98 247.867 247.886 249.598 251.273C251.328 254.66 253.555 257.988 256.279 261.258ZM250.836 260.496C248.638 257.875 246.637 254.696 244.832 250.959C243.028 247.223 241.689 243.422 240.813 239.557H223.076C225.717 245.375 229.479 250.11 234.361 253.761C239.242 257.411 244.734 259.657 250.836 260.496ZM261.723 260.496C267.795 259.686 273.28 257.448 278.176 253.783C283.072 250.117 286.856 245.375 289.528 239.557H271.79C270.59 243.481 269.087 247.311 267.283 251.048C265.479 254.785 263.626 257.934 261.723 260.496ZM221.409 235.301H239.879C239.531 233.401 239.284 231.547 239.139 229.739C238.994 227.93 238.922 226.179 238.922 224.486C238.922 222.793 238.994 221.042 239.139 219.234C239.284 217.425 239.531 215.571 239.879 213.671H221.409C220.868 215.305 220.458 217.057 220.177 218.927C219.896 220.797 219.756 222.65 219.756 224.486C219.756 226.323 219.896 228.176 220.177 230.046C220.458 231.915 220.868 233.667 221.409 235.301ZM244.192 235.301H268.411C268.739 233.401 268.983 231.583 269.142 229.846C269.302 228.109 269.382 226.323 269.382 224.486C269.382 222.65 269.302 220.863 269.142 219.126C268.983 217.389 268.739 215.571 268.411 213.671H244.192C243.834 215.571 243.576 217.389 243.416 219.126C243.257 220.863 243.177 222.65 243.177 224.486C243.177 226.323 243.257 228.109 243.416 229.846C243.576 231.583 243.834 233.401 244.192 235.301ZM272.68 235.301H291.194C291.705 233.667 292.101 231.915 292.382 230.046C292.663 228.176 292.803 226.323 292.803 224.486C292.803 222.65 292.663 220.797 292.382 218.927C292.101 217.057 291.705 215.305 291.194 213.671H272.68C273.028 215.571 273.275 217.425 273.42 219.234C273.565 221.042 273.637 222.793 273.637 224.486C273.637 226.179 273.565 227.93 273.42 229.739C273.275 231.547 273.028 233.401 272.68 235.301ZM271.79 209.416H289.528C286.827 203.509 283.102 198.774 278.353 195.212C273.605 191.65 268.061 189.375 261.723 188.388C263.921 191.305 265.9 194.587 267.66 198.235C269.42 201.883 270.796 205.61 271.79 209.416ZM245.22 209.416H267.383C266.165 205.081 264.647 201.138 262.828 197.589C261.009 194.039 258.826 190.748 256.279 187.714C253.733 190.748 251.55 194.039 249.731 197.589C247.912 201.138 246.408 205.081 245.22 209.416ZM223.076 209.416H240.813C241.777 205.61 243.139 201.883 244.899 198.235C246.659 194.587 248.638 191.305 250.836 188.388C244.468 189.404 238.917 191.694 234.183 195.256C229.45 198.818 225.747 203.538 223.076 209.416Z" fill="#6C808D"/>
<path d="M256.296 411.386C362.031 411.386 447.745 325.738 447.745 220.085C447.745 114.432 362.031 28.7839 256.296 28.7839C150.562 28.7839 64.8472 114.432 64.8472 220.085C64.8472 325.738 150.562 411.386 256.296 411.386Z" stroke="#F05A37" stroke-width="3.39494"/>
<path d="M273.85 9.599H238.742V44.68H273.85V9.599Z" fill="white"/>
<path d="M247.454 34.4515V23.2804H249.494V34.4515H247.454ZM255.287 34.4515V23.2804H257.339V34.4515H255.287ZM243.153 39.2752V37.2251H269.451V39.2752H243.153ZM263.099 34.4515V23.2804H265.139V34.4515H263.099ZM243.153 20.5068V18.5993L256.296 12.197L269.451 18.5993V20.5068H243.153ZM248.046 18.4568H264.558L256.296 14.4992L248.035 18.4568H248.046Z" fill="#F05A37"/>
<path d="M283.725 385.624H228.869V440.438H283.725V385.624Z" fill="white"/>
<path d="M242.472 424.454V407.001H245.665V424.454H242.472ZM254.716 424.454V407.001H257.909V424.454H254.716ZM235.747 431.985V428.784H276.834V431.985H235.747ZM266.916 424.454V407.001H270.12V424.454H266.916ZM235.747 402.66V399.689L256.296 389.691L276.845 399.689V402.66H235.758H235.747ZM243.394 399.47H269.198L256.296 393.276L243.394 399.47Z" fill="#F05A37"/>
<path d="M393.438 49.0649H358.33V84.1459H393.438V49.0649Z" fill="white"/>
<path d="M367.041 73.918V62.7469H369.082V73.918H367.041ZM374.874 73.918V62.7469H376.926V73.918H374.874ZM362.729 78.7416V76.6916H389.027V78.7416H362.729ZM382.675 73.918V62.7469H384.716V73.918H382.675ZM362.729 59.9733V58.0657L375.873 51.6635L389.016 58.0657V59.9733H362.718H362.729ZM367.622 57.9232H384.134L375.873 53.9656L367.611 57.9232H367.622Z" fill="#F05A37"/>
<path d="M449.392 120.323H414.284V155.404H449.392V120.323Z" fill="white"/>
<path d="M422.994 145.176V134.005H425.035V145.176H422.994ZM430.828 145.176V134.005H432.879V145.176H430.828ZM418.682 150V147.961H444.981V150H418.682ZM438.628 145.176V134.005H440.669V145.176H438.628ZM418.682 131.231V129.324L431.826 122.922L444.97 129.324V131.231H418.671H418.682ZM423.576 129.192H440.087L431.826 125.235L423.565 129.192H423.576Z" fill="#F05A37"/>
<path d="M98.3093 120.323H63.2012V155.404H98.3093V120.323Z" fill="white"/>
<path d="M71.912 145.176V134.005H73.9637V145.176H71.912ZM79.7455 145.176V134.005H81.7972V145.176H79.7455ZM67.6003 150V147.961H93.8985V150H67.6003ZM87.5461 145.176V134.005H89.5978V145.176H87.5461ZM67.6003 131.231V129.324L80.7439 122.922L93.8876 129.324V131.231H67.5894H67.6003ZM72.4935 129.192H89.0053L80.7439 125.235L72.4826 129.192H72.4935Z" fill="#F05A37"/>
<path d="M80.7551 198.159H45.647V233.24H80.7551V198.159Z" fill="white"/>
<path d="M54.3581 223.012V211.841H56.4097V223.012H54.3581ZM62.1916 223.012V211.841H64.2432V223.012H62.1916ZM50.0464 227.836V225.797H76.3446V227.836H50.0574H50.0464ZM69.9922 223.012V211.841H72.0438V223.012H69.9922ZM50.0464 209.067V207.16L63.19 200.758L76.3336 207.16V209.067H50.0574H50.0464ZM54.9396 207.017H71.4514L63.19 203.06L54.9286 207.017H54.9396Z" fill="#F05A37"/>
<path d="M465.848 198.159H430.74V233.24H465.848V198.159Z" fill="white"/>
<path d="M439.451 223.012V211.841H441.492V223.012H439.451ZM447.285 223.012V211.841H449.336V223.012H447.285ZM435.139 227.836V225.797H461.438V227.836H435.139ZM455.085 223.012V211.841H457.126V223.012H455.085ZM435.139 209.067V207.16L448.283 200.758L461.427 207.16V209.067H435.128H435.139ZM440.033 207.017H456.544L448.283 203.06L440.022 207.017H440.033Z" fill="#F05A37"/>
<path d="M155.36 49.0649H120.252V84.1459H155.36V49.0649Z" fill="white"/>
<path d="M128.963 73.918V62.7469H131.014V73.918H128.963ZM136.796 73.918V62.7469H138.848V73.918H136.796ZM124.651 78.7416V76.6916H150.949V78.7416H124.651ZM144.597 73.918V62.7469H146.649V73.918H144.597ZM124.651 59.9733V58.0657L137.795 51.6635L150.938 58.0657V59.9733H124.64H124.651ZM129.544 57.9232H146.056L137.795 53.9656L129.533 57.9232H129.544Z" fill="#F05A37"/>
<path d="M257.339 66.3406V97.3544" stroke="#6C808D" stroke-width="0.848735" stroke-miterlimit="10"/>
<path d="M257.339 61.3856C256.472 63.7207 254.991 66.6149 253.422 68.4128L257.339 66.9986L261.256 68.4128C259.687 66.6149 258.206 63.7207 257.339 61.3856Z" fill="#6C808D"/>
<path d="M257.339 102.32C256.472 99.9854 254.991 97.0912 253.422 95.2933L257.339 96.7075L261.256 95.2933C259.687 97.0912 258.206 99.9854 257.339 102.32Z" fill="#6C808D"/>
<path d="M257.339 345.396V376.409" stroke="#6C808D" stroke-width="0.848735" stroke-miterlimit="10"/>
<path d="M257.339 340.44C256.472 342.775 254.991 345.67 253.422 347.467L257.339 346.053L261.256 347.467C259.687 345.67 258.206 342.775 257.339 340.44Z" fill="#6C808D"/>
<path d="M257.339 381.376C256.472 379.041 254.991 376.146 253.422 374.349L257.339 375.763L261.256 374.349C259.687 376.146 258.206 379.041 257.339 381.376Z" fill="#6C808D"/>
<path d="M163.973 99.855L182.854 124.467" stroke="#6C808D" stroke-width="0.848735" stroke-miterlimit="10"/>
<path d="M160.956 95.9193C161.691 98.2982 162.284 101.499 162.13 103.878L164.379 100.381L168.351 99.1205C166.014 98.649 163.074 97.2458 160.967 95.9193H160.956Z" fill="#6C808D"/>
<path d="M185.871 128.413C183.764 127.087 180.824 125.684 178.487 125.212L182.458 123.951L184.708 120.454C184.554 122.833 185.146 126.034 185.881 128.413H185.871Z" fill="#6C808D"/>
<path d="M119.87 153.727L147.737 167.397" stroke="#6C808D" stroke-width="0.848735" stroke-miterlimit="10"/>
<path d="M115.415 151.534C117.127 153.343 119.08 155.941 120.001 158.145L120.451 154.012L123.446 151.129C121.142 151.742 117.884 151.797 115.404 151.545L115.415 151.534Z" fill="#6C808D"/>
<path d="M152.19 169.579C149.71 169.327 146.452 169.382 144.148 169.996L147.143 167.112L147.593 162.979C148.515 165.172 150.467 167.781 152.179 169.59L152.19 169.579Z" fill="#6C808D"/>
<path d="M104.807 218.156L135.822 219.23" stroke="#6C808D" stroke-width="0.848735" stroke-miterlimit="10"/>
<path d="M99.8362 217.98C102.14 218.923 104.993 220.501 106.726 222.135L105.442 218.177L106.989 214.318C105.135 215.82 102.195 217.202 99.8252 217.98H99.8362Z" fill="#6C808D"/>
<path d="M140.781 219.394C138.412 220.183 135.471 221.554 133.617 223.056L135.164 219.197L133.881 215.239C135.625 216.862 138.467 218.44 140.77 219.394H140.781Z" fill="#6C808D"/>
<path d="M346.886 93.4091L329.145 118.854" stroke="#6C808D" stroke-width="0.848735" stroke-miterlimit="10"/>
<path d="M349.716 89.3416C347.664 90.7667 344.801 92.2906 342.486 92.8716L346.501 93.9459L348.904 97.3444C348.641 94.9764 349.091 91.7534 349.716 89.3416Z" fill="#6C808D"/>
<path d="M326.303 122.932C326.928 120.52 327.367 117.297 327.115 114.929L329.517 118.327L333.533 119.402C331.218 119.983 328.354 121.517 326.303 122.932Z" fill="#6C808D"/>
<path d="M395.983 145.922L368.95 161.138" stroke="#6C808D" stroke-width="0.848735" stroke-miterlimit="10"/>
<path d="M400.317 143.488C397.859 143.883 394.601 144.014 392.264 143.532L395.412 146.24L396.104 150.34C396.905 148.092 398.704 145.385 400.317 143.488Z" fill="#6C808D"/>
<path d="M364.616 163.572C366.229 161.675 368.028 158.957 368.829 156.72L369.52 160.82L372.669 163.528C370.332 163.046 367.085 163.177 364.616 163.572Z" fill="#6C808D"/>
<path d="M417.259 218.737L386.243 219.734" stroke="#6C808D" stroke-width="0.848735" stroke-miterlimit="10"/>
<path d="M422.218 218.572C419.859 217.782 416.908 216.401 415.064 214.888L416.6 218.747L415.306 222.705C417.05 221.082 419.903 219.514 422.207 218.572H422.218Z" fill="#6C808D"/>
<path d="M381.272 219.887C383.576 218.944 386.428 217.377 388.173 215.754L386.878 219.712L388.414 223.571C386.571 222.069 383.62 220.676 381.261 219.887H381.272Z" fill="#6C808D"/>
</g>
<defs>
<linearGradient id="paint0_linear_1733_3757" x1="310.039" y1="120.234" x2="310.039" y2="220.093" gradientUnits="userSpaceOnUse">
<stop stop-color="#FF9076"/>
<stop offset="0.598958" stop-color="#FE7B5C"/>
<stop offset="1" stop-color="#F05A37"/>
</linearGradient>
<linearGradient id="paint1_linear_1733_3757" x1="200.888" y1="120.234" x2="200.888" y2="220.082" gradientUnits="userSpaceOnUse">
<stop stop-color="#FF9076"/>
<stop offset="0.598958" stop-color="#FE7B5C"/>
<stop offset="1" stop-color="#F05A37"/>
</linearGradient>
<linearGradient id="paint2_linear_1733_3757" x1="200.888" y1="229.38" x2="200.888" y2="329.228" gradientUnits="userSpaceOnUse">
<stop stop-color="#FF9076"/>
<stop offset="0.598958" stop-color="#FE7B5C"/>
<stop offset="1" stop-color="#F05A37"/>
</linearGradient>
<linearGradient id="paint3_linear_1733_3757" x1="310.033" y1="229.38" x2="310.033" y2="329.239" gradientUnits="userSpaceOnUse">
<stop stop-color="#FF9076"/>
<stop offset="0.598958" stop-color="#FE7B5C"/>
<stop offset="1" stop-color="#F05A37"/>
</linearGradient>
</defs>
</svg>
