<?xml version="1.0" encoding="UTF-8"?>
<svg id="Layer_1" data-name="Layer 1" xmlns="http://www.w3.org/2000/svg" viewBox="0 0 191.53 208.4">
  <defs>
    <style>
      .cls-1 {
        fill: #f6931f;
      }

      .cls-2, .cls-3 {
        fill: none;
      }

      .cls-3 {
        stroke: #aeaeae;
        stroke-miterlimit: 10;
        stroke-width: 4px;
      }
    </style>
  </defs>
  <rect class="cls-2" width="191.53" height="208.4"/>
  <g>
    <path class="cls-1" d="m145.9,131.26c-.09-2.27-.25-4.54-.25-6.82-.02-19.14-.01-38.27,0-57.41,0-1.31.18-2.62.28-3.93.18-.08.36-.15.54-.23-.2-.15-.41-.29-.62-.44-1.54.01-3.08.09-4.62.03-.78-.03-1.86-.06-2.24-.54-.39-.49-.41-1.74-.05-2.3,3.15-4.85,6.36-9.66,9.68-14.39.99-1.41,1.94-1.18,2.99.38,2.95,4.41,6.21,8.61,9.12,13.05.58.88.17,2.41.22,3.65-1.53,0-3.05,0-4.58,0-.33-.19-.65-.37-.97-.56-.12.25-.24.51-.36.76-.03,5.74-.06,11.47-.09,17.21.12.46.24.91.36,1.37.33-.44.65-.86.97-1.3,4.23-4.07,8.27-8.38,12.78-12.11,2-1.66,2.43-2.28.29-3.92-.76-.58-1.4-1.94-1.29-2.84.07-.59,1.57-1.44,2.43-1.46,5.99-.13,12-.07,18.61-.07-.88,2.97-1.54,5.61-2.45,8.16-1.06,2.94-2.23,5.85-3.59,8.65-.54,1.1-1.76,1.87-2.67,2.79-.79-.93-1.67-1.8-2.35-2.81-.43-.63-.56-1.47-.97-2.66-6.16,4.6-11.69,9.3-15.31,15.67-2.64,4.66-4.74,9.67-6.54,14.71-.8,2.26-.3,4.98-.3,7.5-.02,7.19,0,14.37,0,21.78h-8.2c-.28-.65-.54-1.3-.82-1.94h0Z"/>
    <path class="cls-1" d="m83.17,89.25c0,1.13.25,2.07-.06,2.77-.42.97-1.1,2.09-1.97,2.51-.59.28-2.01-.27-2.52-.89-4.07-4.94-8.02-9.99-12.61-15.77,7.62-2.13,14.71-4.12,22.8-6.37-.67,2.36-.86,3.38-1.26,4.3-.42.95-1.07,1.8-1.62,2.7,3.89,2.36,7.8,4.34,11.26,6.93,5.8,4.32,8.28,10.69,9.07,17.6.46,4.04,0,8.18.12,12.27.06,2.21-.76,3.12-2.95,2.92-.96-.09-1.93-.12-2.88,0-2.83.38-3.88-.7-3.72-3.63.22-4.08.1-8.19.02-12.28-.11-5.79-7.48-12.97-13.66-13.06h-.01Z"/>
    <path class="cls-1" d="m32.64,100.75c-3.44-8.22-7.78-11.85-13.26-11.35-.71,1.99-1.38,3.88-2.06,5.77-.47.03-.94.05-1.41.08-4.33-5.53-8.67-11.04-13.49-17.19,7.86-2.17,14.18-6,22.58-5.47-.96,2.2-1.75,4-2.81,6.44,2.25.99,4.78,1.81,7.01,3.13,6.4,3.75,11.07,9.3,12.5,16.47,1.18,5.9.69,12.12.83,18.21,0,.41-.88.86-1.36,1.28-2.55-.25-5.1-.51-7.65-.76-.12-5.04-.25-10.08-.38-15.12-.17-.5-.33-1-.5-1.5h0Z"/>
    <path class="cls-3" d="m56.38,94.83v60.41"/>
    <path class="cls-3" d="m131.17,94.83v60.41"/>
  </g>
</svg>