<svg width="108" height="108" viewBox="0 0 108 108" fill="none" xmlns="http://www.w3.org/2000/svg">
<path d="M54.17 106.09C82.9827 106.09 106.34 82.7327 106.34 53.92C106.34 25.1073 82.9827 1.75 54.17 1.75C25.3573 1.75 2 25.1073 2 53.92C2 82.7327 25.3573 106.09 54.17 106.09Z" fill="#566C77" stroke="white" stroke-width="3" stroke-miterlimit="10"/>
<path d="M30.5974 38.5254L29.8884 36.8847H26.3437L25.6449 38.5254H24.2877L27.478 31.4359H28.7744L31.9747 38.5254H30.5974ZM26.7893 35.8517H29.4529L28.116 32.7525L26.7893 35.8517ZM36.626 33.1171H37.892V38.5254H36.6868V37.8367C36.2817 38.333 35.6436 38.5963 34.9448 38.5963C33.5573 38.5963 32.6154 37.8367 32.6154 36.2061V33.1171H33.8814V36.034C33.8814 37.0163 34.3473 37.4822 35.1474 37.4822C36.0285 37.4822 36.626 36.9353 36.626 35.8517V33.1171ZM42.4461 37.3303L42.8006 38.2317C42.4967 38.4748 42.041 38.5963 41.5852 38.5963C40.4003 38.5963 39.7217 37.9684 39.7217 36.7733V34.1704H38.8305V33.1577H39.7217V31.9221H40.9877V33.1577H42.436V34.1704H40.9877V36.7429C40.9877 37.2695 41.251 37.5531 41.7371 37.5531C42.0005 37.5531 42.2537 37.4822 42.4461 37.3303ZM46.0946 38.5963C44.4337 38.5963 43.2183 37.4417 43.2183 35.8213C43.2183 34.2008 44.4337 33.0564 46.0946 33.0564C47.7758 33.0564 48.9811 34.2008 48.9811 35.8213C48.9811 37.4417 47.7758 38.5963 46.0946 38.5963ZM46.0946 37.5126C47.0163 37.5126 47.705 36.8543 47.705 35.8213C47.705 34.7882 47.0163 34.1299 46.0946 34.1299C45.1831 34.1299 44.4944 34.7882 44.4944 35.8213C44.4944 36.8543 45.1831 37.5126 46.0946 37.5126ZM57.0178 33.0564C58.3243 33.0564 59.2358 33.7957 59.2358 35.4263V38.5254H57.9698V35.5883C57.9698 34.6262 57.5242 34.1603 56.7545 34.1603C55.924 34.1603 55.3467 34.7072 55.3467 35.7808V38.5254H54.0807V35.5883C54.0807 34.6262 53.6351 34.1603 52.8654 34.1603C52.0248 34.1603 51.4576 34.7072 51.4576 35.7808V38.5254H50.1916V33.1171H51.3969V33.8058C51.802 33.3197 52.4299 33.0564 53.1692 33.0564C53.9592 33.0564 54.6175 33.3501 54.9922 33.9578C55.4277 33.4007 56.1569 33.0564 57.0178 33.0564ZM62.9196 33.0564C64.4793 33.0564 65.3807 33.7957 65.3807 35.3554V38.5254H64.1856V37.8671C63.8817 38.333 63.2943 38.5963 62.4841 38.5963C61.2485 38.5963 60.4687 37.9177 60.4687 36.9758C60.4687 36.0745 61.0763 35.3655 62.717 35.3655H64.1147V35.2845C64.1147 34.5452 63.6691 34.1097 62.7677 34.1097C62.16 34.1097 61.5321 34.3122 61.127 34.6464L60.6307 33.7248C61.208 33.2792 62.0486 33.0564 62.9196 33.0564ZM62.7474 37.6747C63.3652 37.6747 63.902 37.3911 64.1147 36.834V36.2061H62.8082C61.9473 36.2061 61.7144 36.5302 61.7144 36.9252C61.7144 37.3809 62.0992 37.6747 62.7474 37.6747ZM69.9019 37.3303L70.2564 38.2317C69.9526 38.4748 69.4968 38.5963 69.0411 38.5963C67.8561 38.5963 67.1775 37.9684 67.1775 36.7733V34.1704H66.2863V33.1577H67.1775V31.9221H68.4435V33.1577H69.8918V34.1704H68.4435V36.7429C68.4435 37.2695 68.7068 37.5531 69.193 37.5531C69.4563 37.5531 69.7095 37.4822 69.9019 37.3303ZM76.2039 35.8517C76.2039 35.9529 76.1938 36.1048 76.1837 36.2264H71.9401C72.0921 37.0163 72.7504 37.5227 73.6923 37.5227C74.2999 37.5227 74.7759 37.3303 75.1608 36.9353L75.8393 37.7152C75.3532 38.2925 74.5936 38.5963 73.6619 38.5963C71.849 38.5963 70.6742 37.4316 70.6742 35.8213C70.6742 34.2109 71.8591 33.0564 73.4694 33.0564C75.0494 33.0564 76.2039 34.1603 76.2039 35.8517ZM73.4694 34.0692C72.6491 34.0692 72.0516 34.5958 71.93 35.3858H74.9987C74.8975 34.6059 74.2999 34.0692 73.4694 34.0692ZM81.4509 31.0106H82.7168V38.5254H81.5015V37.8266C81.0761 38.3431 80.4482 38.5963 79.7089 38.5963C78.1391 38.5963 76.9744 37.5025 76.9744 35.8213C76.9744 34.1401 78.1391 33.0564 79.7089 33.0564C80.4077 33.0564 81.0255 33.2893 81.4509 33.7856V31.0106ZM79.8608 37.5126C80.7723 37.5126 81.4711 36.8543 81.4711 35.8213C81.4711 34.7882 80.7723 34.1299 79.8608 34.1299C78.9493 34.1299 78.2505 34.7882 78.2505 35.8213C78.2505 36.8543 78.9493 37.5126 79.8608 37.5126Z" fill="white"/>
<path d="M21.0004 50.6758V43.5863H22.317V50.6758H21.0004ZM27.1817 45.2068C28.4781 45.2068 29.4402 45.9461 29.4402 47.5767V50.6758H28.1742V47.7387C28.1742 46.7766 27.6982 46.3107 26.888 46.3107C25.9866 46.3107 25.379 46.8576 25.379 47.9413V50.6758H24.113V45.2675H25.3182V45.9664C25.7334 45.4701 26.3917 45.2068 27.1817 45.2068ZM32.7173 50.7467C31.8159 50.7467 30.9145 50.4834 30.4284 50.139L30.9145 49.1769C31.3905 49.4908 32.1197 49.7136 32.7983 49.7136C33.5984 49.7136 33.9326 49.4908 33.9326 49.1161C33.9326 48.0831 30.5904 49.0553 30.5904 46.8981C30.5904 45.8752 31.5121 45.2068 32.9705 45.2068C33.6895 45.2068 34.5099 45.3789 34.996 45.6726L34.5099 46.6348C33.9934 46.331 33.4769 46.2297 32.9603 46.2297C32.1906 46.2297 31.826 46.4829 31.826 46.8373C31.826 47.9311 35.1682 46.9589 35.1682 49.0756C35.1682 50.0884 34.2364 50.7467 32.7173 50.7467ZM40.2285 45.2675H41.4945V50.6758H40.2893V49.9871C39.8842 50.4834 39.2461 50.7467 38.5473 50.7467C37.1598 50.7467 36.2179 49.9871 36.2179 48.3565V45.2675H37.4839V48.1843C37.4839 49.1667 37.9498 49.6326 38.7499 49.6326C39.631 49.6326 40.2285 49.0857 40.2285 48.002V45.2675ZM44.3573 46.0575C44.7219 45.4903 45.3802 45.2068 46.2816 45.2068V46.412C46.1702 46.3917 46.079 46.3816 45.9879 46.3816C45.0257 46.3816 44.418 46.9488 44.418 48.0527V50.6758H43.1521V45.2675H44.3573V46.0575ZM52.3902 48.002C52.3902 48.1033 52.3801 48.2552 52.3699 48.3768H48.1264C48.2783 49.1667 48.9366 49.6731 49.8785 49.6731C50.4862 49.6731 50.9622 49.4807 51.347 49.0857L52.0256 49.8656C51.5395 50.4428 50.7799 50.7467 49.8481 50.7467C48.0352 50.7467 46.8604 49.582 46.8604 47.9717C46.8604 46.3613 48.0454 45.2068 49.6557 45.2068C51.2356 45.2068 52.3902 46.3107 52.3902 48.002ZM49.6557 46.2195C48.8353 46.2195 48.2378 46.7462 48.1163 47.5362H51.185C51.0837 46.7563 50.4862 46.2195 49.6557 46.2195ZM57.6371 43.161H58.9031V50.6758H57.6878V49.977C57.2624 50.4935 56.6345 50.7467 55.8951 50.7467C54.3253 50.7467 53.1606 49.6529 53.1606 47.9717C53.1606 46.2904 54.3253 45.2068 55.8951 45.2068C56.594 45.2068 57.2117 45.4397 57.6371 45.936V43.161ZM56.0471 49.663C56.9586 49.663 57.6574 49.0047 57.6574 47.9717C57.6574 46.9386 56.9586 46.2803 56.0471 46.2803C55.1355 46.2803 54.4367 46.9386 54.4367 47.9717C54.4367 49.0047 55.1355 49.663 56.0471 49.663ZM66.7612 50.7771C64.5938 50.7771 62.9734 49.2478 62.9734 47.1311C62.9734 45.0143 64.5938 43.485 66.7713 43.485C67.9259 43.485 68.9184 43.9003 69.5767 44.67L68.726 45.4701C68.2094 44.9131 67.5714 44.6396 66.8321 44.6396C65.3635 44.6396 64.3001 45.6726 64.3001 47.1311C64.3001 48.5895 65.3635 49.6225 66.8321 49.6225C67.5714 49.6225 68.2094 49.349 68.726 48.7819L69.5767 49.5921C68.9184 50.3618 67.9259 50.7771 66.7612 50.7771ZM72.7333 45.2068C74.293 45.2068 75.1944 45.9461 75.1944 47.5058V50.6758H73.9993V50.0175C73.6955 50.4834 73.108 50.7467 72.2978 50.7467C71.0622 50.7467 70.2824 50.0681 70.2824 49.1262C70.2824 48.2249 70.8901 47.5159 72.5308 47.5159H73.9284V47.4349C73.9284 46.6956 73.4828 46.2601 72.5814 46.2601C71.9737 46.2601 71.3458 46.4626 70.9407 46.7968L70.4444 45.8752C71.0217 45.4296 71.8623 45.2068 72.7333 45.2068ZM72.5611 49.825C73.1789 49.825 73.7157 49.5415 73.9284 48.9844V48.3565H72.6219C71.761 48.3565 71.5281 48.6806 71.5281 49.0756C71.5281 49.5313 71.913 49.825 72.5611 49.825ZM78.4902 50.7467C77.5888 50.7467 76.6874 50.4834 76.2013 50.139L76.6874 49.1769C77.1634 49.4908 77.8926 49.7136 78.5712 49.7136C79.3713 49.7136 79.7055 49.4908 79.7055 49.1161C79.7055 48.0831 76.3633 49.0553 76.3633 46.8981C76.3633 45.8752 77.285 45.2068 78.7434 45.2068C79.4624 45.2068 80.2828 45.3789 80.7689 45.6726L80.2828 46.6348C79.7663 46.331 79.2498 46.2297 78.7332 46.2297C77.9635 46.2297 77.5989 46.4829 77.5989 46.8373C77.5989 47.9311 80.9411 46.9589 80.9411 49.0756C80.9411 50.0884 80.0093 50.7467 78.4902 50.7467ZM85.1001 45.2068C86.3964 45.2068 87.3586 45.9461 87.3586 47.5767V50.6758H86.0926V47.7387C86.0926 46.7766 85.6166 46.3107 84.8064 46.3107C83.905 46.3107 83.2973 46.8576 83.2973 47.9413V50.6758H82.0313V43.161H83.2973V45.8955C83.7126 45.4498 84.3506 45.2068 85.1001 45.2068Z" fill="white"/>
<path d="M26.3182 62.9372C25.2143 62.9372 24.1103 62.5929 23.5229 62.0865L23.9787 61.0636C24.5458 61.5193 25.4472 61.8434 26.3182 61.8434C27.4221 61.8434 27.888 61.4484 27.888 60.9218C27.888 59.3925 23.6748 60.3951 23.6748 57.7619C23.6748 56.6175 24.5863 55.6452 26.5309 55.6452C27.3816 55.6452 28.2729 55.868 28.8907 56.2731L28.4754 57.296C27.8374 56.9213 27.1386 56.739 26.5208 56.739C25.427 56.739 24.9813 57.1644 24.9813 57.7011C24.9813 59.2102 29.1844 58.2278 29.1844 60.8306C29.1844 61.9649 28.2627 62.9372 26.3182 62.9372ZM37.5817 57.4277H38.7059L36.7108 62.8359H35.4954L34.0978 59.1089L32.6799 62.8359H31.4645L29.4795 57.4277H30.6746L32.1026 61.418L33.5914 57.4277H34.6548L36.1132 61.4383L37.5817 57.4277ZM44.5122 60.1622C44.5122 60.2635 44.502 60.4154 44.4919 60.5369H40.2484C40.4003 61.3269 41.0586 61.8333 42.0005 61.8333C42.6081 61.8333 43.0841 61.6409 43.469 61.2459L44.1476 62.0257C43.6614 62.603 42.9018 62.9068 41.9701 62.9068C40.1572 62.9068 38.9824 61.7421 38.9824 60.1318C38.9824 58.5215 40.1673 57.3669 41.7777 57.3669C43.3576 57.3669 44.5122 58.4709 44.5122 60.1622ZM41.7777 58.3797C40.9573 58.3797 40.3598 58.9064 40.2382 59.6963H43.307C43.2057 58.9165 42.6081 58.3797 41.7777 58.3797ZM50.8124 60.1622C50.8124 60.2635 50.8022 60.4154 50.7921 60.5369H46.5486C46.7005 61.3269 47.3588 61.8333 48.3007 61.8333C48.9083 61.8333 49.3843 61.6409 49.7692 61.2459L50.4478 62.0257C49.9616 62.603 49.202 62.9068 48.2703 62.9068C46.4574 62.9068 45.2826 61.7421 45.2826 60.1318C45.2826 58.5215 46.4675 57.3669 48.0779 57.3669C49.6578 57.3669 50.8124 58.4709 50.8124 60.1622ZM48.0779 58.3797C47.2575 58.3797 46.66 58.9064 46.5384 59.6963H49.6072C49.5059 58.9165 48.9083 58.3797 48.0779 58.3797ZM55.0262 57.3669C56.6062 57.3669 57.7709 58.4607 57.7709 60.1318C57.7709 61.813 56.6062 62.9068 55.0262 62.9068C54.3376 62.9068 53.7299 62.6739 53.2944 62.1776V64.8007H52.0284V57.4277H53.2336V58.1366C53.659 57.6201 54.2869 57.3669 55.0262 57.3669ZM54.8845 61.8232C55.796 61.8232 56.4846 61.1649 56.4846 60.1318C56.4846 59.0988 55.796 58.4405 54.8845 58.4405C53.973 58.4405 53.2741 59.0988 53.2741 60.1318C53.2741 61.1649 53.973 61.8232 54.8845 61.8232ZM63.0263 64.8007C62.2364 63.5753 61.7907 61.9244 61.7907 60.0609C61.7907 58.1974 62.2364 56.5263 63.0263 55.3211H64.2315C63.3909 56.7998 63.0365 58.3291 63.0365 60.0609C63.0365 61.7928 63.3909 63.3221 64.2315 64.8007H63.0263ZM65.4031 62.8359V55.7465H66.7197V62.8359H65.4031ZM71.9187 62.9372C69.7514 62.9372 68.1309 61.4079 68.1309 59.2912C68.1309 57.1745 69.7514 55.6452 71.9288 55.6452C73.0834 55.6452 74.0759 56.0604 74.7342 56.8302L73.8835 57.6302C73.367 57.0732 72.7289 56.7998 71.9896 56.7998C70.5211 56.7998 69.4576 57.8328 69.4576 59.2912C69.4576 60.7496 70.5211 61.7826 71.9896 61.7826C72.7289 61.7826 73.367 61.5092 73.8835 60.942L74.7342 61.7523C74.0759 62.522 73.0834 62.9372 71.9187 62.9372ZM78.1539 62.9372C77.05 62.9372 75.9461 62.5929 75.3587 62.0865L75.8144 61.0636C76.3816 61.5193 77.283 61.8434 78.1539 61.8434C79.2579 61.8434 79.7238 61.4484 79.7238 60.9218C79.7238 59.3925 75.5106 60.3951 75.5106 57.7619C75.5106 56.6175 76.4221 55.6452 78.3666 55.6452C79.2174 55.6452 80.1086 55.868 80.7264 56.2731L80.3112 57.296C79.6731 56.9213 78.9743 56.739 78.3565 56.739C77.2627 56.739 76.8171 57.1644 76.8171 57.7011C76.8171 59.2102 81.0201 58.2278 81.0201 60.8306C81.0201 61.9649 80.0985 62.9372 78.1539 62.9372ZM82.8017 64.8007H81.5964C82.4371 63.3221 82.8017 61.7928 82.8017 60.0609C82.8017 58.3291 82.4371 56.7998 81.5964 55.3211H82.8017C83.6018 56.5263 84.0372 58.1974 84.0372 60.0609C84.0372 61.9244 83.6018 63.5753 82.8017 64.8007Z" fill="white"/>
<path d="M32.2303 74.9863V67.8969H35.3294C37.6285 67.8969 39.1983 69.3148 39.1983 71.4416C39.1983 73.5684 37.6285 74.9863 35.3294 74.9863H32.2303ZM33.5469 73.8723H35.2687C36.8486 73.8723 37.8715 72.9101 37.8715 71.4416C37.8715 69.9731 36.8486 69.0109 35.2687 69.0109H33.5469V73.8723ZM45.5603 72.3126C45.5603 72.4139 45.5501 72.5658 45.54 72.6873H41.2965C41.4484 73.4773 42.1067 73.9837 43.0486 73.9837C43.6562 73.9837 44.1322 73.7912 44.5171 73.3963L45.1957 74.1761C44.7095 74.7534 43.9499 75.0572 43.0182 75.0572C41.2053 75.0572 40.0305 73.8925 40.0305 72.2822C40.0305 70.6719 41.2154 69.5173 42.8258 69.5173C44.4057 69.5173 45.5603 70.6212 45.5603 72.3126ZM42.8258 70.5301C42.0054 70.5301 41.4079 71.0567 41.2863 71.8467H44.3551C44.2538 71.0669 43.6562 70.5301 42.8258 70.5301ZM49.7741 69.5173C51.3541 69.5173 52.5188 70.6111 52.5188 72.2822C52.5188 73.9634 51.3541 75.0572 49.7741 75.0572C49.0854 75.0572 48.4778 74.8243 48.0423 74.328V76.9511H46.7763V69.5781H47.9815V70.287C48.4069 69.7705 49.0348 69.5173 49.7741 69.5173ZM49.6323 73.9735C50.5438 73.9735 51.2325 73.3152 51.2325 72.2822C51.2325 71.2492 50.5438 70.5909 49.6323 70.5909C48.7208 70.5909 48.022 71.2492 48.022 72.2822C48.022 73.3152 48.7208 73.9735 49.6323 73.9735ZM56.1501 75.0572C54.4891 75.0572 53.2738 73.9027 53.2738 72.2822C53.2738 70.6618 54.4891 69.5173 56.1501 69.5173C57.8313 69.5173 59.0365 70.6618 59.0365 72.2822C59.0365 73.9027 57.8313 75.0572 56.1501 75.0572ZM56.1501 73.9735C57.0717 73.9735 57.7604 73.3152 57.7604 72.2822C57.7604 71.2492 57.0717 70.5909 56.1501 70.5909C55.2386 70.5909 54.5499 71.2492 54.5499 72.2822C54.5499 73.3152 55.2386 73.9735 56.1501 73.9735ZM61.9182 75.0572C61.0168 75.0572 60.1154 74.7939 59.6293 74.4496L60.1154 73.4874C60.5914 73.8014 61.3206 74.0242 61.9992 74.0242C62.7993 74.0242 63.1335 73.8014 63.1335 73.4266C63.1335 72.3936 59.7913 73.3659 59.7913 71.2087C59.7913 70.1858 60.713 69.5173 62.1714 69.5173C62.8904 69.5173 63.7108 69.6895 64.1969 69.9832L63.7108 70.9453C63.1943 70.6415 62.6777 70.5402 62.1612 70.5402C61.3915 70.5402 61.0269 70.7934 61.0269 71.1479C61.0269 72.2417 64.3691 71.2694 64.3691 73.3861C64.3691 74.3989 63.4373 75.0572 61.9182 75.0572ZM66.0974 68.6868C65.6315 68.6868 65.2872 68.3526 65.2872 67.9273C65.2872 67.5019 65.6315 67.1677 66.0974 67.1677C66.5633 67.1677 66.9076 67.4816 66.9076 67.8969C66.9076 68.3425 66.5734 68.6868 66.0974 68.6868ZM65.4593 74.9863V69.5781H66.7253V74.9863H65.4593ZM71.2834 73.7912L71.6379 74.6926C71.3341 74.9357 70.8783 75.0572 70.4226 75.0572C69.2376 75.0572 68.5591 74.4293 68.5591 73.2342V70.6314H67.6678V69.6186H68.5591V68.383H69.825V69.6186H71.2733V70.6314H69.825V73.2038C69.825 73.7305 70.0884 74.0141 70.5745 74.0141C70.8378 74.0141 71.091 73.9432 71.2834 73.7912ZM74.3504 75.0572C73.4491 75.0572 72.5477 74.7939 72.0615 74.4496L72.5477 73.4874C73.0237 73.8014 73.7529 74.0242 74.4315 74.0242C75.2316 74.0242 75.5658 73.8014 75.5658 73.4266C75.5658 72.3936 72.2236 73.3659 72.2236 71.2087C72.2236 70.1858 73.1452 69.5173 74.6036 69.5173C75.3227 69.5173 76.1431 69.6895 76.6292 69.9832L76.1431 70.9453C75.6265 70.6415 75.11 70.5402 74.5935 70.5402C73.8238 70.5402 73.4592 70.7934 73.4592 71.1479C73.4592 72.2417 76.8014 71.2694 76.8014 73.3861C76.8014 74.3989 75.8696 75.0572 74.3504 75.0572Z" fill="white"/>
</svg>
