<svg width="108" height="108" viewBox="0 0 108 108" fill="none" xmlns="http://www.w3.org/2000/svg">
<path d="M54.0499 106.34C82.8626 106.34 106.22 82.9827 106.22 54.17C106.22 25.3573 82.8626 2 54.0499 2C25.2372 2 1.87988 25.3573 1.87988 54.17C1.87988 82.9827 25.2372 106.34 54.0499 106.34Z" fill="#566C77" stroke="white" stroke-width="3" stroke-miterlimit="10"/>
<path d="M14.2372 43.9375V36.848H17.3363C19.6353 36.848 21.2051 38.2659 21.2051 40.3928C21.2051 42.5196 19.6353 43.9375 17.3363 43.9375H14.2372ZM15.5538 42.8234H17.2755C18.8554 42.8234 19.8784 41.8613 19.8784 40.3928C19.8784 38.9242 18.8554 37.9621 17.2755 37.9621H15.5538V42.8234ZM23.121 37.638C22.6551 37.638 22.3108 37.3038 22.3108 36.8784C22.3108 36.4531 22.6551 36.1188 23.121 36.1188C23.5869 36.1188 23.9312 36.4328 23.9312 36.848C23.9312 37.2937 23.597 37.638 23.121 37.638ZM22.4829 43.9375V38.5293H23.7489V43.9375H22.4829ZM29.573 38.5293H30.7782V43.1171C30.7782 45.0819 29.7553 45.9732 27.8614 45.9732C26.8487 45.9732 25.846 45.7099 25.2282 45.2035L25.7954 44.2515C26.2714 44.6464 27.0411 44.8996 27.7905 44.8996C28.9856 44.8996 29.5123 44.3527 29.5123 43.2589V42.9754C29.0666 43.4615 28.4286 43.6944 27.6994 43.6944C26.1498 43.6944 24.9649 42.6411 24.9649 41.0713C24.9649 39.5015 26.1498 38.4685 27.6994 38.4685C28.459 38.4685 29.1274 38.7116 29.573 39.2483V38.5293ZM27.8918 42.6209C28.8438 42.6209 29.5325 41.993 29.5325 41.0713C29.5325 40.1598 28.8438 39.542 27.8918 39.542C26.9297 39.542 26.241 40.1598 26.241 41.0713C26.241 41.993 26.9297 42.6209 27.8918 42.6209ZM33.0807 37.638C32.6148 37.638 32.2704 37.3038 32.2704 36.8784C32.2704 36.4531 32.6148 36.1188 33.0807 36.1188C33.5465 36.1188 33.8909 36.4328 33.8909 36.848C33.8909 37.2937 33.5567 37.638 33.0807 37.638ZM32.4426 43.9375V38.5293H33.7086V43.9375H32.4426ZM38.2667 42.7424L38.6212 43.6438C38.3174 43.8869 37.8616 44.0084 37.4059 44.0084C36.2209 44.0084 35.5423 43.3805 35.5423 42.1854V39.5825H34.6511V38.5698H35.5423V37.3342H36.8083V38.5698H38.2566V39.5825H36.8083V42.155C36.8083 42.6817 37.0716 42.9652 37.5578 42.9652C37.8211 42.9652 38.0743 42.8943 38.2667 42.7424ZM41.7287 38.4685C43.2884 38.4685 44.1897 39.2078 44.1897 40.7675V43.9375H42.9947V43.2792C42.6908 43.7451 42.1034 44.0084 41.2932 44.0084C40.0576 44.0084 39.2778 43.3298 39.2778 42.3879C39.2778 41.4866 39.8854 40.7776 41.5261 40.7776H42.9238V40.6966C42.9238 39.9573 42.4781 39.5218 41.5768 39.5218C40.9691 39.5218 40.3412 39.7243 39.9361 40.0586L39.4398 39.1369C40.0171 38.6913 40.8577 38.4685 41.7287 38.4685ZM41.5565 43.0868C42.1743 43.0868 42.7111 42.8032 42.9238 42.2462V41.6182H41.6173C40.7564 41.6182 40.5235 41.9423 40.5235 42.3373C40.5235 42.7931 40.9083 43.0868 41.5565 43.0868ZM45.8145 43.9375V36.4227H47.0804V43.9375H45.8145ZM56.6859 40.251C57.4455 40.494 57.962 41.0916 57.962 42.0132C57.962 43.2286 57.01 43.9375 55.187 43.9375H51.6626V36.848H54.9845C56.6859 36.848 57.5974 37.5671 57.5974 38.6913C57.5974 39.4205 57.2328 39.9573 56.6859 40.251ZM54.8427 37.8811H52.9792V39.8357H54.8427C55.7542 39.8357 56.2707 39.5117 56.2707 38.8635C56.2707 38.2052 55.7542 37.8811 54.8427 37.8811ZM55.106 42.9045C56.0985 42.9045 56.6353 42.5905 56.6353 41.8816C56.6353 41.1726 56.0985 40.8586 55.106 40.8586H52.9792V42.9045H55.106ZM61.3117 38.4685C62.8714 38.4685 63.7728 39.2078 63.7728 40.7675V43.9375H62.5777V43.2792C62.2739 43.7451 61.6865 44.0084 60.8762 44.0084C59.6407 44.0084 58.8608 43.3298 58.8608 42.3879C58.8608 41.4866 59.4685 40.7776 61.1092 40.7776H62.5068V40.6966C62.5068 39.9573 62.0612 39.5218 61.1598 39.5218C60.5522 39.5218 59.9242 39.7243 59.5191 40.0586L59.0229 39.1369C59.6001 38.6913 60.4407 38.4685 61.3117 38.4685ZM61.1396 43.0868C61.7574 43.0868 62.2941 42.8032 62.5068 42.2462V41.6182H61.2003C60.3395 41.6182 60.1065 41.9423 60.1065 42.3373C60.1065 42.7931 60.4914 43.0868 61.1396 43.0868ZM68.4662 38.4685C69.7626 38.4685 70.7247 39.2078 70.7247 40.8384V43.9375H69.4588V41.0004C69.4588 40.0383 68.9828 39.5724 68.1725 39.5724C67.2712 39.5724 66.6635 40.1193 66.6635 41.203V43.9375H65.3975V38.5293H66.6027V39.2281C67.018 38.7318 67.6763 38.4685 68.4662 38.4685ZM76.4122 43.9375L74.5386 41.6182L73.5967 42.5095V43.9375H72.3307V36.4227H73.5967V40.9599L76.2198 38.5293H77.739L75.4805 40.7979L77.9516 43.9375H76.4122ZM79.358 37.638C78.8921 37.638 78.5477 37.3038 78.5477 36.8784C78.5477 36.4531 78.8921 36.1188 79.358 36.1188C79.8239 36.1188 80.1682 36.4328 80.1682 36.848C80.1682 37.2937 79.834 37.638 79.358 37.638ZM78.7199 43.9375V38.5293H79.9859V43.9375H78.7199ZM84.7162 38.4685C86.0126 38.4685 86.9747 39.2078 86.9747 40.8384V43.9375H85.7087V41.0004C85.7087 40.0383 85.2327 39.5724 84.4225 39.5724C83.5211 39.5724 82.9135 40.1193 82.9135 41.203V43.9375H81.6475V38.5293H82.8527V39.2281C83.2679 38.7318 83.9262 38.4685 84.7162 38.4685ZM92.7927 38.5293H93.9979V43.1171C93.9979 45.0819 92.975 45.9732 91.0811 45.9732C90.0683 45.9732 89.0656 45.7099 88.4478 45.2035L89.015 44.2515C89.491 44.6464 90.2607 44.8996 91.0102 44.8996C92.2052 44.8996 92.7319 44.3527 92.7319 43.2589V42.9754C92.2863 43.4615 91.6482 43.6944 90.919 43.6944C89.3695 43.6944 88.1845 42.6411 88.1845 41.0713C88.1845 39.5015 89.3695 38.4685 90.919 38.4685C91.6786 38.4685 92.347 38.7116 92.7927 39.2483V38.5293ZM91.1114 42.6209C92.0635 42.6209 92.7521 41.993 92.7521 41.0713C92.7521 40.1598 92.0635 39.542 91.1114 39.542C90.1493 39.542 89.4606 40.1598 89.4606 41.0713C89.4606 41.993 90.1493 42.6209 91.1114 42.6209Z" fill="white"/>
<path d="M38.3039 56.0879L37.595 54.4472H34.0502L33.3514 56.0879H31.9943L35.1845 48.9984H36.4809L39.6813 56.0879H38.3039ZM34.4958 53.4142H37.1595L35.8226 50.315L34.4958 53.4142ZM42.8932 56.1588C41.1816 56.1588 39.9663 55.0042 39.9663 53.3838C39.9663 51.7633 41.1816 50.6189 42.8932 50.6189C43.9465 50.6189 44.7871 51.0544 45.2024 51.8747L44.2301 52.4419C43.906 51.9254 43.4199 51.6924 42.8831 51.6924C41.9513 51.6924 41.2424 52.3406 41.2424 53.3838C41.2424 54.4371 41.9513 55.0751 42.8831 55.0751C43.4199 55.0751 43.906 54.8422 44.2301 54.3257L45.2024 54.8928C44.7871 55.703 43.9465 56.1588 42.8932 56.1588ZM48.6989 56.1588C46.9873 56.1588 45.772 55.0042 45.772 53.3838C45.772 51.7633 46.9873 50.6189 48.6989 50.6189C49.7522 50.6189 50.5928 51.0544 51.008 51.8747L50.0358 52.4419C49.7117 51.9254 49.2255 51.6924 48.6888 51.6924C47.757 51.6924 47.0481 52.3406 47.0481 53.3838C47.0481 54.4371 47.757 55.0751 48.6888 55.0751C49.2255 55.0751 49.7117 54.8422 50.0358 54.3257L51.008 54.8928C50.5928 55.703 49.7522 56.1588 48.6989 56.1588ZM54.4539 56.1588C52.793 56.1588 51.5777 55.0042 51.5777 53.3838C51.5777 51.7633 52.793 50.6189 54.4539 50.6189C56.1352 50.6189 57.3404 51.7633 57.3404 53.3838C57.3404 55.0042 56.1352 56.1588 54.4539 56.1588ZM54.4539 55.0751C55.3756 55.0751 56.0643 54.4168 56.0643 53.3838C56.0643 52.3507 55.3756 51.6924 54.4539 51.6924C53.5424 51.6924 52.8538 52.3507 52.8538 53.3838C52.8538 54.4168 53.5424 55.0751 54.4539 55.0751ZM62.5211 50.6796H63.787V56.0879H62.5818V55.3992C62.1767 55.8955 61.5387 56.1588 60.8398 56.1588C59.4523 56.1588 58.5104 55.3992 58.5104 53.7686V50.6796H59.7764V53.5965C59.7764 54.5788 60.2423 55.0447 61.0424 55.0447C61.9235 55.0447 62.5211 54.4978 62.5211 53.4142V50.6796ZM68.5133 50.6189C69.8097 50.6189 70.7718 51.3582 70.7718 52.9888V56.0879H69.5058V53.1508C69.5058 52.1887 69.0298 51.7228 68.2196 51.7228C67.3182 51.7228 66.7106 52.2697 66.7106 53.3534V56.0879H65.4446V50.6796H66.6498V51.3785C67.065 50.8822 67.7233 50.6189 68.5133 50.6189ZM75.2743 54.8928L75.6288 55.7942C75.325 56.0373 74.8692 56.1588 74.4135 56.1588C73.2285 56.1588 72.55 55.5309 72.55 54.3358V51.7329H71.6587V50.7202H72.55V49.4846H73.8159V50.7202H75.2642V51.7329H73.8159V54.3054C73.8159 54.832 74.0792 55.1156 74.5654 55.1156C74.8287 55.1156 75.0819 55.0447 75.2743 54.8928Z" fill="white"/>
<path d="M25.5414 70.2128C24.7514 68.9874 24.3058 67.3365 24.3058 65.473C24.3058 63.6095 24.7514 61.9384 25.5414 60.7332H26.7466C25.906 62.2119 25.5515 63.7412 25.5515 65.473C25.5515 67.2049 25.906 68.7342 26.7466 70.2128H25.5414ZM31.1996 68.3493C29.0323 68.3493 27.4118 66.82 27.4118 64.7033C27.4118 62.5866 29.0323 61.0573 31.2097 61.0573C32.3643 61.0573 33.3568 61.4725 34.0151 62.2423L33.1644 63.0424C32.6479 62.4853 32.0098 62.2119 31.2705 62.2119C29.802 62.2119 28.7385 63.2449 28.7385 64.7033C28.7385 66.1617 29.802 67.1948 31.2705 67.1948C32.0098 67.1948 32.6479 66.9213 33.1644 66.3541L34.0151 67.1644C33.3568 67.9341 32.3643 68.3493 31.1996 68.3493ZM37.388 68.3189C35.727 68.3189 34.5117 67.1644 34.5117 65.5439C34.5117 63.9235 35.727 62.779 37.388 62.779C39.0692 62.779 40.2744 63.9235 40.2744 65.5439C40.2744 67.1644 39.0692 68.3189 37.388 68.3189ZM37.388 67.2353C38.3096 67.2353 38.9983 66.577 38.9983 65.5439C38.9983 64.5109 38.3096 63.8526 37.388 63.8526C36.4765 63.8526 35.7878 64.5109 35.7878 65.5439C35.7878 66.577 36.4765 67.2353 37.388 67.2353ZM44.5537 62.779C45.8501 62.779 46.8122 63.5184 46.8122 65.1489V68.248H45.5463V65.311C45.5463 64.3488 45.0703 63.883 44.26 63.883C43.3587 63.883 42.751 64.4299 42.751 65.5135V68.248H41.485V62.8398H42.6902V63.5386C43.1055 63.0424 43.7638 62.779 44.5537 62.779ZM50.0893 68.3189C49.1879 68.3189 48.2865 68.0556 47.8004 67.7113L48.2865 66.7491C48.7626 67.0631 49.4918 67.2859 50.1703 67.2859C50.9704 67.2859 51.3046 67.0631 51.3046 66.6884C51.3046 65.6553 47.9625 66.6276 47.9625 64.4704C47.9625 63.4475 48.8841 62.779 50.3425 62.779C51.0616 62.779 51.8819 62.9512 52.368 63.2449L51.8819 64.2071C51.3654 63.9032 50.8489 63.8019 50.3324 63.8019C49.5626 63.8019 49.198 64.0551 49.198 64.4096C49.198 65.5034 52.5402 64.5311 52.5402 66.6479C52.5402 67.6606 51.6085 68.3189 50.0893 68.3189ZM57.6006 62.8398H58.8665V68.248H57.6613V67.5594C57.2562 68.0556 56.6182 68.3189 55.9193 68.3189C54.5318 68.3189 53.59 67.5594 53.59 65.9288V62.8398H54.8559V65.7566C54.8559 66.739 55.3218 67.2049 56.1219 67.2049C57.003 67.2049 57.6006 66.658 57.6006 65.5743V62.8398ZM67.3502 62.779C68.6567 62.779 69.5682 63.5184 69.5682 65.1489V68.248H68.3022V65.311C68.3022 64.3488 67.8566 63.883 67.0869 63.883C66.2564 63.883 65.6791 64.4299 65.6791 65.5034V68.248H64.4132V65.311C64.4132 64.3488 63.9675 63.883 63.1978 63.883C62.3572 63.883 61.7901 64.4299 61.7901 65.5034V68.248H60.5241V62.8398H61.7293V63.5285C62.1344 63.0424 62.7623 62.779 63.5017 62.779C64.2916 62.779 64.9499 63.0727 65.3247 63.6804C65.7602 63.1234 66.4894 62.779 67.3502 62.779ZM76.3196 65.5743C76.3196 65.6756 76.3095 65.8275 76.2993 65.949H72.0558C72.2077 66.739 72.866 67.2454 73.8079 67.2454C74.4156 67.2454 74.8916 67.053 75.2764 66.658L75.955 67.4378C75.4688 68.0151 74.7093 68.3189 73.7775 68.3189C71.9646 68.3189 70.7898 67.1542 70.7898 65.5439C70.7898 63.9336 71.9748 62.779 73.5851 62.779C75.165 62.779 76.3196 63.883 76.3196 65.5743ZM73.5851 63.7918C72.7647 63.7918 72.1672 64.3185 72.0457 65.1084H75.1144C75.0131 64.3286 74.4156 63.7918 73.5851 63.7918ZM78.7408 63.6298C79.1054 63.0626 79.7637 62.779 80.6651 62.779V63.9842C80.5537 63.964 80.4626 63.9539 80.3714 63.9539C79.4093 63.9539 78.8016 64.521 78.8016 65.6249V68.248H77.5356V62.8398H78.7408V63.6298ZM82.3168 70.2128H81.1116C81.9522 68.7342 82.3168 67.2049 82.3168 65.473C82.3168 63.7412 81.9522 62.2119 81.1116 60.7332H82.3168C83.1169 61.9384 83.5524 63.6095 83.5524 65.473C83.5524 67.3365 83.1169 68.9874 82.3168 70.2128Z" fill="white"/>
</svg>
