<svg width="108" height="109" viewBox="0 0 108 109" fill="none" xmlns="http://www.w3.org/2000/svg">
<path d="M53.9 106.75C82.7127 106.75 106.07 83.3929 106.07 54.5802C106.07 25.7675 82.7127 2.41016 53.9 2.41016C25.0873 2.41016 1.72998 25.7675 1.72998 54.5802C1.72998 83.3929 25.0873 106.75 53.9 106.75Z" fill="#566C77" stroke="white" stroke-width="3" stroke-miterlimit="10"/>
<path d="M35.132 51.334H33.7141L32.2658 49.2578C32.1747 49.2679 32.0835 49.2679 31.9924 49.2679H30.3922V51.334H29.0755V44.2445H31.9924C33.8559 44.2445 35.0104 45.1965 35.0104 46.7663C35.0104 47.8399 34.4635 48.6299 33.5014 49.0046L35.132 51.334ZM33.6837 46.7663C33.6837 45.8751 33.0862 45.3586 31.9316 45.3586H30.3922V48.1842H31.9316C33.0862 48.1842 33.6837 47.6576 33.6837 46.7663ZM41.4461 48.6602C41.4461 48.7615 41.436 48.9134 41.4258 49.035H37.1823C37.3342 49.8249 37.9925 50.3313 38.9344 50.3313C39.5421 50.3313 40.0181 50.1389 40.4029 49.7439L41.0815 50.5238C40.5954 51.101 39.8358 51.4049 38.904 51.4049C37.0911 51.4049 35.9163 50.2402 35.9163 48.6299C35.9163 47.0195 37.1013 45.865 38.7116 45.865C40.2915 45.865 41.4461 46.9689 41.4461 48.6602ZM38.7116 46.8778C37.8912 46.8778 37.2937 47.4044 37.1722 48.1944H40.2409C40.1396 47.4145 39.5421 46.8778 38.7116 46.8778ZM44.5799 45.865C46.1395 45.865 47.0409 46.6043 47.0409 48.164V51.334H45.8458V50.6757C45.542 51.1416 44.9546 51.4049 44.1444 51.4049C42.9088 51.4049 42.1289 50.7263 42.1289 49.7844C42.1289 48.8831 42.7366 48.1741 44.3773 48.1741H45.7749V48.0931C45.7749 47.3538 45.3293 46.9183 44.4279 46.9183C43.8203 46.9183 43.1924 47.1208 42.7872 47.455L42.291 46.5334C42.8683 46.0878 43.7089 45.865 44.5799 45.865ZM44.4077 50.4832C45.0255 50.4832 45.5623 50.1997 45.7749 49.6426V49.0147H44.4685C43.6076 49.0147 43.3747 49.3388 43.3747 49.7338C43.3747 50.1895 43.7595 50.4832 44.4077 50.4832ZM48.6656 51.334V43.8192H49.9316V51.334H48.6656ZM55.9519 51.334V45.3586H53.6022V44.2445H59.6181V45.3586H57.2685V51.334H55.9519ZM60.9942 45.0345C60.5283 45.0345 60.184 44.7003 60.184 44.2749C60.184 43.8495 60.5283 43.5153 60.9942 43.5153C61.4601 43.5153 61.8044 43.8293 61.8044 44.2445C61.8044 44.6901 61.4702 45.0345 60.9942 45.0345ZM60.3561 51.334V45.9257H61.6221V51.334H60.3561ZM70.1098 45.865C71.4163 45.865 72.3278 46.6043 72.3278 48.2349V51.334H71.0618V48.3969C71.0618 47.4348 70.6162 46.9689 69.8465 46.9689C69.016 46.9689 68.4387 47.5158 68.4387 48.5894V51.334H67.1728V48.3969C67.1728 47.4348 66.7271 46.9689 65.9574 46.9689C65.1168 46.9689 64.5497 47.5158 64.5497 48.5894V51.334H63.2837V45.9257H64.4889V46.6144C64.894 46.1283 65.5219 45.865 66.2613 45.865C67.0512 45.865 67.7095 46.1587 68.0843 46.7663C68.5198 46.2093 69.249 45.865 70.1098 45.865ZM79.0792 48.6602C79.0792 48.7615 79.0691 48.9134 79.0589 49.035H74.8154C74.9673 49.8249 75.6256 50.3313 76.5675 50.3313C77.1752 50.3313 77.6512 50.1389 78.036 49.7439L78.7146 50.5238C78.2285 51.101 77.4689 51.4049 76.5371 51.4049C74.7242 51.4049 73.5494 50.2402 73.5494 48.6299C73.5494 47.0195 74.7344 45.865 76.3447 45.865C77.9246 45.865 79.0792 46.9689 79.0792 48.6602ZM76.3447 46.8778C75.5243 46.8778 74.9268 47.4044 74.8053 48.1944H77.874C77.7727 47.4145 77.1752 46.8778 76.3447 46.8778Z" fill="white"/>
<path d="M31.3923 56.3949C33.2558 56.3949 34.4103 57.3469 34.4103 58.9167C34.4103 60.4764 33.2558 61.4386 31.3923 61.4386H29.7921V63.4844H28.4755V56.3949H31.3923ZM31.3315 60.3245C32.4861 60.3245 33.0836 59.808 33.0836 58.9167C33.0836 58.0255 32.4861 57.509 31.3315 57.509H29.7921V60.3245H31.3315ZM37.6202 58.0154C39.1799 58.0154 40.0813 58.7547 40.0813 60.3144V63.4844H38.8862V62.8261C38.5824 63.2919 37.995 63.5553 37.1847 63.5553C35.9491 63.5553 35.1693 62.8767 35.1693 61.9348C35.1693 61.0334 35.777 60.3245 37.4177 60.3245H38.8153V60.2435C38.8153 59.5041 38.3697 59.0687 37.4683 59.0687C36.8606 59.0687 36.2327 59.2712 35.8276 59.6054L35.3313 58.6838C35.9086 58.2382 36.7492 58.0154 37.6202 58.0154ZM37.448 62.6336C38.0658 62.6336 38.6026 62.3501 38.8153 61.793V61.1651H37.5088C36.648 61.1651 36.415 61.4892 36.415 61.8842C36.415 62.3399 36.7999 62.6336 37.448 62.6336ZM45.4557 58.0761H46.671L44.139 63.9199C43.6428 65.1453 42.9541 65.5201 42.0527 65.5201C41.5159 65.5201 40.9488 65.3378 40.6044 65.0238L41.1108 64.092C41.3539 64.325 41.6982 64.4668 42.0426 64.4668C42.4882 64.4668 42.7515 64.2541 42.9946 63.7173L43.0858 63.5046L40.726 58.0761H42.0426L43.7441 62.0766L45.4557 58.0761ZM54.2884 58.0154C55.5949 58.0154 56.5064 58.7547 56.5064 60.3853V63.4844H55.2404V60.5473C55.2404 59.5852 54.7948 59.1193 54.025 59.1193C53.1946 59.1193 52.6173 59.6662 52.6173 60.7397V63.4844H51.3513V60.5473C51.3513 59.5852 50.9057 59.1193 50.136 59.1193C49.2954 59.1193 48.7282 59.6662 48.7282 60.7397V63.4844H47.4622V58.0761H48.6674V58.7648C49.0725 58.2787 49.7005 58.0154 50.4398 58.0154C51.2298 58.0154 51.8881 58.3091 52.2628 58.9167C52.6983 58.3597 53.4275 58.0154 54.2884 58.0154ZM63.2577 60.8106C63.2577 60.9119 63.2476 61.0638 63.2375 61.1854H58.9939C59.1458 61.9753 59.8041 62.4817 60.746 62.4817C61.3537 62.4817 61.8297 62.2893 62.2146 61.8943L62.8931 62.6742C62.407 63.2514 61.6474 63.5553 60.7156 63.5553C58.9028 63.5553 57.7279 62.3906 57.7279 60.7803C57.7279 59.1699 58.9129 58.0154 60.5232 58.0154C62.1031 58.0154 63.2577 59.1193 63.2577 60.8106ZM60.5232 59.0281C59.7029 59.0281 59.1053 59.5548 58.9838 60.3448H62.0525C61.9512 59.5649 61.3537 59.0281 60.5232 59.0281ZM67.5425 58.0154C68.8388 58.0154 69.801 58.7547 69.801 60.3853V63.4844H68.535V60.5473C68.535 59.5852 68.059 59.1193 67.2488 59.1193C66.3474 59.1193 65.7397 59.6662 65.7397 60.7499V63.4844H64.4738V58.0761H65.679V58.7749C66.0942 58.2787 66.7525 58.0154 67.5425 58.0154ZM74.3035 62.2893L74.658 63.1907C74.3541 63.4337 73.8984 63.5553 73.4426 63.5553C72.2577 63.5553 71.5791 62.9273 71.5791 61.7323V59.1294H70.6879V58.1166H71.5791V56.881H72.8451V58.1166H74.2934V59.1294H72.8451V61.7019C72.8451 62.2285 73.1084 62.5121 73.5946 62.5121C73.8579 62.5121 74.1111 62.4412 74.3035 62.2893ZM77.3705 63.5553C76.4691 63.5553 75.5677 63.2919 75.0816 62.9476L75.5677 61.9855C76.0437 62.2994 76.7729 62.5222 77.4515 62.5222C78.2516 62.5222 78.5858 62.2994 78.5858 61.9247C78.5858 60.8917 75.2437 61.8639 75.2437 59.7067C75.2437 58.6838 76.1653 58.0154 77.6237 58.0154C78.3428 58.0154 79.1631 58.1875 79.6492 58.4812L79.1631 59.4434C78.6466 59.1395 78.1301 59.0383 77.6136 59.0383C76.8438 59.0383 76.4792 59.2915 76.4792 59.6459C76.4792 60.7397 79.8214 59.7675 79.8214 61.8842C79.8214 62.897 78.8897 63.5553 77.3705 63.5553Z" fill="white"/>
</svg>
