<svg width="314" height="278" viewBox="0 0 314 278" fill="none" xmlns="http://www.w3.org/2000/svg">
<path d="M156.34 76.7486C172.064 76.7486 184.81 64.0021 184.81 48.2786C184.81 32.555 172.064 19.8086 156.34 19.8086C140.617 19.8086 127.87 32.555 127.87 48.2786C127.87 64.0021 140.617 76.7486 156.34 76.7486Z" stroke="#566C77" stroke-width="2" stroke-miterlimit="10"/>
<path d="M136.783 46.125V41.995H135.159V41.225H139.317V41.995H137.693V46.125H136.783ZM140.66 42.933C140.912 42.541 141.367 42.345 141.99 42.345V43.178C141.913 43.164 141.85 43.157 141.787 43.157C141.122 43.157 140.702 43.549 140.702 44.312V46.125H139.827V42.387H140.66V42.933ZM144.14 42.345C145.218 42.345 145.841 42.856 145.841 43.934V46.125H145.015V45.67C144.805 45.992 144.399 46.174 143.839 46.174C142.985 46.174 142.446 45.705 142.446 45.054C142.446 44.431 142.866 43.941 144 43.941H144.966V43.885C144.966 43.374 144.658 43.073 144.035 43.073C143.615 43.073 143.181 43.213 142.901 43.444L142.558 42.807C142.957 42.499 143.538 42.345 144.14 42.345ZM144.021 45.537C144.448 45.537 144.819 45.341 144.966 44.956V44.522H144.063C143.468 44.522 143.307 44.746 143.307 45.019C143.307 45.334 143.573 45.537 144.021 45.537ZM149.085 42.345C149.981 42.345 150.646 42.856 150.646 43.983V46.125H149.771V44.095C149.771 43.43 149.442 43.108 148.882 43.108C148.259 43.108 147.839 43.486 147.839 44.235V46.125H146.964V42.387H147.797V42.87C148.084 42.527 148.539 42.345 149.085 42.345ZM152.911 46.174C152.288 46.174 151.665 45.992 151.329 45.754L151.665 45.089C151.994 45.306 152.498 45.46 152.967 45.46C153.52 45.46 153.751 45.306 153.751 45.047C153.751 44.333 151.441 45.005 151.441 43.514C151.441 42.807 152.078 42.345 153.086 42.345C153.583 42.345 154.15 42.464 154.486 42.667L154.15 43.332C153.793 43.122 153.436 43.052 153.079 43.052C152.547 43.052 152.295 43.227 152.295 43.472C152.295 44.228 154.605 43.556 154.605 45.019C154.605 45.719 153.961 46.174 152.911 46.174ZM156.786 42.345C157.864 42.345 158.487 42.856 158.487 43.934V46.125H157.661V45.67C157.451 45.992 157.045 46.174 156.485 46.174C155.631 46.174 155.092 45.705 155.092 45.054C155.092 44.431 155.512 43.941 156.646 43.941H157.612V43.885C157.612 43.374 157.304 43.073 156.681 43.073C156.261 43.073 155.827 43.213 155.547 43.444L155.204 42.807C155.603 42.499 156.184 42.345 156.786 42.345ZM156.667 45.537C157.094 45.537 157.465 45.341 157.612 44.956V44.522H156.709C156.114 44.522 155.953 44.746 155.953 45.019C155.953 45.334 156.219 45.537 156.667 45.537ZM161.359 46.174C160.176 46.174 159.336 45.376 159.336 44.256C159.336 43.136 160.176 42.345 161.359 42.345C162.087 42.345 162.668 42.646 162.955 43.213L162.283 43.605C162.059 43.248 161.723 43.087 161.352 43.087C160.708 43.087 160.218 43.535 160.218 44.256C160.218 44.984 160.708 45.425 161.352 45.425C161.723 45.425 162.059 45.264 162.283 44.907L162.955 45.299C162.668 45.859 162.087 46.174 161.359 46.174ZM165.762 45.299L166.007 45.922C165.797 46.09 165.482 46.174 165.167 46.174C164.348 46.174 163.879 45.74 163.879 44.914V43.115H163.263V42.415H163.879V41.561H164.754V42.415H165.755V43.115H164.754V44.893C164.754 45.257 164.936 45.453 165.272 45.453C165.454 45.453 165.629 45.404 165.762 45.299ZM167.167 41.771C166.845 41.771 166.607 41.54 166.607 41.246C166.607 40.952 166.845 40.721 167.167 40.721C167.489 40.721 167.727 40.938 167.727 41.225C167.727 41.533 167.496 41.771 167.167 41.771ZM166.726 46.125V42.387H167.601V46.125H166.726ZM170.43 46.174C169.282 46.174 168.442 45.376 168.442 44.256C168.442 43.136 169.282 42.345 170.43 42.345C171.592 42.345 172.425 43.136 172.425 44.256C172.425 45.376 171.592 46.174 170.43 46.174ZM170.43 45.425C171.067 45.425 171.543 44.97 171.543 44.256C171.543 43.542 171.067 43.087 170.43 43.087C169.8 43.087 169.324 43.542 169.324 44.256C169.324 44.97 169.8 45.425 170.43 45.425ZM175.383 42.345C176.279 42.345 176.944 42.856 176.944 43.983V46.125H176.069V44.095C176.069 43.43 175.74 43.108 175.18 43.108C174.557 43.108 174.137 43.486 174.137 44.235V46.125H173.262V42.387H174.095V42.87C174.382 42.527 174.837 42.345 175.383 42.345Z" fill="#231F20"/>
<path d="M148.025 54.5254H147.045L146.044 53.0904C145.981 53.0974 145.918 53.0974 145.855 53.0974H144.749V54.5254H143.839V49.6254H145.855C147.143 49.6254 147.941 50.2834 147.941 51.3684C147.941 52.1104 147.563 52.6564 146.898 52.9154L148.025 54.5254ZM147.024 51.3684C147.024 50.7524 146.611 50.3954 145.813 50.3954H144.749V52.3484H145.813C146.611 52.3484 147.024 51.9844 147.024 51.3684ZM152.389 52.6774C152.389 52.7474 152.382 52.8524 152.375 52.9364H149.442C149.547 53.4824 150.002 53.8324 150.653 53.8324C151.073 53.8324 151.402 53.6994 151.668 53.4264L152.137 53.9654C151.801 54.3644 151.276 54.5744 150.632 54.5744C149.379 54.5744 148.567 53.7694 148.567 52.6564C148.567 51.5434 149.386 50.7454 150.499 50.7454C151.591 50.7454 152.389 51.5084 152.389 52.6774ZM150.499 51.4454C149.932 51.4454 149.519 51.8094 149.435 52.3554H151.556C151.486 51.8164 151.073 51.4454 150.499 51.4454ZM155.821 50.7874H156.661L155.058 54.5254H154.155L152.552 50.7874H153.462L154.624 53.5594L155.821 50.7874ZM157.649 50.1714C157.327 50.1714 157.089 49.9404 157.089 49.6464C157.089 49.3524 157.327 49.1214 157.649 49.1214C157.971 49.1214 158.209 49.3384 158.209 49.6254C158.209 49.9334 157.978 50.1714 157.649 50.1714ZM157.208 54.5254V50.7874H158.083V54.5254H157.208ZM162.745 52.6774C162.745 52.7474 162.738 52.8524 162.731 52.9364H159.798C159.903 53.4824 160.358 53.8324 161.009 53.8324C161.429 53.8324 161.758 53.6994 162.024 53.4264L162.493 53.9654C162.157 54.3644 161.632 54.5744 160.988 54.5744C159.735 54.5744 158.923 53.7694 158.923 52.6564C158.923 51.5434 159.742 50.7454 160.855 50.7454C161.947 50.7454 162.745 51.5084 162.745 52.6774ZM160.855 51.4454C160.288 51.4454 159.875 51.8094 159.791 52.3554H161.912C161.842 51.8164 161.429 51.4454 160.855 51.4454ZM168.571 50.7874H169.348L167.969 54.5254H167.129L166.163 51.9494L165.183 54.5254H164.343L162.971 50.7874H163.797L164.784 53.5454L165.813 50.7874H166.548L167.556 53.5594L168.571 50.7874Z" fill="#231F20"/>
<path d="M243.21 139.858C258.934 139.858 271.68 127.112 271.68 111.388C271.68 95.6644 258.934 82.918 243.21 82.918C227.487 82.918 214.74 95.6644 214.74 111.388C214.74 127.112 227.487 139.858 243.21 139.858Z" stroke="#566C77" stroke-width="2" stroke-miterlimit="10"/>
<path d="M237.02 109.24H236.04L235.039 107.805C234.976 107.812 234.913 107.812 234.85 107.812H233.744V109.24H232.834V104.34H234.85C236.138 104.34 236.936 104.998 236.936 106.083C236.936 106.825 236.558 107.371 235.893 107.63L237.02 109.24ZM236.019 106.083C236.019 105.467 235.606 105.11 234.808 105.11H233.744V107.063H234.808C235.606 107.063 236.019 106.699 236.019 106.083ZM238.311 104.886C237.989 104.886 237.751 104.655 237.751 104.361C237.751 104.067 237.989 103.836 238.311 103.836C238.633 103.836 238.871 104.053 238.871 104.34C238.871 104.648 238.64 104.886 238.311 104.886ZM237.87 109.24V105.502H238.745V109.24H237.87ZM241.049 109.289C240.426 109.289 239.803 109.107 239.467 108.869L239.803 108.204C240.132 108.421 240.636 108.575 241.105 108.575C241.658 108.575 241.889 108.421 241.889 108.162C241.889 107.448 239.579 108.12 239.579 106.629C239.579 105.922 240.216 105.46 241.224 105.46C241.721 105.46 242.288 105.579 242.624 105.782L242.288 106.447C241.931 106.237 241.574 106.167 241.217 106.167C240.685 106.167 240.433 106.342 240.433 106.587C240.433 107.343 242.743 106.671 242.743 108.134C242.743 108.834 242.099 109.289 241.049 109.289ZM246.317 109.24L245.022 107.637L244.371 108.253V109.24H243.496V104.046H244.371V107.182L246.184 105.502H247.234L245.673 107.07L247.381 109.24H246.317ZM254.123 108.75L253.64 109.317L253.024 108.722C252.583 109.1 252.023 109.31 251.379 109.31C250.343 109.31 249.594 108.771 249.594 108.001C249.594 107.392 249.93 106.965 250.728 106.517C250.329 106.118 250.182 105.796 250.182 105.439C250.182 104.753 250.742 104.284 251.603 104.284C252.394 104.284 252.912 104.697 252.912 105.362C252.912 105.866 252.618 106.23 251.911 106.629L252.968 107.637C253.087 107.406 253.178 107.126 253.241 106.811L253.948 107.042C253.857 107.469 253.71 107.847 253.507 108.162L254.123 108.75ZM251.603 104.907C251.211 104.907 250.98 105.124 250.98 105.425C250.98 105.642 251.071 105.803 251.421 106.153C251.988 105.845 252.17 105.642 252.17 105.376C252.17 105.096 251.967 104.907 251.603 104.907ZM251.442 108.596C251.848 108.596 252.205 108.47 252.506 108.225L251.211 106.986C250.644 107.301 250.448 107.56 250.448 107.91C250.448 108.316 250.84 108.596 251.442 108.596Z" fill="#231F20"/>
<path d="M232.712 117.711C231.214 117.711 230.094 116.654 230.094 115.191C230.094 113.728 231.214 112.671 232.719 112.671C233.517 112.671 234.203 112.958 234.658 113.49L234.07 114.043C233.713 113.658 233.272 113.469 232.761 113.469C231.746 113.469 231.011 114.183 231.011 115.191C231.011 116.199 231.746 116.913 232.761 116.913C233.272 116.913 233.713 116.724 234.07 116.332L234.658 116.892C234.203 117.424 233.517 117.711 232.712 117.711ZM236.989 117.69C235.841 117.69 235.001 116.892 235.001 115.772C235.001 114.652 235.841 113.861 236.989 113.861C238.151 113.861 238.984 114.652 238.984 115.772C238.984 116.892 238.151 117.69 236.989 117.69ZM236.989 116.941C237.626 116.941 238.102 116.486 238.102 115.772C238.102 115.058 237.626 114.603 236.989 114.603C236.359 114.603 235.883 115.058 235.883 115.772C235.883 116.486 236.359 116.941 236.989 116.941ZM241.942 113.861C242.838 113.861 243.503 114.372 243.503 115.499V117.641H242.628V115.611C242.628 114.946 242.299 114.624 241.739 114.624C241.116 114.624 240.696 115.002 240.696 115.751V117.641H239.821V113.903H240.654V114.386C240.941 114.043 241.396 113.861 241.942 113.861ZM246.615 116.815L246.86 117.438C246.65 117.606 246.335 117.69 246.02 117.69C245.201 117.69 244.732 117.256 244.732 116.43V114.631H244.116V113.931H244.732V113.077H245.607V113.931H246.608V114.631H245.607V116.409C245.607 116.773 245.789 116.969 246.125 116.969C246.307 116.969 246.482 116.92 246.615 116.815ZM248.413 114.449C248.665 114.057 249.12 113.861 249.743 113.861V114.694C249.666 114.68 249.603 114.673 249.54 114.673C248.875 114.673 248.455 115.065 248.455 115.828V117.641H247.58V113.903H248.413V114.449ZM252.131 117.69C250.983 117.69 250.143 116.892 250.143 115.772C250.143 114.652 250.983 113.861 252.131 113.861C253.293 113.861 254.126 114.652 254.126 115.772C254.126 116.892 253.293 117.69 252.131 117.69ZM252.131 116.941C252.768 116.941 253.244 116.486 253.244 115.772C253.244 115.058 252.768 114.603 252.131 114.603C251.501 114.603 251.025 115.058 251.025 115.772C251.025 116.486 251.501 116.941 252.131 116.941ZM254.963 117.641V112.447H255.838V117.641H254.963Z" fill="#231F20"/>
<path d="M210.03 241.987C225.754 241.987 238.5 229.24 238.5 213.517C238.5 197.793 225.754 185.047 210.03 185.047C194.307 185.047 181.56 197.793 181.56 213.517C181.56 229.24 194.307 241.987 210.03 241.987Z" stroke="#566C77" stroke-width="2" stroke-miterlimit="10"/>
<path d="M198.119 208.815C198.644 208.983 199.001 209.396 199.001 210.033C199.001 210.873 198.343 211.363 197.083 211.363H194.647V206.463H196.943C198.119 206.463 198.749 206.96 198.749 207.737C198.749 208.241 198.497 208.612 198.119 208.815ZM196.845 207.177H195.557V208.528H196.845C197.475 208.528 197.832 208.304 197.832 207.856C197.832 207.401 197.475 207.177 196.845 207.177ZM197.027 210.649C197.713 210.649 198.084 210.432 198.084 209.942C198.084 209.452 197.713 209.235 197.027 209.235H195.557V210.649H197.027ZM202.632 207.625H203.507V211.363H202.674V210.887C202.394 211.23 201.953 211.412 201.47 211.412C200.511 211.412 199.86 210.887 199.86 209.76V207.625H200.735V209.641C200.735 210.32 201.057 210.642 201.61 210.642C202.219 210.642 202.632 210.264 202.632 209.515V207.625ZM205.808 211.412C205.185 211.412 204.562 211.23 204.226 210.992L204.562 210.327C204.891 210.544 205.395 210.698 205.864 210.698C206.417 210.698 206.648 210.544 206.648 210.285C206.648 209.571 204.338 210.243 204.338 208.752C204.338 208.045 204.975 207.583 205.983 207.583C206.48 207.583 207.047 207.702 207.383 207.905L207.047 208.57C206.69 208.36 206.333 208.29 205.976 208.29C205.444 208.29 205.192 208.465 205.192 208.71C205.192 209.466 207.502 208.794 207.502 210.257C207.502 210.957 206.858 211.412 205.808 211.412ZM208.697 207.009C208.375 207.009 208.137 206.778 208.137 206.484C208.137 206.19 208.375 205.959 208.697 205.959C209.019 205.959 209.257 206.176 209.257 206.463C209.257 206.771 209.026 207.009 208.697 207.009ZM208.256 211.363V207.625H209.131V211.363H208.256ZM212.4 207.583C213.296 207.583 213.961 208.094 213.961 209.221V211.363H213.086V209.333C213.086 208.668 212.757 208.346 212.197 208.346C211.574 208.346 211.154 208.724 211.154 209.473V211.363H210.279V207.625H211.112V208.108C211.399 207.765 211.854 207.583 212.4 207.583ZM218.619 209.515C218.619 209.585 218.612 209.69 218.605 209.774H215.672C215.777 210.32 216.232 210.67 216.883 210.67C217.303 210.67 217.632 210.537 217.898 210.264L218.367 210.803C218.031 211.202 217.506 211.412 216.862 211.412C215.609 211.412 214.797 210.607 214.797 209.494C214.797 208.381 215.616 207.583 216.729 207.583C217.821 207.583 218.619 208.346 218.619 209.515ZM216.729 208.283C216.162 208.283 215.749 208.647 215.665 209.193H217.786C217.716 208.654 217.303 208.283 216.729 208.283ZM220.615 211.412C219.992 211.412 219.369 211.23 219.033 210.992L219.369 210.327C219.698 210.544 220.202 210.698 220.671 210.698C221.224 210.698 221.455 210.544 221.455 210.285C221.455 209.571 219.145 210.243 219.145 208.752C219.145 208.045 219.782 207.583 220.79 207.583C221.287 207.583 221.854 207.702 222.19 207.905L221.854 208.57C221.497 208.36 221.14 208.29 220.783 208.29C220.251 208.29 219.999 208.465 219.999 208.71C219.999 209.466 222.309 208.794 222.309 210.257C222.309 210.957 221.665 211.412 220.615 211.412ZM224.217 211.412C223.594 211.412 222.971 211.23 222.635 210.992L222.971 210.327C223.3 210.544 223.804 210.698 224.273 210.698C224.826 210.698 225.057 210.544 225.057 210.285C225.057 209.571 222.747 210.243 222.747 208.752C222.747 208.045 223.384 207.583 224.392 207.583C224.889 207.583 225.456 207.702 225.792 207.905L225.456 208.57C225.099 208.36 224.742 208.29 224.385 208.29C223.853 208.29 223.601 208.465 223.601 208.71C223.601 209.466 225.911 208.794 225.911 210.257C225.911 210.957 225.267 211.412 224.217 211.412Z" fill="#231F20"/>
<path d="M189.267 219.764V214.864H190.177V219.764H189.267ZM193.54 215.984C194.436 215.984 195.101 216.495 195.101 217.622V219.764H194.226V217.734C194.226 217.069 193.897 216.747 193.337 216.747C192.714 216.747 192.294 217.125 192.294 217.874V219.764H191.419V216.026H192.252V216.509C192.539 216.166 192.994 215.984 193.54 215.984ZM198.213 218.938L198.458 219.561C198.248 219.729 197.933 219.813 197.618 219.813C196.799 219.813 196.33 219.379 196.33 218.553V216.754H195.714V216.054H196.33V215.2H197.205V216.054H198.206V216.754H197.205V218.532C197.205 218.896 197.387 219.092 197.723 219.092C197.905 219.092 198.08 219.043 198.213 218.938ZM202.568 217.916C202.568 217.986 202.561 218.091 202.554 218.175H199.621C199.726 218.721 200.181 219.071 200.832 219.071C201.252 219.071 201.581 218.938 201.847 218.665L202.316 219.204C201.98 219.603 201.455 219.813 200.811 219.813C199.558 219.813 198.746 219.008 198.746 217.895C198.746 216.782 199.565 215.984 200.678 215.984C201.77 215.984 202.568 216.747 202.568 217.916ZM200.678 216.684C200.111 216.684 199.698 217.048 199.614 217.594H201.735C201.665 217.055 201.252 216.684 200.678 216.684ZM203.409 219.764V214.57H204.284V219.764H203.409ZM205.432 219.764V214.57H206.307V219.764H205.432ZM207.897 215.41C207.575 215.41 207.337 215.179 207.337 214.885C207.337 214.591 207.575 214.36 207.897 214.36C208.219 214.36 208.457 214.577 208.457 214.864C208.457 215.172 208.226 215.41 207.897 215.41ZM207.456 219.764V216.026H208.331V219.764H207.456ZM212.356 216.026H213.189V219.197C213.189 220.555 212.482 221.171 211.173 221.171C210.473 221.171 209.78 220.989 209.353 220.639L209.745 219.981C210.074 220.254 210.606 220.429 211.124 220.429C211.95 220.429 212.314 220.051 212.314 219.295V219.099C212.006 219.435 211.565 219.596 211.061 219.596C209.99 219.596 209.171 218.868 209.171 217.783C209.171 216.698 209.99 215.984 211.061 215.984C211.586 215.984 212.048 216.152 212.356 216.523V216.026ZM211.194 218.854C211.852 218.854 212.328 218.42 212.328 217.783C212.328 217.153 211.852 216.726 211.194 216.726C210.529 216.726 210.053 217.153 210.053 217.783C210.053 218.42 210.529 218.854 211.194 218.854ZM217.854 217.916C217.854 217.986 217.847 218.091 217.84 218.175H214.907C215.012 218.721 215.467 219.071 216.118 219.071C216.538 219.071 216.867 218.938 217.133 218.665L217.602 219.204C217.266 219.603 216.741 219.813 216.097 219.813C214.844 219.813 214.032 219.008 214.032 217.895C214.032 216.782 214.851 215.984 215.964 215.984C217.056 215.984 217.854 216.747 217.854 217.916ZM215.964 216.684C215.397 216.684 214.984 217.048 214.9 217.594H217.021C216.951 217.055 216.538 216.684 215.964 216.684ZM220.815 215.984C221.711 215.984 222.376 216.495 222.376 217.622V219.764H221.501V217.734C221.501 217.069 221.172 216.747 220.612 216.747C219.989 216.747 219.569 217.125 219.569 217.874V219.764H218.694V216.026H219.527V216.509C219.814 216.166 220.269 215.984 220.815 215.984ZM225.235 219.813C224.052 219.813 223.212 219.015 223.212 217.895C223.212 216.775 224.052 215.984 225.235 215.984C225.963 215.984 226.544 216.285 226.831 216.852L226.159 217.244C225.935 216.887 225.599 216.726 225.228 216.726C224.584 216.726 224.094 217.174 224.094 217.895C224.094 218.623 224.584 219.064 225.228 219.064C225.599 219.064 225.935 218.903 226.159 218.546L226.831 218.938C226.544 219.498 225.963 219.813 225.235 219.813ZM231.047 217.916C231.047 217.986 231.04 218.091 231.033 218.175H228.1C228.205 218.721 228.66 219.071 229.311 219.071C229.731 219.071 230.06 218.938 230.326 218.665L230.795 219.204C230.459 219.603 229.934 219.813 229.29 219.813C228.037 219.813 227.225 219.008 227.225 217.895C227.225 216.782 228.044 215.984 229.157 215.984C230.249 215.984 231.047 216.747 231.047 217.916ZM229.157 216.684C228.59 216.684 228.177 217.048 228.093 217.594H230.214C230.144 217.055 229.731 216.684 229.157 216.684Z" fill="#231F20"/>
<path d="M102.65 241.987C118.373 241.987 131.12 229.24 131.12 213.517C131.12 197.793 118.373 185.047 102.65 185.047C86.9261 185.047 74.1797 197.793 74.1797 213.517C74.1797 229.24 86.9261 241.987 102.65 241.987Z" stroke="#566C77" stroke-width="2" stroke-miterlimit="10"/>
<path d="M99.3152 215.562L97.5862 213.511L96.8092 214.309V215.562H95.8992V210.662H96.8092V213.175L99.2312 210.662H100.253L98.1952 212.853L100.379 215.562H99.3152ZM104.682 210.662L102.764 213.833V215.562H101.854V213.847L99.9292 210.662H100.902L102.337 213.049L103.786 210.662H104.682ZM107.334 215.633C105.836 215.633 104.716 214.575 104.716 213.112C104.716 211.649 105.836 210.592 107.341 210.592C108.139 210.592 108.825 210.879 109.28 211.411L108.692 211.965C108.335 211.579 107.894 211.39 107.383 211.39C106.368 211.39 105.633 212.104 105.633 213.112C105.633 214.12 106.368 214.834 107.383 214.834C107.894 214.834 108.335 214.645 108.692 214.253L109.28 214.813C108.825 215.345 108.139 215.633 107.334 215.633Z" fill="#231F20"/>
<path d="M69.47 139.858C85.1936 139.858 97.94 127.112 97.94 111.388C97.94 95.6644 85.1936 82.918 69.47 82.918C53.7465 82.918 41 95.6644 41 111.388C41 127.112 53.7465 139.858 69.47 139.858Z" stroke="#566C77" stroke-width="2" stroke-miterlimit="10"/>
<path d="M56.0226 108.477H58.7876V109.24H55.1126V104.34H58.6896V105.103H56.0226V106.377H58.3886V107.126H56.0226V108.477ZM63.0167 109.24H62.0297L61.0707 107.945L60.1047 109.24H59.1387L60.5947 107.343L59.2017 105.502H60.1747L61.0917 106.727L62.0087 105.502H62.9537L61.5537 107.329L63.0167 109.24ZM65.6644 108.414L65.9094 109.037C65.6994 109.205 65.3844 109.289 65.0694 109.289C64.2504 109.289 63.7814 108.855 63.7814 108.029V106.23H63.1654V105.53H63.7814V104.676H64.6564V105.53H65.6574V106.23H64.6564V108.008C64.6564 108.372 64.8384 108.568 65.1744 108.568C65.3564 108.568 65.5314 108.519 65.6644 108.414ZM70.0201 107.392C70.0201 107.462 70.0131 107.567 70.0061 107.651H67.0731C67.1781 108.197 67.6331 108.547 68.2841 108.547C68.7041 108.547 69.0331 108.414 69.2991 108.141L69.7681 108.68C69.4321 109.079 68.9071 109.289 68.2631 109.289C67.0101 109.289 66.1981 108.484 66.1981 107.371C66.1981 106.258 67.0171 105.46 68.1301 105.46C69.2221 105.46 70.0201 106.223 70.0201 107.392ZM68.1301 106.16C67.5631 106.16 67.1501 106.524 67.0661 107.07H69.1871C69.1171 106.531 68.7041 106.16 68.1301 106.16ZM71.6936 106.048C71.9456 105.656 72.4006 105.46 73.0236 105.46V106.293C72.9466 106.279 72.8836 106.272 72.8206 106.272C72.1556 106.272 71.7356 106.664 71.7356 107.427V109.24H70.8606V105.502H71.6936V106.048ZM75.8869 105.46C76.7829 105.46 77.4479 105.971 77.4479 107.098V109.24H76.5729V107.21C76.5729 106.545 76.2439 106.223 75.6839 106.223C75.0609 106.223 74.6409 106.601 74.6409 107.35V109.24H73.7659V105.502H74.5989V105.985C74.8859 105.642 75.3409 105.46 75.8869 105.46ZM79.9859 105.46C81.0639 105.46 81.6869 105.971 81.6869 107.049V109.24H80.8609V108.785C80.6509 109.107 80.2449 109.289 79.6849 109.289C78.8309 109.289 78.2919 108.82 78.2919 108.169C78.2919 107.546 78.7119 107.056 79.8459 107.056H80.8119V107C80.8119 106.489 80.5039 106.188 79.8809 106.188C79.4609 106.188 79.0269 106.328 78.7469 106.559L78.4039 105.922C78.8029 105.614 79.3839 105.46 79.9859 105.46ZM79.8669 108.652C80.2939 108.652 80.6649 108.456 80.8119 108.071V107.637H79.9089C79.3139 107.637 79.1529 107.861 79.1529 108.134C79.1529 108.449 79.4189 108.652 79.8669 108.652ZM82.8098 109.24V104.046H83.6848V109.24H82.8098Z" fill="#231F20"/>
<path d="M51.5705 117.711C50.0725 117.711 48.9525 116.654 48.9525 115.191C48.9525 113.728 50.0725 112.671 51.5775 112.671C52.3755 112.671 53.0615 112.958 53.5165 113.49L52.9285 114.043C52.5715 113.658 52.1305 113.469 51.6195 113.469C50.6045 113.469 49.8695 114.183 49.8695 115.191C49.8695 116.199 50.6045 116.913 51.6195 116.913C52.1305 116.913 52.5715 116.724 52.9285 116.332L53.5165 116.892C53.0615 117.424 52.3755 117.711 51.5705 117.711ZM55.8478 117.69C54.6998 117.69 53.8598 116.892 53.8598 115.772C53.8598 114.652 54.6998 113.861 55.8478 113.861C57.0098 113.861 57.8428 114.652 57.8428 115.772C57.8428 116.892 57.0098 117.69 55.8478 117.69ZM55.8478 116.941C56.4848 116.941 56.9608 116.486 56.9608 115.772C56.9608 115.058 56.4848 114.603 55.8478 114.603C55.2178 114.603 54.7418 115.058 54.7418 115.772C54.7418 116.486 55.2178 116.941 55.8478 116.941ZM60.8005 113.861C61.6965 113.861 62.3615 114.372 62.3615 115.499V117.641H61.4865V115.611C61.4865 114.946 61.1575 114.624 60.5975 114.624C59.9745 114.624 59.5545 115.002 59.5545 115.751V117.641H58.6795V113.903H59.5125V114.386C59.7995 114.043 60.2545 113.861 60.8005 113.861ZM65.5925 113.861C66.4885 113.861 67.1535 114.372 67.1535 115.499V117.641H66.2785V115.611C66.2785 114.946 65.9495 114.624 65.3895 114.624C64.7665 114.624 64.3465 115.002 64.3465 115.751V117.641H63.4715V113.903H64.3045V114.386C64.5915 114.043 65.0465 113.861 65.5925 113.861ZM71.8116 115.793C71.8116 115.863 71.8046 115.968 71.7976 116.052H68.8646C68.9696 116.598 69.4246 116.948 70.0756 116.948C70.4956 116.948 70.8246 116.815 71.0906 116.542L71.5596 117.081C71.2236 117.48 70.6986 117.69 70.0546 117.69C68.8016 117.69 67.9896 116.885 67.9896 115.772C67.9896 114.659 68.8086 113.861 69.9216 113.861C71.0136 113.861 71.8116 114.624 71.8116 115.793ZM69.9216 114.561C69.3546 114.561 68.9416 114.925 68.8576 115.471H70.9786C70.9086 114.932 70.4956 114.561 69.9216 114.561ZM74.3671 117.69C73.1841 117.69 72.3441 116.892 72.3441 115.772C72.3441 114.652 73.1841 113.861 74.3671 113.861C75.0951 113.861 75.6761 114.162 75.9631 114.729L75.2911 115.121C75.0671 114.764 74.7311 114.603 74.3601 114.603C73.7161 114.603 73.2261 115.051 73.2261 115.772C73.2261 116.5 73.7161 116.941 74.3601 116.941C74.7311 116.941 75.0671 116.78 75.2911 116.423L75.9631 116.815C75.6761 117.375 75.0951 117.69 74.3671 117.69ZM78.7694 116.815L79.0144 117.438C78.8044 117.606 78.4894 117.69 78.1744 117.69C77.3554 117.69 76.8864 117.256 76.8864 116.43V114.631H76.2704V113.931H76.8864V113.077H77.7614V113.931H78.7624V114.631H77.7614V116.409C77.7614 116.773 77.9434 116.969 78.2794 116.969C78.4614 116.969 78.6364 116.92 78.7694 116.815ZM81.2911 117.69C80.1431 117.69 79.3031 116.892 79.3031 115.772C79.3031 114.652 80.1431 113.861 81.2911 113.861C82.4531 113.861 83.2861 114.652 83.2861 115.772C83.2861 116.892 82.4531 117.69 81.2911 117.69ZM81.2911 116.941C81.9281 116.941 82.4041 116.486 82.4041 115.772C82.4041 115.058 81.9281 114.603 81.2911 114.603C80.6611 114.603 80.1851 115.058 80.1851 115.772C80.1851 116.486 80.6611 116.941 81.2911 116.941ZM84.9558 114.449C85.2078 114.057 85.6628 113.861 86.2858 113.861V114.694C86.2088 114.68 86.1458 114.673 86.0828 114.673C85.4178 114.673 84.9978 115.065 84.9978 115.828V117.641H84.1228V113.903H84.9558V114.449ZM88.1968 117.69C87.5738 117.69 86.9508 117.508 86.6148 117.27L86.9508 116.605C87.2798 116.822 87.7838 116.976 88.2528 116.976C88.8058 116.976 89.0368 116.822 89.0368 116.563C89.0368 115.849 86.7268 116.521 86.7268 115.03C86.7268 114.323 87.3638 113.861 88.3718 113.861C88.8688 113.861 89.4358 113.98 89.7718 114.183L89.4358 114.848C89.0788 114.638 88.7218 114.568 88.3648 114.568C87.8328 114.568 87.5808 114.743 87.5808 114.988C87.5808 115.744 89.8908 115.072 89.8908 116.535C89.8908 117.235 89.2468 117.69 88.1968 117.69Z" fill="#231F20"/>
<path d="M152.51 91.4573H147.91L156.34 83.0273L164.77 91.4573H160.17V101.417H152.51V91.4573Z" fill="#6C808D"/>
<path d="M109.69 128.107L108.27 132.477L102.86 121.857L113.48 116.447L112.06 120.817L121.53 123.897L119.16 131.187L109.69 128.107Z" fill="#6C808D"/>
<path d="M131.31 180.156L135.03 182.856L123.26 184.716L121.4 172.946L125.12 175.646L130.97 167.586L137.17 172.086L131.31 180.156Z" fill="#6C808D"/>
<path d="M187.5 175.677L191.22 172.977L189.36 184.747L177.59 182.887L181.31 180.187L175.46 172.127L181.66 167.627L187.5 175.677Z" fill="#6C808D"/>
<path d="M200.6 120.858L199.18 116.488L209.8 121.898L204.39 132.518L202.97 128.148L193.5 131.228L191.13 123.938L200.6 120.858Z" fill="#6C808D"/>
<path d="M156.34 171.527C173.963 171.527 188.25 157.24 188.25 139.617C188.25 121.994 173.963 107.707 156.34 107.707C138.716 107.707 124.43 121.994 124.43 139.617C124.43 157.24 138.716 171.527 156.34 171.527Z" fill="#566C77"/>
<path d="M132.253 143.129V134.729H133.813V141.809H138.205V143.129H132.253ZM140.997 141.821H145.737V143.129H139.437V134.729H145.569V136.037H140.997V138.221H145.053V139.505H140.997V141.821ZM147.476 143.129V134.729H151.148C153.872 134.729 155.732 136.409 155.732 138.929C155.732 141.449 153.872 143.129 151.148 143.129H147.476ZM149.036 141.809H151.076C152.948 141.809 154.16 140.669 154.16 138.929C154.16 137.189 152.948 136.049 151.076 136.049H149.036V141.809ZM163.126 141.449V138.833H164.602V142.181C163.726 142.889 162.502 143.249 161.314 143.249C158.71 143.249 156.79 141.437 156.79 138.929C156.79 136.421 158.71 134.609 161.338 134.609C162.742 134.609 163.918 135.077 164.71 135.977L163.726 136.937C163.066 136.277 162.31 135.977 161.41 135.977C159.622 135.977 158.362 137.189 158.362 138.929C158.362 140.633 159.622 141.881 161.398 141.881C161.998 141.881 162.586 141.761 163.126 141.449ZM168.22 141.821H172.96V143.129H166.66V134.729H172.792V136.037H168.22V138.221H172.276V139.505H168.22V141.821ZM181.875 143.129H180.195L178.479 140.669C178.371 140.681 178.263 140.681 178.155 140.681H176.259V143.129H174.699V134.729H178.155C180.363 134.729 181.731 135.857 181.731 137.717C181.731 138.989 181.083 139.925 179.943 140.369L181.875 143.129ZM180.159 137.717C180.159 136.661 179.451 136.049 178.083 136.049H176.259V139.397H178.083C179.451 139.397 180.159 138.773 180.159 137.717Z" fill="white"/>
<path d="M78.118 22.4473V17.5473H80.26C81.849 17.5473 82.934 18.5273 82.934 19.9973C82.934 21.4673 81.849 22.4473 80.26 22.4473H78.118ZM79.028 21.6773H80.218C81.31 21.6773 82.017 21.0123 82.017 19.9973C82.017 18.9823 81.31 18.3173 80.218 18.3173H79.028V21.6773ZM85.2452 18.6673C86.3232 18.6673 86.9462 19.1783 86.9462 20.2563V22.4473H86.1202V21.9923C85.9102 22.3143 85.5042 22.4963 84.9442 22.4963C84.0902 22.4963 83.5512 22.0273 83.5512 21.3763C83.5512 20.7533 83.9712 20.2633 85.1052 20.2633H86.0712V20.2073C86.0712 19.6963 85.7632 19.3953 85.1402 19.3953C84.7202 19.3953 84.2862 19.5353 84.0062 19.7663L83.6632 19.1293C84.0622 18.8213 84.6432 18.6673 85.2452 18.6673ZM85.1262 21.8593C85.5532 21.8593 85.9242 21.6633 86.0712 21.2783V20.8443H85.1682C84.5732 20.8443 84.4122 21.0683 84.4122 21.3413C84.4122 21.6563 84.6782 21.8593 85.1262 21.8593ZM90.0711 21.6213L90.3161 22.2443C90.1061 22.4123 89.7911 22.4963 89.4761 22.4963C88.6571 22.4963 88.1881 22.0623 88.1881 21.2363V19.4373H87.5721V18.7373H88.1881V17.8833H89.0631V18.7373H90.0641V19.4373H89.0631V21.2153C89.0631 21.5793 89.2451 21.7753 89.5811 21.7753C89.7631 21.7753 89.9381 21.7263 90.0711 21.6213ZM92.4639 18.6673C93.5419 18.6673 94.1649 19.1783 94.1649 20.2563V22.4473H93.3389V21.9923C93.1289 22.3143 92.7229 22.4963 92.1629 22.4963C91.3089 22.4963 90.7699 22.0273 90.7699 21.3763C90.7699 20.7533 91.1899 20.2633 92.3239 20.2633H93.2899V20.2073C93.2899 19.6963 92.9819 19.3953 92.3589 19.3953C91.9389 19.3953 91.5049 19.5353 91.2249 19.7663L90.8819 19.1293C91.2809 18.8213 91.8619 18.6673 92.4639 18.6673ZM92.3449 21.8593C92.7719 21.8593 93.1429 21.6633 93.2899 21.2783V20.8443H92.3869C91.7919 20.8443 91.6309 21.0683 91.6309 21.3413C91.6309 21.6563 91.8969 21.8593 92.3449 21.8593Z" fill="#231F20"/>
<path d="M72.3279 30.8477V25.9477H73.2379V30.0777H75.7999V30.8477H72.3279ZM76.8754 26.4937C76.5534 26.4937 76.3154 26.2627 76.3154 25.9687C76.3154 25.6747 76.5534 25.4437 76.8754 25.4437C77.1974 25.4437 77.4354 25.6607 77.4354 25.9477C77.4354 26.2557 77.2044 26.4937 76.8754 26.4937ZM76.4344 30.8477V27.1097H77.3094V30.8477H76.4344ZM80.5788 27.0677C81.4748 27.0677 82.1398 27.5787 82.1398 28.7057V30.8477H81.2648V28.8177C81.2648 28.1527 80.9358 27.8307 80.3758 27.8307C79.7528 27.8307 79.3328 28.2087 79.3328 28.9577V30.8477H78.4578V27.1097H79.2908V27.5927C79.5778 27.2497 80.0328 27.0677 80.5788 27.0677ZM86.798 28.9997C86.798 29.0697 86.791 29.1747 86.784 29.2587H83.851C83.956 29.8047 84.411 30.1547 85.062 30.1547C85.482 30.1547 85.811 30.0217 86.077 29.7487L86.546 30.2877C86.21 30.6867 85.685 30.8967 85.041 30.8967C83.788 30.8967 82.976 30.0917 82.976 28.9787C82.976 27.8657 83.795 27.0677 84.908 27.0677C86 27.0677 86.798 27.8307 86.798 28.9997ZM84.908 27.7677C84.341 27.7677 83.928 28.1317 83.844 28.6777H85.965C85.895 28.1387 85.482 27.7677 84.908 27.7677ZM88.9639 27.0677C90.0419 27.0677 90.6649 27.5787 90.6649 28.6567V30.8477H89.8389V30.3927C89.6289 30.7147 89.2229 30.8967 88.6629 30.8967C87.8089 30.8967 87.2699 30.4277 87.2699 29.7767C87.2699 29.1537 87.6899 28.6637 88.8239 28.6637H89.7899V28.6077C89.7899 28.0967 89.4819 27.7957 88.8589 27.7957C88.4389 27.7957 88.0049 27.9357 87.7249 28.1667L87.3819 27.5297C87.7809 27.2217 88.3619 27.0677 88.9639 27.0677ZM88.8449 30.2597C89.2719 30.2597 89.6429 30.0637 89.7899 29.6787V29.2447H88.8869C88.2919 29.2447 88.1309 29.4687 88.1309 29.7417C88.1309 30.0567 88.3969 30.2597 88.8449 30.2597ZM94.699 27.1097H95.532V30.2807C95.532 31.6387 94.825 32.2547 93.516 32.2547C92.816 32.2547 92.123 32.0727 91.696 31.7227L92.088 31.0647C92.417 31.3377 92.949 31.5127 93.467 31.5127C94.293 31.5127 94.657 31.1347 94.657 30.3787V30.1827C94.349 30.5187 93.908 30.6797 93.404 30.6797C92.333 30.6797 91.514 29.9517 91.514 28.8667C91.514 27.7817 92.333 27.0677 93.404 27.0677C93.929 27.0677 94.391 27.2357 94.699 27.6067V27.1097ZM93.537 29.9377C94.195 29.9377 94.671 29.5037 94.671 28.8667C94.671 28.2367 94.195 27.8097 93.537 27.8097C92.872 27.8097 92.396 28.2367 92.396 28.8667C92.396 29.5037 92.872 29.9377 93.537 29.9377ZM100.196 28.9997C100.196 29.0697 100.189 29.1747 100.182 29.2587H97.2494C97.3544 29.8047 97.8094 30.1547 98.4604 30.1547C98.8804 30.1547 99.2094 30.0217 99.4754 29.7487L99.9444 30.2877C99.6084 30.6867 99.0834 30.8967 98.4394 30.8967C97.1864 30.8967 96.3744 30.0917 96.3744 28.9787C96.3744 27.8657 97.1934 27.0677 98.3064 27.0677C99.3984 27.0677 100.196 27.8307 100.196 28.9997ZM98.3064 27.7677C97.7394 27.7677 97.3264 28.1317 97.2424 28.6777H99.3634C99.2934 28.1387 98.8804 27.7677 98.3064 27.7677Z" fill="#231F20"/>
<path d="M211.225 25.5352V20.6352H213.367C214.956 20.6352 216.041 21.6152 216.041 23.0852C216.041 24.5552 214.956 25.5352 213.367 25.5352H211.225ZM212.135 24.7652H213.325C214.417 24.7652 215.124 24.1002 215.124 23.0852C215.124 22.0702 214.417 21.4052 213.325 21.4052H212.135V24.7652ZM217.366 21.1812C217.044 21.1812 216.806 20.9502 216.806 20.6562C216.806 20.3622 217.044 20.1312 217.366 20.1312C217.688 20.1312 217.926 20.3482 217.926 20.6352C217.926 20.9432 217.695 21.1812 217.366 21.1812ZM216.925 25.5352V21.7972H217.8V25.5352H216.925ZM221.825 21.7972H222.658V24.9682C222.658 26.3262 221.951 26.9422 220.642 26.9422C219.942 26.9422 219.249 26.7602 218.822 26.4102L219.214 25.7522C219.543 26.0252 220.075 26.2002 220.593 26.2002C221.419 26.2002 221.783 25.8222 221.783 25.0662V24.8702C221.475 25.2062 221.034 25.3672 220.53 25.3672C219.459 25.3672 218.64 24.6392 218.64 23.5542C218.64 22.4692 219.459 21.7552 220.53 21.7552C221.055 21.7552 221.517 21.9232 221.825 22.2942V21.7972ZM220.663 24.6252C221.321 24.6252 221.797 24.1912 221.797 23.5542C221.797 22.9242 221.321 22.4972 220.663 22.4972C219.998 22.4972 219.522 22.9242 219.522 23.5542C219.522 24.1912 219.998 24.6252 220.663 24.6252ZM224.249 21.1812C223.927 21.1812 223.689 20.9502 223.689 20.6562C223.689 20.3622 223.927 20.1312 224.249 20.1312C224.571 20.1312 224.809 20.3482 224.809 20.6352C224.809 20.9432 224.578 21.1812 224.249 21.1812ZM223.808 25.5352V21.7972H224.683V25.5352H223.808ZM227.834 24.7092L228.079 25.3322C227.869 25.5002 227.554 25.5842 227.239 25.5842C226.42 25.5842 225.951 25.1502 225.951 24.3242V22.5252H225.335V21.8252H225.951V20.9712H226.826V21.8252H227.827V22.5252H226.826V24.3032C226.826 24.6672 227.008 24.8632 227.344 24.8632C227.526 24.8632 227.701 24.8142 227.834 24.7092ZM230.227 21.7552C231.305 21.7552 231.928 22.2662 231.928 23.3442V25.5352H231.102V25.0802C230.892 25.4022 230.486 25.5842 229.926 25.5842C229.072 25.5842 228.533 25.1152 228.533 24.4642C228.533 23.8412 228.953 23.3512 230.087 23.3512H231.053V23.2952C231.053 22.7842 230.745 22.4832 230.122 22.4832C229.702 22.4832 229.268 22.6232 228.988 22.8542L228.645 22.2172C229.044 21.9092 229.625 21.7552 230.227 21.7552ZM230.108 24.9472C230.535 24.9472 230.906 24.7512 231.053 24.3662V23.9322H230.15C229.555 23.9322 229.394 24.1562 229.394 24.4292C229.394 24.7442 229.66 24.9472 230.108 24.9472ZM233.051 25.5352V20.3412H233.926V25.5352H233.051Z" fill="#231F20"/>
<path d="M205.224 34.0055C204.461 34.0055 203.698 33.7675 203.292 33.4175L203.607 32.7105C203.999 33.0255 204.622 33.2495 205.224 33.2495C205.987 33.2495 206.309 32.9765 206.309 32.6125C206.309 31.5555 203.397 32.2485 203.397 30.4285C203.397 29.6375 204.027 28.9655 205.371 28.9655C205.959 28.9655 206.575 29.1195 207.002 29.3995L206.715 30.1065C206.274 29.8475 205.791 29.7215 205.364 29.7215C204.608 29.7215 204.3 30.0155 204.3 30.3865C204.3 31.4295 207.205 30.7505 207.205 32.5495C207.205 33.3335 206.568 34.0055 205.224 34.0055ZM208.465 29.5815C208.143 29.5815 207.905 29.3505 207.905 29.0565C207.905 28.7625 208.143 28.5315 208.465 28.5315C208.787 28.5315 209.025 28.7485 209.025 29.0355C209.025 29.3435 208.794 29.5815 208.465 29.5815ZM208.024 33.9355V30.1975H208.899V33.9355H208.024ZM212.924 30.1975H213.757V33.3685C213.757 34.7265 213.05 35.3425 211.741 35.3425C211.041 35.3425 210.348 35.1605 209.921 34.8105L210.313 34.1525C210.642 34.4255 211.174 34.6005 211.692 34.6005C212.518 34.6005 212.882 34.2225 212.882 33.4665V33.2705C212.574 33.6065 212.133 33.7675 211.629 33.7675C210.558 33.7675 209.739 33.0395 209.739 31.9545C209.739 30.8695 210.558 30.1555 211.629 30.1555C212.154 30.1555 212.616 30.3235 212.924 30.6945V30.1975ZM211.762 33.0255C212.42 33.0255 212.896 32.5915 212.896 31.9545C212.896 31.3245 212.42 30.8975 211.762 30.8975C211.097 30.8975 210.621 31.3245 210.621 31.9545C210.621 32.5915 211.097 33.0255 211.762 33.0255ZM217.028 30.1555C217.924 30.1555 218.589 30.6665 218.589 31.7935V33.9355H217.714V31.9055C217.714 31.2405 217.385 30.9185 216.825 30.9185C216.202 30.9185 215.782 31.2965 215.782 32.0455V33.9355H214.907V30.1975H215.74V30.6805C216.027 30.3375 216.482 30.1555 217.028 30.1555ZM221.127 30.1555C222.205 30.1555 222.828 30.6665 222.828 31.7445V33.9355H222.002V33.4805C221.792 33.8025 221.386 33.9845 220.826 33.9845C219.972 33.9845 219.433 33.5155 219.433 32.8645C219.433 32.2415 219.853 31.7515 220.987 31.7515H221.953V31.6955C221.953 31.1845 221.645 30.8835 221.022 30.8835C220.602 30.8835 220.168 31.0235 219.888 31.2545L219.545 30.6175C219.944 30.3095 220.525 30.1555 221.127 30.1555ZM221.008 33.3475C221.435 33.3475 221.806 33.1515 221.953 32.7665V32.3325H221.05C220.455 32.3325 220.294 32.5565 220.294 32.8295C220.294 33.1445 220.56 33.3475 221.008 33.3475ZM225.953 33.1095L226.198 33.7325C225.988 33.9005 225.673 33.9845 225.358 33.9845C224.539 33.9845 224.07 33.5505 224.07 32.7245V30.9255H223.454V30.2255H224.07V29.3715H224.945V30.2255H225.946V30.9255H224.945V32.7035C224.945 33.0675 225.127 33.2635 225.463 33.2635C225.645 33.2635 225.82 33.2145 225.953 33.1095ZM229.662 30.1975H230.537V33.9355H229.704V33.4595C229.424 33.8025 228.983 33.9845 228.5 33.9845C227.541 33.9845 226.89 33.4595 226.89 32.3325V30.1975H227.765V32.2135C227.765 32.8925 228.087 33.2145 228.64 33.2145C229.249 33.2145 229.662 32.8365 229.662 32.0875V30.1975ZM232.516 30.7435C232.768 30.3515 233.223 30.1555 233.846 30.1555V30.9885C233.769 30.9745 233.706 30.9675 233.643 30.9675C232.978 30.9675 232.558 31.3595 232.558 32.1225V33.9355H231.683V30.1975H232.516V30.7435ZM238.068 32.0875C238.068 32.1575 238.061 32.2625 238.054 32.3465H235.121C235.226 32.8925 235.681 33.2425 236.332 33.2425C236.752 33.2425 237.081 33.1095 237.347 32.8365L237.816 33.3755C237.48 33.7745 236.955 33.9845 236.311 33.9845C235.058 33.9845 234.246 33.1795 234.246 32.0665C234.246 30.9535 235.065 30.1555 236.178 30.1555C237.27 30.1555 238.068 30.9185 238.068 32.0875ZM236.178 30.8555C235.611 30.8555 235.198 31.2195 235.114 31.7655H237.235C237.165 31.2265 236.752 30.8555 236.178 30.8555ZM240.063 33.9845C239.44 33.9845 238.817 33.8025 238.481 33.5645L238.817 32.8995C239.146 33.1165 239.65 33.2705 240.119 33.2705C240.672 33.2705 240.903 33.1165 240.903 32.8575C240.903 32.1435 238.593 32.8155 238.593 31.3245C238.593 30.6175 239.23 30.1555 240.238 30.1555C240.735 30.1555 241.302 30.2745 241.638 30.4775L241.302 31.1425C240.945 30.9325 240.588 30.8625 240.231 30.8625C239.699 30.8625 239.447 31.0375 239.447 31.2825C239.447 32.0385 241.757 31.3665 241.757 32.8295C241.757 33.5295 241.113 33.9845 240.063 33.9845Z" fill="#231F20"/>
<path d="M269.2 139.875C268.437 139.875 267.674 139.637 267.268 139.287L267.583 138.58C267.975 138.895 268.598 139.119 269.2 139.119C269.963 139.119 270.285 138.846 270.285 138.482C270.285 137.425 267.373 138.118 267.373 136.298C267.373 135.507 268.003 134.835 269.347 134.835C269.935 134.835 270.551 134.989 270.978 135.269L270.691 135.976C270.25 135.717 269.767 135.591 269.34 135.591C268.584 135.591 268.276 135.885 268.276 136.256C268.276 137.299 271.181 136.62 271.181 138.419C271.181 139.203 270.544 139.875 269.2 139.875ZM275.513 137.957C275.513 138.027 275.506 138.132 275.499 138.216H272.566C272.671 138.762 273.126 139.112 273.777 139.112C274.197 139.112 274.526 138.979 274.792 138.706L275.261 139.245C274.925 139.644 274.4 139.854 273.756 139.854C272.503 139.854 271.691 139.049 271.691 137.936C271.691 136.823 272.51 136.025 273.623 136.025C274.715 136.025 275.513 136.788 275.513 137.957ZM273.623 136.725C273.056 136.725 272.643 137.089 272.559 137.635H274.68C274.61 137.096 274.197 136.725 273.623 136.725ZM278.069 139.854C276.886 139.854 276.046 139.056 276.046 137.936C276.046 136.816 276.886 136.025 278.069 136.025C278.797 136.025 279.378 136.326 279.665 136.893L278.993 137.285C278.769 136.928 278.433 136.767 278.062 136.767C277.418 136.767 276.928 137.215 276.928 137.936C276.928 138.664 277.418 139.105 278.062 139.105C278.433 139.105 278.769 138.944 278.993 138.587L279.665 138.979C279.378 139.539 278.797 139.854 278.069 139.854ZM283.165 136.067H284.04V139.805H283.207V139.329C282.927 139.672 282.486 139.854 282.003 139.854C281.044 139.854 280.393 139.329 280.393 138.202V136.067H281.268V138.083C281.268 138.762 281.59 139.084 282.143 139.084C282.752 139.084 283.165 138.706 283.165 137.957V136.067ZM286.019 136.613C286.271 136.221 286.726 136.025 287.349 136.025V136.858C287.272 136.844 287.209 136.837 287.146 136.837C286.481 136.837 286.061 137.229 286.061 137.992V139.805H285.186V136.067H286.019V136.613ZM291.571 137.957C291.571 138.027 291.564 138.132 291.557 138.216H288.624C288.729 138.762 289.184 139.112 289.835 139.112C290.255 139.112 290.584 138.979 290.85 138.706L291.319 139.245C290.983 139.644 290.458 139.854 289.814 139.854C288.561 139.854 287.749 139.049 287.749 137.936C287.749 136.823 288.568 136.025 289.681 136.025C290.773 136.025 291.571 136.788 291.571 137.957ZM289.681 136.725C289.114 136.725 288.701 137.089 288.617 137.635H290.738C290.668 137.096 290.255 136.725 289.681 136.725ZM297.874 134.905H298.784V139.805H297.874V137.705H295.34V139.805H294.43V134.905H295.34V136.928H297.874V134.905ZM300.454 135.451C300.132 135.451 299.894 135.22 299.894 134.926C299.894 134.632 300.132 134.401 300.454 134.401C300.776 134.401 301.014 134.618 301.014 134.905C301.014 135.213 300.783 135.451 300.454 135.451ZM300.013 139.805V136.067H300.888V139.805H300.013ZM304.913 136.067H305.746V139.238C305.746 140.596 305.039 141.212 303.73 141.212C303.03 141.212 302.337 141.03 301.91 140.68L302.302 140.022C302.631 140.295 303.163 140.47 303.681 140.47C304.507 140.47 304.871 140.092 304.871 139.336V139.14C304.563 139.476 304.122 139.637 303.618 139.637C302.547 139.637 301.728 138.909 301.728 137.824C301.728 136.739 302.547 136.025 303.618 136.025C304.143 136.025 304.605 136.193 304.913 136.564V136.067ZM303.751 138.895C304.409 138.895 304.885 138.461 304.885 137.824C304.885 137.194 304.409 136.767 303.751 136.767C303.086 136.767 302.61 137.194 302.61 137.824C302.61 138.461 303.086 138.895 303.751 138.895ZM309.018 136.025C309.914 136.025 310.579 136.536 310.579 137.663V139.805H309.704V137.775C309.704 137.11 309.375 136.788 308.815 136.788C308.192 136.788 307.772 137.166 307.772 137.915V139.805H306.897V134.611H307.772V136.501C308.059 136.193 308.5 136.025 309.018 136.025Z" fill="#231F20"/>
<path d="M268.157 143.305C269.445 143.305 270.243 143.963 270.243 145.048C270.243 146.126 269.445 146.791 268.157 146.791H267.051V148.205H266.141V143.305H268.157ZM268.115 146.021C268.913 146.021 269.326 145.664 269.326 145.048C269.326 144.432 268.913 144.075 268.115 144.075H267.051V146.021H268.115ZM274.568 146.357C274.568 146.427 274.561 146.532 274.554 146.616H271.621C271.726 147.162 272.181 147.512 272.832 147.512C273.252 147.512 273.581 147.379 273.847 147.106L274.316 147.645C273.98 148.044 273.455 148.254 272.811 148.254C271.558 148.254 270.746 147.449 270.746 146.336C270.746 145.223 271.565 144.425 272.678 144.425C273.77 144.425 274.568 145.188 274.568 146.357ZM272.678 145.125C272.111 145.125 271.698 145.489 271.614 146.035H273.735C273.665 145.496 273.252 145.125 272.678 145.125ZM276.241 145.013C276.493 144.621 276.948 144.425 277.571 144.425V145.258C277.494 145.244 277.431 145.237 277.368 145.237C276.703 145.237 276.283 145.629 276.283 146.392V148.205H275.408V144.467H276.241V145.013ZM279.867 143.669C279.503 143.669 279.314 143.872 279.314 144.271V144.495H280.343V145.195H279.342V148.205H278.467V145.195H277.851V144.495H278.467V144.257C278.467 143.473 278.936 142.962 279.804 142.962C280.105 142.962 280.399 143.025 280.595 143.165L280.35 143.823C280.217 143.732 280.049 143.669 279.867 143.669ZM282.557 148.254C281.409 148.254 280.569 147.456 280.569 146.336C280.569 145.216 281.409 144.425 282.557 144.425C283.719 144.425 284.552 145.216 284.552 146.336C284.552 147.456 283.719 148.254 282.557 148.254ZM282.557 147.505C283.194 147.505 283.67 147.05 283.67 146.336C283.67 145.622 283.194 145.167 282.557 145.167C281.927 145.167 281.451 145.622 281.451 146.336C281.451 147.05 281.927 147.505 282.557 147.505ZM286.222 145.013C286.474 144.621 286.929 144.425 287.552 144.425V145.258C287.475 145.244 287.412 145.237 287.349 145.237C286.684 145.237 286.264 145.629 286.264 146.392V148.205H285.389V144.467H286.222V145.013ZM293.012 144.425C293.915 144.425 294.545 144.936 294.545 146.063V148.205H293.67V146.175C293.67 145.51 293.362 145.188 292.83 145.188C292.256 145.188 291.857 145.566 291.857 146.308V148.205H290.982V146.175C290.982 145.51 290.674 145.188 290.142 145.188C289.561 145.188 289.169 145.566 289.169 146.308V148.205H288.294V144.467H289.127V144.943C289.407 144.607 289.841 144.425 290.352 144.425C290.898 144.425 291.353 144.628 291.612 145.048C291.913 144.663 292.417 144.425 293.012 144.425ZM297.091 144.425C298.169 144.425 298.792 144.936 298.792 146.014V148.205H297.966V147.75C297.756 148.072 297.35 148.254 296.79 148.254C295.936 148.254 295.397 147.785 295.397 147.134C295.397 146.511 295.817 146.021 296.951 146.021H297.917V145.965C297.917 145.454 297.609 145.153 296.986 145.153C296.566 145.153 296.132 145.293 295.852 145.524L295.509 144.887C295.908 144.579 296.489 144.425 297.091 144.425ZM296.972 147.617C297.399 147.617 297.77 147.421 297.917 147.036V146.602H297.014C296.419 146.602 296.258 146.826 296.258 147.099C296.258 147.414 296.524 147.617 296.972 147.617ZM302.036 144.425C302.932 144.425 303.597 144.936 303.597 146.063V148.205H302.722V146.175C302.722 145.51 302.393 145.188 301.833 145.188C301.21 145.188 300.79 145.566 300.79 146.315V148.205H299.915V144.467H300.748V144.95C301.035 144.607 301.49 144.425 302.036 144.425ZM306.456 148.254C305.273 148.254 304.433 147.456 304.433 146.336C304.433 145.216 305.273 144.425 306.456 144.425C307.184 144.425 307.765 144.726 308.052 145.293L307.38 145.685C307.156 145.328 306.82 145.167 306.449 145.167C305.805 145.167 305.315 145.615 305.315 146.336C305.315 147.064 305.805 147.505 306.449 147.505C306.82 147.505 307.156 147.344 307.38 146.987L308.052 147.379C307.765 147.939 307.184 148.254 306.456 148.254ZM312.268 146.357C312.268 146.427 312.261 146.532 312.254 146.616H309.321C309.426 147.162 309.881 147.512 310.532 147.512C310.952 147.512 311.281 147.379 311.547 147.106L312.016 147.645C311.68 148.044 311.155 148.254 310.511 148.254C309.258 148.254 308.446 147.449 308.446 146.336C308.446 145.223 309.265 144.425 310.378 144.425C311.47 144.425 312.268 145.188 312.268 146.357ZM310.378 145.125C309.811 145.125 309.398 145.489 309.314 146.035H311.435C311.365 145.496 310.952 145.125 310.378 145.125Z" fill="#231F20"/>
<path d="M270.339 156.605L269.849 155.471H267.399L266.916 156.605H265.978L268.183 151.705H269.079L271.291 156.605H270.339ZM267.707 154.757H269.548L268.624 152.615L267.707 154.757ZM273.93 151.705C275.218 151.705 276.016 152.363 276.016 153.448C276.016 154.526 275.218 155.191 273.93 155.191H272.824V156.605H271.914V151.705H273.93ZM273.888 154.421C274.686 154.421 275.099 154.064 275.099 153.448C275.099 152.832 274.686 152.475 273.888 152.475H272.824V154.421H273.888ZM276.925 156.605V151.705H277.835V156.605H276.925ZM284.441 155.625V154.099H285.302V156.052C284.791 156.465 284.077 156.675 283.384 156.675C281.865 156.675 280.745 155.618 280.745 154.155C280.745 152.692 281.865 151.635 283.398 151.635C284.217 151.635 284.903 151.908 285.365 152.433L284.791 152.993C284.406 152.608 283.965 152.433 283.44 152.433C282.397 152.433 281.662 153.14 281.662 154.155C281.662 155.149 282.397 155.877 283.433 155.877C283.783 155.877 284.126 155.807 284.441 155.625ZM287.846 152.825C288.924 152.825 289.547 153.336 289.547 154.414V156.605H288.721V156.15C288.511 156.472 288.105 156.654 287.545 156.654C286.691 156.654 286.152 156.185 286.152 155.534C286.152 154.911 286.572 154.421 287.706 154.421H288.672V154.365C288.672 153.854 288.364 153.553 287.741 153.553C287.321 153.553 286.887 153.693 286.607 153.924L286.264 153.287C286.663 152.979 287.244 152.825 287.846 152.825ZM287.727 156.017C288.154 156.017 288.525 155.821 288.672 155.436V155.002H287.769C287.174 155.002 287.013 155.226 287.013 155.499C287.013 155.814 287.279 156.017 287.727 156.017ZM292.672 155.779L292.917 156.402C292.707 156.57 292.392 156.654 292.077 156.654C291.258 156.654 290.789 156.22 290.789 155.394V153.595H290.173V152.895H290.789V152.041H291.664V152.895H292.665V153.595H291.664V155.373C291.664 155.737 291.846 155.933 292.182 155.933C292.364 155.933 292.539 155.884 292.672 155.779ZM297.027 154.757C297.027 154.827 297.02 154.932 297.013 155.016H294.08C294.185 155.562 294.64 155.912 295.291 155.912C295.711 155.912 296.04 155.779 296.306 155.506L296.775 156.045C296.439 156.444 295.914 156.654 295.27 156.654C294.017 156.654 293.205 155.849 293.205 154.736C293.205 153.623 294.024 152.825 295.137 152.825C296.229 152.825 297.027 153.588 297.027 154.757ZM295.137 153.525C294.57 153.525 294.157 153.889 294.073 154.435H296.194C296.124 153.896 295.711 153.525 295.137 153.525ZM302.854 152.867H303.631L302.252 156.605H301.412L300.446 154.029L299.466 156.605H298.626L297.254 152.867H298.08L299.067 155.625L300.096 152.867H300.831L301.839 155.639L302.854 152.867ZM305.544 152.825C306.622 152.825 307.245 153.336 307.245 154.414V156.605H306.419V156.15C306.209 156.472 305.803 156.654 305.243 156.654C304.389 156.654 303.85 156.185 303.85 155.534C303.85 154.911 304.27 154.421 305.404 154.421H306.37V154.365C306.37 153.854 306.062 153.553 305.439 153.553C305.019 153.553 304.585 153.693 304.305 153.924L303.962 153.287C304.361 152.979 304.942 152.825 305.544 152.825ZM305.425 156.017C305.852 156.017 306.223 155.821 306.37 155.436V155.002H305.467C304.872 155.002 304.711 155.226 304.711 155.499C304.711 155.814 304.977 156.017 305.425 156.017ZM310.96 152.867H311.8L310.05 156.906C309.707 157.753 309.231 158.012 308.608 158.012C308.237 158.012 307.845 157.886 307.607 157.669L307.957 157.025C308.125 157.186 308.363 157.284 308.601 157.284C308.909 157.284 309.091 157.137 309.259 156.766L309.322 156.619L307.691 152.867H308.601L309.777 155.632L310.96 152.867Z" fill="#231F20"/>
<path d="M209.077 254.078C207.579 254.078 206.459 253.021 206.459 251.558C206.459 250.095 207.579 249.038 209.084 249.038C209.882 249.038 210.568 249.325 211.023 249.857L210.435 250.41C210.078 250.025 209.637 249.836 209.126 249.836C208.111 249.836 207.376 250.55 207.376 251.558C207.376 252.566 208.111 253.28 209.126 253.28C209.637 253.28 210.078 253.091 210.435 252.699L211.023 253.259C210.568 253.791 209.882 254.078 209.077 254.078ZM213.205 250.228C214.283 250.228 214.906 250.739 214.906 251.817V254.008H214.08V253.553C213.87 253.875 213.464 254.057 212.904 254.057C212.05 254.057 211.511 253.588 211.511 252.937C211.511 252.314 211.931 251.824 213.065 251.824H214.031V251.768C214.031 251.257 213.723 250.956 213.1 250.956C212.68 250.956 212.246 251.096 211.966 251.327L211.623 250.69C212.022 250.382 212.603 250.228 213.205 250.228ZM213.086 253.42C213.513 253.42 213.884 253.224 214.031 252.839V252.405H213.128C212.533 252.405 212.372 252.629 212.372 252.902C212.372 253.217 212.638 253.42 213.086 253.42ZM216.862 250.816C217.114 250.424 217.569 250.228 218.192 250.228V251.061C218.115 251.047 218.052 251.04 217.989 251.04C217.324 251.04 216.904 251.432 216.904 252.195V254.008H216.029V250.27H216.862V250.816ZM221.686 248.814H222.561V254.008H221.721V253.525C221.427 253.882 220.993 254.057 220.482 254.057C219.397 254.057 218.592 253.301 218.592 252.139C218.592 250.977 219.397 250.228 220.482 250.228C220.965 250.228 221.392 250.389 221.686 250.732V248.814ZM220.587 253.308C221.217 253.308 221.7 252.853 221.7 252.139C221.7 251.425 221.217 250.97 220.587 250.97C219.957 250.97 219.474 251.425 219.474 252.139C219.474 252.853 219.957 253.308 220.587 253.308ZM227.992 254.078C226.494 254.078 225.374 253.021 225.374 251.558C225.374 250.095 226.494 249.038 227.999 249.038C228.797 249.038 229.483 249.325 229.938 249.857L229.35 250.41C228.993 250.025 228.552 249.836 228.041 249.836C227.026 249.836 226.291 250.55 226.291 251.558C226.291 252.566 227.026 253.28 228.041 253.28C228.552 253.28 228.993 253.091 229.35 252.699L229.938 253.259C229.483 253.791 228.797 254.078 227.992 254.078ZM232.27 254.057C231.122 254.057 230.282 253.259 230.282 252.139C230.282 251.019 231.122 250.228 232.27 250.228C233.432 250.228 234.265 251.019 234.265 252.139C234.265 253.259 233.432 254.057 232.27 254.057ZM232.27 253.308C232.907 253.308 233.383 252.853 233.383 252.139C233.383 251.425 232.907 250.97 232.27 250.97C231.64 250.97 231.164 251.425 231.164 252.139C231.164 252.853 231.64 253.308 232.27 253.308ZM237.222 250.228C238.118 250.228 238.783 250.739 238.783 251.866V254.008H237.908V251.978C237.908 251.313 237.579 250.991 237.019 250.991C236.396 250.991 235.976 251.369 235.976 252.118V254.008H235.101V250.27H235.934V250.753C236.221 250.41 236.676 250.228 237.222 250.228ZM241.895 253.182L242.14 253.805C241.93 253.973 241.615 254.057 241.3 254.057C240.481 254.057 240.012 253.623 240.012 252.797V250.998H239.396V250.298H240.012V249.444H240.887V250.298H241.888V250.998H240.887V252.776C240.887 253.14 241.069 253.336 241.405 253.336C241.587 253.336 241.762 253.287 241.895 253.182ZM243.693 250.816C243.945 250.424 244.4 250.228 245.023 250.228V251.061C244.946 251.047 244.883 251.04 244.82 251.04C244.155 251.04 243.735 251.432 243.735 252.195V254.008H242.86V250.27H243.693V250.816ZM247.411 254.057C246.263 254.057 245.423 253.259 245.423 252.139C245.423 251.019 246.263 250.228 247.411 250.228C248.573 250.228 249.406 251.019 249.406 252.139C249.406 253.259 248.573 254.057 247.411 254.057ZM247.411 253.308C248.048 253.308 248.524 252.853 248.524 252.139C248.524 251.425 248.048 250.97 247.411 250.97C246.781 250.97 246.305 251.425 246.305 252.139C246.305 252.853 246.781 253.308 247.411 253.308ZM250.243 254.008V248.814H251.118V254.008H250.243Z" fill="#231F20"/>
<path d="M75.8181 254.078C75.0551 254.078 74.2921 253.84 73.8861 253.49L74.2011 252.783C74.5931 253.098 75.2161 253.322 75.8181 253.322C76.5811 253.322 76.9031 253.049 76.9031 252.685C76.9031 251.628 73.9911 252.321 73.9911 250.501C73.9911 249.71 74.6211 249.038 75.9651 249.038C76.5531 249.038 77.1691 249.192 77.5961 249.472L77.3091 250.179C76.8681 249.92 76.3851 249.794 75.9581 249.794C75.2021 249.794 74.8941 250.088 74.8941 250.459C74.8941 251.502 77.7991 250.823 77.7991 252.622C77.7991 253.406 77.1621 254.078 75.8181 254.078ZM82.1315 252.16C82.1315 252.23 82.1245 252.335 82.1175 252.419H79.1845C79.2895 252.965 79.7445 253.315 80.3955 253.315C80.8155 253.315 81.1445 253.182 81.4105 252.909L81.8795 253.448C81.5435 253.847 81.0185 254.057 80.3745 254.057C79.1215 254.057 78.3095 253.252 78.3095 252.139C78.3095 251.026 79.1285 250.228 80.2415 250.228C81.3335 250.228 82.1315 250.991 82.1315 252.16ZM80.2415 250.928C79.6745 250.928 79.2615 251.292 79.1775 251.838H81.2985C81.2285 251.299 80.8155 250.928 80.2415 250.928ZM84.6869 254.057C83.5039 254.057 82.6639 253.259 82.6639 252.139C82.6639 251.019 83.5039 250.228 84.6869 250.228C85.4149 250.228 85.9959 250.529 86.2829 251.096L85.6109 251.488C85.3869 251.131 85.0509 250.97 84.6799 250.97C84.0359 250.97 83.5459 251.418 83.5459 252.139C83.5459 252.867 84.0359 253.308 84.6799 253.308C85.0509 253.308 85.3869 253.147 85.6109 252.79L86.2829 253.182C85.9959 253.742 85.4149 254.057 84.6869 254.057ZM89.7833 250.27H90.6583V254.008H89.8253V253.532C89.5453 253.875 89.1043 254.057 88.6213 254.057C87.6623 254.057 87.0113 253.532 87.0113 252.405V250.27H87.8863V252.286C87.8863 252.965 88.2083 253.287 88.7613 253.287C89.3703 253.287 89.7833 252.909 89.7833 252.16V250.27ZM92.637 250.816C92.889 250.424 93.344 250.228 93.967 250.228V251.061C93.89 251.047 93.827 251.04 93.764 251.04C93.099 251.04 92.679 251.432 92.679 252.195V254.008H91.804V250.27H92.637V250.816ZM98.1891 252.16C98.1891 252.23 98.1821 252.335 98.1751 252.419H95.2421C95.3471 252.965 95.8021 253.315 96.4531 253.315C96.8731 253.315 97.2021 253.182 97.4681 252.909L97.9371 253.448C97.6011 253.847 97.0761 254.057 96.4321 254.057C95.1791 254.057 94.3671 253.252 94.3671 252.139C94.3671 251.026 95.1861 250.228 96.2991 250.228C97.3911 250.228 98.1891 250.991 98.1891 252.16ZM96.2991 250.928C95.7321 250.928 95.3191 251.292 95.2351 251.838H97.3561C97.2861 251.299 96.8731 250.928 96.2991 250.928Z" fill="#231F20"/>
<path d="M70.0583 262.478C68.5393 262.478 67.4193 261.407 67.4193 259.958C67.4193 258.509 68.5393 257.438 70.0583 257.438C71.5773 257.438 72.6973 258.502 72.6973 259.958C72.6973 261.414 71.5773 262.478 70.0583 262.478ZM70.0583 261.68C71.0453 261.68 71.7803 260.959 71.7803 259.958C71.7803 258.957 71.0453 258.236 70.0583 258.236C69.0713 258.236 68.3363 258.957 68.3363 259.958C68.3363 260.959 69.0713 261.68 70.0583 261.68ZM75.6499 258.628C76.7419 258.628 77.5469 259.384 77.5469 260.539C77.5469 261.701 76.7419 262.457 75.6499 262.457C75.1739 262.457 74.7539 262.296 74.4529 261.953V263.766H73.5779V258.67H74.4109V259.16C74.7049 258.803 75.1389 258.628 75.6499 258.628ZM75.5519 261.708C76.1819 261.708 76.6579 261.253 76.6579 260.539C76.6579 259.825 76.1819 259.37 75.5519 259.37C74.9219 259.37 74.4389 259.825 74.4389 260.539C74.4389 261.253 74.9219 261.708 75.5519 261.708ZM81.8907 260.56C81.8907 260.63 81.8837 260.735 81.8767 260.819H78.9437C79.0487 261.365 79.5037 261.715 80.1547 261.715C80.5747 261.715 80.9037 261.582 81.1697 261.309L81.6387 261.848C81.3027 262.247 80.7777 262.457 80.1337 262.457C78.8807 262.457 78.0687 261.652 78.0687 260.539C78.0687 259.426 78.8877 258.628 80.0007 258.628C81.0927 258.628 81.8907 259.391 81.8907 260.56ZM80.0007 259.328C79.4337 259.328 79.0207 259.692 78.9367 260.238H81.0577C80.9877 259.699 80.5747 259.328 80.0007 259.328ZM84.8522 258.628C85.7482 258.628 86.4132 259.139 86.4132 260.266V262.408H85.5382V260.378C85.5382 259.713 85.2092 259.391 84.6492 259.391C84.0262 259.391 83.6062 259.769 83.6062 260.518V262.408H82.7312V258.67H83.5642V259.153C83.8512 258.81 84.3062 258.628 84.8522 258.628ZM93.2098 262.408L92.7198 261.274H90.2698L89.7868 262.408H88.8488L91.0538 257.508H91.9498L94.1618 262.408H93.2098ZM90.5778 260.56H92.4188L91.4948 258.418L90.5778 260.56ZM96.801 257.508C98.089 257.508 98.887 258.166 98.887 259.251C98.887 260.329 98.089 260.994 96.801 260.994H95.695V262.408H94.785V257.508H96.801ZM96.759 260.224C97.557 260.224 97.97 259.867 97.97 259.251C97.97 258.635 97.557 258.278 96.759 258.278H95.695V260.224H96.759ZM99.7957 262.408V257.508H100.706V262.408H99.7957ZM103.102 262.457C102.479 262.457 101.856 262.275 101.52 262.037L101.856 261.372C102.185 261.589 102.689 261.743 103.158 261.743C103.711 261.743 103.942 261.589 103.942 261.33C103.942 260.616 101.632 261.288 101.632 259.797C101.632 259.09 102.269 258.628 103.277 258.628C103.774 258.628 104.341 258.747 104.677 258.95L104.341 259.615C103.984 259.405 103.627 259.335 103.27 259.335C102.738 259.335 102.486 259.51 102.486 259.755C102.486 260.511 104.796 259.839 104.796 261.302C104.796 262.002 104.152 262.457 103.102 262.457Z" fill="#231F20"/>
<path d="M10.3127 141.273C8.81472 141.273 7.69472 140.216 7.69472 138.753C7.69472 137.29 8.81472 136.233 10.3197 136.233C11.1177 136.233 11.8037 136.52 12.2587 137.052L11.6707 137.605C11.3137 137.22 10.8727 137.031 10.3617 137.031C9.34672 137.031 8.61172 137.745 8.61172 138.753C8.61172 139.761 9.34672 140.475 10.3617 140.475C10.8727 140.475 11.3137 140.286 11.6707 139.894L12.2587 140.454C11.8037 140.986 11.1177 141.273 10.3127 141.273ZM15.6881 137.465H16.5631V141.203H15.7301V140.727C15.4501 141.07 15.0091 141.252 14.5261 141.252C13.5671 141.252 12.9161 140.727 12.9161 139.6V137.465H13.7911V139.481C13.7911 140.16 14.1131 140.482 14.6661 140.482C15.2751 140.482 15.6881 140.104 15.6881 139.355V137.465ZM18.8638 141.252C18.2408 141.252 17.6178 141.07 17.2818 140.832L17.6178 140.167C17.9468 140.384 18.4508 140.538 18.9198 140.538C19.4728 140.538 19.7038 140.384 19.7038 140.125C19.7038 139.411 17.3938 140.083 17.3938 138.592C17.3938 137.885 18.0308 137.423 19.0388 137.423C19.5358 137.423 20.1028 137.542 20.4388 137.745L20.1028 138.41C19.7458 138.2 19.3888 138.13 19.0318 138.13C18.4998 138.13 18.2478 138.305 18.2478 138.55C18.2478 139.306 20.5578 138.634 20.5578 140.097C20.5578 140.797 19.9138 141.252 18.8638 141.252ZM23.3133 140.377L23.5583 141C23.3483 141.168 23.0333 141.252 22.7183 141.252C21.8993 141.252 21.4303 140.818 21.4303 139.992V138.193H20.8143V137.493H21.4303V136.639H22.3053V137.493H23.3063V138.193H22.3053V139.971C22.3053 140.335 22.4873 140.531 22.8233 140.531C23.0053 140.531 23.1803 140.482 23.3133 140.377ZM25.8351 141.252C24.6871 141.252 23.8471 140.454 23.8471 139.334C23.8471 138.214 24.6871 137.423 25.8351 137.423C26.9971 137.423 27.8301 138.214 27.8301 139.334C27.8301 140.454 26.9971 141.252 25.8351 141.252ZM25.8351 140.503C26.4721 140.503 26.9481 140.048 26.9481 139.334C26.9481 138.62 26.4721 138.165 25.8351 138.165C25.2051 138.165 24.7291 138.62 24.7291 139.334C24.7291 140.048 25.2051 140.503 25.8351 140.503ZM33.3848 137.423C34.2878 137.423 34.9178 137.934 34.9178 139.061V141.203H34.0428V139.173C34.0428 138.508 33.7348 138.186 33.2028 138.186C32.6288 138.186 32.2298 138.564 32.2298 139.306V141.203H31.3548V139.173C31.3548 138.508 31.0468 138.186 30.5148 138.186C29.9338 138.186 29.5418 138.564 29.5418 139.306V141.203H28.6668V137.465H29.4998V137.941C29.7798 137.605 30.2138 137.423 30.7248 137.423C31.2708 137.423 31.7258 137.626 31.9848 138.046C32.2858 137.661 32.7898 137.423 33.3848 137.423Z" fill="#231F20"/>
<path d="M11.5319 145.467H8.86488V146.958H11.2309V147.728H8.86488V149.604H7.95488V144.704H11.5319V145.467ZM12.7005 145.25C12.3785 145.25 12.1405 145.019 12.1405 144.725C12.1405 144.431 12.3785 144.2 12.7005 144.2C13.0225 144.2 13.2605 144.417 13.2605 144.704C13.2605 145.012 13.0295 145.25 12.7005 145.25ZM12.2595 149.604V145.866H13.1345V149.604H12.2595ZM15.116 146.412C15.368 146.02 15.823 145.824 16.446 145.824V146.657C16.369 146.643 16.306 146.636 16.243 146.636C15.578 146.636 15.158 147.028 15.158 147.791V149.604H14.283V145.866H15.116V146.412ZM20.6681 147.756C20.6681 147.826 20.6611 147.931 20.6541 148.015H17.7211C17.8261 148.561 18.2811 148.911 18.9321 148.911C19.3521 148.911 19.6811 148.778 19.9471 148.505L20.4161 149.044C20.0801 149.443 19.5551 149.653 18.9111 149.653C17.6581 149.653 16.8461 148.848 16.8461 147.735C16.8461 146.622 17.6651 145.824 18.7781 145.824C19.8701 145.824 20.6681 146.587 20.6681 147.756ZM18.7781 146.524C18.2111 146.524 17.7981 146.888 17.7141 147.434H19.8351C19.7651 146.895 19.3521 146.524 18.7781 146.524ZM26.4942 145.866H27.2712L25.8922 149.604H25.0522L24.0862 147.028L23.1062 149.604H22.2662L20.8942 145.866H21.7202L22.7072 148.624L23.7362 145.866H24.4712L25.4792 148.638L26.4942 145.866ZM29.1846 145.824C30.2626 145.824 30.8856 146.335 30.8856 147.413V149.604H30.0596V149.149C29.8496 149.471 29.4436 149.653 28.8836 149.653C28.0296 149.653 27.4906 149.184 27.4906 148.533C27.4906 147.91 27.9106 147.42 29.0446 147.42H30.0106V147.364C30.0106 146.853 29.7026 146.552 29.0796 146.552C28.6596 146.552 28.2256 146.692 27.9456 146.923L27.6026 146.286C28.0016 145.978 28.5826 145.824 29.1846 145.824ZM29.0656 149.016C29.4926 149.016 29.8636 148.82 30.0106 148.435V148.001H29.1076C28.5126 148.001 28.3516 148.225 28.3516 148.498C28.3516 148.813 28.6176 149.016 29.0656 149.016ZM32.0086 149.604V144.41H32.8836V149.604H32.0086ZM34.032 149.604V144.41H34.907V149.604H34.032Z" fill="#231F20"/>
<path d="M120.81 11.6692C142.67 5.61918 165.77 5.26917 187.77 10.6092" stroke="#83959E" stroke-width="5" stroke-miterlimit="10"/>
<path d="M176.02 16.4693L186.32 10.3193L180.16 0.0292969L187.14 1.78929L193.29 12.0793L183 18.2293L176.02 16.4693Z" fill="#83959E"/>
<path d="M29.3799 107.831C35.0699 85.8805 46.3099 65.7005 61.9399 49.3105" stroke="#83959E" stroke-width="5" stroke-miterlimit="10"/>
<path d="M61.1397 62.4098L60.9597 50.4198L48.9697 50.6098L53.9797 45.4398L65.9697 45.2598L66.1497 57.2398L61.1397 62.4098Z" fill="#83959E"/>
<path d="M66.9298 235.089C50.7698 219.189 38.9098 199.359 32.5298 177.639" stroke="#83959E" stroke-width="5" stroke-miterlimit="10"/>
<path d="M43.48 184.869L33.01 179.029L27.18 189.509L25.21 182.589L31.04 172.109L41.51 177.949L43.48 184.869Z" fill="#83959E"/>
<path d="M195.92 266.191C174.06 272.241 150.96 272.591 128.96 267.251" stroke="#83959E" stroke-width="5" stroke-miterlimit="10"/>
<path d="M140.71 261.391L130.41 267.551L136.57 277.831L129.59 276.081L123.44 265.791L133.73 259.641L140.71 261.391Z" fill="#83959E"/>
<path d="M287.35 170.039C281.66 191.989 270.42 212.169 254.79 228.559" stroke="#83959E" stroke-width="5" stroke-miterlimit="10"/>
<path d="M255.59 215.459L255.77 227.449L267.76 227.259L262.75 232.429L250.76 232.609L250.58 220.619L255.59 215.459Z" fill="#83959E"/>
<path d="M249.8 42.7793C265.96 58.6793 277.82 78.5093 284.2 100.229" stroke="#83959E" stroke-width="5" stroke-miterlimit="10"/>
<path d="M273.25 92.9994L283.72 98.8394L289.55 88.3594L291.52 95.2794L285.69 105.749L275.22 99.9194L273.25 92.9994Z" fill="#83959E"/>
</svg>
