<svg width="108" height="108" viewBox="0 0 108 108" fill="none" xmlns="http://www.w3.org/2000/svg">
<path d="M53.96 106.281C82.7727 106.281 106.13 82.9241 106.13 54.1114C106.13 25.2987 82.7727 1.94141 53.96 1.94141C25.1473 1.94141 1.79004 25.2987 1.79004 54.1114C1.79004 82.9241 25.1473 106.281 53.96 106.281Z" fill="#566C77" stroke="white" stroke-width="3" stroke-miterlimit="10"/>
<path d="M23.9341 50.9646C21.7668 50.9646 20.1463 49.4353 20.1463 47.3186C20.1463 45.2018 21.7668 43.6725 23.9442 43.6725C25.0988 43.6725 26.0913 44.0878 26.7496 44.8575L25.8989 45.6576C25.3824 45.1006 24.7443 44.8271 24.005 44.8271C22.5365 44.8271 21.473 45.8601 21.473 47.3186C21.473 48.777 22.5365 49.81 24.005 49.81C24.7443 49.81 25.3824 49.5365 25.8989 48.9694L26.7496 49.7796C26.0913 50.5493 25.0988 50.9646 23.9341 50.9646ZM29.9063 45.3943C31.4659 45.3943 32.3673 46.1336 32.3673 47.6933V50.8633H31.1722V50.205C30.8684 50.6709 30.281 50.9342 29.4708 50.9342C28.2352 50.9342 27.4553 50.2556 27.4553 49.3137C27.4553 48.4124 28.063 47.7034 29.7037 47.7034H31.1013V47.6224C31.1013 46.8831 30.6557 46.4476 29.7543 46.4476C29.1467 46.4476 28.5188 46.6501 28.1136 46.9843L27.6174 46.0627C28.1947 45.6171 29.0353 45.3943 29.9063 45.3943ZM29.7341 50.0125C30.3519 50.0125 30.8887 49.729 31.1013 49.1719V48.544H29.7949C28.934 48.544 28.7011 48.8681 28.7011 49.2631C28.7011 49.7188 29.0859 50.0125 29.7341 50.0125ZM35.1972 46.245C35.5618 45.6778 36.2202 45.3943 37.1215 45.3943V46.5995C37.0101 46.5792 36.919 46.5691 36.8278 46.5691C35.8657 46.5691 35.258 47.1363 35.258 48.2402V50.8633H33.992V45.455H35.1972V46.245ZM42.1769 43.3485H43.4429V50.8633H42.2275V50.1645C41.8022 50.681 41.1742 50.9342 40.4349 50.9342C38.8651 50.9342 37.7004 49.8404 37.7004 48.1592C37.7004 46.4779 38.8651 45.3943 40.4349 45.3943C41.1337 45.3943 41.7515 45.6272 42.1769 46.1235V43.3485ZM40.5868 49.8505C41.4983 49.8505 42.1971 49.1922 42.1971 48.1592C42.1971 47.1261 41.4983 46.4678 40.5868 46.4678C39.6753 46.4678 38.9765 47.1261 38.9765 48.1592C38.9765 49.1922 39.6753 49.8505 40.5868 49.8505ZM46.7701 50.9342C45.8687 50.9342 44.9673 50.6709 44.4812 50.3265L44.9673 49.3644C45.4433 49.6783 46.1725 49.9011 46.8511 49.9011C47.6512 49.9011 47.9854 49.6783 47.9854 49.3036C47.9854 48.2706 44.6432 49.2428 44.6432 47.0856C44.6432 46.0627 45.5649 45.3943 47.0233 45.3943C47.7423 45.3943 48.5627 45.5664 49.0488 45.8601L48.5627 46.8223C48.0462 46.5185 47.5297 46.4172 47.0131 46.4172C46.2434 46.4172 45.8788 46.6704 45.8788 47.0248C45.8788 48.1186 49.221 47.1464 49.221 49.2631C49.221 50.2759 48.2892 50.9342 46.7701 50.9342ZM49.1769 51.8761L52.5191 42.3357H53.6534L50.3112 51.8761H49.1769ZM59.6629 43.7738H60.9795L57.8906 50.8633H56.5942L53.4951 43.7738H54.9231L57.2829 49.2428L59.6629 43.7738ZM62.2936 44.5638C61.8277 44.5638 61.4834 44.2296 61.4834 43.8042C61.4834 43.3788 61.8277 43.0446 62.2936 43.0446C62.7595 43.0446 63.1038 43.3586 63.1038 43.7738C63.1038 44.2194 62.7696 44.5638 62.2936 44.5638ZM61.6556 50.8633V45.455H62.9215V50.8633H61.6556ZM65.7883 46.245C66.1529 45.6778 66.8113 45.3943 67.7126 45.3943V46.5995C67.6012 46.5792 67.5101 46.5691 67.4189 46.5691C66.4568 46.5691 65.8491 47.1363 65.8491 48.2402V50.8633H64.5831V45.455H65.7883V46.245ZM71.8809 49.6682L72.2354 50.5696C71.9316 50.8126 71.4758 50.9342 71.0201 50.9342C69.8351 50.9342 69.1566 50.3063 69.1566 49.1112V46.5083H68.2653V45.4955H69.1566V44.26H70.4225V45.4955H71.8708V46.5083H70.4225V49.0808C70.4225 49.6074 70.6859 49.891 71.172 49.891C71.4353 49.891 71.6885 49.8201 71.8809 49.6682ZM77.2469 45.455H78.5129V50.8633H77.3077V50.1746C76.9026 50.6709 76.2645 50.9342 75.5657 50.9342C74.1782 50.9342 73.2363 50.1746 73.2363 48.544V45.455H74.5023V48.3718C74.5023 49.3542 74.9682 49.8201 75.7683 49.8201C76.6494 49.8201 77.2469 49.2732 77.2469 48.1895V45.455ZM82.2365 45.3943C83.7962 45.3943 84.6976 46.1336 84.6976 47.6933V50.8633H83.5025V50.205C83.1987 50.6709 82.6113 50.9342 81.801 50.9342C80.5654 50.9342 79.7856 50.2556 79.7856 49.3137C79.7856 48.4124 80.3933 47.7034 82.034 47.7034H83.4316V47.6224C83.4316 46.8831 82.986 46.4476 82.0846 46.4476C81.4769 46.4476 80.849 46.6501 80.4439 46.9843L79.9476 46.0627C80.5249 45.6171 81.3655 45.3943 82.2365 45.3943ZM82.0644 50.0125C82.6821 50.0125 83.2189 49.729 83.4316 49.1719V48.544H82.1251C81.2643 48.544 81.0313 48.8681 81.0313 49.2631C81.0313 49.7188 81.4162 50.0125 82.0644 50.0125ZM86.3223 50.8633V43.3485H87.5883V50.8633H86.3223Z" fill="white"/>
<path d="M43.2241 63.1149C41.0568 63.1149 39.4363 61.5857 39.4363 59.4689C39.4363 57.3522 41.0568 55.8229 43.2343 55.8229C44.3888 55.8229 45.3814 56.2382 46.0397 57.0079L45.1889 57.808C44.6724 57.251 44.0344 56.9775 43.295 56.9775C41.8265 56.9775 40.7631 58.0105 40.7631 59.4689C40.7631 60.9273 41.8265 61.9604 43.295 61.9604C44.0344 61.9604 44.6724 61.6869 45.1889 61.1198L46.0397 61.93C45.3814 62.6997 44.3888 63.1149 43.2241 63.1149ZM49.1963 57.5447C50.756 57.5447 51.6574 58.284 51.6574 59.8437V63.0137H50.4623V62.3554C50.1584 62.8212 49.571 63.0846 48.7608 63.0846C47.5252 63.0846 46.7454 62.406 46.7454 61.4641C46.7454 60.5627 47.353 59.8538 48.9937 59.8538H50.3914V59.7728C50.3914 59.0334 49.9458 58.598 49.0444 58.598C48.4367 58.598 47.8088 58.8005 47.4037 59.1347L46.9074 58.2131C47.4847 57.7675 48.3253 57.5447 49.1963 57.5447ZM49.0241 62.1629C49.6419 62.1629 50.1787 61.8794 50.3914 61.3223V60.6944H49.0849C48.224 60.6944 47.9911 61.0185 47.9911 61.4135C47.9911 61.8692 48.3759 62.1629 49.0241 62.1629ZM54.4873 58.3954C54.8519 57.8282 55.5102 57.5447 56.4116 57.5447V58.7499C56.3002 58.7296 56.209 58.7195 56.1179 58.7195C55.1557 58.7195 54.5481 59.2866 54.5481 60.3906V63.0137H53.2821V57.6054H54.4873V58.3954ZM61.4669 55.4988H62.7329V63.0137H61.5176V62.3149C61.0922 62.8314 60.4643 63.0846 59.7249 63.0846C58.1551 63.0846 56.9904 61.9908 56.9904 60.3095C56.9904 58.6283 58.1551 57.5447 59.7249 57.5447C60.4238 57.5447 61.0416 57.7776 61.4669 58.2739V55.4988ZM59.8769 62.0009C60.7884 62.0009 61.4872 61.3426 61.4872 60.3095C61.4872 59.2765 60.7884 58.6182 59.8769 58.6182C58.9654 58.6182 58.2665 59.2765 58.2665 60.3095C58.2665 61.3426 58.9654 62.0009 59.8769 62.0009ZM66.0601 63.0846C65.1587 63.0846 64.2574 62.8212 63.7712 62.4769L64.2574 61.5148C64.7334 61.8287 65.4626 62.0515 66.1411 62.0515C66.9412 62.0515 67.2755 61.8287 67.2755 61.454C67.2755 60.421 63.9333 61.3932 63.9333 59.236C63.9333 58.2131 64.8549 57.5447 66.3133 57.5447C67.0324 57.5447 67.8527 57.7168 68.3389 58.0105L67.8527 58.9727C67.3362 58.6688 66.8197 58.5676 66.3032 58.5676C65.5335 58.5676 65.1689 58.8208 65.1689 59.1752C65.1689 60.269 68.511 59.2968 68.511 61.4135C68.511 62.4263 67.5793 63.0846 66.0601 63.0846Z" fill="white"/>
</svg>
