<svg width="435" height="486" viewBox="0 0 435 486" fill="none" xmlns="http://www.w3.org/2000/svg">
<path fill-rule="evenodd" clip-rule="evenodd" d="M434.22 268.391C434.22 388.297 337.017 485.502 217.11 485.502C97.2031 485.502 0 388.297 0 268.391C0 148.484 97.2031 51.2812 217.11 51.2812C337.017 51.2812 434.22 148.484 434.22 268.391ZM419.44 267.201C419.44 378.342 329.342 468.441 218.2 468.441C107.059 468.441 16.96 378.342 16.96 267.201C16.96 156.059 107.059 65.9609 218.2 65.9609C329.342 65.9609 419.44 156.059 419.44 267.201Z" fill="#889AA6"/>
<path d="M217.11 106.34C245.923 106.34 269.28 82.9827 269.28 54.17C269.28 25.3573 245.923 2 217.11 2C188.298 2 164.94 25.3573 164.94 54.17C164.94 82.9827 188.298 106.34 217.11 106.34Z" fill="#566C77" stroke="white" stroke-width="3" stroke-miterlimit="10"/>
<path d="M177.298 43.9375V36.848H180.397C182.696 36.848 184.266 38.2659 184.266 40.3928C184.266 42.5196 182.696 43.9375 180.397 43.9375H177.298ZM178.614 42.8234H180.336C181.916 42.8234 182.939 41.8613 182.939 40.3928C182.939 38.9242 181.916 37.9621 180.336 37.9621H178.614V42.8234ZM186.182 37.638C185.716 37.638 185.371 37.3038 185.371 36.8784C185.371 36.4531 185.716 36.1188 186.182 36.1188C186.647 36.1188 186.992 36.4328 186.992 36.848C186.992 37.2937 186.658 37.638 186.182 37.638ZM185.543 43.9375V38.5293H186.809V43.9375H185.543ZM192.634 38.5293H193.839V43.1171C193.839 45.0819 192.816 45.9732 190.922 45.9732C189.909 45.9732 188.907 45.7099 188.289 45.2035L188.856 44.2515C189.332 44.6464 190.102 44.8996 190.851 44.8996C192.046 44.8996 192.573 44.3527 192.573 43.2589V42.9754C192.127 43.4615 191.489 43.6944 190.76 43.6944C189.21 43.6944 188.025 42.6411 188.025 41.0713C188.025 39.5015 189.21 38.4685 190.76 38.4685C191.52 38.4685 192.188 38.7116 192.634 39.2483V38.5293ZM190.952 42.6209C191.904 42.6209 192.593 41.993 192.593 41.0713C192.593 40.1598 191.904 39.542 190.952 39.542C189.99 39.542 189.302 40.1598 189.302 41.0713C189.302 41.993 189.99 42.6209 190.952 42.6209ZM196.141 37.638C195.675 37.638 195.331 37.3038 195.331 36.8784C195.331 36.4531 195.675 36.1188 196.141 36.1188C196.607 36.1188 196.951 36.4328 196.951 36.848C196.951 37.2937 196.617 37.638 196.141 37.638ZM195.503 43.9375V38.5293H196.769V43.9375H195.503ZM201.327 42.7424L201.682 43.6438C201.378 43.8869 200.922 44.0084 200.466 44.0084C199.281 44.0084 198.603 43.3805 198.603 42.1854V39.5825H197.712V38.5698H198.603V37.3342H199.869V38.5698H201.317V39.5825H199.869V42.155C199.869 42.6817 200.132 42.9652 200.618 42.9652C200.882 42.9652 201.135 42.8943 201.327 42.7424ZM204.789 38.4685C206.349 38.4685 207.25 39.2078 207.25 40.7675V43.9375H206.055V43.2792C205.751 43.7451 205.164 44.0084 204.354 44.0084C203.118 44.0084 202.338 43.3298 202.338 42.3879C202.338 41.4866 202.946 40.7776 204.587 40.7776H205.984V40.6966C205.984 39.9573 205.539 39.5218 204.637 39.5218C204.03 39.5218 203.402 39.7243 202.997 40.0586L202.5 39.1369C203.078 38.6913 203.918 38.4685 204.789 38.4685ZM204.617 43.0868C205.235 43.0868 205.772 42.8032 205.984 42.2462V41.6182H204.678C203.817 41.6182 203.584 41.9423 203.584 42.3373C203.584 42.7931 203.969 43.0868 204.617 43.0868ZM208.875 43.9375V36.4227H210.141V43.9375H208.875ZM219.746 40.251C220.506 40.494 221.023 41.0916 221.023 42.0132C221.023 43.2286 220.071 43.9375 218.248 43.9375H214.723V36.848H218.045C219.746 36.848 220.658 37.5671 220.658 38.6913C220.658 39.4205 220.293 39.9573 219.746 40.251ZM217.903 37.8811H216.04V39.8357H217.903C218.815 39.8357 219.331 39.5117 219.331 38.8635C219.331 38.2052 218.815 37.8811 217.903 37.8811ZM218.167 42.9045C219.159 42.9045 219.696 42.5905 219.696 41.8816C219.696 41.1726 219.159 40.8586 218.167 40.8586H216.04V42.9045H218.167ZM224.372 38.4685C225.932 38.4685 226.833 39.2078 226.833 40.7675V43.9375H225.638V43.2792C225.334 43.7451 224.747 44.0084 223.937 44.0084C222.701 44.0084 221.921 43.3298 221.921 42.3879C221.921 41.4866 222.529 40.7776 224.17 40.7776H225.567V40.6966C225.567 39.9573 225.122 39.5218 224.22 39.5218C223.613 39.5218 222.985 39.7243 222.58 40.0586L222.083 39.1369C222.661 38.6913 223.501 38.4685 224.372 38.4685ZM224.2 43.0868C224.818 43.0868 225.355 42.8032 225.567 42.2462V41.6182H224.261C223.4 41.6182 223.167 41.9423 223.167 42.3373C223.167 42.7931 223.552 43.0868 224.2 43.0868ZM231.527 38.4685C232.823 38.4685 233.785 39.2078 233.785 40.8384V43.9375H232.519V41.0004C232.519 40.0383 232.043 39.5724 231.233 39.5724C230.332 39.5724 229.724 40.1193 229.724 41.203V43.9375H228.458V38.5293H229.663V39.2281C230.079 38.7318 230.737 38.4685 231.527 38.4685ZM239.473 43.9375L237.599 41.6182L236.657 42.5095V43.9375H235.391V36.4227H236.657V40.9599L239.28 38.5293H240.799L238.541 40.7979L241.012 43.9375H239.473ZM242.419 37.638C241.953 37.638 241.608 37.3038 241.608 36.8784C241.608 36.4531 241.953 36.1188 242.419 36.1188C242.884 36.1188 243.229 36.4328 243.229 36.848C243.229 37.2937 242.895 37.638 242.419 37.638ZM241.78 43.9375V38.5293H243.046V43.9375H241.78ZM247.777 38.4685C249.073 38.4685 250.035 39.2078 250.035 40.8384V43.9375H248.769V41.0004C248.769 40.0383 248.293 39.5724 247.483 39.5724C246.582 39.5724 245.974 40.1193 245.974 41.203V43.9375H244.708V38.5293H245.913V39.2281C246.328 38.7318 246.987 38.4685 247.777 38.4685ZM255.853 38.5293H257.058V43.1171C257.058 45.0819 256.036 45.9732 254.142 45.9732C253.129 45.9732 252.126 45.7099 251.508 45.2035L252.076 44.2515C252.552 44.6464 253.321 44.8996 254.071 44.8996C255.266 44.8996 255.792 44.3527 255.792 43.2589V42.9754C255.347 43.4615 254.709 43.6944 253.98 43.6944C252.43 43.6944 251.245 42.6411 251.245 41.0713C251.245 39.5015 252.43 38.4685 253.98 38.4685C254.739 38.4685 255.408 38.7116 255.853 39.2483V38.5293ZM254.172 42.6209C255.124 42.6209 255.813 41.993 255.813 41.0713C255.813 40.1598 255.124 39.542 254.172 39.542C253.21 39.542 252.521 40.1598 252.521 41.0713C252.521 41.993 253.21 42.6209 254.172 42.6209Z" fill="white"/>
<path d="M201.364 56.0879L200.656 54.4472H197.111L196.412 56.0879H195.055L198.245 48.9984H199.541L202.742 56.0879H201.364ZM197.556 53.4142H200.22L198.883 50.315L197.556 53.4142ZM205.954 56.1588C204.242 56.1588 203.027 55.0042 203.027 53.3838C203.027 51.7633 204.242 50.6189 205.954 50.6189C207.007 50.6189 207.848 51.0544 208.263 51.8747L207.291 52.4419C206.967 51.9254 206.48 51.6924 205.944 51.6924C205.012 51.6924 204.303 52.3406 204.303 53.3838C204.303 54.4371 205.012 55.0751 205.944 55.0751C206.48 55.0751 206.967 54.8422 207.291 54.3257L208.263 54.8928C207.848 55.703 207.007 56.1588 205.954 56.1588ZM211.759 56.1588C210.048 56.1588 208.833 55.0042 208.833 53.3838C208.833 51.7633 210.048 50.6189 211.759 50.6189C212.813 50.6189 213.653 51.0544 214.069 51.8747L213.096 52.4419C212.772 51.9254 212.286 51.6924 211.749 51.6924C210.818 51.6924 210.109 52.3406 210.109 53.3838C210.109 54.4371 210.818 55.0751 211.749 55.0751C212.286 55.0751 212.772 54.8422 213.096 54.3257L214.069 54.8928C213.653 55.703 212.813 56.1588 211.759 56.1588ZM217.514 56.1588C215.854 56.1588 214.638 55.0042 214.638 53.3838C214.638 51.7633 215.854 50.6189 217.514 50.6189C219.196 50.6189 220.401 51.7633 220.401 53.3838C220.401 55.0042 219.196 56.1588 217.514 56.1588ZM217.514 55.0751C218.436 55.0751 219.125 54.4168 219.125 53.3838C219.125 52.3507 218.436 51.6924 217.514 51.6924C216.603 51.6924 215.914 52.3507 215.914 53.3838C215.914 54.4168 216.603 55.0751 217.514 55.0751ZM225.582 50.6796H226.848V56.0879H225.642V55.3992C225.237 55.8955 224.599 56.1588 223.9 56.1588C222.513 56.1588 221.571 55.3992 221.571 53.7686V50.6796H222.837V53.5965C222.837 54.5788 223.303 55.0447 224.103 55.0447C224.984 55.0447 225.582 54.4978 225.582 53.4142V50.6796ZM231.574 50.6189C232.87 50.6189 233.832 51.3582 233.832 52.9888V56.0879H232.566V53.1508C232.566 52.1887 232.09 51.7228 231.28 51.7228C230.379 51.7228 229.771 52.2697 229.771 53.3534V56.0879H228.505V50.6796H229.71V51.3785C230.126 50.8822 230.784 50.6189 231.574 50.6189ZM238.335 54.8928L238.689 55.7942C238.386 56.0373 237.93 56.1588 237.474 56.1588C236.289 56.1588 235.61 55.5309 235.61 54.3358V51.7329H234.719V50.7202H235.61V49.4846H236.876V50.7202H238.325V51.7329H236.876V54.3054C236.876 54.832 237.14 55.1156 237.626 55.1156C237.889 55.1156 238.142 55.0447 238.335 54.8928Z" fill="white"/>
<path d="M188.602 70.2128C187.812 68.9874 187.366 67.3365 187.366 65.473C187.366 63.6095 187.812 61.9384 188.602 60.7332H189.807C188.967 62.2119 188.612 63.7412 188.612 65.473C188.612 67.2049 188.967 68.7342 189.807 70.2128H188.602ZM194.26 68.3493C192.093 68.3493 190.472 66.82 190.472 64.7033C190.472 62.5866 192.093 61.0573 194.27 61.0573C195.425 61.0573 196.417 61.4725 197.076 62.2423L196.225 63.0424C195.708 62.4853 195.07 62.2119 194.331 62.2119C192.863 62.2119 191.799 63.2449 191.799 64.7033C191.799 66.1617 192.863 67.1948 194.331 67.1948C195.07 67.1948 195.708 66.9213 196.225 66.3541L197.076 67.1644C196.417 67.9341 195.425 68.3493 194.26 68.3493ZM200.449 68.3189C198.788 68.3189 197.572 67.1644 197.572 65.5439C197.572 63.9235 198.788 62.779 200.449 62.779C202.13 62.779 203.335 63.9235 203.335 65.5439C203.335 67.1644 202.13 68.3189 200.449 68.3189ZM200.449 67.2353C201.37 67.2353 202.059 66.577 202.059 65.5439C202.059 64.5109 201.37 63.8526 200.449 63.8526C199.537 63.8526 198.848 64.5109 198.848 65.5439C198.848 66.577 199.537 67.2353 200.449 67.2353ZM207.614 62.779C208.911 62.779 209.873 63.5184 209.873 65.1489V68.248H208.607V65.311C208.607 64.3488 208.131 63.883 207.321 63.883C206.419 63.883 205.812 64.4299 205.812 65.5135V68.248H204.546V62.8398H205.751V63.5386C206.166 63.0424 206.824 62.779 207.614 62.779ZM213.15 68.3189C212.248 68.3189 211.347 68.0556 210.861 67.7113L211.347 66.7491C211.823 67.0631 212.552 67.2859 213.231 67.2859C214.031 67.2859 214.365 67.0631 214.365 66.6884C214.365 65.6553 211.023 66.6276 211.023 64.4704C211.023 63.4475 211.945 62.779 213.403 62.779C214.122 62.779 214.942 62.9512 215.429 63.2449L214.942 64.2071C214.426 63.9032 213.909 63.8019 213.393 63.8019C212.623 63.8019 212.259 64.0551 212.259 64.4096C212.259 65.5034 215.601 64.5311 215.601 66.6479C215.601 67.6606 214.669 68.3189 213.15 68.3189ZM220.661 62.8398H221.927V68.248H220.722V67.5594C220.317 68.0556 219.679 68.3189 218.98 68.3189C217.592 68.3189 216.65 67.5594 216.65 65.9288V62.8398H217.916V65.7566C217.916 66.739 218.382 67.2049 219.182 67.2049C220.064 67.2049 220.661 66.658 220.661 65.5743V62.8398ZM230.411 62.779C231.717 62.779 232.629 63.5184 232.629 65.1489V68.248H231.363V65.311C231.363 64.3488 230.917 63.883 230.147 63.883C229.317 63.883 228.74 64.4299 228.74 65.5034V68.248H227.474V65.311C227.474 64.3488 227.028 63.883 226.258 63.883C225.418 63.883 224.851 64.4299 224.851 65.5034V68.248H223.585V62.8398H224.79V63.5285C225.195 63.0424 225.823 62.779 226.562 62.779C227.352 62.779 228.01 63.0727 228.385 63.6804C228.821 63.1234 229.55 62.779 230.411 62.779ZM239.38 65.5743C239.38 65.6756 239.37 65.8275 239.36 65.949H235.116C235.268 66.739 235.927 67.2454 236.868 67.2454C237.476 67.2454 237.952 67.053 238.337 66.658L239.016 67.4378C238.529 68.0151 237.77 68.3189 236.838 68.3189C235.025 68.3189 233.85 67.1542 233.85 65.5439C233.85 63.9336 235.035 62.779 236.646 62.779C238.226 62.779 239.38 63.883 239.38 65.5743ZM236.646 63.7918C235.825 63.7918 235.228 64.3185 235.106 65.1084H238.175C238.074 64.3286 237.476 63.7918 236.646 63.7918ZM241.801 63.6298C242.166 63.0626 242.824 62.779 243.726 62.779V63.9842C243.614 63.964 243.523 63.9539 243.432 63.9539C242.47 63.9539 241.862 64.521 241.862 65.6249V68.248H240.596V62.8398H241.801V63.6298ZM245.377 70.2128H244.172C245.013 68.7342 245.377 67.2049 245.377 65.473C245.377 63.7412 245.013 62.2119 244.172 60.7332H245.377C246.177 61.9384 246.613 63.6095 246.613 65.473C246.613 67.3365 246.177 68.9874 245.377 70.2128Z" fill="white"/>
</svg>
