<svg width="459" height="394" viewBox="0 0 459 394" fill="none" xmlns="http://www.w3.org/2000/svg">
<g clip-path="url(#clip0_1726_4857)">
<path d="M151.51 356.2V390.146L67.7827 328.724V296.348L151.51 356.2Z" stroke="#E9775D" stroke-miterlimit="10"/>
<mask id="mask0_1726_4857" style="mask-type:alpha" maskUnits="userSpaceOnUse" x="-12" y="-16" width="483" height="427">
<rect x="-12" y="-16" width="483" height="427" fill="#D9D9D9"/>
</mask>
<g mask="url(#mask0_1726_4857)">
<path d="M262.719 238.411C262.719 238.411 248.928 252.931 241.61 269.156C238.889 275.188 235.895 281.1 233.433 287.248C231.6 291.827 230.448 296.516 228.212 300.892C224.378 308.388 219.119 315.124 213.346 321.214C209.099 325.691 204.516 329.841 199.727 333.722C188.829 341.237 173.085 349.975 151.505 356.195" stroke="#E9775D" stroke-miterlimit="10"/>
</g>
<path d="M67.7827 296.348C67.7827 296.348 121.053 280.937 134.753 255.035" stroke="#E9775D" stroke-miterlimit="10"/>
<path d="M220.745 312.591C220.745 312.591 151.481 263.773 132.685 253.904C132.685 253.904 152.182 202.626 171.852 179.541L265.819 235.402L287.773 255.844C287.773 255.844 258.967 273.113 238.947 318.932C238.947 318.932 228.241 316.655 220.741 312.596L220.745 312.591Z" stroke="#E9775D" stroke-miterlimit="10"/>
<path d="M234.431 317.791C234.431 317.791 227.655 344.79 205.116 363.489C197.664 370.075 175.283 382.26 151.51 390.146" stroke="#E9775D" stroke-miterlimit="10"/>
<path d="M165.925 363.475C165.925 363.475 198.614 353.73 218.044 328.175" stroke="#E9775D" stroke-width="4" stroke-miterlimit="10" stroke-linecap="round"/>
<path d="M165.925 375.462C165.925 375.462 173.047 373.7 183.143 367.86" stroke="#E9775D" stroke-width="4" stroke-miterlimit="10" stroke-linecap="round"/>
<path d="M190.648 364.274L198.009 359.628" stroke="#E9775D" stroke-width="4" stroke-miterlimit="10" stroke-linecap="round"/>
<path d="M142.431 259.609C142.431 259.609 135.588 274.716 106.801 289.189C106.801 289.189 113.476 296.906 108.61 305.302L140.166 329.134C140.166 329.134 153.952 322.312 166.746 333.9C166.746 333.9 200.946 323.929 209.123 304.46" stroke="#E9775D" stroke-miterlimit="10"/>
<path d="M265.819 235.402C265.819 235.402 292.788 204.595 332.617 196.772L249.125 136.471C249.125 136.471 203.556 147.694 176.314 182.194" stroke="#E9775D" stroke-miterlimit="10"/>
<path d="M186.439 188.212C186.439 188.212 202.88 165.704 234.608 150.558C234.608 150.558 240.376 159.58 257.345 152.6L294.328 179.541C294.328 179.541 289.577 186.305 294.328 195.664C294.328 195.664 262.11 216.361 254.465 228.652" stroke="#E9775D" stroke-miterlimit="10"/>
<path d="M284.659 233.284C284.659 233.284 297.721 219.495 312.654 215.413" stroke="#E9775D" stroke-width="4" stroke-miterlimit="10" stroke-linecap="round"/>
<path d="M292.634 238.411C292.634 238.411 302.476 226.982 323.681 221.363" stroke="#E9775D" stroke-width="4" stroke-miterlimit="10" stroke-linecap="round"/>
<path d="M318.931 212.856L323.681 210.132" stroke="#E9775D" stroke-width="4" stroke-miterlimit="10" stroke-linecap="round"/>
<path d="M235.679 250.572L229.925 248.141C229.925 248.141 235.583 245.397 235.472 239.543C235.468 239.292 235.439 239.071 235.41 238.845C235.117 236.384 233.073 234.175 228.917 232.437V232.413C224.483 230.569 219.982 230.179 215.616 230.636C215.246 230.675 214.853 230.737 214.483 230.776L214.358 230.79C213.965 230.853 213.571 230.92 213.178 230.983C212.832 231.04 212.487 231.098 212.141 231.18C211.993 231.219 211.849 231.233 211.724 231.271C211.455 231.324 211.182 231.373 210.937 231.445C208.725 231.95 206.584 232.624 204.526 233.342C203.518 233.698 202.515 234.073 201.531 234.473C200.106 235.032 198.71 235.609 197.385 236.153C196.848 236.389 196.33 236.601 195.816 236.818C192.092 238.411 189.295 239.538 187.035 240.048C185.609 240.38 184.376 240.486 183.234 240.313C182.615 240.221 182.02 240.058 181.444 239.822C179.203 238.878 178.824 237.131 182.951 234.478C187.347 231.661 191.877 230.934 195.725 231.912L204.425 222.798C195.869 221.161 186.732 222.548 177.744 226.958L170.297 223.843L160.359 230.208L167.806 233.322C164.255 236.254 162.379 239.1 162.48 241.651V241.719C162.629 244.309 164.745 246.6 169.155 248.449C178.939 252.561 188.503 249.86 197.232 246.341C205.346 243.043 211.234 239.547 215.995 241.541C218.96 242.792 218.106 244.761 214.857 246.846C209.68 250.178 203.969 249.937 200.84 249.065L191.584 258.622C193.345 259.05 195.106 259.315 196.814 259.479C199.929 259.749 202.976 259.595 205.908 259.137C211.11 258.324 215.937 256.542 220.069 254.458L227.516 257.592L237.574 251.381L235.688 250.572H235.679Z" stroke="#E9775D" stroke-miterlimit="10"/>
<path d="M284.659 252.941C284.659 252.941 305.547 236.23 332.621 230.313V196.772" stroke="#E9775D" stroke-miterlimit="10"/>
</g>
<path d="M293.249 166.606L389.497 84.4286" stroke="#F05A37"/>
<circle cx="373.848" cy="73.35" r="63.04" transform="rotate(-1.61681 373.848 73.35)" fill="#F05A37"/>
<circle cx="373.239" cy="64.7936" r="62.54" transform="rotate(-1.61681 373.239 64.7936)" fill="white" stroke="#F05A37"/>
<path d="M351.655 85.628C350.281 85.628 349.111 85.1454 348.146 84.1802C347.18 83.2149 346.698 82.0449 346.698 80.6703V48.0216C346.698 46.647 347.18 45.477 348.146 44.5117C349.111 43.5465 350.281 43.0638 351.655 43.0638H395.82C397.194 43.0638 398.364 43.5465 399.329 44.5117C400.294 45.477 400.777 46.647 400.777 48.0216V80.6703C400.777 82.0449 400.294 83.2149 399.329 84.1802C398.364 85.1454 397.194 85.628 395.82 85.628H351.655ZM373.737 65.7551L350.766 51.0329V80.6648C350.766 80.9258 350.85 81.1402 351.018 81.3079C351.186 81.4757 351.4 81.5596 351.661 81.5596H395.814C396.075 81.5596 396.289 81.4757 396.457 81.3079C396.625 81.1402 396.709 80.9258 396.709 80.6648V51.0329L373.737 65.7551ZM373.737 61.4966L396.202 47.1323H351.272L373.737 61.4966ZM350.766 51.0329V47.1323V80.6648C350.766 80.9258 350.85 81.1402 351.018 81.3079C351.186 81.4757 351.4 81.5596 351.661 81.5596H350.766V51.0329Z" fill="#F05A37"/>
<path d="M274.111 269.046L361.917 342.78" stroke="#F05A37"/>
<circle cx="395.126" cy="330.96" r="63.04" fill="#F05A37"/>
<circle cx="395.126" cy="323.08" r="62.54" fill="white" stroke="#F05A37"/>
<path d="M419.845 319.853V343.772C419.845 344.898 419.455 345.851 418.676 346.63C417.897 347.409 416.944 347.799 415.818 347.799H374.361C373.235 347.799 372.282 347.409 371.503 346.63C370.724 345.851 370.334 344.898 370.334 343.772V319.741C369.014 318.764 368.118 317.521 367.644 316.011C367.171 314.501 367.182 312.954 367.678 311.369L370.524 302.058C370.912 300.824 371.535 299.899 372.392 299.284C373.25 298.669 374.29 298.361 375.513 298.361H414.431C415.676 298.361 416.752 298.662 417.658 299.264C418.564 299.866 419.192 300.76 419.543 301.946L422.574 311.369C423.07 312.954 423.069 314.52 422.571 316.067C422.073 317.614 421.164 318.876 419.845 319.853ZM401.557 319.053C403.485 319.053 404.97 318.518 406.014 317.448C407.058 316.378 407.502 315.245 407.345 314.048L405.304 300.598H396.244V313.377C396.244 314.898 396.759 316.224 397.788 317.356C398.817 318.488 400.073 319.053 401.557 319.053ZM388.241 319.053C389.897 319.053 391.272 318.5 392.366 317.392C393.46 316.285 394.007 314.947 394.007 313.377V300.598H384.892L382.85 314.272C382.731 315.234 383.163 316.271 384.148 317.384C385.132 318.497 386.497 319.053 388.241 319.053ZM375.177 319.053C376.564 319.053 377.766 318.579 378.782 317.63C379.798 316.681 380.397 315.513 380.58 314.126L382.526 300.598H375.144C374.51 300.598 373.997 300.738 373.606 301.018C373.214 301.297 372.944 301.717 372.795 302.276L369.898 311.884C369.339 313.61 369.561 315.236 370.564 316.763C371.567 318.29 373.104 319.053 375.177 319.053ZM415.002 319.053C416.814 319.053 418.298 318.339 419.456 316.911C420.614 315.483 420.894 313.808 420.298 311.884L417.345 302.164C417.196 301.605 416.925 301.204 416.534 300.962C416.142 300.719 415.63 300.598 414.996 300.598H407.67L409.616 314.126C409.836 315.513 410.445 316.681 411.442 317.63C412.439 318.579 413.626 319.053 415.002 319.053ZM374.361 345.562H415.818C416.303 345.562 416.722 345.394 417.076 345.058C417.431 344.723 417.608 344.294 417.608 343.772V320.938C417.321 321.061 416.939 321.151 416.464 321.207C415.989 321.262 415.501 321.29 415.002 321.29C413.753 321.29 412.611 321.017 411.576 320.471C410.542 319.925 409.547 319.063 408.593 317.885C407.854 318.891 406.922 319.711 405.796 320.342C404.67 320.974 403.274 321.29 401.608 321.29C400.377 321.29 399.26 321.028 398.255 320.505C397.25 319.981 396.207 319.178 395.126 318.097C394.175 319.156 393.105 319.953 391.916 320.488C390.726 321.023 389.559 321.29 388.415 321.29C387.136 321.29 385.915 321.052 384.752 320.575C383.589 320.097 382.595 319.201 381.771 317.885C380.272 319.313 378.956 320.237 377.823 320.658C376.689 321.08 375.807 321.29 375.177 321.29C374.689 321.29 374.222 321.262 373.776 321.207C373.331 321.151 372.929 321.061 372.571 320.938V343.772C372.571 344.294 372.748 344.723 373.103 345.058C373.457 345.394 373.876 345.562 374.361 345.562Z" fill="#F05A37"/>
<path d="M159.289 197L77.6743 129.457" stroke="#F05A37"/>
<circle cx="63.04" cy="100.189" r="63.04" fill="#F05A37"/>
<circle cx="63.04" cy="92.3086" r="62.54" fill="white" stroke="#F05A37"/>
<path d="M33.965 113.448C33.1758 113.448 32.4929 113.149 31.9162 112.552C31.3396 111.955 31.0513 111.247 31.0513 110.428H40.9108C39.7932 110.428 38.8427 110.037 38.0593 109.253C37.276 108.47 36.8843 107.519 36.8843 106.402V73.0704C36.8843 71.9529 37.276 71.0024 38.0593 70.2189C38.8427 69.4356 39.7932 69.0439 40.9108 69.0439H85.1698C86.2874 69.0439 87.2379 69.4356 88.0213 70.2189C88.8047 71.0024 89.1964 71.9529 89.1964 73.0704V106.402C89.1964 107.519 88.8047 108.47 88.0213 109.253C87.2379 110.037 86.2874 110.428 85.1698 110.428H95.0294C95.0294 111.267 94.7306 111.98 94.1332 112.567C93.5357 113.155 92.8278 113.448 92.0095 113.448H33.965ZM63.0403 112.576C63.517 112.576 63.899 112.432 64.1864 112.145C64.4737 111.857 64.6174 111.485 64.6174 111.027C64.6174 110.569 64.4737 110.187 64.1864 109.881C63.899 109.575 63.517 109.422 63.0403 109.422C62.5636 109.422 62.1816 109.577 61.8942 109.889C61.6069 110.201 61.4633 110.571 61.4633 110.999C61.4633 111.475 61.6069 111.857 61.8942 112.145C62.1816 112.432 62.5636 112.576 63.0403 112.576ZM40.9108 108.191H85.1698C85.6172 108.191 86.0274 108.005 86.4002 107.632C86.773 107.259 86.9594 106.849 86.9594 106.402V73.0704C86.9594 72.623 86.773 72.2129 86.4002 71.8401C86.0274 71.4672 85.6172 71.2808 85.1698 71.2808H40.9108C40.4634 71.2808 40.0533 71.4672 39.6805 71.8401C39.3076 72.2129 39.1212 72.623 39.1212 73.0704V106.402C39.1212 106.849 39.3076 107.259 39.6805 107.632C40.0533 108.005 40.4634 108.191 40.9108 108.191Z" fill="#F05A37"/>
<defs>
<clipPath id="clip0_1726_4857">
<rect width="265.669" height="254.411" fill="white" transform="translate(67.543 136.211)"/>
</clipPath>
</defs>
</svg>
