<svg width="109" height="109" viewBox="0 0 109 109" fill="none" xmlns="http://www.w3.org/2000/svg">
<path d="M54.63 106.649C83.4427 106.649 106.8 83.2913 106.8 54.4786C106.8 25.6659 83.4427 2.30859 54.63 2.30859C25.8173 2.30859 2.45996 25.6659 2.45996 54.4786C2.45996 83.2913 25.8173 106.649 54.63 106.649Z" fill="#566C77" stroke="white" stroke-width="3" stroke-miterlimit="10"/>
<path d="M14.8109 45.1562V38.0668H17.91C20.209 38.0668 21.7788 39.4847 21.7788 41.6115C21.7788 43.7384 20.209 45.1562 17.91 45.1562H14.8109ZM16.1275 44.0422H17.8492C19.4292 44.0422 20.4521 43.0801 20.4521 41.6115C20.4521 40.143 19.4292 39.1808 17.8492 39.1808H16.1275V44.0422ZM23.6947 38.8568C23.2288 38.8568 22.8845 38.5225 22.8845 38.0972C22.8845 37.6718 23.2288 37.3376 23.6947 37.3376C24.1606 37.3376 24.5049 37.6515 24.5049 38.0668C24.5049 38.5124 24.1707 38.8568 23.6947 38.8568ZM23.0567 45.1562V39.748H24.3226V45.1562H23.0567ZM30.1468 39.748H31.352V44.3359C31.352 46.3007 30.3291 47.1919 28.4352 47.1919C27.4224 47.1919 26.4197 46.9286 25.8019 46.4222L26.3691 45.4702C26.8451 45.8652 27.6148 46.1184 28.3643 46.1184C29.5594 46.1184 30.086 45.5715 30.086 44.4777V44.1941C29.6404 44.6802 29.0023 44.9132 28.2731 44.9132C26.7236 44.9132 25.5386 43.8599 25.5386 42.2901C25.5386 40.7203 26.7236 39.6872 28.2731 39.6872C29.0327 39.6872 29.7011 39.9303 30.1468 40.4671V39.748ZM28.4655 43.8396C29.4176 43.8396 30.1063 43.2117 30.1063 42.2901C30.1063 41.3786 29.4176 40.7608 28.4655 40.7608C27.5034 40.7608 26.8147 41.3786 26.8147 42.2901C26.8147 43.2117 27.5034 43.8396 28.4655 43.8396ZM33.6544 38.8568C33.1885 38.8568 32.8442 38.5225 32.8442 38.0972C32.8442 37.6718 33.1885 37.3376 33.6544 37.3376C34.1203 37.3376 34.4646 37.6515 34.4646 38.0668C34.4646 38.5124 34.1304 38.8568 33.6544 38.8568ZM33.0163 45.1562V39.748H34.2823V45.1562H33.0163ZM38.8405 43.9612L39.1949 44.8625C38.8911 45.1056 38.4353 45.2271 37.9796 45.2271C36.7946 45.2271 36.1161 44.5992 36.1161 43.4041V40.8013H35.2248V39.7885H36.1161V38.5529H37.382V39.7885H38.8303V40.8013H37.382V43.3738C37.382 43.9004 37.6454 44.184 38.1315 44.184C38.3948 44.184 38.648 44.1131 38.8405 43.9612ZM42.3024 39.6872C43.8621 39.6872 44.7635 40.4266 44.7635 41.9862V45.1562H43.5684V44.4979C43.2646 44.9638 42.6771 45.2271 41.8669 45.2271C40.6313 45.2271 39.8515 44.5486 39.8515 43.6067C39.8515 42.7053 40.4592 41.9964 42.0999 41.9964H43.4975V41.9154C43.4975 41.176 43.0519 40.7405 42.1505 40.7405C41.5428 40.7405 40.9149 40.9431 40.5098 41.2773L40.0135 40.3557C40.5908 39.91 41.4314 39.6872 42.3024 39.6872ZM42.1302 44.3055C42.748 44.3055 43.2848 44.0219 43.4975 43.4649V42.837H42.191C41.3301 42.837 41.0972 43.1611 41.0972 43.5561C41.0972 44.0118 41.4821 44.3055 42.1302 44.3055ZM46.3882 45.1562V37.6414H47.6542V45.1562H46.3882ZM57.2597 41.4697C58.0193 41.7128 58.5358 42.3103 58.5358 43.232C58.5358 44.4473 57.5838 45.1562 55.7608 45.1562H52.2363V38.0668H55.5582C57.2597 38.0668 58.1712 38.7859 58.1712 39.91C58.1712 40.6393 57.8066 41.176 57.2597 41.4697ZM55.4164 39.0998H53.5529V41.0545H55.4164C56.3279 41.0545 56.8444 40.7304 56.8444 40.0822C56.8444 39.4239 56.3279 39.0998 55.4164 39.0998ZM55.6797 44.1232C56.6723 44.1232 57.209 43.8093 57.209 43.1003C57.209 42.3914 56.6723 42.0774 55.6797 42.0774H53.5529V44.1232H55.6797ZM61.8855 39.6872C63.4452 39.6872 64.3465 40.4266 64.3465 41.9862V45.1562H63.1514V44.4979C62.8476 44.9638 62.2602 45.2271 61.45 45.2271C60.2144 45.2271 59.4345 44.5486 59.4345 43.6067C59.4345 42.7053 60.0422 41.9964 61.6829 41.9964H63.0805V41.9154C63.0805 41.176 62.6349 40.7405 61.7336 40.7405C61.1259 40.7405 60.498 40.9431 60.0928 41.2773L59.5966 40.3557C60.1739 39.91 61.0145 39.6872 61.8855 39.6872ZM61.7133 44.3055C62.3311 44.3055 62.8679 44.0219 63.0805 43.4649V42.837H61.7741C60.9132 42.837 60.6803 43.1611 60.6803 43.5561C60.6803 44.0118 61.0651 44.3055 61.7133 44.3055ZM69.04 39.6872C70.3363 39.6872 71.2985 40.4266 71.2985 42.0571V45.1562H70.0325V42.2192C70.0325 41.257 69.5565 40.7912 68.7463 40.7912C67.8449 40.7912 67.2372 41.3381 67.2372 42.4217V45.1562H65.9712V39.748H67.1765V40.4468C67.5917 39.9506 68.25 39.6872 69.04 39.6872ZM76.9859 45.1562L75.1123 42.837L74.1704 43.7282V45.1562H72.9044V37.6414H74.1704V42.1787L76.7935 39.748H78.3127L76.0542 42.0166L78.5254 45.1562H76.9859ZM79.9317 38.8568C79.4658 38.8568 79.1215 38.5225 79.1215 38.0972C79.1215 37.6718 79.4658 37.3376 79.9317 37.3376C80.3976 37.3376 80.7419 37.6515 80.7419 38.0668C80.7419 38.5124 80.4077 38.8568 79.9317 38.8568ZM79.2937 45.1562V39.748H80.5596V45.1562H79.2937ZM85.2899 39.6872C86.5863 39.6872 87.5484 40.4266 87.5484 42.0571V45.1562H86.2825V42.2192C86.2825 41.257 85.8065 40.7912 84.9962 40.7912C84.0949 40.7912 83.4872 41.3381 83.4872 42.4217V45.1562H82.2212V39.748H83.4264V40.4468C83.8417 39.9506 84.5 39.6872 85.2899 39.6872ZM93.3664 39.748H94.5716V44.3359C94.5716 46.3007 93.5487 47.1919 91.6548 47.1919C90.642 47.1919 89.6394 46.9286 89.0216 46.4222L89.5887 45.4702C90.0647 45.8652 90.8344 46.1184 91.5839 46.1184C92.779 46.1184 93.3056 45.5715 93.3056 44.4777V44.1941C92.86 44.6802 92.2219 44.9132 91.4927 44.9132C89.9432 44.9132 88.7582 43.8599 88.7582 42.2901C88.7582 40.7203 89.9432 39.6872 91.4927 39.6872C92.2523 39.6872 92.9208 39.9303 93.3664 40.4671V39.748ZM91.6852 43.8396C92.6372 43.8396 93.3259 43.2117 93.3259 42.2901C93.3259 41.3786 92.6372 40.7608 91.6852 40.7608C90.723 40.7608 90.0343 41.3786 90.0343 42.2901C90.0343 43.2117 90.723 43.8396 91.6852 43.8396Z" fill="white"/>
<path d="M37.4777 57.3066L36.7688 55.6659H33.2241L32.5252 57.3066H31.1681L34.3584 50.2172H35.6547L38.8551 57.3066H37.4777ZM33.6697 54.6329H36.3333L34.9964 51.5338L33.6697 54.6329ZM42.067 57.3775C40.3555 57.3775 39.1401 56.223 39.1401 54.6025C39.1401 52.9821 40.3555 51.8376 42.067 51.8376C43.1203 51.8376 43.9609 52.2731 44.3762 53.0935L43.4039 53.6606C43.0798 53.1441 42.5937 52.9112 42.0569 52.9112C41.1252 52.9112 40.4162 53.5594 40.4162 54.6025C40.4162 55.6558 41.1252 56.2939 42.0569 56.2939C42.5937 56.2939 43.0798 56.0609 43.4039 55.5444L44.3762 56.1116C43.9609 56.9218 43.1203 57.3775 42.067 57.3775ZM47.8727 57.3775C46.1611 57.3775 44.9458 56.223 44.9458 54.6025C44.9458 52.9821 46.1611 51.8376 47.8727 51.8376C48.926 51.8376 49.7666 52.2731 50.1819 53.0935L49.2096 53.6606C48.8855 53.1441 48.3994 52.9112 47.8626 52.9112C46.9308 52.9112 46.2219 53.5594 46.2219 54.6025C46.2219 55.6558 46.9308 56.2939 47.8626 56.2939C48.3994 56.2939 48.8855 56.0609 49.2096 55.5444L50.1819 56.1116C49.7666 56.9218 48.926 57.3775 47.8727 57.3775ZM53.6278 57.3775C51.9668 57.3775 50.7515 56.223 50.7515 54.6025C50.7515 52.9821 51.9668 51.8376 53.6278 51.8376C55.309 51.8376 56.5142 52.9821 56.5142 54.6025C56.5142 56.223 55.309 57.3775 53.6278 57.3775ZM53.6278 56.2939C54.5494 56.2939 55.2381 55.6356 55.2381 54.6025C55.2381 53.5695 54.5494 52.9112 53.6278 52.9112C52.7163 52.9112 52.0276 53.5695 52.0276 54.6025C52.0276 55.6356 52.7163 56.2939 53.6278 56.2939ZM61.6949 51.8984H62.9609V57.3066H61.7557V56.618C61.3505 57.1142 60.7125 57.3775 60.0137 57.3775C58.6262 57.3775 57.6843 56.618 57.6843 54.9874V51.8984H58.9502V54.8152C58.9502 55.7976 59.4161 56.2635 60.2162 56.2635C61.0973 56.2635 61.6949 55.7166 61.6949 54.6329V51.8984ZM67.6871 51.8376C68.9835 51.8376 69.9456 52.577 69.9456 54.2075V57.3066H68.6797V54.3696C68.6797 53.4074 68.2037 52.9416 67.3934 52.9416C66.4921 52.9416 65.8844 53.4885 65.8844 54.5721V57.3066H64.6184V51.8984H65.8236V52.5972C66.2389 52.101 66.8972 51.8376 67.6871 51.8376ZM74.4482 56.1116L74.8026 57.0129C74.4988 57.256 74.043 57.3775 73.5873 57.3775C72.4023 57.3775 71.7238 56.7496 71.7238 55.5545V52.9517H70.8325V51.9389H71.7238V50.7033H72.9898V51.9389H74.438V52.9517H72.9898V55.5241C72.9898 56.0508 73.2531 56.3344 73.7392 56.3344C74.0025 56.3344 74.2557 56.2635 74.4482 56.1116Z" fill="white"/>
<path d="M29.9853 71.4316C29.1953 70.2061 28.7497 68.5553 28.7497 66.6918C28.7497 64.8283 29.1953 63.1572 29.9853 61.952H31.1905C30.3499 63.4306 29.9954 64.9599 29.9954 66.6918C29.9954 68.4236 30.3499 69.9529 31.1905 71.4316H29.9853ZM37.3854 65.7803C38.145 66.0233 38.6615 66.6209 38.6615 67.5425C38.6615 68.7579 37.7095 69.4668 35.8865 69.4668H32.362V62.3773H35.684C37.3854 62.3773 38.2969 63.0964 38.2969 64.2206C38.2969 64.9498 37.9323 65.4866 37.3854 65.7803ZM35.5422 63.4104H33.6787V65.365H35.5422C36.4537 65.365 36.9702 65.0409 36.9702 64.3928C36.9702 63.7345 36.4537 63.4104 35.5422 63.4104ZM35.8055 68.4338C36.798 68.4338 37.3348 68.1198 37.3348 67.4109C37.3348 66.7019 36.798 66.3879 35.8055 66.3879H33.6787V68.4338H35.8055ZM43.9153 64.0586H45.1812V69.4668H43.976V68.7781C43.5709 69.2744 42.9329 69.5377 42.234 69.5377C40.8465 69.5377 39.9046 68.7781 39.9046 67.1475V64.0586H41.1706V66.9754C41.1706 67.9578 41.6365 68.4236 42.4366 68.4236C43.3177 68.4236 43.9153 67.8767 43.9153 66.7931V64.0586ZM48.5099 69.5377C47.6085 69.5377 46.7071 69.2744 46.221 68.93L46.7071 67.9679C47.1831 68.2818 47.9123 68.5047 48.5909 68.5047C49.391 68.5047 49.7252 68.2818 49.7252 67.9071C49.7252 66.8741 46.383 67.8463 46.383 65.6891C46.383 64.6662 47.3047 63.9978 48.7631 63.9978C49.4821 63.9978 50.3025 64.17 50.7886 64.4637L50.3025 65.4258C49.786 65.122 49.2695 65.0207 48.7529 65.0207C47.9832 65.0207 47.6186 65.2739 47.6186 65.6284C47.6186 66.7222 50.9608 65.7499 50.9608 67.8666C50.9608 68.8794 50.029 69.5377 48.5099 69.5377ZM52.6891 63.1673C52.2232 63.1673 51.8789 62.8331 51.8789 62.4077C51.8789 61.9824 52.2232 61.6481 52.6891 61.6481C53.155 61.6481 53.4993 61.9621 53.4993 62.3773C53.4993 62.823 53.1651 63.1673 52.6891 63.1673ZM52.051 69.4668V64.0586H53.317V69.4668H52.051ZM58.0473 63.9978C59.3437 63.9978 60.3058 64.7371 60.3058 66.3677V69.4668H59.0399V66.5297C59.0399 65.5676 58.5638 65.1017 57.7536 65.1017C56.8522 65.1017 56.2446 65.6486 56.2446 66.7323V69.4668H54.9786V64.0586H56.1838V64.7574C56.5991 64.2611 57.2574 63.9978 58.0473 63.9978ZM67.0454 66.7931C67.0454 66.8943 67.0353 67.0463 67.0251 67.1678H62.7816C62.9335 67.9578 63.5918 68.4641 64.5337 68.4641C65.1414 68.4641 65.6174 68.2717 66.0022 67.8767L66.6808 68.6566C66.1947 69.2339 65.4351 69.5377 64.5033 69.5377C62.6904 69.5377 61.5156 68.373 61.5156 66.7627C61.5156 65.1524 62.7006 63.9978 64.3109 63.9978C65.8908 63.9978 67.0454 65.1017 67.0454 66.7931ZM64.3109 65.0106C63.4905 65.0106 62.893 65.5372 62.7715 66.3272H65.8402C65.7389 65.5473 65.1414 65.0106 64.3109 65.0106ZM69.9325 69.5377C69.0312 69.5377 68.1298 69.2744 67.6437 68.93L68.1298 67.9679C68.6058 68.2818 69.335 68.5047 70.0136 68.5047C70.8137 68.5047 71.1479 68.2818 71.1479 67.9071C71.1479 66.8741 67.8057 67.8463 67.8057 65.6891C67.8057 64.6662 68.7273 63.9978 70.1857 63.9978C70.9048 63.9978 71.7252 64.17 72.2113 64.4637L71.7252 65.4258C71.2086 65.122 70.6921 65.0207 70.1756 65.0207C69.4059 65.0207 69.0413 65.2739 69.0413 65.6284C69.0413 66.7222 72.3835 65.7499 72.3835 67.8666C72.3835 68.8794 71.4517 69.5377 69.9325 69.5377ZM75.1448 69.5377C74.2434 69.5377 73.342 69.2744 72.8559 68.93L73.342 67.9679C73.8181 68.2818 74.5473 68.5047 75.2258 68.5047C76.0259 68.5047 76.3601 68.2818 76.3601 67.9071C76.3601 66.8741 73.018 67.8463 73.018 65.6891C73.018 64.6662 73.9396 63.9978 75.398 63.9978C76.1171 63.9978 76.9374 64.17 77.4236 64.4637L76.9374 65.4258C76.4209 65.122 75.9044 65.0207 75.3879 65.0207C74.6182 65.0207 74.2536 65.2739 74.2536 65.6284C74.2536 66.7222 77.5957 65.7499 77.5957 67.8666C77.5957 68.8794 76.664 69.5377 75.1448 69.5377ZM79.2835 71.4316H78.0783C78.9189 69.9529 79.2835 68.4236 79.2835 66.6918C79.2835 64.9599 78.9189 63.4306 78.0783 61.952H79.2835C80.0836 63.1572 80.5191 64.8283 80.5191 66.6918C80.5191 68.5553 80.0836 70.2061 79.2835 71.4316Z" fill="white"/>
</svg>
