<svg width="234" height="225" viewBox="0 0 234 225" fill="none" xmlns="http://www.w3.org/2000/svg">
<path d="M117.14 58.1998C132.863 58.1998 145.61 45.4533 145.61 29.7298C145.61 14.0062 132.863 1.25977 117.14 1.25977C101.416 1.25977 88.6699 14.0062 88.6699 29.7298C88.6699 45.4533 101.416 58.1998 117.14 58.1998Z" stroke="#566C77" stroke-width="2" stroke-miterlimit="10"/>
<path d="M97.5817 27.5762V23.4462H95.9577V22.6762H100.116V23.4462H98.4917V27.5762H97.5817ZM101.459 24.3842C101.711 23.9922 102.166 23.7962 102.789 23.7962V24.6292C102.712 24.6152 102.649 24.6082 102.586 24.6082C101.921 24.6082 101.501 25.0002 101.501 25.7632V27.5762H100.626V23.8382H101.459V24.3842ZM104.939 23.7962C106.017 23.7962 106.64 24.3072 106.64 25.3852V27.5762H105.814V27.1212C105.604 27.4432 105.198 27.6252 104.638 27.6252C103.784 27.6252 103.245 27.1562 103.245 26.5052C103.245 25.8822 103.665 25.3922 104.799 25.3922H105.765V25.3362C105.765 24.8252 105.457 24.5242 104.834 24.5242C104.414 24.5242 103.98 24.6642 103.7 24.8952L103.357 24.2582C103.756 23.9502 104.337 23.7962 104.939 23.7962ZM104.82 26.9882C105.247 26.9882 105.618 26.7922 105.765 26.4072V25.9732H104.862C104.267 25.9732 104.106 26.1972 104.106 26.4702C104.106 26.7852 104.372 26.9882 104.82 26.9882ZM109.883 23.7962C110.779 23.7962 111.444 24.3072 111.444 25.4342V27.5762H110.569V25.5462C110.569 24.8812 110.24 24.5592 109.68 24.5592C109.057 24.5592 108.637 24.9372 108.637 25.6862V27.5762H107.762V23.8382H108.595V24.3212C108.882 23.9782 109.337 23.7962 109.883 23.7962ZM113.709 27.6252C113.086 27.6252 112.463 27.4432 112.127 27.2052L112.463 26.5402C112.792 26.7572 113.296 26.9112 113.765 26.9112C114.318 26.9112 114.549 26.7572 114.549 26.4982C114.549 25.7842 112.239 26.4562 112.239 24.9652C112.239 24.2582 112.876 23.7962 113.884 23.7962C114.381 23.7962 114.948 23.9152 115.284 24.1182L114.948 24.7832C114.591 24.5732 114.234 24.5032 113.877 24.5032C113.345 24.5032 113.093 24.6782 113.093 24.9232C113.093 25.6792 115.403 25.0072 115.403 26.4702C115.403 27.1702 114.759 27.6252 113.709 27.6252ZM117.585 23.7962C118.663 23.7962 119.286 24.3072 119.286 25.3852V27.5762H118.46V27.1212C118.25 27.4432 117.844 27.6252 117.284 27.6252C116.43 27.6252 115.891 27.1562 115.891 26.5052C115.891 25.8822 116.311 25.3922 117.445 25.3922H118.411V25.3362C118.411 24.8252 118.103 24.5242 117.48 24.5242C117.06 24.5242 116.626 24.6642 116.346 24.8952L116.003 24.2582C116.402 23.9502 116.983 23.7962 117.585 23.7962ZM117.466 26.9882C117.893 26.9882 118.264 26.7922 118.411 26.4072V25.9732H117.508C116.913 25.9732 116.752 26.1972 116.752 26.4702C116.752 26.7852 117.018 26.9882 117.466 26.9882ZM122.158 27.6252C120.975 27.6252 120.135 26.8272 120.135 25.7072C120.135 24.5872 120.975 23.7962 122.158 23.7962C122.886 23.7962 123.467 24.0972 123.754 24.6642L123.082 25.0562C122.858 24.6992 122.522 24.5382 122.151 24.5382C121.507 24.5382 121.017 24.9862 121.017 25.7072C121.017 26.4352 121.507 26.8762 122.151 26.8762C122.522 26.8762 122.858 26.7152 123.082 26.3582L123.754 26.7502C123.467 27.3102 122.886 27.6252 122.158 27.6252ZM126.56 26.7502L126.805 27.3732C126.595 27.5412 126.28 27.6252 125.965 27.6252C125.146 27.6252 124.677 27.1912 124.677 26.3652V24.5662H124.061V23.8662H124.677V23.0122H125.552V23.8662H126.553V24.5662H125.552V26.3442C125.552 26.7082 125.734 26.9042 126.07 26.9042C126.252 26.9042 126.427 26.8552 126.56 26.7502ZM127.966 23.2222C127.644 23.2222 127.406 22.9912 127.406 22.6972C127.406 22.4032 127.644 22.1722 127.966 22.1722C128.288 22.1722 128.526 22.3892 128.526 22.6762C128.526 22.9842 128.295 23.2222 127.966 23.2222ZM127.525 27.5762V23.8382H128.4V27.5762H127.525ZM131.229 27.6252C130.081 27.6252 129.241 26.8272 129.241 25.7072C129.241 24.5872 130.081 23.7962 131.229 23.7962C132.391 23.7962 133.224 24.5872 133.224 25.7072C133.224 26.8272 132.391 27.6252 131.229 27.6252ZM131.229 26.8762C131.866 26.8762 132.342 26.4212 132.342 25.7072C132.342 24.9932 131.866 24.5382 131.229 24.5382C130.599 24.5382 130.123 24.9932 130.123 25.7072C130.123 26.4212 130.599 26.8762 131.229 26.8762ZM136.181 23.7962C137.077 23.7962 137.742 24.3072 137.742 25.4342V27.5762H136.867V25.5462C136.867 24.8812 136.538 24.5592 135.978 24.5592C135.355 24.5592 134.935 24.9372 134.935 25.6862V27.5762H134.06V23.8382H134.893V24.3212C135.18 23.9782 135.635 23.7962 136.181 23.7962Z" fill="#231F20"/>
<path d="M108.823 35.9766H107.843L106.842 34.5416C106.779 34.5486 106.716 34.5486 106.653 34.5486H105.547V35.9766H104.637V31.0766H106.653C107.941 31.0766 108.739 31.7346 108.739 32.8196C108.739 33.5616 108.361 34.1076 107.696 34.3666L108.823 35.9766ZM107.822 32.8196C107.822 32.2036 107.409 31.8466 106.611 31.8466H105.547V33.7996H106.611C107.409 33.7996 107.822 33.4356 107.822 32.8196ZM113.188 34.1286C113.188 34.1986 113.181 34.3036 113.174 34.3876H110.241C110.346 34.9336 110.801 35.2836 111.452 35.2836C111.872 35.2836 112.201 35.1506 112.467 34.8776L112.936 35.4166C112.6 35.8156 112.075 36.0256 111.431 36.0256C110.178 36.0256 109.366 35.2206 109.366 34.1076C109.366 32.9946 110.185 32.1966 111.298 32.1966C112.39 32.1966 113.188 32.9596 113.188 34.1286ZM111.298 32.8966C110.731 32.8966 110.318 33.2606 110.234 33.8066H112.355C112.285 33.2676 111.872 32.8966 111.298 32.8966ZM116.62 32.2386H117.46L115.857 35.9766H114.954L113.351 32.2386H114.261L115.423 35.0106L116.62 32.2386ZM118.448 31.6226C118.126 31.6226 117.888 31.3916 117.888 31.0976C117.888 30.8036 118.126 30.5726 118.448 30.5726C118.77 30.5726 119.008 30.7896 119.008 31.0766C119.008 31.3846 118.777 31.6226 118.448 31.6226ZM118.007 35.9766V32.2386H118.882V35.9766H118.007ZM123.544 34.1286C123.544 34.1986 123.537 34.3036 123.53 34.3876H120.597C120.702 34.9336 121.157 35.2836 121.808 35.2836C122.228 35.2836 122.557 35.1506 122.823 34.8776L123.292 35.4166C122.956 35.8156 122.431 36.0256 121.787 36.0256C120.534 36.0256 119.722 35.2206 119.722 34.1076C119.722 32.9946 120.541 32.1966 121.654 32.1966C122.746 32.1966 123.544 32.9596 123.544 34.1286ZM121.654 32.8966C121.087 32.8966 120.674 33.2606 120.59 33.8066H122.711C122.641 33.2676 122.228 32.8966 121.654 32.8966ZM129.37 32.2386H130.147L128.768 35.9766H127.928L126.962 33.4006L125.982 35.9766H125.142L123.77 32.2386H124.596L125.583 34.9966L126.612 32.2386H127.347L128.355 35.0106L129.37 32.2386Z" fill="#231F20"/>
<path d="M204.01 121.31C219.734 121.31 232.48 108.564 232.48 92.8401C232.48 77.1166 219.734 64.3701 204.01 64.3701C188.286 64.3701 175.54 77.1166 175.54 92.8401C175.54 108.564 188.286 121.31 204.01 121.31Z" stroke="#566C77" stroke-width="2" stroke-miterlimit="10"/>
<path d="M197.82 90.6914H196.84L195.839 89.2564C195.776 89.2634 195.713 89.2634 195.65 89.2634H194.544V90.6914H193.634V85.7914H195.65C196.938 85.7914 197.736 86.4494 197.736 87.5344C197.736 88.2764 197.358 88.8224 196.693 89.0814L197.82 90.6914ZM196.819 87.5344C196.819 86.9184 196.406 86.5614 195.608 86.5614H194.544V88.5144H195.608C196.406 88.5144 196.819 88.1504 196.819 87.5344ZM199.111 86.3374C198.789 86.3374 198.551 86.1064 198.551 85.8124C198.551 85.5184 198.789 85.2874 199.111 85.2874C199.433 85.2874 199.671 85.5044 199.671 85.7914C199.671 86.0994 199.44 86.3374 199.111 86.3374ZM198.67 90.6914V86.9534H199.545V90.6914H198.67ZM201.848 90.7404C201.225 90.7404 200.602 90.5584 200.266 90.3204L200.602 89.6554C200.931 89.8724 201.435 90.0264 201.904 90.0264C202.457 90.0264 202.688 89.8724 202.688 89.6134C202.688 88.8994 200.378 89.5714 200.378 88.0804C200.378 87.3734 201.015 86.9114 202.023 86.9114C202.52 86.9114 203.087 87.0304 203.423 87.2334L203.087 87.8984C202.73 87.6884 202.373 87.6184 202.016 87.6184C201.484 87.6184 201.232 87.7934 201.232 88.0384C201.232 88.7944 203.542 88.1224 203.542 89.5854C203.542 90.2854 202.898 90.7404 201.848 90.7404ZM207.117 90.6914L205.822 89.0884L205.171 89.7044V90.6914H204.296V85.4974H205.171V88.6334L206.984 86.9534H208.034L206.473 88.5214L208.181 90.6914H207.117ZM214.922 90.2014L214.439 90.7684L213.823 90.1734C213.382 90.5514 212.822 90.7614 212.178 90.7614C211.142 90.7614 210.393 90.2224 210.393 89.4524C210.393 88.8434 210.729 88.4164 211.527 87.9684C211.128 87.5694 210.981 87.2474 210.981 86.8904C210.981 86.2044 211.541 85.7354 212.402 85.7354C213.193 85.7354 213.711 86.1484 213.711 86.8134C213.711 87.3174 213.417 87.6814 212.71 88.0804L213.767 89.0884C213.886 88.8574 213.977 88.5774 214.04 88.2624L214.747 88.4934C214.656 88.9204 214.509 89.2984 214.306 89.6134L214.922 90.2014ZM212.402 86.3584C212.01 86.3584 211.779 86.5754 211.779 86.8764C211.779 87.0934 211.87 87.2544 212.22 87.6044C212.787 87.2964 212.969 87.0934 212.969 86.8274C212.969 86.5474 212.766 86.3584 212.402 86.3584ZM212.241 90.0474C212.647 90.0474 213.004 89.9214 213.305 89.6764L212.01 88.4374C211.443 88.7524 211.247 89.0114 211.247 89.3614C211.247 89.7674 211.639 90.0474 212.241 90.0474Z" fill="#231F20"/>
<path d="M193.511 99.1618C192.013 99.1618 190.893 98.1048 190.893 96.6418C190.893 95.1788 192.013 94.1218 193.518 94.1218C194.316 94.1218 195.002 94.4088 195.457 94.9408L194.869 95.4938C194.512 95.1088 194.071 94.9198 193.56 94.9198C192.545 94.9198 191.81 95.6338 191.81 96.6418C191.81 97.6498 192.545 98.3638 193.56 98.3638C194.071 98.3638 194.512 98.1748 194.869 97.7828L195.457 98.3428C195.002 98.8748 194.316 99.1618 193.511 99.1618ZM197.789 99.1408C196.641 99.1408 195.801 98.3428 195.801 97.2228C195.801 96.1028 196.641 95.3118 197.789 95.3118C198.951 95.3118 199.784 96.1028 199.784 97.2228C199.784 98.3428 198.951 99.1408 197.789 99.1408ZM197.789 98.3918C198.426 98.3918 198.902 97.9368 198.902 97.2228C198.902 96.5088 198.426 96.0538 197.789 96.0538C197.159 96.0538 196.683 96.5088 196.683 97.2228C196.683 97.9368 197.159 98.3918 197.789 98.3918ZM202.741 95.3118C203.637 95.3118 204.302 95.8228 204.302 96.9498V99.0918H203.427V97.0618C203.427 96.3968 203.098 96.0748 202.538 96.0748C201.915 96.0748 201.495 96.4528 201.495 97.2018V99.0918H200.62V95.3538H201.453V95.8368C201.74 95.4938 202.195 95.3118 202.741 95.3118ZM207.414 98.2658L207.659 98.8888C207.449 99.0568 207.134 99.1408 206.819 99.1408C206 99.1408 205.531 98.7068 205.531 97.8808V96.0818H204.915V95.3818H205.531V94.5278H206.406V95.3818H207.407V96.0818H206.406V97.8598C206.406 98.2238 206.588 98.4198 206.924 98.4198C207.106 98.4198 207.281 98.3708 207.414 98.2658ZM209.212 95.8998C209.464 95.5078 209.919 95.3118 210.542 95.3118V96.1448C210.465 96.1308 210.402 96.1238 210.339 96.1238C209.674 96.1238 209.254 96.5158 209.254 97.2788V99.0918H208.379V95.3538H209.212V95.8998ZM212.93 99.1408C211.782 99.1408 210.942 98.3428 210.942 97.2228C210.942 96.1028 211.782 95.3118 212.93 95.3118C214.092 95.3118 214.925 96.1028 214.925 97.2228C214.925 98.3428 214.092 99.1408 212.93 99.1408ZM212.93 98.3918C213.567 98.3918 214.043 97.9368 214.043 97.2228C214.043 96.5088 213.567 96.0538 212.93 96.0538C212.3 96.0538 211.824 96.5088 211.824 97.2228C211.824 97.9368 212.3 98.3918 212.93 98.3918ZM215.762 99.0918V93.8978H216.637V99.0918H215.762Z" fill="#231F20"/>
<path d="M170.83 223.44C186.554 223.44 199.3 210.694 199.3 194.97C199.3 179.246 186.554 166.5 170.83 166.5C155.107 166.5 142.36 179.246 142.36 194.97C142.36 210.694 155.107 223.44 170.83 223.44Z" stroke="#566C77" stroke-width="2" stroke-miterlimit="10"/>
<path d="M158.919 190.267C159.444 190.435 159.801 190.848 159.801 191.485C159.801 192.325 159.143 192.815 157.883 192.815H155.447V187.915H157.743C158.919 187.915 159.549 188.412 159.549 189.189C159.549 189.693 159.297 190.064 158.919 190.267ZM157.645 188.629H156.357V189.98H157.645C158.275 189.98 158.632 189.756 158.632 189.308C158.632 188.853 158.275 188.629 157.645 188.629ZM157.827 192.101C158.513 192.101 158.884 191.884 158.884 191.394C158.884 190.904 158.513 190.687 157.827 190.687H156.357V192.101H157.827ZM163.432 189.077H164.307V192.815H163.474V192.339C163.194 192.682 162.753 192.864 162.27 192.864C161.311 192.864 160.66 192.339 160.66 191.212V189.077H161.535V191.093C161.535 191.772 161.857 192.094 162.41 192.094C163.019 192.094 163.432 191.716 163.432 190.967V189.077ZM166.607 192.864C165.984 192.864 165.361 192.682 165.025 192.444L165.361 191.779C165.69 191.996 166.194 192.15 166.663 192.15C167.216 192.15 167.447 191.996 167.447 191.737C167.447 191.023 165.137 191.695 165.137 190.204C165.137 189.497 165.774 189.035 166.782 189.035C167.279 189.035 167.846 189.154 168.182 189.357L167.846 190.022C167.489 189.812 167.132 189.742 166.775 189.742C166.243 189.742 165.991 189.917 165.991 190.162C165.991 190.918 168.301 190.246 168.301 191.709C168.301 192.409 167.657 192.864 166.607 192.864ZM169.496 188.461C169.174 188.461 168.936 188.23 168.936 187.936C168.936 187.642 169.174 187.411 169.496 187.411C169.818 187.411 170.056 187.628 170.056 187.915C170.056 188.223 169.825 188.461 169.496 188.461ZM169.055 192.815V189.077H169.93V192.815H169.055ZM173.199 189.035C174.095 189.035 174.76 189.546 174.76 190.673V192.815H173.885V190.785C173.885 190.12 173.556 189.798 172.996 189.798C172.373 189.798 171.953 190.176 171.953 190.925V192.815H171.078V189.077H171.911V189.56C172.198 189.217 172.653 189.035 173.199 189.035ZM179.419 190.967C179.419 191.037 179.412 191.142 179.405 191.226H176.472C176.577 191.772 177.032 192.122 177.683 192.122C178.103 192.122 178.432 191.989 178.698 191.716L179.167 192.255C178.831 192.654 178.306 192.864 177.662 192.864C176.409 192.864 175.597 192.059 175.597 190.946C175.597 189.833 176.416 189.035 177.529 189.035C178.621 189.035 179.419 189.798 179.419 190.967ZM177.529 189.735C176.962 189.735 176.549 190.099 176.465 190.645H178.586C178.516 190.106 178.103 189.735 177.529 189.735ZM181.414 192.864C180.791 192.864 180.168 192.682 179.832 192.444L180.168 191.779C180.497 191.996 181.001 192.15 181.47 192.15C182.023 192.15 182.254 191.996 182.254 191.737C182.254 191.023 179.944 191.695 179.944 190.204C179.944 189.497 180.581 189.035 181.589 189.035C182.086 189.035 182.653 189.154 182.989 189.357L182.653 190.022C182.296 189.812 181.939 189.742 181.582 189.742C181.05 189.742 180.798 189.917 180.798 190.162C180.798 190.918 183.108 190.246 183.108 191.709C183.108 192.409 182.464 192.864 181.414 192.864ZM185.017 192.864C184.394 192.864 183.771 192.682 183.435 192.444L183.771 191.779C184.1 191.996 184.604 192.15 185.073 192.15C185.626 192.15 185.857 191.996 185.857 191.737C185.857 191.023 183.547 191.695 183.547 190.204C183.547 189.497 184.184 189.035 185.192 189.035C185.689 189.035 186.256 189.154 186.592 189.357L186.256 190.022C185.899 189.812 185.542 189.742 185.185 189.742C184.653 189.742 184.401 189.917 184.401 190.162C184.401 190.918 186.711 190.246 186.711 191.709C186.711 192.409 186.067 192.864 185.017 192.864Z" fill="#231F20"/>
<path d="M150.067 201.216V196.316H150.977V201.216H150.067ZM154.339 197.436C155.235 197.436 155.9 197.947 155.9 199.074V201.216H155.025V199.186C155.025 198.521 154.696 198.199 154.136 198.199C153.513 198.199 153.093 198.577 153.093 199.326V201.216H152.218V197.478H153.051V197.961C153.338 197.618 153.793 197.436 154.339 197.436ZM159.012 200.39L159.257 201.013C159.047 201.181 158.732 201.265 158.417 201.265C157.598 201.265 157.129 200.831 157.129 200.005V198.206H156.513V197.506H157.129V196.652H158.004V197.506H159.005V198.206H158.004V199.984C158.004 200.348 158.186 200.544 158.522 200.544C158.704 200.544 158.879 200.495 159.012 200.39ZM163.368 199.368C163.368 199.438 163.361 199.543 163.354 199.627H160.421C160.526 200.173 160.981 200.523 161.632 200.523C162.052 200.523 162.381 200.39 162.647 200.117L163.116 200.656C162.78 201.055 162.255 201.265 161.611 201.265C160.358 201.265 159.546 200.46 159.546 199.347C159.546 198.234 160.365 197.436 161.478 197.436C162.57 197.436 163.368 198.199 163.368 199.368ZM161.478 198.136C160.911 198.136 160.498 198.5 160.414 199.046H162.535C162.465 198.507 162.052 198.136 161.478 198.136ZM164.208 201.216V196.022H165.083V201.216H164.208ZM166.232 201.216V196.022H167.107V201.216H166.232ZM168.696 196.862C168.374 196.862 168.136 196.631 168.136 196.337C168.136 196.043 168.374 195.812 168.696 195.812C169.018 195.812 169.256 196.029 169.256 196.316C169.256 196.624 169.025 196.862 168.696 196.862ZM168.255 201.216V197.478H169.13V201.216H168.255ZM173.156 197.478H173.989V200.649C173.989 202.007 173.282 202.623 171.973 202.623C171.273 202.623 170.58 202.441 170.153 202.091L170.545 201.433C170.874 201.706 171.406 201.881 171.924 201.881C172.75 201.881 173.114 201.503 173.114 200.747V200.551C172.806 200.887 172.365 201.048 171.861 201.048C170.79 201.048 169.971 200.32 169.971 199.235C169.971 198.15 170.79 197.436 171.861 197.436C172.386 197.436 172.848 197.604 173.156 197.975V197.478ZM171.994 200.306C172.652 200.306 173.128 199.872 173.128 199.235C173.128 198.605 172.652 198.178 171.994 198.178C171.329 198.178 170.853 198.605 170.853 199.235C170.853 199.872 171.329 200.306 171.994 200.306ZM178.653 199.368C178.653 199.438 178.646 199.543 178.639 199.627H175.706C175.811 200.173 176.266 200.523 176.917 200.523C177.337 200.523 177.666 200.39 177.932 200.117L178.401 200.656C178.065 201.055 177.54 201.265 176.896 201.265C175.643 201.265 174.831 200.46 174.831 199.347C174.831 198.234 175.65 197.436 176.763 197.436C177.855 197.436 178.653 198.199 178.653 199.368ZM176.763 198.136C176.196 198.136 175.783 198.5 175.699 199.046H177.82C177.75 198.507 177.337 198.136 176.763 198.136ZM181.614 197.436C182.51 197.436 183.175 197.947 183.175 199.074V201.216H182.3V199.186C182.3 198.521 181.971 198.199 181.411 198.199C180.788 198.199 180.368 198.577 180.368 199.326V201.216H179.493V197.478H180.326V197.961C180.613 197.618 181.068 197.436 181.614 197.436ZM186.035 201.265C184.852 201.265 184.012 200.467 184.012 199.347C184.012 198.227 184.852 197.436 186.035 197.436C186.763 197.436 187.344 197.737 187.631 198.304L186.959 198.696C186.735 198.339 186.399 198.178 186.028 198.178C185.384 198.178 184.894 198.626 184.894 199.347C184.894 200.075 185.384 200.516 186.028 200.516C186.399 200.516 186.735 200.355 186.959 199.998L187.631 200.39C187.344 200.95 186.763 201.265 186.035 201.265ZM191.846 199.368C191.846 199.438 191.839 199.543 191.832 199.627H188.899C189.004 200.173 189.459 200.523 190.11 200.523C190.53 200.523 190.859 200.39 191.125 200.117L191.594 200.656C191.258 201.055 190.733 201.265 190.089 201.265C188.836 201.265 188.024 200.46 188.024 199.347C188.024 198.234 188.843 197.436 189.956 197.436C191.048 197.436 191.846 198.199 191.846 199.368ZM189.956 198.136C189.389 198.136 188.976 198.5 188.892 199.046H191.013C190.943 198.507 190.53 198.136 189.956 198.136Z" fill="#231F20"/>
<path d="M63.4505 223.44C79.174 223.44 91.9205 210.694 91.9205 194.97C91.9205 179.246 79.174 166.5 63.4505 166.5C47.7269 166.5 34.9805 179.246 34.9805 194.97C34.9805 210.694 47.7269 223.44 63.4505 223.44Z" stroke="#566C77" stroke-width="2" stroke-miterlimit="10"/>
<path d="M60.115 197.016L58.386 194.965L57.609 195.763V197.016H56.699V192.116H57.609V194.629L60.031 192.116H61.053L58.995 194.307L61.179 197.016H60.115ZM65.482 192.116L63.564 195.287V197.016H62.654V195.301L60.729 192.116H61.702L63.137 194.503L64.586 192.116H65.482ZM68.134 197.086C66.636 197.086 65.516 196.029 65.516 194.566C65.516 193.103 66.636 192.046 68.141 192.046C68.939 192.046 69.625 192.333 70.08 192.865L69.492 193.418C69.135 193.033 68.694 192.844 68.183 192.844C67.168 192.844 66.433 193.558 66.433 194.566C66.433 195.574 67.168 196.288 68.183 196.288C68.694 196.288 69.135 196.099 69.492 195.707L70.08 196.267C69.625 196.799 68.939 197.086 68.134 197.086Z" fill="#231F20"/>
<path d="M30.2703 121.31C45.9938 121.31 58.7403 108.564 58.7403 92.8401C58.7403 77.1166 45.9938 64.3701 30.2703 64.3701C14.5467 64.3701 1.80029 77.1166 1.80029 92.8401C1.80029 108.564 14.5467 121.31 30.2703 121.31Z" stroke="#566C77" stroke-width="2" stroke-miterlimit="10"/>
<path d="M16.8219 89.9284H19.5869V90.6914H15.9119V85.7914H19.4889V86.5544H16.8219V87.8284H19.1879V88.5774H16.8219V89.9284ZM23.816 90.6914H22.829L21.87 89.3964L20.904 90.6914H19.938L21.394 88.7944L20.001 86.9534H20.974L21.891 88.1784L22.808 86.9534H23.753L22.353 88.7804L23.816 90.6914ZM26.4637 89.8654L26.7087 90.4884C26.4987 90.6564 26.1837 90.7404 25.8687 90.7404C25.0497 90.7404 24.5807 90.3064 24.5807 89.4804V87.6814H23.9647V86.9814H24.5807V86.1274H25.4557V86.9814H26.4567V87.6814H25.4557V89.4594C25.4557 89.8234 25.6377 90.0194 25.9737 90.0194C26.1557 90.0194 26.3307 89.9704 26.4637 89.8654ZM30.8194 88.8434C30.8194 88.9134 30.8124 89.0184 30.8054 89.1024H27.8724C27.9774 89.6484 28.4324 89.9984 29.0834 89.9984C29.5034 89.9984 29.8324 89.8654 30.0984 89.5924L30.5674 90.1314C30.2314 90.5304 29.7064 90.7404 29.0624 90.7404C27.8094 90.7404 26.9974 89.9354 26.9974 88.8224C26.9974 87.7094 27.8164 86.9114 28.9294 86.9114C30.0214 86.9114 30.8194 87.6744 30.8194 88.8434ZM28.9294 87.6114C28.3624 87.6114 27.9494 87.9754 27.8654 88.5214H29.9864C29.9164 87.9824 29.5034 87.6114 28.9294 87.6114ZM32.4929 87.4994C32.7449 87.1074 33.1999 86.9114 33.8229 86.9114V87.7444C33.7459 87.7304 33.6829 87.7234 33.6199 87.7234C32.9549 87.7234 32.5349 88.1154 32.5349 88.8784V90.6914H31.6599V86.9534H32.4929V87.4994ZM36.6862 86.9114C37.5822 86.9114 38.2472 87.4224 38.2472 88.5494V90.6914H37.3722V88.6614C37.3722 87.9964 37.0432 87.6744 36.4832 87.6744C35.8602 87.6744 35.4402 88.0524 35.4402 88.8014V90.6914H34.5652V86.9534H35.3982V87.4364C35.6852 87.0934 36.1402 86.9114 36.6862 86.9114ZM40.7852 86.9114C41.8632 86.9114 42.4862 87.4224 42.4862 88.5004V90.6914H41.6602V90.2364C41.4502 90.5584 41.0442 90.7404 40.4842 90.7404C39.6302 90.7404 39.0912 90.2714 39.0912 89.6204C39.0912 88.9974 39.5112 88.5074 40.6452 88.5074H41.6112V88.4514C41.6112 87.9404 41.3032 87.6394 40.6802 87.6394C40.2602 87.6394 39.8262 87.7794 39.5462 88.0104L39.2032 87.3734C39.6022 87.0654 40.1832 86.9114 40.7852 86.9114ZM40.6662 90.1034C41.0932 90.1034 41.4642 89.9074 41.6112 89.5224V89.0884H40.7082C40.1132 89.0884 39.9522 89.3124 39.9522 89.5854C39.9522 89.9004 40.2182 90.1034 40.6662 90.1034ZM43.6092 90.6914V85.4974H44.4842V90.6914H43.6092Z" fill="#231F20"/>
<path d="M12.3698 99.1618C10.8718 99.1618 9.75185 98.1048 9.75185 96.6418C9.75185 95.1788 10.8718 94.1218 12.3768 94.1218C13.1748 94.1218 13.8608 94.4088 14.3158 94.9408L13.7278 95.4938C13.3708 95.1088 12.9298 94.9198 12.4188 94.9198C11.4038 94.9198 10.6688 95.6338 10.6688 96.6418C10.6688 97.6498 11.4038 98.3638 12.4188 98.3638C12.9298 98.3638 13.3708 98.1748 13.7278 97.7828L14.3158 98.3428C13.8608 98.8748 13.1748 99.1618 12.3698 99.1618ZM16.6471 99.1408C15.4991 99.1408 14.6591 98.3428 14.6591 97.2228C14.6591 96.1028 15.4991 95.3118 16.6471 95.3118C17.8091 95.3118 18.6421 96.1028 18.6421 97.2228C18.6421 98.3428 17.8091 99.1408 16.6471 99.1408ZM16.6471 98.3918C17.2841 98.3918 17.7601 97.9368 17.7601 97.2228C17.7601 96.5088 17.2841 96.0538 16.6471 96.0538C16.0171 96.0538 15.5411 96.5088 15.5411 97.2228C15.5411 97.9368 16.0171 98.3918 16.6471 98.3918ZM21.5998 95.3118C22.4958 95.3118 23.1608 95.8228 23.1608 96.9498V99.0918H22.2858V97.0618C22.2858 96.3968 21.9568 96.0748 21.3968 96.0748C20.7738 96.0748 20.3538 96.4528 20.3538 97.2018V99.0918H19.4788V95.3538H20.3118V95.8368C20.5988 95.4938 21.0538 95.3118 21.5998 95.3118ZM26.3918 95.3118C27.2878 95.3118 27.9528 95.8228 27.9528 96.9498V99.0918H27.0778V97.0618C27.0778 96.3968 26.7488 96.0748 26.1888 96.0748C25.5658 96.0748 25.1458 96.4528 25.1458 97.2018V99.0918H24.2708V95.3538H25.1038V95.8368C25.3908 95.4938 25.8458 95.3118 26.3918 95.3118ZM32.6109 97.2438C32.6109 97.3138 32.6039 97.4188 32.5969 97.5028H29.6639C29.7689 98.0488 30.2239 98.3988 30.8749 98.3988C31.2949 98.3988 31.6239 98.2658 31.8899 97.9928L32.3589 98.5318C32.0229 98.9308 31.4979 99.1408 30.8539 99.1408C29.6009 99.1408 28.7889 98.3358 28.7889 97.2228C28.7889 96.1098 29.6079 95.3118 30.7209 95.3118C31.8129 95.3118 32.6109 96.0748 32.6109 97.2438ZM30.7209 96.0118C30.1539 96.0118 29.7409 96.3758 29.6569 96.9218H31.7779C31.7079 96.3828 31.2949 96.0118 30.7209 96.0118ZM35.1664 99.1408C33.9834 99.1408 33.1434 98.3428 33.1434 97.2228C33.1434 96.1028 33.9834 95.3118 35.1664 95.3118C35.8944 95.3118 36.4754 95.6128 36.7624 96.1798L36.0904 96.5718C35.8664 96.2148 35.5304 96.0538 35.1594 96.0538C34.5154 96.0538 34.0254 96.5018 34.0254 97.2228C34.0254 97.9508 34.5154 98.3918 35.1594 98.3918C35.5304 98.3918 35.8664 98.2308 36.0904 97.8738L36.7624 98.2658C36.4754 98.8258 35.8944 99.1408 35.1664 99.1408ZM39.5687 98.2658L39.8137 98.8888C39.6037 99.0568 39.2887 99.1408 38.9737 99.1408C38.1547 99.1408 37.6857 98.7068 37.6857 97.8808V96.0818H37.0697V95.3818H37.6857V94.5278H38.5607V95.3818H39.5617V96.0818H38.5607V97.8598C38.5607 98.2238 38.7427 98.4198 39.0787 98.4198C39.2607 98.4198 39.4357 98.3708 39.5687 98.2658ZM42.0904 99.1408C40.9424 99.1408 40.1024 98.3428 40.1024 97.2228C40.1024 96.1028 40.9424 95.3118 42.0904 95.3118C43.2524 95.3118 44.0854 96.1028 44.0854 97.2228C44.0854 98.3428 43.2524 99.1408 42.0904 99.1408ZM42.0904 98.3918C42.7274 98.3918 43.2034 97.9368 43.2034 97.2228C43.2034 96.5088 42.7274 96.0538 42.0904 96.0538C41.4604 96.0538 40.9844 96.5088 40.9844 97.2228C40.9844 97.9368 41.4604 98.3918 42.0904 98.3918ZM45.7551 95.8998C46.0071 95.5078 46.4621 95.3118 47.0851 95.3118V96.1448C47.0081 96.1308 46.9451 96.1238 46.8821 96.1238C46.2171 96.1238 45.7971 96.5158 45.7971 97.2788V99.0918H44.9221V95.3538H45.7551V95.8998ZM48.9961 99.1408C48.3731 99.1408 47.7501 98.9588 47.4141 98.7208L47.7501 98.0558C48.0791 98.2728 48.5831 98.4268 49.0521 98.4268C49.6051 98.4268 49.8361 98.2728 49.8361 98.0138C49.8361 97.2998 47.5261 97.9718 47.5261 96.4808C47.5261 95.7738 48.1631 95.3118 49.1711 95.3118C49.6681 95.3118 50.2351 95.4308 50.5711 95.6338L50.2351 96.2988C49.8781 96.0888 49.5211 96.0188 49.1641 96.0188C48.6321 96.0188 48.3801 96.1938 48.3801 96.4388C48.3801 97.1948 50.6901 96.5228 50.6901 97.9858C50.6901 98.6858 50.0461 99.1408 48.9961 99.1408Z" fill="#231F20"/>
<path d="M113.31 72.9105H108.71L117.14 64.4805L125.57 72.9105H120.97V82.8705H113.31V72.9105Z" fill="#6C808D"/>
<path d="M70.4902 109.56L69.0702 113.93L63.6602 103.31L74.2802 97.9004L72.8602 102.27L82.3302 105.35L79.9602 112.64L70.4902 109.56Z" fill="#6C808D"/>
<path d="M92.1102 161.611L95.8302 164.311L84.0602 166.171L82.2002 154.401L85.9202 157.101L91.7702 149.041L97.9702 153.541L92.1102 161.611Z" fill="#6C808D"/>
<path d="M148.3 157.13L152.02 154.43L150.16 166.2L138.39 164.34L142.11 161.64L136.26 153.58L142.46 149.08L148.3 157.13Z" fill="#6C808D"/>
<path d="M161.4 102.31L159.98 97.9404L170.6 103.35L165.19 113.97L163.77 109.6L154.3 112.68L151.93 105.39L161.4 102.31Z" fill="#6C808D"/>
<path d="M117.14 152.98C134.764 152.98 149.05 138.694 149.05 121.07C149.05 103.447 134.764 89.1602 117.14 89.1602C99.5171 89.1602 85.2305 103.447 85.2305 121.07C85.2305 138.694 99.5171 152.98 117.14 152.98Z" fill="#566C77"/>
<path d="M93.0538 124.581V116.181H94.6138V123.261H99.0058V124.581H93.0538ZM101.797 123.273H106.537V124.581H100.237V116.181H106.369V117.489H101.797V119.673H105.853V120.957H101.797V123.273ZM108.276 124.581V116.181H111.948C114.672 116.181 116.532 117.861 116.532 120.381C116.532 122.901 114.672 124.581 111.948 124.581H108.276ZM109.836 123.261H111.876C113.748 123.261 114.96 122.121 114.96 120.381C114.96 118.641 113.748 117.501 111.876 117.501H109.836V123.261ZM123.927 122.901V120.285H125.403V123.633C124.527 124.341 123.303 124.701 122.115 124.701C119.511 124.701 117.591 122.889 117.591 120.381C117.591 117.873 119.511 116.061 122.139 116.061C123.543 116.061 124.719 116.529 125.511 117.429L124.527 118.389C123.867 117.729 123.111 117.429 122.211 117.429C120.423 117.429 119.163 118.641 119.163 120.381C119.163 122.085 120.423 123.333 122.199 123.333C122.799 123.333 123.387 123.213 123.927 122.901ZM129.02 123.273H133.76V124.581H127.46V116.181H133.592V117.489H129.02V119.673H133.076V120.957H129.02V123.273ZM142.675 124.581H140.995L139.279 122.121C139.171 122.133 139.063 122.133 138.955 122.133H137.059V124.581H135.499V116.181H138.955C141.163 116.181 142.531 117.309 142.531 119.169C142.531 120.441 141.883 121.377 140.743 121.821L142.675 124.581ZM140.959 119.169C140.959 118.113 140.251 117.501 138.883 117.501H137.059V120.849H138.883C140.251 120.849 140.959 120.225 140.959 119.169Z" fill="white"/>
</svg>
