<svg width="197" height="100" viewBox="0 0 197 100" fill="none" xmlns="http://www.w3.org/2000/svg">
<path fill-rule="evenodd" clip-rule="evenodd" d="M49 4.64293C23.3977 4.64293 2.64293 25.3977 2.64293 51C2.64293 76.6023 23.3977 97.3571 49 97.3571C74.6023 97.3571 95.3571 76.6023 95.3571 51C95.3571 25.3977 74.6023 4.64293 49 4.64293ZM0 51C0 23.938 21.938 2 49 2C76.0619 2 98 23.938 98 51C98 78.0619 76.0619 100 49 100C21.938 100 0 78.0619 0 51Z" fill="#00D1FF"/>
<path d="M25.3176 58C20.5452 58 17 54.5682 17 49.9091C17 45.25 20.5452 41.8182 25.3403 41.8182C27.6584 41.8182 29.7491 42.5909 31.1581 44.1364L30.09 45.2045C28.7947 43.8864 27.2039 43.3182 25.3858 43.3182C21.5451 43.3182 18.659 46.1364 18.659 49.9091C18.659 53.6818 21.5451 56.5 25.3858 56.5C27.2039 56.5 28.7947 55.9318 30.09 54.5909L31.1581 55.6591C29.7491 57.2045 27.6584 58 25.3176 58Z" fill="#00D1FF"/>
<path d="M38.4062 45.8182C41.4969 45.8182 43.2468 47.3636 43.2468 50.4545V57.8636H41.7015V56C40.9742 57.2273 39.5652 57.9773 37.5881 57.9773C34.8837 57.9773 33.2248 56.5682 33.2248 54.5C33.2248 52.6591 34.4065 51.1136 37.8381 51.1136H41.6333V50.3864C41.6333 48.3409 40.4743 47.2273 38.2471 47.2273C36.7018 47.2273 35.2473 47.7727 34.2701 48.6364L33.5429 47.4318C34.7474 46.4091 36.52 45.8182 38.4062 45.8182ZM37.8381 56.7045C39.6561 56.7045 40.997 55.8409 41.6333 54.2727V52.3182H37.8835C35.5655 52.3182 34.8156 53.2273 34.8156 54.4545C34.8156 55.8409 35.9291 56.7045 37.8381 56.7045Z" fill="#00D1FF"/>
<path d="M49.1747 48.25C49.9246 46.6591 51.4472 45.8182 53.6516 45.8182V47.3864C53.5153 47.3864 53.3789 47.3636 53.2653 47.3636C50.7655 47.3636 49.2428 48.9545 49.2428 51.7727V57.8636H47.6293V45.9091H49.1747V48.25Z" fill="#00D1FF"/>
<path d="M65.757 41H67.3705V57.8636H65.8252V55.5C64.848 57.1136 63.189 57.9773 61.2118 57.9773C57.803 57.9773 55.2577 55.5 55.2577 51.8864C55.2577 48.2727 57.803 45.8182 61.2118 45.8182C63.1208 45.8182 64.7571 46.6364 65.757 48.1818V41ZM61.3482 56.5455C63.8708 56.5455 65.7797 54.6818 65.7797 51.8864C65.7797 49.0909 63.8708 47.2273 61.3482 47.2273C58.8029 47.2273 56.894 49.0909 56.894 51.8864C56.894 54.6818 58.8029 56.5455 61.3482 56.5455Z" fill="#00D1FF"/>
<path d="M75.0685 57.9773C73.0914 57.9773 71.1824 57.3409 70.2052 56.5L70.9324 55.2273C71.8869 55.9773 73.5004 56.5682 75.1821 56.5682C77.4547 56.5682 78.3865 55.7955 78.3865 54.6136C78.3865 51.5 70.637 53.9545 70.637 49.2273C70.637 47.2727 72.3187 45.8182 75.3639 45.8182C76.9093 45.8182 78.591 46.25 79.5909 46.9318L78.8864 48.2273C77.8411 47.5 76.5911 47.2045 75.3639 47.2045C73.205 47.2045 72.2505 48.0455 72.2505 49.1818C72.2505 52.4091 80 49.9773 80 54.5682C80 56.6364 78.1819 57.9773 75.0685 57.9773Z" fill="#00D1FF"/>
<path fill-rule="evenodd" clip-rule="evenodd" d="M148 2.64293C122.398 2.64293 101.643 23.3977 101.643 49C101.643 74.6023 122.398 95.3571 148 95.3571C173.602 95.3571 194.357 74.6023 194.357 49C194.357 23.3977 173.602 2.64293 148 2.64293ZM99 49C99 21.9381 120.938 0 148 0C175.062 0 197 21.9381 197 49C197 76.062 175.062 98 148 98C120.938 98 99 76.062 99 49Z" fill="#00D1FF"/>
<path d="M138.078 25.9558H139.787L132.725 41.8862H131.062L124 25.9558H125.822L131.928 39.7925L138.078 25.9558Z" fill="#00D1FF"/>
<path d="M142.513 27.2985C141.852 27.2985 141.328 26.7751 141.328 26.1379C141.328 25.5234 141.852 25 142.513 25C143.174 25 143.697 25.5007 143.697 26.1151C143.697 26.7751 143.196 27.2985 142.513 27.2985ZM141.693 41.8862V29.9157H143.31V41.8862H141.693Z" fill="#00D1FF"/>
<path d="M151.023 42C149.041 42 147.127 41.3628 146.148 40.5207L146.877 39.2463C147.833 39.9973 149.451 40.589 151.137 40.589C153.415 40.589 154.349 39.8153 154.349 38.6319C154.349 35.5141 146.58 37.9719 146.58 33.2383C146.58 31.2811 148.266 29.8246 151.319 29.8246C152.868 29.8246 154.554 30.257 155.556 30.9398L154.85 32.2369C153.802 31.5087 152.549 31.2129 151.319 31.2129C149.155 31.2129 148.198 32.0549 148.198 33.1928C148.198 36.4244 155.966 33.9893 155.966 38.5863C155.966 40.6573 154.144 42 151.023 42Z" fill="#00D1FF"/>
<path d="M163.148 29.8246C166.246 29.8246 168 31.3722 168 34.4672V41.8862H166.451V40.0201C165.722 41.249 164.31 42 162.328 42C159.617 42 157.954 40.589 157.954 38.5181C157.954 36.6747 159.138 35.1272 162.578 35.1272H166.383V34.3989C166.383 32.3507 165.221 31.2356 162.988 31.2356C161.439 31.2356 159.981 31.7818 159.002 32.6466L158.273 31.4404C159.48 30.4163 161.257 29.8246 163.148 29.8246ZM162.578 40.7256C164.401 40.7256 165.745 39.8608 166.383 38.2905V36.3333H162.624C160.3 36.3333 159.548 37.2436 159.548 38.4726C159.548 39.8608 160.665 40.7256 162.578 40.7256Z" fill="#00D1FF"/>
<path d="M136.174 60.8187C138.25 61.272 139.496 62.6091 139.496 64.762C139.496 67.4589 137.466 69 133.428 69H126V53.136H132.967C136.566 53.136 138.642 54.6317 138.642 57.2153C138.642 59.0283 137.65 60.2295 136.174 60.8187ZM132.852 54.5184H127.707V60.2748H132.852C135.435 60.2748 136.935 59.3003 136.935 57.3966C136.935 55.4929 135.435 54.5184 132.852 54.5184ZM133.405 67.6176C136.243 67.6176 137.789 66.711 137.789 64.6261C137.789 62.5637 136.243 61.6572 133.405 61.6572H127.707V67.6176H133.405Z" fill="#00D1FF"/>
<path d="M144.108 67.5496H152.989V69H141.662V67.8442L148.375 61.3853C150.198 59.6176 150.544 58.5524 150.544 57.4646C150.544 55.6289 149.229 54.4958 146.761 54.4958C144.869 54.4958 143.415 55.0623 142.354 56.2635L141.178 55.2663C142.423 53.8159 144.431 53 146.899 53C150.175 53 152.251 54.6317 152.251 57.2833C152.251 58.8017 151.767 60.1615 149.598 62.2465L144.108 67.5496Z" fill="#00D1FF"/>
<path d="M166.678 60.8187C168.754 61.272 170 62.6091 170 64.762C170 67.4589 167.97 69 163.933 69H156.504V53.136H163.471C167.07 53.136 169.146 54.6317 169.146 57.2153C169.146 59.0283 168.154 60.2295 166.678 60.8187ZM163.356 54.5184H158.211V60.2748H163.356C165.94 60.2748 167.439 59.3003 167.439 57.3966C167.439 55.4929 165.94 54.5184 163.356 54.5184ZM163.91 67.6176C166.747 67.6176 168.293 66.711 168.293 64.6261C168.293 62.5637 166.747 61.6572 163.91 61.6572H158.211V67.6176H163.91Z" fill="#00D1FF"/>
</svg>
