<svg width="98" height="98" viewBox="0 0 98 98" fill="none" xmlns="http://www.w3.org/2000/svg">
<path fill-rule="evenodd" clip-rule="evenodd" d="M49 2.64293C23.3977 2.64293 2.64293 23.3977 2.64293 49C2.64293 74.6023 23.3977 95.3571 49 95.3571C74.6023 95.3571 95.3571 74.6023 95.3571 49C95.3571 23.3977 74.6023 2.64293 49 2.64293ZM0 49C0 21.938 21.938 0 49 0C76.0619 0 98 21.938 98 49C98 76.062 76.0619 98 49 98C21.938 98 0 76.062 0 49Z" fill="#0026AD"/>
<path d="M31.6793 53.5371H41.2331V55H30V39H40.8927V40.4629H31.6793V46.1543H39.8942V47.5943H31.6793V53.5371Z" fill="#0026AD"/>
<path d="M56.0733 40.4629H46.8598V46.7486H55.0748V48.2114H46.8598V55H45.1805V39H56.0733V40.4629Z" fill="#0026AD"/>
<path d="M62.7382 55V40.4629H57.1556V39H70V40.4629H64.4175V55H62.7382Z" fill="#0026AD"/>
</svg>
