<svg width="281" height="310" viewBox="0 0 281 310" fill="none" xmlns="http://www.w3.org/2000/svg">
<path fill-rule="evenodd" clip-rule="evenodd" d="M188.5 100.972C139.595 100.972 99.9502 140.831 99.9502 190C99.9502 239.169 139.595 279.028 188.5 279.028C237.405 279.028 277.05 239.169 277.05 190C277.05 140.831 237.405 100.972 188.5 100.972ZM96 190C96 138.638 137.414 97 188.5 97C239.586 97 281 138.638 281 190C281 241.363 239.586 283 188.5 283C137.414 283 96 241.363 96 190Z" fill="#566C77"/>
<path d="M137.59 164C141.8 164 144.408 166.191 144.408 169.804C144.408 173.393 141.8 175.607 137.59 175.607H133.974V180.315H131V164H137.59ZM137.452 173.043C140.061 173.043 141.411 171.855 141.411 169.804C141.411 167.752 140.061 166.564 137.452 166.564H133.974V173.043H137.452Z" fill="black"/>
<path d="M151.66 167.729C155.183 167.729 157.22 169.431 157.22 173.02V180.315H154.52V178.8C153.833 179.872 152.506 180.478 150.676 180.478C147.884 180.478 146.123 178.917 146.123 176.749C146.123 174.675 147.495 173.043 151.202 173.043H154.36V172.857C154.36 171.155 153.353 170.153 151.317 170.153C149.944 170.153 148.525 170.619 147.61 171.388L146.489 169.267C147.793 168.242 149.692 167.729 151.66 167.729ZM151.271 178.357C152.666 178.357 153.879 177.705 154.36 176.423V174.978H151.408C149.463 174.978 148.937 175.724 148.937 176.633C148.937 177.681 149.806 178.357 151.271 178.357Z" fill="black"/>
<path d="M169.361 167.869H172.107L166.387 181.317C165.266 184.138 163.71 185 161.674 185C160.461 185 159.18 184.58 158.402 183.858L159.546 181.714C160.095 182.25 160.873 182.576 161.651 182.576C162.657 182.576 163.252 182.087 163.801 180.851L164.007 180.362L158.676 167.869H161.651L165.495 177.075L169.361 167.869Z" fill="black"/>
<path d="M189.316 167.729C192.268 167.729 194.327 169.431 194.327 173.183V180.315H191.467V173.556C191.467 171.342 190.46 170.27 188.721 170.27C186.845 170.27 185.541 171.528 185.541 173.999V180.315H182.681V173.556C182.681 171.342 181.674 170.27 179.935 170.27C178.036 170.27 176.755 171.528 176.755 173.999V180.315H173.895V167.869H176.617V169.454C177.533 168.335 178.951 167.729 180.622 167.729C182.406 167.729 183.893 168.405 184.74 169.804C185.724 168.522 187.371 167.729 189.316 167.729Z" fill="black"/>
<path d="M209.58 174.162C209.58 174.395 209.557 174.745 209.534 175.024H199.947C200.29 176.842 201.777 178.008 203.905 178.008C205.278 178.008 206.353 177.565 207.223 176.656L208.756 178.451C207.658 179.779 205.942 180.478 203.837 180.478C199.741 180.478 197.087 177.798 197.087 174.092C197.087 170.386 199.764 167.729 203.402 167.729C206.971 167.729 209.58 170.27 209.58 174.162ZM203.402 170.06C201.548 170.06 200.199 171.272 199.924 173.09H206.857C206.628 171.295 205.278 170.06 203.402 170.06Z" fill="black"/>
<path d="M219.26 167.729C222.188 167.729 224.362 169.431 224.362 173.183V180.315H221.502V173.556C221.502 171.342 220.427 170.27 218.596 170.27C216.56 170.27 215.187 171.528 215.187 174.022V180.315H212.327V167.869H215.05V169.477C215.988 168.335 217.475 167.729 219.26 167.729Z" fill="black"/>
<path d="M234.534 177.565L235.335 179.639C234.648 180.199 233.619 180.478 232.589 180.478C229.912 180.478 228.379 179.033 228.379 176.283V170.293H226.366V167.962H228.379V165.119H231.239V167.962H234.511V170.293H231.239V176.213C231.239 177.425 231.834 178.078 232.932 178.078C233.527 178.078 234.099 177.915 234.534 177.565Z" fill="black"/>
<path d="M241.463 180.478C239.427 180.478 237.39 179.872 236.292 179.08L237.39 176.866C238.466 177.588 240.113 178.101 241.646 178.101C243.454 178.101 244.209 177.588 244.209 176.726C244.209 174.349 236.658 176.586 236.658 171.622C236.658 169.267 238.74 167.729 242.035 167.729C243.659 167.729 245.513 168.125 246.611 168.801L245.513 171.016C244.346 170.316 243.179 170.083 242.012 170.083C240.273 170.083 239.449 170.666 239.449 171.482C239.449 173.999 247 171.761 247 176.633C247 178.963 244.895 180.478 241.463 180.478Z" fill="black"/>
<path d="M130.505 208C125.639 208 122 204.644 122 200C122 195.356 125.639 192 130.528 192C133.121 192 135.349 192.911 136.828 194.6L134.917 196.356C133.757 195.133 132.325 194.533 130.665 194.533C127.367 194.533 124.979 196.8 124.979 200C124.979 203.2 127.367 205.467 130.665 205.467C132.325 205.467 133.757 204.867 134.917 203.622L136.828 205.4C135.349 207.089 133.121 208 130.505 208Z" fill="black"/>
<path d="M144.401 207.933C140.672 207.933 137.943 205.4 137.943 201.844C137.943 198.289 140.672 195.778 144.401 195.778C148.176 195.778 150.883 198.289 150.883 201.844C150.883 205.4 148.176 207.933 144.401 207.933ZM144.401 205.556C146.471 205.556 148.017 204.111 148.017 201.844C148.017 199.578 146.471 198.133 144.401 198.133C142.354 198.133 140.808 199.578 140.808 201.844C140.808 204.111 142.354 205.556 144.401 205.556Z" fill="black"/>
<path d="M160.492 195.778C163.402 195.778 165.563 197.4 165.563 200.978V207.778H162.72V201.333C162.72 199.222 161.651 198.2 159.832 198.2C157.808 198.2 156.444 199.4 156.444 201.778V207.778H153.601V195.911H156.307V197.444C157.239 196.356 158.718 195.778 160.492 195.778Z" fill="black"/>
<path d="M176.06 195.778C178.971 195.778 181.131 197.4 181.131 200.978V207.778H178.288V201.333C178.288 199.222 177.22 198.2 175.4 198.2C173.376 198.2 172.012 199.4 172.012 201.778V207.778H169.169V195.911H171.875V197.444C172.808 196.356 174.286 195.778 176.06 195.778Z" fill="black"/>
<path d="M196.265 201.911C196.265 202.133 196.242 202.467 196.219 202.733H186.69C187.031 204.467 188.51 205.578 190.625 205.578C191.989 205.578 193.058 205.156 193.922 204.289L195.446 206C194.354 207.267 192.649 207.933 190.556 207.933C186.486 207.933 183.848 205.378 183.848 201.844C183.848 198.311 186.508 195.778 190.124 195.778C193.672 195.778 196.265 198.2 196.265 201.911ZM190.124 198C188.282 198 186.941 199.156 186.668 200.889H193.558C193.331 199.178 191.989 198 190.124 198Z" fill="black"/>
<path d="M204.567 207.933C200.724 207.933 197.995 205.4 197.995 201.844C197.995 198.289 200.724 195.778 204.567 195.778C206.932 195.778 208.82 196.733 209.752 198.533L207.569 199.778C206.841 198.644 205.749 198.133 204.544 198.133C202.452 198.133 200.86 199.556 200.86 201.844C200.86 204.156 202.452 205.556 204.544 205.556C205.749 205.556 206.841 205.044 207.569 203.911L209.752 205.156C208.82 206.933 206.932 207.933 204.567 207.933Z" fill="black"/>
<path d="M218.869 205.156L219.665 207.133C218.983 207.667 217.959 207.933 216.936 207.933C214.275 207.933 212.751 206.556 212.751 203.933V198.222H210.75V196H212.751V193.289H215.594V196H218.846V198.222H215.594V203.867C215.594 205.022 216.185 205.644 217.277 205.644C217.868 205.644 218.437 205.489 218.869 205.156Z" fill="black"/>
<path d="M227.061 207.933C223.332 207.933 220.603 205.4 220.603 201.844C220.603 198.289 223.332 195.778 227.061 195.778C230.837 195.778 233.543 198.289 233.543 201.844C233.543 205.4 230.837 207.933 227.061 207.933ZM227.061 205.556C229.131 205.556 230.677 204.111 230.677 201.844C230.677 199.578 229.131 198.133 227.061 198.133C225.015 198.133 223.468 199.578 223.468 201.844C223.468 204.111 225.015 205.556 227.061 205.556Z" fill="black"/>
<path d="M238.967 197.644C239.786 196.4 241.264 195.778 243.288 195.778V198.422C243.038 198.378 242.833 198.356 242.629 198.356C240.468 198.356 239.104 199.6 239.104 202.022V207.778H236.261V195.911H238.967V197.644Z" fill="black"/>
<path d="M249.497 207.933C247.473 207.933 245.449 207.356 244.357 206.6L245.449 204.489C246.517 205.178 248.155 205.667 249.678 205.667C251.475 205.667 252.226 205.178 252.226 204.356C252.226 202.089 244.721 204.222 244.721 199.489C244.721 197.244 246.79 195.778 250.065 195.778C251.68 195.778 253.522 196.156 254.613 196.8L253.522 198.911C252.362 198.244 251.202 198.022 250.042 198.022C248.314 198.022 247.495 198.578 247.495 199.356C247.495 201.756 255 199.622 255 204.267C255 206.489 252.908 207.933 249.497 207.933Z" fill="black"/>
<path fill-rule="evenodd" clip-rule="evenodd" d="M194 2.64293C168.398 2.64293 147.643 23.3977 147.643 49C147.643 74.6023 168.398 95.3571 194 95.3571C219.602 95.3571 240.357 74.6023 240.357 49C240.357 23.3977 219.602 2.64293 194 2.64293ZM145 49C145 21.938 166.938 0 194 0C221.062 0 243 21.938 243 49C243 76.062 221.062 98 194 98C166.938 98 145 76.062 145 49Z" fill="#566C77"/>
<path d="M182.658 54.8652L180.719 50.6629H171.716L169.777 54.8652H168L175.387 39.1348H177.072L184.458 54.8652H182.658ZM172.34 49.3146H180.095L176.218 40.8652L172.34 49.3146Z" fill="black"/>
<path d="M193.923 55C189.075 55 185.474 51.6067 185.474 47C185.474 42.3933 189.075 39 193.946 39C196.3 39 198.424 39.764 199.855 41.2921L198.77 42.3483C197.455 41.0449 195.839 40.4831 193.992 40.4831C190.091 40.4831 187.16 43.2697 187.16 47C187.16 50.7303 190.091 53.5169 193.992 53.5169C195.839 53.5169 197.455 52.9551 198.77 51.6292L199.855 52.6854C198.424 54.2135 196.3 55 193.923 55Z" fill="black"/>
<path d="M215.315 39.1348H217V54.8652H215.315V47.6067H205.205V54.8652H203.496V39.1348H205.205V46.1461H215.315V39.1348Z" fill="black"/>
<path fill-rule="evenodd" clip-rule="evenodd" d="M100 33.6429C74.3977 33.6429 53.6429 54.3977 53.6429 80C53.6429 105.602 74.3977 126.357 100 126.357C125.602 126.357 146.357 105.602 146.357 80C146.357 54.3977 125.602 33.6429 100 33.6429ZM51 80C51 52.938 72.938 31 100 31C127.062 31 149 52.938 149 80C149 107.062 127.062 129 100 129C72.938 129 51 107.062 51 80Z" fill="#566C77"/>
<path d="M83.838 70.1348H85.4415L80.1118 85.8652H78.3503L73.7207 72.4494L69.0686 85.8652H67.3297L62 70.1348H63.7163L68.2782 83.6629L72.9981 70.1348H74.5563L79.2085 83.7303L83.838 70.1348Z" fill="black"/>
<path d="M88.5056 85.8652V70.1348H90.1767V85.8652H88.5056Z" fill="black"/>
<path d="M107.944 85.8652H106.115L102.502 80.809C102.095 80.8539 101.689 80.8764 101.237 80.8764H96.9914V85.8652H95.3202V70.1348H101.237C105.257 70.1348 107.696 72.1573 107.696 75.5281C107.696 78 106.386 79.7303 104.083 80.4719L107.944 85.8652ZM101.192 79.4607C104.354 79.4607 106.025 78 106.025 75.5281C106.025 73.0112 104.354 71.573 101.192 71.573H96.9914V79.4607H101.192Z" fill="black"/>
<path d="M113.311 84.427H122.819V85.8652H111.64V70.1348H122.48V71.573H113.311V77.1685H121.487V78.5843H113.311V84.427Z" fill="black"/>
<path d="M131.106 86C128.735 86 126.408 85.1685 125.234 83.9551L125.889 82.6742C127.018 83.7753 129.028 84.5843 131.106 84.5843C134.064 84.5843 135.351 83.3483 135.351 81.7978C135.351 77.4831 125.618 80.1348 125.618 74.3146C125.618 72 127.425 70 131.445 70C133.229 70 135.08 70.5169 136.345 71.3933L135.781 72.7191C134.426 71.8427 132.845 71.4157 131.445 71.4157C128.554 71.4157 127.267 72.6966 127.267 74.2697C127.267 78.5843 137 75.9775 137 81.7079C137 84.0225 135.148 86 131.106 86Z" fill="black"/>
<path fill-rule="evenodd" clip-rule="evenodd" d="M49 117.643C23.3977 117.643 2.64293 138.398 2.64293 164C2.64293 189.602 23.3977 210.357 49 210.357C74.6023 210.357 95.3571 189.602 95.3571 164C95.3571 138.398 74.6023 117.643 49 117.643ZM0 164C0 136.938 21.938 115 49 115C76.0619 115 98 136.938 98 164C98 191.062 76.0619 213 49 213C21.938 213 0 191.062 0 164Z" fill="#566C77"/>
<path d="M41.4892 170H39.6795L36.1048 165.179C35.7026 165.221 35.3004 165.243 34.8536 165.243H30.6533V170H29V155H34.8536C38.8305 155 41.2434 156.929 41.2434 160.143C41.2434 162.5 39.9476 164.15 37.6687 164.857L41.4892 170ZM34.8089 163.893C37.9368 163.893 39.5901 162.5 39.5901 160.143C39.5901 157.743 37.9368 156.371 34.8089 156.371H30.6533V163.893H34.8089Z" fill="black"/>
<path d="M47.9659 170V156.371H42.4698V155H55.1153V156.371H49.6192V170H47.9659Z" fill="black"/>
<path d="M63.6102 155C67.5871 155 70 156.929 70 160.143C70 163.336 67.5871 165.264 63.6102 165.264H59.4099V170H57.7566V155H63.6102ZM63.5655 163.871C66.6934 163.871 68.3467 162.5 68.3467 160.143C68.3467 157.743 66.6934 156.371 63.5655 156.371H59.4099V163.871H63.5655Z" fill="black"/>
<path fill-rule="evenodd" clip-rule="evenodd" d="M66 214.643C40.3977 214.643 19.6429 235.398 19.6429 261C19.6429 286.602 40.3977 307.357 66 307.357C91.6023 307.357 112.357 286.602 112.357 261C112.357 235.398 91.6023 214.643 66 214.643ZM17 261C17 233.938 38.938 212 66 212C93.0619 212 115 233.938 115 261C115 288.062 93.0619 310 66 310C38.938 310 17 288.062 17 261Z" fill="#566C77"/>
<path d="M57.118 239.412H47.714V245.671H56.0989V247.127H47.714V253.886H46V237.956H57.118V239.412Z" fill="black"/>
<path d="M70.5346 247.901C70.5346 248.037 70.5114 248.22 70.5114 248.402H60.3199C60.5052 250.905 62.4509 252.566 65.1146 252.566C66.597 252.566 67.9172 252.043 68.8437 250.996L69.7702 252.043C68.6816 253.317 66.9907 254 65.0682 254C61.2696 254 58.6754 251.451 58.6754 247.901C58.6754 244.351 61.2001 241.825 64.6281 241.825C68.0562 241.825 70.5346 244.305 70.5346 247.901ZM64.6281 243.213C62.2656 243.213 60.5284 244.851 60.3199 247.195H68.9595C68.7511 244.851 67.0139 243.213 64.6281 243.213Z" fill="black"/>
<path d="M83.3555 237H85V253.886H83.4249V251.519C82.429 253.135 80.7381 254 78.7229 254C75.2485 254 72.6543 251.519 72.6543 247.901C72.6543 244.282 75.2485 241.825 78.7229 241.825C80.6686 241.825 82.3363 242.644 83.3555 244.191V237ZM78.8619 252.566C81.433 252.566 83.3786 250.7 83.3786 247.901C83.3786 245.102 81.433 243.236 78.8619 243.236C76.2677 243.236 74.322 245.102 74.322 247.901C74.322 250.7 76.2677 252.566 78.8619 252.566Z" fill="black"/>
<path d="M48.655 265.135H50.3167V280.865H48.9281L38.6845 268.101V280.865H37V265.135H38.3886L48.655 277.899V265.135Z" fill="black"/>
<path d="M62.4833 281C57.6574 281 54.1063 277.584 54.1063 273C54.1063 268.416 57.6574 265 62.4833 265C67.2636 265 70.8375 268.393 70.8375 273C70.8375 277.607 67.2636 281 62.4833 281ZM62.4833 279.517C66.3076 279.517 69.153 276.753 69.153 273C69.153 269.247 66.3076 266.483 62.4833 266.483C58.6362 266.483 55.768 269.247 55.768 273C55.768 276.753 58.6362 279.517 62.4833 279.517Z" fill="black"/>
<path d="M94.3838 265.135H96L90.6278 280.865H88.8522L84.1857 267.449L79.4964 280.865H77.7436L72.3714 265.135H74.1014L78.6997 278.663L83.4573 265.135H85.028L89.7172 278.73L94.3838 265.135Z" fill="black"/>
</svg>
