<svg width="149" height="142" viewBox="0 0 149 142" fill="none" xmlns="http://www.w3.org/2000/svg">
<path d="M69.4401 12.241H63.0601L74.7601 0.541016L86.4601 12.241H80.0801V26.071H69.4401V12.241Z" fill="#6C808D"/>
<path d="M9.98001 63.1412L8.01001 69.2112L0.5 54.4612L15.25 46.9512L13.28 53.0212L26.43 57.2912L23.14 67.4112L9.98001 63.1412Z" fill="#6C808D"/>
<path d="M40.01 135.421L45.17 139.171L28.82 141.761L26.23 125.411L31.39 129.161L39.52 117.971L48.13 124.221L40.01 135.421Z" fill="#6C808D"/>
<path d="M118.03 129.201L123.19 125.451L120.6 141.801L104.25 139.211L109.41 135.461L101.28 124.271L109.89 118.021L118.03 129.201Z" fill="#6C808D"/>
<path d="M136.22 53.071L134.25 47.001L149 54.511L141.49 69.261L139.52 63.191L126.37 67.461L123.08 57.341L136.22 53.071Z" fill="#6C808D"/>
<path d="M74.7601 125.951C100.414 125.951 121.21 105.154 121.21 79.5008C121.21 53.8472 100.414 33.0508 74.7601 33.0508C49.1064 33.0508 28.3101 53.8472 28.3101 79.5008C28.3101 105.154 49.1064 125.951 74.7601 125.951Z" fill="#566C77"/>
<path d="M39.7029 84.1455V71.9187H41.9736V82.2242H48.3664V84.1455H39.7029ZM52.4298 82.2416H59.3292V84.1455H50.1591V71.9187H59.0846V73.8226H52.4298V77.0016H58.3336V78.8705H52.4298V82.2416ZM61.8605 84.1455V71.9187H67.2053C71.1703 71.9187 73.8777 74.3641 73.8777 78.0321C73.8777 81.7002 71.1703 84.1455 67.2053 84.1455H61.8605ZM64.1312 82.2242H67.1005C69.8254 82.2242 71.5895 80.5648 71.5895 78.0321C71.5895 75.4994 69.8254 73.8401 67.1005 73.8401H64.1312V82.2242ZM84.6402 81.7002V77.8924H86.7886V82.7656C85.5136 83.7962 83.7319 84.3202 82.0027 84.3202C78.2124 84.3202 75.4177 81.6827 75.4177 78.0321C75.4177 74.3816 78.2124 71.7441 82.0377 71.7441C84.0813 71.7441 85.793 72.4253 86.9458 73.7353L85.5136 75.1326C84.5529 74.172 83.4525 73.7353 82.1425 73.7353C79.5399 73.7353 77.7059 75.4994 77.7059 78.0321C77.7059 80.5124 79.5399 82.329 82.125 82.329C82.9983 82.329 83.8542 82.1543 84.6402 81.7002ZM92.0542 82.2416H98.9536V84.1455H89.7835V71.9187H98.709V73.8226H92.0542V77.0016H97.958V78.8705H92.0542V82.2416ZM111.93 84.1455H109.485L106.987 80.5648C106.83 80.5823 106.673 80.5823 106.515 80.5823H103.756V84.1455H101.485V71.9187H106.515C109.729 71.9187 111.72 73.5606 111.72 76.268C111.72 78.1195 110.777 79.4819 109.118 80.1281L111.93 84.1455ZM109.432 76.268C109.432 74.7309 108.402 73.8401 106.411 73.8401H103.756V78.7133H106.411C108.402 78.7133 109.432 77.8051 109.432 76.268Z" fill="white"/>
</svg>
