<svg width="631" height="418" viewBox="0 0 631 418" fill="none" xmlns="http://www.w3.org/2000/svg">
<mask id="mask0_1712_4514" style="mask-type:alpha" maskUnits="userSpaceOnUse" x="0" y="0" width="631" height="418">
<rect width="631" height="418" fill="#D9D9D9"/>
</mask>
<g mask="url(#mask0_1712_4514)">
<path d="M333.444 129.981C326.666 126.315 316.133 132.62 309.914 144.069C308.975 145.79 308.191 147.537 307.561 149.264C307.046 150.664 306.77 152.096 306.692 153.521C308.191 154.375 310.847 155.287 314.859 154.542C314.859 154.542 312.113 158.51 307.188 158.215C308.223 162.029 310.769 165.407 314.467 167.404L309.194 175.571L317.637 180.143C324.685 172.932 330.917 163.872 334.454 157.355C340.672 145.906 340.216 133.648 333.438 129.981H333.444Z" fill="#FFD19F"/>
<path d="M369.97 384.273C369.97 384.273 375.063 388.254 374.407 390.81C373.751 393.365 368.716 408.763 370.69 410.992C372.665 413.22 390.664 387.984 390.034 386.912C389.397 385.846 377.687 375.681 377.687 375.681L369.977 384.273H369.97Z" fill="#254768"/>
<path d="M334.653 254.854C334.653 254.854 346.216 178.378 321.155 173.626C280.893 165.991 297.555 254.854 297.555 254.854H334.653Z" fill="white"/>
<path d="M347.354 149.566C353.238 141.886 345.065 128.472 343.791 129.577C342.512 130.681 343.399 133.892 343.058 133.661C342.717 133.429 337.02 121.467 333.161 121.191C329.303 120.914 333.984 124.921 333.2 124.793C332.415 124.664 324.827 117.73 321.901 118.487C318.975 119.245 323.882 122.314 323.882 122.314C323.882 122.314 315.728 119.046 312.673 122.931C311.252 124.735 316.557 131.259 321.31 134.014C321.31 134.014 323.901 135.253 326.956 137.462C326.956 137.462 321.625 154.902 324.821 160.212C328.017 165.522 329.213 165.856 329.213 165.856C329.213 165.856 343.245 154.921 347.354 149.559V149.566Z" fill="#254768"/>
<path d="M328.801 153.45C327.348 155.12 325.091 155.544 323.772 154.394C322.448 153.245 322.557 150.959 324.017 149.289C325.47 147.62 327.727 147.196 329.046 148.346C330.37 149.495 330.261 151.781 328.801 153.45Z" fill="#FFD19F"/>
<path d="M318.679 142.579C317.921 143.594 316.673 143.941 315.895 143.363C315.11 142.779 315.091 141.488 315.843 140.473C316.602 139.459 317.85 139.112 318.628 139.69C319.412 140.274 319.432 141.565 318.679 142.579Z" fill="#2F5481"/>
<path d="M321.773 139.581C321.664 139.581 321.554 139.555 321.452 139.497C318.088 137.616 317.201 136.543 317.111 136.428C316.886 136.139 316.937 135.722 317.227 135.497C317.516 135.272 317.928 135.323 318.153 135.606C318.178 135.638 319.021 136.614 322.101 138.335C322.423 138.515 322.538 138.919 322.358 139.24C322.236 139.459 322.011 139.581 321.779 139.581H321.773Z" fill="#2F5481"/>
<path d="M286.127 403.78C286.127 403.78 287.684 408.449 287.253 408.705C286.822 408.962 267.054 417.4 268.552 419.422C269.292 420.418 299.722 419.076 299.805 417.605C299.889 416.135 296.687 402.477 296.687 402.477L286.127 403.774V403.78Z" fill="#254768"/>
<path d="M313.51 138.592C313.51 138.592 304.481 144.236 305.246 145.244C306.011 146.252 309.793 146.984 309.793 146.984L313.51 138.592Z" fill="#FFD19F"/>
<path d="M334.653 254.854H297.554C297.554 254.854 264.436 325.044 264.134 334.766C263.832 344.487 278.944 405.341 283.883 405.425C288.821 405.508 299.291 405.11 299.291 403.485C299.291 401.861 288.236 337.97 289.079 336.069C293.072 327.092 304.602 310.808 312.448 298.55C345.006 281.926 334.659 254.848 334.659 254.848L334.653 254.854Z" fill="#254768"/>
<path d="M336.088 326.72C336.46 328.762 381.662 375.322 382.575 376.657C383.488 377.993 375.07 384.215 370.942 386.925C366.813 389.641 319.985 347.871 314.744 339.671C309.503 331.472 297.548 254.848 297.548 254.848C297.548 254.848 326.995 254.462 334.647 254.848C334.647 254.848 341.206 271.485 331.457 281.611L336.081 326.713L336.088 326.72Z" fill="#2F5481"/>
<path d="M314.468 167.404L318.918 170.222C318.918 170.222 314.448 171.738 310.024 174.293L314.468 167.41V167.404Z" fill="#254768"/>
<path d="M311.22 254.854L313.509 261.384C313.509 261.384 328.525 266.72 336.801 267.613C336.801 267.613 336.698 269.719 336.576 270.547C336.576 270.547 323.155 268.518 311.998 264.319L308.962 254.841L311.22 254.86V254.854Z" fill="#254768"/>
<path d="M321.155 173.626L369.687 190.924C369.687 190.924 422.027 172.386 422.58 174.287C423.133 176.188 425.088 184.805 425.088 184.805C425.088 184.805 374.42 214.567 369.97 214.002C365.514 213.437 326.261 205.654 325.148 202.598C324.036 199.541 321.161 173.619 321.161 173.619L321.155 173.626Z" fill="#2F5481"/>
<path d="M315.721 173.157C315.721 173.157 305.985 184.773 305.194 212.191C304.403 239.61 313.503 261.378 313.503 261.378C313.503 261.378 331.869 268.075 345.071 268.492L339.939 220.822C339.939 220.822 339.663 184.311 330.943 177.106C330.943 177.106 324.306 173.26 315.721 173.151V173.157Z" fill="#2F5481"/>
<path d="M339.296 207.569L325.843 203.202C325.843 203.202 332.55 215.524 339.869 217.354L339.303 207.569H339.296Z" fill="#254768"/>
<path d="M291.831 192.087C291.542 193.133 278.115 226.26 278.115 226.26C278.115 226.26 222.631 224.552 222.399 226.318C222.168 228.084 221.293 237.26 222.515 239.083C223.705 240.862 282.353 249.897 285.606 248.503C288.86 247.11 294.134 240.13 294.134 240.13L291.831 192.087Z" fill="#2F5481"/>
<path d="M310.024 174.287C310.024 174.287 297.182 177.581 294.989 202.142C292.802 226.697 297.548 254.854 297.548 254.854L295.883 258.411C295.883 258.411 287.767 225.92 290.275 200.46C292.783 175 310.017 174.287 310.017 174.287H310.024Z" fill="#254768"/>
<path d="M422.844 175.219C422.844 175.219 433.319 167.93 433.879 168.63C434.438 169.33 434.676 170.499 434.162 171.154C433.647 171.809 431.307 174.236 431.544 174.191C431.776 174.146 448.631 174.3 448.631 175.674C448.631 177.049 444.766 182.622 441.756 182.969C438.747 183.309 424.869 183.823 424.869 183.823L422.85 175.225L422.844 175.219Z" fill="#FFD19F"/>
<path d="M222.18 228.424C222.18 228.424 212.348 225.31 212.226 225.747C212.104 226.183 212.29 227.5 212.727 227.808C213.165 228.122 217.763 230.684 217.184 230.742C216.605 230.806 201.332 236.117 203.403 238.929C205.467 241.742 211.602 243.488 213.666 242.615C215.73 241.742 222.213 238.332 222.18 238.21C222.148 238.088 221.833 235.924 221.878 234.267C221.923 232.611 222.18 228.418 222.18 228.418V228.424Z" fill="#FFD19F"/>
<path d="M312.243 173.626C312.243 173.626 306.732 198.501 312.442 214.009C315.297 221.765 317.709 226.716 319.407 229.734C321.136 232.816 322.088 236.271 322.088 239.803V248.651L315.722 244.94C311.169 242.288 307.793 238.017 306.282 232.977C304.307 226.395 302.192 216.68 301.594 207.51C300.179 185.749 310.031 174.287 310.031 174.287L312.249 173.619L312.243 173.626Z" fill="#F05A37"/>
<path d="M239.048 151.929C238.984 160.488 235.839 169.002 230.045 175.533C221.306 185.376 207.274 189.467 194.484 186.346C173.642 181.254 161.237 157.361 170.484 137.815C177.198 123.617 193.371 114.243 209.171 116.785C221.113 118.712 231.608 127.181 236.322 138.187C238.199 142.573 239.087 147.26 239.055 151.929H239.048Z" fill="#FF725E"/>
<mask id="mask1_1712_4514" style="mask-type:luminance" maskUnits="userSpaceOnUse" x="167" y="116" width="73" height="72">
<path d="M239.048 151.929C238.984 160.488 235.839 169.002 230.045 175.533C221.306 185.376 207.274 189.467 194.484 186.346C173.642 181.254 161.237 157.361 170.484 137.815C177.198 123.617 193.371 114.243 209.171 116.785C221.113 118.712 231.608 127.181 236.322 138.187C238.199 142.573 239.087 147.26 239.055 151.929H239.048Z" fill="white"/>
</mask>
<g mask="url(#mask1_1712_4514)">
<path d="M166.49 153.907C166.49 153.907 173.898 178.757 202.329 181.64C230.765 184.523 239.041 153.579 239.041 153.579C239.041 153.579 240.823 157.091 240.488 159.756C240.154 162.421 231.582 189.088 206.181 189.589C180.779 190.09 171.037 176.195 168.902 171.597C166.76 166.999 166.484 153.9 166.484 153.9L166.49 153.907Z" fill="#A6483B"/>
</g>
<path d="M213.718 154.317C212.496 152.86 211.133 151.774 209.634 151.049C208.464 150.49 207.184 149.976 205.795 149.514V137.577C206.657 137.866 207.416 138.309 208.072 138.906C209.345 140.062 210.014 141.468 210.091 143.119C210.2 143.889 210.438 144.473 210.805 144.859C211.178 145.244 211.821 145.437 212.74 145.437C213.589 145.437 214.226 145.238 214.65 144.833C215.075 144.429 215.287 143.774 215.287 142.855C215.287 141.064 214.753 139.369 213.692 137.77C212.631 136.171 211.171 134.88 209.313 133.898C208.22 133.32 207.043 132.915 205.789 132.678V130.79C205.789 129.416 204.67 128.305 203.287 128.305C201.905 128.305 200.786 129.416 200.786 130.79V132.607C199.448 132.819 198.181 133.211 196.979 133.801C195.101 134.713 193.615 135.978 192.522 137.596C191.423 139.215 190.876 141.057 190.876 143.125C190.876 145.411 191.513 147.26 192.786 148.679C194.059 150.105 195.448 151.119 196.953 151.736C198.091 152.205 199.371 152.654 200.786 153.091V164.463C199.963 164.148 199.21 163.692 198.516 163.089C197.062 161.824 196.323 160.071 196.284 157.823C196.213 156.314 195.313 155.556 193.577 155.556C191.841 155.556 190.979 156.436 190.979 158.189C190.979 160.225 191.493 162.132 192.516 163.904C193.545 165.676 195.017 167.089 196.947 168.142C198.104 168.778 199.384 169.214 200.779 169.465V171.359C200.779 172.733 201.898 173.844 203.281 173.844C204.663 173.844 205.782 172.733 205.782 171.359V169.593C207.204 169.42 208.528 169.06 209.757 168.508C211.564 167.699 212.978 166.55 214.001 165.06C215.03 163.57 215.538 161.836 215.538 159.871C215.538 157.624 214.927 155.775 213.705 154.317H213.718ZM199.737 147.524C198.709 147.119 197.86 146.573 197.191 145.893C196.516 145.206 196.181 144.307 196.181 143.183C196.181 141.43 196.824 139.985 198.117 138.861C198.876 138.2 199.77 137.738 200.786 137.462V147.909C200.387 147.768 200.04 147.639 199.737 147.524ZM208.413 163.699C207.654 164.219 206.779 164.578 205.795 164.784V154.735C206.046 154.831 206.284 154.934 206.503 155.03C207.615 155.524 208.528 156.16 209.236 156.95C209.943 157.74 210.297 158.748 210.297 159.981C210.297 161.599 209.666 162.832 208.413 163.692V163.699Z" fill="white"/>
<path d="M179.127 120.099C185.461 113.678 194.644 111.738 203.377 111.771C204.296 111.771 204.296 110.352 203.377 110.345C194.271 110.313 184.721 112.406 178.123 119.091C177.48 119.746 178.483 120.754 179.133 120.099H179.127Z" fill="white"/>
<path d="M218.656 188.253C209.84 191.181 200.335 191.759 191.236 189.884C190.342 189.698 189.956 191.072 190.857 191.258C200.207 193.185 209.975 192.639 219.036 189.627C219.904 189.338 219.531 187.964 218.656 188.253Z" fill="white"/>
<path d="M186.31 188.195C184.091 187.348 181.995 186.211 180.046 184.856C179.731 184.638 179.255 184.799 179.069 185.113C178.863 185.466 179.011 185.865 179.326 186.089C181.377 187.521 183.596 188.677 185.93 189.576C186.29 189.711 186.715 189.422 186.805 189.082C186.914 188.683 186.67 188.343 186.31 188.208V188.195Z" fill="white"/>
<path d="M447.641 149.509C440.953 154.858 432.349 157.792 423.616 157.42C410.453 156.861 398.421 148.571 392.781 136.686C383.592 117.326 394.331 92.6426 415.353 87.4736C430.619 83.7236 448.104 90.331 456.098 104.182C462.136 114.648 462.175 128.126 456.593 138.721C454.374 142.94 451.288 146.587 447.635 149.509H447.641Z" fill="#2F5481"/>
<path d="M443.146 143.967C437.79 148.25 430.902 150.6 423.912 150.305C413.372 149.855 403.733 143.216 399.218 133.699C391.855 118.192 400.459 98.4278 417.295 94.2925C429.52 91.2874 443.526 96.5849 449.924 107.668C454.76 116.048 454.792 126.842 450.323 135.324C448.542 138.701 446.079 141.623 443.153 143.96L443.146 143.967Z" fill="white"/>
<path d="M425.906 122.713L424.266 120.697L438.015 109.537C438.574 109.087 439.391 109.171 439.848 109.723C440.298 110.281 440.214 111.097 439.661 111.553L425.912 122.713H425.906Z" fill="#51A8BC"/>
<path d="M423.031 123.002L425.52 122.25L428.176 131.054C428.382 131.741 427.996 132.466 427.308 132.672C426.62 132.877 425.893 132.492 425.687 131.805L423.031 123.002Z" fill="#51A8BC"/>
<path d="M427.597 124.793C425.893 126.18 423.385 125.923 421.996 124.215C420.607 122.514 420.864 120.009 422.575 118.622C424.279 117.235 426.787 117.492 428.176 119.2C429.565 120.902 429.308 123.406 427.597 124.793Z" fill="#2F5481"/>
<path d="M426.125 144.956L426.073 143.82C427.887 143.743 429.687 143.434 431.424 142.921L431.752 144.012C429.925 144.558 428.035 144.873 426.125 144.956ZM422.697 144.853C420.8 144.661 418.929 144.231 417.135 143.588L417.521 142.516C419.225 143.133 421 143.537 422.807 143.723L422.691 144.853H422.697ZM434.954 142.792L434.472 141.758C436.105 140.994 437.655 140.025 439.063 138.875L439.842 139.71L439.777 139.761C438.298 140.962 436.678 141.983 434.954 142.786V142.792ZM414.009 142.189C412.331 141.283 410.768 140.179 409.36 138.888L410.132 138.047C411.469 139.267 412.955 140.326 414.55 141.181L414.009 142.182V142.189ZM442.324 137.36L441.481 136.596C442.703 135.254 443.758 133.77 444.613 132.178L445.616 132.717C444.716 134.393 443.61 135.954 442.324 137.366V137.36ZM407.006 136.397C405.81 134.811 404.82 133.186 404.029 131.542L405.058 131.048C405.81 132.615 406.762 134.169 407.881 135.665L407.894 135.684L407.006 136.397ZM447.012 129.59L445.938 129.205C446.549 127.503 446.954 125.725 447.134 123.92L448.266 124.036C448.073 125.93 447.655 127.799 447.012 129.59ZM402.762 128.377C402.17 126.534 401.817 124.652 401.708 122.777L402.846 122.713C402.949 124.492 403.283 126.283 403.849 128.03L402.762 128.377ZM447.218 120.671C447.134 118.86 446.825 117.063 446.304 115.335L447.398 115.008C447.944 116.831 448.266 118.719 448.356 120.62L447.218 120.671ZM402.923 119.464L401.791 119.348C401.984 117.467 402.428 115.599 403.109 113.801L404.177 114.205C403.527 115.907 403.109 117.679 402.923 119.464ZM445.14 112.292C444.375 110.68 443.417 109.152 442.279 107.752L443.115 106.975L443.147 107.013C444.356 108.503 445.372 110.108 446.176 111.804L445.14 112.292ZM405.56 111.258L404.563 110.699C405.489 109.055 406.621 107.508 407.926 106.108L408.762 106.885C407.514 108.227 406.434 109.697 405.553 111.258H405.56ZM439.951 105.395C438.562 104.143 437.083 103.071 435.546 102.21L436.105 101.215C437.713 102.12 439.263 103.238 440.716 104.548L439.951 105.395ZM411.148 104.65L410.428 103.771C411.907 102.563 413.527 101.53 415.225 100.708L415.726 101.729C414.099 102.519 412.563 103.501 411.148 104.65ZM432.594 100.83C430.89 100.181 429.122 99.7639 427.327 99.5841L427.443 98.4539C429.334 98.6466 431.205 99.0832 432.999 99.7639L432.594 100.83ZM418.749 100.515L418.402 99.43C420.241 98.8456 422.125 98.4925 424.009 98.3833L424.073 99.5199C422.286 99.6226 420.492 99.9565 418.749 100.515Z" fill="#2F5481"/>
<path d="M385.083 130.842C382.26 121.936 383.019 112.067 387.225 103.713C387.636 102.897 386.408 102.172 385.997 102.993C381.624 111.681 380.775 121.942 383.714 131.221C383.99 132.094 385.366 131.722 385.09 130.842H385.083Z" fill="white"/>
<path d="M392.08 96.7198C394.826 92.957 398.19 89.6436 401.99 86.9403C402.73 86.4138 402.022 85.1809 401.27 85.7139C397.257 88.5649 393.746 92.0323 390.846 96.0006C390.306 96.739 391.54 97.4518 392.074 96.7198H392.08Z" fill="white"/>
<path d="M464.612 134.541C463.724 139.787 461.145 144.609 457.248 148.243C456.58 148.873 457.589 149.874 458.258 149.252C462.309 145.463 465.062 140.384 465.988 134.919C466.142 134.02 464.766 133.635 464.612 134.541Z" fill="white"/>
<path d="M299.433 35.1339C299.368 43.6933 296.224 52.2078 290.43 58.7382C281.69 68.5819 267.658 72.6722 254.868 69.5451C234.026 64.4531 221.621 40.5598 230.868 21.0137C237.582 6.81646 253.755 -2.55848 269.556 -0.0156861C281.497 1.91067 291.992 10.3802 296.706 21.3861C298.584 25.7718 299.471 30.4593 299.439 35.1275L299.433 35.1339Z" fill="#2F5481"/>
<path d="M292.295 35.1215C292.244 41.973 289.723 48.7923 285.08 54.0255C278.083 61.9107 266.842 65.1856 256.598 62.6813C239.904 58.6038 229.975 39.4687 237.377 23.8203C242.753 12.4547 255.704 4.94196 268.354 6.97747C277.916 8.51856 286.321 15.3058 290.096 24.1156C291.601 27.628 292.308 31.378 292.282 35.1215H292.295Z" fill="white"/>
<path d="M264.9 35.0697H262.295V17.3794C262.295 16.6602 262.881 16.0823 263.594 16.0823C264.315 16.0823 264.893 16.6666 264.893 17.3794V35.0697H264.9Z" fill="#51A8BC"/>
<path d="M263.312 37.4782L264.302 35.0767L272.823 38.5698C273.485 38.8395 273.806 39.6036 273.53 40.265C273.26 40.9264 272.495 41.2474 271.832 40.9713L263.312 37.4782Z" fill="#51A8BC"/>
<path d="M263.602 39.0446C265.8 39.0446 267.582 37.2651 267.582 35.0699C267.582 32.8748 265.8 31.0952 263.602 31.0952C261.403 31.0952 259.621 32.8748 259.621 35.0699C259.621 37.2651 261.403 39.0446 263.602 39.0446Z" fill="#2F5481"/>
<path d="M263.62 58.3399H263.575C261.627 58.2629 259.742 58.006 257.974 57.5822L258.238 56.4778C259.935 56.8823 261.749 57.1263 263.62 57.2034V58.3399ZM267.035 58.0895L266.868 56.9658C268.662 56.7025 270.417 56.2145 272.096 55.521L272.533 56.5741C270.771 57.3061 268.925 57.8134 267.035 58.0959V58.0895ZM254.701 56.5677C252.9 55.8678 251.209 54.9495 249.685 53.8515L250.353 52.9269C251.8 53.9671 253.402 54.834 255.119 55.5018L254.707 56.5613L254.701 56.5677ZM275.588 55.0266L275.002 54.0506C276.552 53.1195 277.993 51.9958 279.272 50.7116L280.076 51.5142C278.726 52.8627 277.215 54.0442 275.588 55.0202V55.0266ZM247.074 51.6362C245.73 50.3006 244.559 48.7788 243.595 47.1157L244.579 46.5442C245.492 48.1174 246.604 49.5622 247.878 50.8271L247.074 51.6362ZM282.314 48.9265L281.401 48.2458C282.481 46.7882 283.382 45.2022 284.076 43.5327L285.131 43.9693C284.404 45.7223 283.452 47.3918 282.314 48.92V48.9265ZM242.096 44.0335C241.402 42.2805 240.913 40.4312 240.65 38.5306L241.781 38.37C242.039 40.1808 242.502 41.9466 243.164 43.6161L242.103 44.0335H242.096ZM286.205 40.7202L285.099 40.4441C285.536 38.6975 285.754 36.8867 285.754 35.0695V34.9732H286.893V35.0631C286.893 36.9766 286.661 38.8837 286.198 40.7202H286.205ZM240.412 35.1145V35.076C240.412 33.1817 240.63 31.2939 241.055 29.4638L242.167 29.7207C241.762 31.4672 241.556 33.2652 241.556 35.0695L240.418 35.1081L240.412 35.1145ZM285.51 31.7241C285.24 29.9326 284.745 28.1796 284.044 26.5101L285.099 26.067C285.838 27.82 286.353 29.6693 286.642 31.5507L285.517 31.7241H285.51ZM243.132 26.6064L242.071 26.189C242.772 24.3975 243.685 22.7087 244.791 21.1805L245.717 21.8483C244.669 23.2995 243.801 24.8984 243.138 26.6064H243.132ZM282.565 23.6077C281.626 22.0602 280.501 20.6283 279.208 19.3505L280.012 18.5414C281.369 19.8834 282.552 21.386 283.536 23.017L282.558 23.6077H282.565ZM247.813 19.3697L247.003 18.5671C248.341 17.2186 249.865 16.05 251.524 15.0868L252.096 16.0692C250.521 16.981 249.08 18.0919 247.813 19.3697ZM276.732 17.2379C275.272 16.1591 273.678 15.2666 272.006 14.5795L272.437 13.5264C274.199 14.2456 275.87 15.1895 277.407 16.3197L276.732 17.2379ZM255.029 14.663L254.611 13.6035C256.328 12.9293 258.173 12.4284 260.102 12.1266L260.276 13.2503C258.43 13.5393 256.662 14.0145 255.022 14.6566L255.029 14.663ZM268.906 13.5714C267.176 13.1476 265.388 12.9293 263.594 12.9293H263.543L263.498 11.7927H263.569C263.569 11.7927 263.569 11.7927 263.575 11.7927C265.491 11.7927 267.363 12.0175 269.176 12.4669L268.906 13.5714Z" fill="#2F5481"/>
<path d="M217.48 37.754C218.419 48.2654 222.85 58.3275 229.917 66.1741C231.898 68.3766 234.084 70.3672 236.438 72.1651C237.164 72.7238 237.878 71.4845 237.158 70.9387C229.12 64.7807 223.223 55.9388 220.477 46.2107C219.692 43.4496 219.171 40.6178 218.914 37.754C218.83 36.8486 217.409 36.8422 217.486 37.754H217.48Z" fill="white"/>
<path d="M219.589 29.4643C220.213 24.1797 221.833 19.0427 224.328 14.3424C224.759 13.5334 223.524 12.8142 223.1 13.6232C220.476 18.5611 218.817 23.9164 218.161 29.4643C218.052 30.3697 219.48 30.3633 219.589 29.4643Z" fill="white"/>
<path d="M300.925 11.7355C303.607 15.7745 305.066 20.494 305.118 25.342C305.131 26.2603 306.552 26.2603 306.545 25.342C306.488 20.2564 304.97 15.2543 302.153 11.0164C301.652 10.2587 300.417 10.965 300.925 11.7355Z" fill="white"/>
<path d="M402.421 59.162C397.54 66.1996 390.17 71.4842 381.766 73.6674C369.097 76.9551 355.361 72.5501 346.712 62.8734C332.616 47.103 336.005 20.4936 354.564 9.4748C368.042 1.47399 386.499 2.69402 397.926 13.5587C406.562 21.7714 410.324 34.5881 407.951 46.3003C407.006 50.9621 405.083 55.3285 402.421 59.1684V59.162Z" fill="#FF725E"/>
<mask id="mask2_1712_4514" style="mask-type:luminance" maskUnits="userSpaceOnUse" x="338" y="4" width="71" height="71">
<path d="M402.421 59.162C397.54 66.1996 390.17 71.4842 381.766 73.6674C369.097 76.9551 355.361 72.5501 346.712 62.8734C332.616 47.103 336.005 20.4936 354.564 9.4748C368.042 1.47399 386.499 2.69402 397.926 13.5587C406.562 21.7714 410.324 34.5881 407.951 46.3003C407.006 50.9621 405.083 55.3285 402.421 59.1684V59.162Z" fill="white"/>
</mask>
<g mask="url(#mask2_1712_4514)">
<path d="M342.242 20.5515C342.242 20.5515 334.243 45.1896 355.766 63.3359C377.29 81.4886 401.495 60.517 401.495 60.517C401.495 60.517 400.961 64.4082 399.186 66.4245C397.411 68.4408 375.38 85.7138 354.416 72.043C333.452 58.3723 333.368 41.491 334.217 36.5082C335.066 31.5253 342.236 20.5515 342.236 20.5515H342.242Z" fill="#A6483B"/>
</g>
<path d="M380.453 47.084C380.28 45.2026 379.785 43.5459 378.968 42.1204C378.331 41.0095 377.579 39.8794 376.704 38.7236L383.444 28.8606C383.984 29.5798 384.35 30.3632 384.55 31.2172C384.936 32.8803 384.685 34.415 383.81 35.8148C383.463 36.5147 383.328 37.1247 383.412 37.6513C383.495 38.1778 383.913 38.6915 384.659 39.2052C385.347 39.6739 385.984 39.8601 386.556 39.7638C387.128 39.6675 387.675 39.2373 388.19 38.486C389.199 37.0091 389.726 35.3139 389.765 33.4068C389.804 31.4998 389.341 29.6248 388.389 27.7819C387.823 26.6967 387.096 25.7078 386.209 24.8153L387.276 23.2549C388.048 22.1184 387.765 20.5773 386.64 19.8132C385.514 19.0491 383.971 19.3444 383.199 20.4746L382.177 21.9771C380.974 21.4121 379.714 21.0332 378.402 20.847C376.357 20.5645 374.434 20.7828 372.634 21.5084C370.827 22.234 369.341 23.454 368.171 25.162C366.885 27.0499 366.357 28.9313 366.589 30.8127C366.82 32.6941 367.38 34.3058 368.254 35.6478C368.917 36.6624 369.708 37.7476 370.614 38.8905L364.197 48.2847C363.708 47.572 363.348 46.7693 363.129 45.8896C362.66 44.0403 363.046 42.1782 364.287 40.3032C365.078 39.019 364.775 37.8953 363.361 36.9321C361.952 35.9689 360.75 36.2129 359.759 37.6641C358.608 39.3464 357.952 41.2022 357.785 43.2377C357.618 45.2732 358.023 47.2574 359.001 49.1966C359.586 50.3652 360.383 51.4375 361.374 52.42L360.306 53.9803C359.528 55.1169 359.817 56.658 360.943 57.4221C362.068 58.1862 363.611 57.8908 364.383 56.7543L365.38 55.2967C366.634 55.9388 367.92 56.3819 369.225 56.6066C371.148 56.9405 372.949 56.7736 374.627 56.1122C376.306 55.4508 377.701 54.3014 378.807 52.6768C380.074 50.8211 380.627 48.9525 380.453 47.0711V47.084ZM372.904 33.7151C372.293 32.8097 371.913 31.8914 371.753 30.954C371.592 30.0165 371.83 29.0854 372.46 28.1543C373.45 26.7031 374.788 25.8748 376.473 25.6629C377.47 25.5409 378.453 25.65 379.431 25.9904L373.534 34.6205C373.29 34.2865 373.077 33.9848 372.897 33.7215L372.904 33.7151ZM370.84 51.887C369.926 51.8935 369.013 51.7072 368.094 51.3284L373.765 43.0258C373.913 43.2441 374.048 43.4624 374.177 43.6615C374.807 44.6889 375.187 45.7227 375.315 46.7629C375.444 47.8096 375.161 48.837 374.473 49.8515C373.56 51.1871 372.351 51.8613 370.846 51.8742L370.84 51.887Z" fill="white"/>
</g>
</svg>
