<?xml version="1.0" encoding="UTF-8"?>
<svg id="Layer_1" data-name="Layer 1" xmlns="http://www.w3.org/2000/svg" xmlns:xlink="http://www.w3.org/1999/xlink" viewBox="0 0 191.53 208.4">
  <defs>
    <style>
      .cls-1 {
        fill: #23c606;
      }

      .cls-1, .cls-2 {
        stroke: #fff;
        stroke-miterlimit: 10;
        stroke-width: 5px;
      }

      .cls-3 {
        fill: #fff;
      }

      .cls-4 {
        fill: #616e7d;
      }

      .cls-2 {
        fill: #e50c26;
      }

      .cls-5, .cls-6 {
        fill: none;
      }

      .cls-6 {
        clip-path: url(#clippath);
      }
    </style>
    <clipPath id="clippath">
      <rect class="cls-5" x="28.36" y="21.37" width="134.81" height="165.65"/>
    </clipPath>
  </defs>
  <rect class="cls-5" width="191.53" height="208.4"/>
  <g class="cls-6">
    <g>
      <path class="cls-4" d="m33.81,26.93c-3.09.27-5.45,2.86-5.45,5.96v137.01c0,2.91,2.07,5.38,4.93,5.89l62.38,11.14c1.74.31,3.53-.16,4.88-1.3,1.36-1.14,2.14-2.81,2.14-4.59V27.36c0-1.69-.69-3.27-1.93-4.42-1.24-1.14-2.88-1.7-4.57-1.55l-62.38,5.53Zm52.52,85.46c-2.57,0-4.65-3.67-4.65-8.19s2.08-8.18,4.65-8.18,4.65,3.66,4.65,8.18-2.08,8.19-4.65,8.19Z"/>
      <path class="cls-3" d="m81.69,104.2c0,4.52,2.08,8.19,4.65,8.19s4.65-3.67,4.65-8.19-2.08-8.18-4.65-8.18-4.65,3.66-4.65,8.18Z"/>
      <path class="cls-4" d="m140.27,78.19V31.35c0-1.23-.49-2.43-1.36-3.3-.86-.87-2.06-1.37-3.28-1.37h-28.99v9.33h24.33v42.18h9.3Z"/>
      <path class="cls-4" d="m106.63,172.38v9.33h28.99c1.23,0,2.42-.5,3.28-1.37.87-.86,1.36-2.07,1.36-3.3v-53.77h-9.3v49.11h-24.33Z"/>
      <path class="cls-2" d="m161.19,120.31l-28.03-20.87v10.83h-21.78v19.95h21.78v10.82l28.03-20.73Z"/>
      <path class="cls-1" d="m111.38,82.39l28.03,20.87v-10.83h21.78v-19.95h-21.78v-10.82l-28.03,20.73Z"/>
    </g>
  </g>
</svg>