<svg width="233" height="225" viewBox="0 0 233 225" fill="none" xmlns="http://www.w3.org/2000/svg">
<path d="M116.37 58.0699C132.093 58.0699 144.84 45.3234 144.84 29.5999C144.84 13.8763 132.093 1.12988 116.37 1.12988C100.646 1.12988 87.8999 13.8763 87.8999 29.5999C87.8999 45.3234 100.646 58.0699 116.37 58.0699Z" stroke="#566C77" stroke-width="2" stroke-miterlimit="10"/>
<path d="M96.8114 27.4463V23.3163H95.1874V22.5463H99.3454V23.3163H97.7214V27.4463H96.8114ZM100.688 24.2543C100.94 23.8623 101.395 23.6663 102.018 23.6663V24.4993C101.941 24.4853 101.878 24.4783 101.815 24.4783C101.15 24.4783 100.73 24.8703 100.73 25.6333V27.4463H99.8555V23.7083H100.688V24.2543ZM104.168 23.6663C105.246 23.6663 105.869 24.1773 105.869 25.2553V27.4463H105.043V26.9913C104.833 27.3133 104.427 27.4953 103.867 27.4953C103.013 27.4953 102.474 27.0263 102.474 26.3753C102.474 25.7523 102.894 25.2623 104.028 25.2623H104.994V25.2063C104.994 24.6953 104.686 24.3943 104.063 24.3943C103.643 24.3943 103.209 24.5343 102.929 24.7653L102.586 24.1283C102.985 23.8203 103.566 23.6663 104.168 23.6663ZM104.049 26.8583C104.476 26.8583 104.847 26.6623 104.994 26.2773V25.8433H104.091C103.496 25.8433 103.335 26.0673 103.335 26.3403C103.335 26.6553 103.601 26.8583 104.049 26.8583ZM109.113 23.6663C110.009 23.6663 110.674 24.1773 110.674 25.3043V27.4463H109.799V25.4163C109.799 24.7513 109.47 24.4293 108.91 24.4293C108.287 24.4293 107.867 24.8073 107.867 25.5563V27.4463H106.992V23.7083H107.825V24.1913C108.112 23.8483 108.567 23.6663 109.113 23.6663ZM112.939 27.4953C112.316 27.4953 111.693 27.3133 111.357 27.0753L111.693 26.4103C112.022 26.6273 112.526 26.7813 112.995 26.7813C113.548 26.7813 113.779 26.6273 113.779 26.3683C113.779 25.6543 111.469 26.3263 111.469 24.8353C111.469 24.1283 112.106 23.6663 113.114 23.6663C113.611 23.6663 114.178 23.7853 114.514 23.9883L114.178 24.6533C113.821 24.4433 113.464 24.3733 113.107 24.3733C112.575 24.3733 112.323 24.5483 112.323 24.7933C112.323 25.5493 114.633 24.8773 114.633 26.3403C114.633 27.0403 113.989 27.4953 112.939 27.4953ZM116.815 23.6663C117.893 23.6663 118.516 24.1773 118.516 25.2553V27.4463H117.69V26.9913C117.48 27.3133 117.074 27.4953 116.514 27.4953C115.66 27.4953 115.121 27.0263 115.121 26.3753C115.121 25.7523 115.541 25.2623 116.675 25.2623H117.641V25.2063C117.641 24.6953 117.333 24.3943 116.71 24.3943C116.29 24.3943 115.856 24.5343 115.576 24.7653L115.233 24.1283C115.632 23.8203 116.213 23.6663 116.815 23.6663ZM116.696 26.8583C117.123 26.8583 117.494 26.6623 117.641 26.2773V25.8433H116.738C116.143 25.8433 115.982 26.0673 115.982 26.3403C115.982 26.6553 116.248 26.8583 116.696 26.8583ZM121.388 27.4953C120.205 27.4953 119.365 26.6973 119.365 25.5773C119.365 24.4573 120.205 23.6663 121.388 23.6663C122.116 23.6663 122.697 23.9673 122.984 24.5343L122.312 24.9263C122.088 24.5693 121.752 24.4083 121.381 24.4083C120.737 24.4083 120.247 24.8563 120.247 25.5773C120.247 26.3053 120.737 26.7463 121.381 26.7463C121.752 26.7463 122.088 26.5853 122.312 26.2283L122.984 26.6203C122.697 27.1803 122.116 27.4953 121.388 27.4953ZM125.79 26.6203L126.035 27.2433C125.825 27.4113 125.51 27.4953 125.195 27.4953C124.376 27.4953 123.907 27.0613 123.907 26.2353V24.4363H123.291V23.7363H123.907V22.8823H124.782V23.7363H125.783V24.4363H124.782V26.2143C124.782 26.5783 124.964 26.7743 125.3 26.7743C125.482 26.7743 125.657 26.7253 125.79 26.6203ZM127.196 23.0923C126.874 23.0923 126.636 22.8613 126.636 22.5673C126.636 22.2733 126.874 22.0423 127.196 22.0423C127.518 22.0423 127.756 22.2593 127.756 22.5463C127.756 22.8543 127.525 23.0923 127.196 23.0923ZM126.755 27.4463V23.7083H127.63V27.4463H126.755ZM130.458 27.4953C129.31 27.4953 128.47 26.6973 128.47 25.5773C128.47 24.4573 129.31 23.6663 130.458 23.6663C131.62 23.6663 132.453 24.4573 132.453 25.5773C132.453 26.6973 131.62 27.4953 130.458 27.4953ZM130.458 26.7463C131.095 26.7463 131.571 26.2913 131.571 25.5773C131.571 24.8633 131.095 24.4083 130.458 24.4083C129.828 24.4083 129.352 24.8633 129.352 25.5773C129.352 26.2913 129.828 26.7463 130.458 26.7463ZM135.411 23.6663C136.307 23.6663 136.972 24.1773 136.972 25.3043V27.4463H136.097V25.4163C136.097 24.7513 135.768 24.4293 135.208 24.4293C134.585 24.4293 134.165 24.8073 134.165 25.5563V27.4463H133.29V23.7083H134.123V24.1913C134.41 23.8483 134.865 23.6663 135.411 23.6663Z" fill="#231F20"/>
<path d="M108.053 35.8462H107.073L106.072 34.4112C106.009 34.4182 105.946 34.4182 105.883 34.4182H104.777V35.8462H103.867V30.9462H105.883C107.171 30.9462 107.969 31.6042 107.969 32.6892C107.969 33.4312 107.591 33.9772 106.926 34.2362L108.053 35.8462ZM107.052 32.6892C107.052 32.0732 106.639 31.7162 105.841 31.7162H104.777V33.6692H105.841C106.639 33.6692 107.052 33.3052 107.052 32.6892ZM112.418 33.9982C112.418 34.0682 112.411 34.1732 112.404 34.2572H109.471C109.576 34.8032 110.031 35.1532 110.682 35.1532C111.102 35.1532 111.431 35.0202 111.697 34.7472L112.166 35.2862C111.83 35.6852 111.305 35.8952 110.661 35.8952C109.408 35.8952 108.596 35.0902 108.596 33.9772C108.596 32.8642 109.415 32.0662 110.528 32.0662C111.62 32.0662 112.418 32.8292 112.418 33.9982ZM110.528 32.7662C109.961 32.7662 109.548 33.1302 109.464 33.6762H111.585C111.515 33.1372 111.102 32.7662 110.528 32.7662ZM115.85 32.1082H116.69L115.087 35.8462H114.184L112.581 32.1082H113.491L114.653 34.8802L115.85 32.1082ZM117.678 31.4922C117.356 31.4922 117.118 31.2612 117.118 30.9672C117.118 30.6732 117.356 30.4422 117.678 30.4422C118 30.4422 118.238 30.6592 118.238 30.9462C118.238 31.2542 118.007 31.4922 117.678 31.4922ZM117.237 35.8462V32.1082H118.112V35.8462H117.237ZM122.774 33.9982C122.774 34.0682 122.767 34.1732 122.76 34.2572H119.827C119.932 34.8032 120.387 35.1532 121.038 35.1532C121.458 35.1532 121.787 35.0202 122.053 34.7472L122.522 35.2862C122.186 35.6852 121.661 35.8952 121.017 35.8952C119.764 35.8952 118.952 35.0902 118.952 33.9772C118.952 32.8642 119.771 32.0662 120.884 32.0662C121.976 32.0662 122.774 32.8292 122.774 33.9982ZM120.884 32.7662C120.317 32.7662 119.904 33.1302 119.82 33.6762H121.941C121.871 33.1372 121.458 32.7662 120.884 32.7662ZM128.6 32.1082H129.377L127.998 35.8462H127.158L126.192 33.2702L125.212 35.8462H124.372L123 32.1082H123.826L124.813 34.8662L125.842 32.1082H126.577L127.585 34.8802L128.6 32.1082Z" fill="#231F20"/>
<path d="M203.24 121.18C218.964 121.18 231.71 108.434 231.71 92.7102C231.71 76.9867 218.964 64.2402 203.24 64.2402C187.516 64.2402 174.77 76.9867 174.77 92.7102C174.77 108.434 187.516 121.18 203.24 121.18Z" stroke="#566C77" stroke-width="2" stroke-miterlimit="10"/>
<path d="M197.05 90.562H196.07L195.069 89.127C195.006 89.134 194.943 89.134 194.88 89.134H193.774V90.562H192.864V85.662H194.88C196.168 85.662 196.966 86.32 196.966 87.405C196.966 88.147 196.588 88.693 195.923 88.952L197.05 90.562ZM196.049 87.405C196.049 86.789 195.636 86.432 194.838 86.432H193.774V88.385H194.838C195.636 88.385 196.049 88.021 196.049 87.405ZM198.341 86.208C198.019 86.208 197.781 85.977 197.781 85.683C197.781 85.389 198.019 85.158 198.341 85.158C198.663 85.158 198.901 85.375 198.901 85.662C198.901 85.97 198.67 86.208 198.341 86.208ZM197.9 90.562V86.824H198.775V90.562H197.9ZM201.078 90.611C200.455 90.611 199.832 90.429 199.496 90.191L199.832 89.526C200.161 89.743 200.665 89.897 201.134 89.897C201.687 89.897 201.918 89.743 201.918 89.484C201.918 88.77 199.608 89.442 199.608 87.951C199.608 87.244 200.245 86.782 201.253 86.782C201.75 86.782 202.317 86.901 202.653 87.104L202.317 87.769C201.96 87.559 201.603 87.489 201.246 87.489C200.714 87.489 200.462 87.664 200.462 87.909C200.462 88.665 202.772 87.993 202.772 89.456C202.772 90.156 202.128 90.611 201.078 90.611ZM206.347 90.562L205.052 88.959L204.401 89.575V90.562H203.526V85.368H204.401V88.504L206.214 86.824H207.264L205.703 88.392L207.411 90.562H206.347ZM214.152 90.072L213.669 90.639L213.053 90.044C212.612 90.422 212.052 90.632 211.408 90.632C210.372 90.632 209.623 90.093 209.623 89.323C209.623 88.714 209.959 88.287 210.757 87.839C210.358 87.44 210.211 87.118 210.211 86.761C210.211 86.075 210.771 85.606 211.632 85.606C212.423 85.606 212.941 86.019 212.941 86.684C212.941 87.188 212.647 87.552 211.94 87.951L212.997 88.959C213.116 88.728 213.207 88.448 213.27 88.133L213.977 88.364C213.886 88.791 213.739 89.169 213.536 89.484L214.152 90.072ZM211.632 86.229C211.24 86.229 211.009 86.446 211.009 86.747C211.009 86.964 211.1 87.125 211.45 87.475C212.017 87.167 212.199 86.964 212.199 86.698C212.199 86.418 211.996 86.229 211.632 86.229ZM211.471 89.918C211.877 89.918 212.234 89.792 212.535 89.547L211.24 88.308C210.673 88.623 210.477 88.882 210.477 89.232C210.477 89.638 210.869 89.918 211.471 89.918Z" fill="#231F20"/>
<path d="M192.741 99.0319C191.243 99.0319 190.123 97.9749 190.123 96.5119C190.123 95.0489 191.243 93.9919 192.748 93.9919C193.546 93.9919 194.232 94.2789 194.687 94.8109L194.099 95.3639C193.742 94.9789 193.301 94.7899 192.79 94.7899C191.775 94.7899 191.04 95.5039 191.04 96.5119C191.04 97.5199 191.775 98.2339 192.79 98.2339C193.301 98.2339 193.742 98.0449 194.099 97.6529L194.687 98.2129C194.232 98.7449 193.546 99.0319 192.741 99.0319ZM197.019 99.0109C195.871 99.0109 195.031 98.2129 195.031 97.0929C195.031 95.9729 195.871 95.1819 197.019 95.1819C198.181 95.1819 199.014 95.9729 199.014 97.0929C199.014 98.2129 198.181 99.0109 197.019 99.0109ZM197.019 98.2619C197.656 98.2619 198.132 97.8069 198.132 97.0929C198.132 96.3789 197.656 95.9239 197.019 95.9239C196.389 95.9239 195.913 96.3789 195.913 97.0929C195.913 97.8069 196.389 98.2619 197.019 98.2619ZM201.971 95.1819C202.867 95.1819 203.532 95.6929 203.532 96.8199V98.9619H202.657V96.9319C202.657 96.2669 202.328 95.9449 201.768 95.9449C201.145 95.9449 200.725 96.3229 200.725 97.0719V98.9619H199.85V95.2239H200.683V95.7069C200.97 95.3639 201.425 95.1819 201.971 95.1819ZM206.644 98.1359L206.889 98.7589C206.679 98.9269 206.364 99.0109 206.049 99.0109C205.23 99.0109 204.761 98.5769 204.761 97.7509V95.9519H204.145V95.2519H204.761V94.3979H205.636V95.2519H206.637V95.9519H205.636V97.7299C205.636 98.0939 205.818 98.2899 206.154 98.2899C206.336 98.2899 206.511 98.2409 206.644 98.1359ZM208.442 95.7699C208.694 95.3779 209.149 95.1819 209.772 95.1819V96.0149C209.695 96.0009 209.632 95.9939 209.569 95.9939C208.904 95.9939 208.484 96.3859 208.484 97.1489V98.9619H207.609V95.2239H208.442V95.7699ZM212.16 99.0109C211.012 99.0109 210.172 98.2129 210.172 97.0929C210.172 95.9729 211.012 95.1819 212.16 95.1819C213.322 95.1819 214.155 95.9729 214.155 97.0929C214.155 98.2129 213.322 99.0109 212.16 99.0109ZM212.16 98.2619C212.797 98.2619 213.273 97.8069 213.273 97.0929C213.273 96.3789 212.797 95.9239 212.16 95.9239C211.53 95.9239 211.054 96.3789 211.054 97.0929C211.054 97.8069 211.53 98.2619 212.16 98.2619ZM214.992 98.9619V93.7679H215.867V98.9619H214.992Z" fill="#231F20"/>
<path d="M170.06 223.31C185.783 223.31 198.53 210.564 198.53 194.84C198.53 179.117 185.783 166.37 170.06 166.37C154.336 166.37 141.59 179.117 141.59 194.84C141.59 210.564 154.336 223.31 170.06 223.31Z" stroke="#566C77" stroke-width="2" stroke-miterlimit="10"/>
<path d="M158.148 190.138C158.673 190.306 159.03 190.719 159.03 191.356C159.03 192.196 158.372 192.686 157.112 192.686H154.676V187.786H156.972C158.148 187.786 158.778 188.283 158.778 189.06C158.778 189.564 158.526 189.935 158.148 190.138ZM156.874 188.5H155.586V189.851H156.874C157.504 189.851 157.861 189.627 157.861 189.179C157.861 188.724 157.504 188.5 156.874 188.5ZM157.056 191.972C157.742 191.972 158.113 191.755 158.113 191.265C158.113 190.775 157.742 190.558 157.056 190.558H155.586V191.972H157.056ZM162.661 188.948H163.536V192.686H162.703V192.21C162.423 192.553 161.982 192.735 161.499 192.735C160.54 192.735 159.889 192.21 159.889 191.083V188.948H160.764V190.964C160.764 191.643 161.086 191.965 161.639 191.965C162.248 191.965 162.661 191.587 162.661 190.838V188.948ZM165.837 192.735C165.214 192.735 164.591 192.553 164.255 192.315L164.591 191.65C164.92 191.867 165.424 192.021 165.893 192.021C166.446 192.021 166.677 191.867 166.677 191.608C166.677 190.894 164.367 191.566 164.367 190.075C164.367 189.368 165.004 188.906 166.012 188.906C166.509 188.906 167.076 189.025 167.412 189.228L167.076 189.893C166.719 189.683 166.362 189.613 166.005 189.613C165.473 189.613 165.221 189.788 165.221 190.033C165.221 190.789 167.531 190.117 167.531 191.58C167.531 192.28 166.887 192.735 165.837 192.735ZM168.725 188.332C168.403 188.332 168.165 188.101 168.165 187.807C168.165 187.513 168.403 187.282 168.725 187.282C169.047 187.282 169.285 187.499 169.285 187.786C169.285 188.094 169.054 188.332 168.725 188.332ZM168.284 192.686V188.948H169.159V192.686H168.284ZM172.429 188.906C173.325 188.906 173.99 189.417 173.99 190.544V192.686H173.115V190.656C173.115 189.991 172.786 189.669 172.226 189.669C171.603 189.669 171.183 190.047 171.183 190.796V192.686H170.308V188.948H171.141V189.431C171.428 189.088 171.883 188.906 172.429 188.906ZM178.648 190.838C178.648 190.908 178.641 191.013 178.634 191.097H175.701C175.806 191.643 176.261 191.993 176.912 191.993C177.332 191.993 177.661 191.86 177.927 191.587L178.396 192.126C178.06 192.525 177.535 192.735 176.891 192.735C175.638 192.735 174.826 191.93 174.826 190.817C174.826 189.704 175.645 188.906 176.758 188.906C177.85 188.906 178.648 189.669 178.648 190.838ZM176.758 189.606C176.191 189.606 175.778 189.97 175.694 190.516H177.815C177.745 189.977 177.332 189.606 176.758 189.606ZM180.644 192.735C180.021 192.735 179.398 192.553 179.062 192.315L179.398 191.65C179.727 191.867 180.231 192.021 180.7 192.021C181.253 192.021 181.484 191.867 181.484 191.608C181.484 190.894 179.174 191.566 179.174 190.075C179.174 189.368 179.811 188.906 180.819 188.906C181.316 188.906 181.883 189.025 182.219 189.228L181.883 189.893C181.526 189.683 181.169 189.613 180.812 189.613C180.28 189.613 180.028 189.788 180.028 190.033C180.028 190.789 182.338 190.117 182.338 191.58C182.338 192.28 181.694 192.735 180.644 192.735ZM184.246 192.735C183.623 192.735 183 192.553 182.664 192.315L183 191.65C183.329 191.867 183.833 192.021 184.302 192.021C184.855 192.021 185.086 191.867 185.086 191.608C185.086 190.894 182.776 191.566 182.776 190.075C182.776 189.368 183.413 188.906 184.421 188.906C184.918 188.906 185.485 189.025 185.821 189.228L185.485 189.893C185.128 189.683 184.771 189.613 184.414 189.613C183.882 189.613 183.63 189.788 183.63 190.033C183.63 190.789 185.94 190.117 185.94 191.58C185.94 192.28 185.296 192.735 184.246 192.735Z" fill="#231F20"/>
<path d="M149.296 201.085V196.185H150.206V201.085H149.296ZM153.569 197.305C154.465 197.305 155.13 197.816 155.13 198.943V201.085H154.255V199.055C154.255 198.39 153.926 198.068 153.366 198.068C152.743 198.068 152.323 198.446 152.323 199.195V201.085H151.448V197.347H152.281V197.83C152.568 197.487 153.023 197.305 153.569 197.305ZM158.242 200.259L158.487 200.882C158.277 201.05 157.962 201.134 157.647 201.134C156.828 201.134 156.359 200.7 156.359 199.874V198.075H155.743V197.375H156.359V196.521H157.234V197.375H158.235V198.075H157.234V199.853C157.234 200.217 157.416 200.413 157.752 200.413C157.934 200.413 158.109 200.364 158.242 200.259ZM162.597 199.237C162.597 199.307 162.59 199.412 162.583 199.496H159.65C159.755 200.042 160.21 200.392 160.861 200.392C161.281 200.392 161.61 200.259 161.876 199.986L162.345 200.525C162.009 200.924 161.484 201.134 160.84 201.134C159.587 201.134 158.775 200.329 158.775 199.216C158.775 198.103 159.594 197.305 160.707 197.305C161.799 197.305 162.597 198.068 162.597 199.237ZM160.707 198.005C160.14 198.005 159.727 198.369 159.643 198.915H161.764C161.694 198.376 161.281 198.005 160.707 198.005ZM163.438 201.085V195.891H164.313V201.085H163.438ZM165.461 201.085V195.891H166.336V201.085H165.461ZM167.926 196.731C167.604 196.731 167.366 196.5 167.366 196.206C167.366 195.912 167.604 195.681 167.926 195.681C168.248 195.681 168.486 195.898 168.486 196.185C168.486 196.493 168.255 196.731 167.926 196.731ZM167.485 201.085V197.347H168.36V201.085H167.485ZM172.385 197.347H173.218V200.518C173.218 201.876 172.511 202.492 171.202 202.492C170.502 202.492 169.809 202.31 169.382 201.96L169.774 201.302C170.103 201.575 170.635 201.75 171.153 201.75C171.979 201.75 172.343 201.372 172.343 200.616V200.42C172.035 200.756 171.594 200.917 171.09 200.917C170.019 200.917 169.2 200.189 169.2 199.104C169.2 198.019 170.019 197.305 171.09 197.305C171.615 197.305 172.077 197.473 172.385 197.844V197.347ZM171.223 200.175C171.881 200.175 172.357 199.741 172.357 199.104C172.357 198.474 171.881 198.047 171.223 198.047C170.558 198.047 170.082 198.474 170.082 199.104C170.082 199.741 170.558 200.175 171.223 200.175ZM177.882 199.237C177.882 199.307 177.875 199.412 177.868 199.496H174.935C175.04 200.042 175.495 200.392 176.146 200.392C176.566 200.392 176.895 200.259 177.161 199.986L177.63 200.525C177.294 200.924 176.769 201.134 176.125 201.134C174.872 201.134 174.06 200.329 174.06 199.216C174.06 198.103 174.879 197.305 175.992 197.305C177.084 197.305 177.882 198.068 177.882 199.237ZM175.992 198.005C175.425 198.005 175.012 198.369 174.928 198.915H177.049C176.979 198.376 176.566 198.005 175.992 198.005ZM180.844 197.305C181.74 197.305 182.405 197.816 182.405 198.943V201.085H181.53V199.055C181.53 198.39 181.201 198.068 180.641 198.068C180.018 198.068 179.598 198.446 179.598 199.195V201.085H178.723V197.347H179.556V197.83C179.843 197.487 180.298 197.305 180.844 197.305ZM185.264 201.134C184.081 201.134 183.241 200.336 183.241 199.216C183.241 198.096 184.081 197.305 185.264 197.305C185.992 197.305 186.573 197.606 186.86 198.173L186.188 198.565C185.964 198.208 185.628 198.047 185.257 198.047C184.613 198.047 184.123 198.495 184.123 199.216C184.123 199.944 184.613 200.385 185.257 200.385C185.628 200.385 185.964 200.224 186.188 199.867L186.86 200.259C186.573 200.819 185.992 201.134 185.264 201.134ZM191.076 199.237C191.076 199.307 191.069 199.412 191.062 199.496H188.129C188.234 200.042 188.689 200.392 189.34 200.392C189.76 200.392 190.089 200.259 190.355 199.986L190.824 200.525C190.488 200.924 189.963 201.134 189.319 201.134C188.066 201.134 187.254 200.329 187.254 199.216C187.254 198.103 188.073 197.305 189.186 197.305C190.278 197.305 191.076 198.068 191.076 199.237ZM189.186 198.005C188.619 198.005 188.206 198.369 188.122 198.915H190.243C190.173 198.376 189.76 198.005 189.186 198.005Z" fill="#231F20"/>
<path d="M62.68 223.31C78.4035 223.31 91.15 210.564 91.15 194.84C91.15 179.117 78.4035 166.37 62.68 166.37C46.9564 166.37 34.21 179.117 34.21 194.84C34.21 210.564 46.9564 223.31 62.68 223.31Z" stroke="#566C77" stroke-width="2" stroke-miterlimit="10"/>
<path d="M59.3445 196.886L57.6155 194.835L56.8385 195.633V196.886H55.9285V191.986H56.8385V194.499L59.2605 191.986H60.2825L58.2245 194.177L60.4085 196.886H59.3445ZM64.7115 191.986L62.7935 195.157V196.886H61.8835V195.171L59.9585 191.986H60.9315L62.3665 194.373L63.8155 191.986H64.7115ZM67.3635 196.956C65.8655 196.956 64.7455 195.899 64.7455 194.436C64.7455 192.973 65.8655 191.916 67.3705 191.916C68.1685 191.916 68.8545 192.203 69.3095 192.735L68.7215 193.288C68.3645 192.903 67.9235 192.714 67.4125 192.714C66.3975 192.714 65.6625 193.428 65.6625 194.436C65.6625 195.444 66.3975 196.158 67.4125 196.158C67.9235 196.158 68.3645 195.969 68.7215 195.577L69.3095 196.137C68.8545 196.669 68.1685 196.956 67.3635 196.956Z" fill="#231F20"/>
<path d="M29.5 121.18C45.2236 121.18 57.97 108.434 57.97 92.7102C57.97 76.9867 45.2236 64.2402 29.5 64.2402C13.7765 64.2402 1.03003 76.9867 1.03003 92.7102C1.03003 108.434 13.7765 121.18 29.5 121.18Z" stroke="#566C77" stroke-width="2" stroke-miterlimit="10"/>
<path d="M16.0516 89.799H18.8166V90.562H15.1416V85.662H18.7186V86.425H16.0516V87.699H18.4176V88.448H16.0516V89.799ZM23.0457 90.562H22.0587L21.0997 89.267L20.1337 90.562H19.1677L20.6237 88.665L19.2307 86.824H20.2037L21.1207 88.049L22.0377 86.824H22.9827L21.5827 88.651L23.0457 90.562ZM25.6934 89.736L25.9384 90.359C25.7284 90.527 25.4134 90.611 25.0984 90.611C24.2794 90.611 23.8104 90.177 23.8104 89.351V87.552H23.1944V86.852H23.8104V85.998H24.6854V86.852H25.6864V87.552H24.6854V89.33C24.6854 89.694 24.8674 89.89 25.2034 89.89C25.3854 89.89 25.5604 89.841 25.6934 89.736ZM30.0492 88.714C30.0492 88.784 30.0422 88.889 30.0352 88.973H27.1022C27.2072 89.519 27.6622 89.869 28.3132 89.869C28.7332 89.869 29.0622 89.736 29.3282 89.463L29.7972 90.002C29.4612 90.401 28.9362 90.611 28.2922 90.611C27.0392 90.611 26.2272 89.806 26.2272 88.693C26.2272 87.58 27.0462 86.782 28.1592 86.782C29.2512 86.782 30.0492 87.545 30.0492 88.714ZM28.1592 87.482C27.5922 87.482 27.1792 87.846 27.0952 88.392H29.2162C29.1462 87.853 28.7332 87.482 28.1592 87.482ZM31.7227 87.37C31.9747 86.978 32.4297 86.782 33.0527 86.782V87.615C32.9757 87.601 32.9127 87.594 32.8497 87.594C32.1847 87.594 31.7647 87.986 31.7647 88.749V90.562H30.8897V86.824H31.7227V87.37ZM35.9159 86.782C36.8119 86.782 37.4769 87.293 37.4769 88.42V90.562H36.6019V88.532C36.6019 87.867 36.2729 87.545 35.7129 87.545C35.0899 87.545 34.6699 87.923 34.6699 88.672V90.562H33.7949V86.824H34.6279V87.307C34.9149 86.964 35.3699 86.782 35.9159 86.782ZM40.0149 86.782C41.0929 86.782 41.7159 87.293 41.7159 88.371V90.562H40.8899V90.107C40.6799 90.429 40.2739 90.611 39.7139 90.611C38.8599 90.611 38.3209 90.142 38.3209 89.491C38.3209 88.868 38.7409 88.378 39.8749 88.378H40.8409V88.322C40.8409 87.811 40.5329 87.51 39.9099 87.51C39.4899 87.51 39.0559 87.65 38.7759 87.881L38.4329 87.244C38.8319 86.936 39.4129 86.782 40.0149 86.782ZM39.8959 89.974C40.3229 89.974 40.6939 89.778 40.8409 89.393V88.959H39.9379C39.3429 88.959 39.1819 89.183 39.1819 89.456C39.1819 89.771 39.4479 89.974 39.8959 89.974ZM42.8389 90.562V85.368H43.7139V90.562H42.8389Z" fill="#231F20"/>
<path d="M11.5996 99.0319C10.1016 99.0319 8.98158 97.9749 8.98158 96.5119C8.98158 95.0489 10.1016 93.9919 11.6066 93.9919C12.4046 93.9919 13.0906 94.2789 13.5456 94.8109L12.9576 95.3639C12.6006 94.9789 12.1596 94.7899 11.6486 94.7899C10.6336 94.7899 9.89858 95.5039 9.89858 96.5119C9.89858 97.5199 10.6336 98.2339 11.6486 98.2339C12.1596 98.2339 12.6006 98.0449 12.9576 97.6529L13.5456 98.2129C13.0906 98.7449 12.4046 99.0319 11.5996 99.0319ZM15.8768 99.0109C14.7288 99.0109 13.8888 98.2129 13.8888 97.0929C13.8888 95.9729 14.7288 95.1819 15.8768 95.1819C17.0388 95.1819 17.8718 95.9729 17.8718 97.0929C17.8718 98.2129 17.0388 99.0109 15.8768 99.0109ZM15.8768 98.2619C16.5138 98.2619 16.9898 97.8069 16.9898 97.0929C16.9898 96.3789 16.5138 95.9239 15.8768 95.9239C15.2468 95.9239 14.7708 96.3789 14.7708 97.0929C14.7708 97.8069 15.2468 98.2619 15.8768 98.2619ZM20.8295 95.1819C21.7255 95.1819 22.3905 95.6929 22.3905 96.8199V98.9619H21.5155V96.9319C21.5155 96.2669 21.1865 95.9449 20.6265 95.9449C20.0035 95.9449 19.5835 96.3229 19.5835 97.0719V98.9619H18.7085V95.2239H19.5415V95.7069C19.8285 95.3639 20.2835 95.1819 20.8295 95.1819ZM25.6215 95.1819C26.5175 95.1819 27.1825 95.6929 27.1825 96.8199V98.9619H26.3075V96.9319C26.3075 96.2669 25.9785 95.9449 25.4185 95.9449C24.7955 95.9449 24.3755 96.3229 24.3755 97.0719V98.9619H23.5005V95.2239H24.3335V95.7069C24.6205 95.3639 25.0755 95.1819 25.6215 95.1819ZM31.8407 97.1139C31.8407 97.1839 31.8337 97.2889 31.8267 97.3729H28.8937C28.9987 97.9189 29.4537 98.2689 30.1047 98.2689C30.5247 98.2689 30.8537 98.1359 31.1197 97.8629L31.5887 98.4019C31.2527 98.8009 30.7277 99.0109 30.0837 99.0109C28.8307 99.0109 28.0187 98.2059 28.0187 97.0929C28.0187 95.9799 28.8377 95.1819 29.9507 95.1819C31.0427 95.1819 31.8407 95.9449 31.8407 97.1139ZM29.9507 95.8819C29.3837 95.8819 28.9707 96.2459 28.8867 96.7919H31.0077C30.9377 96.2529 30.5247 95.8819 29.9507 95.8819ZM34.3962 99.0109C33.2132 99.0109 32.3732 98.2129 32.3732 97.0929C32.3732 95.9729 33.2132 95.1819 34.3962 95.1819C35.1242 95.1819 35.7052 95.4829 35.9922 96.0499L35.3202 96.4419C35.0962 96.0849 34.7602 95.9239 34.3892 95.9239C33.7452 95.9239 33.2552 96.3719 33.2552 97.0929C33.2552 97.8209 33.7452 98.2619 34.3892 98.2619C34.7602 98.2619 35.0962 98.1009 35.3202 97.7439L35.9922 98.1359C35.7052 98.6959 35.1242 99.0109 34.3962 99.0109ZM38.7984 98.1359L39.0434 98.7589C38.8334 98.9269 38.5184 99.0109 38.2034 99.0109C37.3844 99.0109 36.9154 98.5769 36.9154 97.7509V95.9519H36.2994V95.2519H36.9154V94.3979H37.7904V95.2519H38.7914V95.9519H37.7904V97.7299C37.7904 98.0939 37.9724 98.2899 38.3084 98.2899C38.4904 98.2899 38.6654 98.2409 38.7984 98.1359ZM41.3202 99.0109C40.1722 99.0109 39.3322 98.2129 39.3322 97.0929C39.3322 95.9729 40.1722 95.1819 41.3202 95.1819C42.4822 95.1819 43.3152 95.9729 43.3152 97.0929C43.3152 98.2129 42.4822 99.0109 41.3202 99.0109ZM41.3202 98.2619C41.9572 98.2619 42.4332 97.8069 42.4332 97.0929C42.4332 96.3789 41.9572 95.9239 41.3202 95.9239C40.6902 95.9239 40.2142 96.3789 40.2142 97.0929C40.2142 97.8069 40.6902 98.2619 41.3202 98.2619ZM44.9849 95.7699C45.2369 95.3779 45.6919 95.1819 46.3149 95.1819V96.0149C46.2379 96.0009 46.1749 95.9939 46.1119 95.9939C45.4469 95.9939 45.0269 96.3859 45.0269 97.1489V98.9619H44.1519V95.2239H44.9849V95.7699ZM48.2258 99.0109C47.6028 99.0109 46.9798 98.8289 46.6438 98.5909L46.9798 97.9259C47.3088 98.1429 47.8128 98.2969 48.2818 98.2969C48.8348 98.2969 49.0658 98.1429 49.0658 97.8839C49.0658 97.1699 46.7558 97.8419 46.7558 96.3509C46.7558 95.6439 47.3928 95.1819 48.4008 95.1819C48.8978 95.1819 49.4648 95.3009 49.8008 95.5039L49.4648 96.1689C49.1078 95.9589 48.7508 95.8889 48.3938 95.8889C47.8618 95.8889 47.6098 96.0639 47.6098 96.3089C47.6098 97.0649 49.9198 96.3929 49.9198 97.8559C49.9198 98.5559 49.2758 99.0109 48.2258 99.0109Z" fill="#231F20"/>
<path d="M112.54 72.7801H107.94L116.37 64.3501L124.8 72.7801H120.2V82.7401H112.54V72.7801Z" fill="#6C808D"/>
<path d="M69.7199 109.43L68.2999 113.8L62.8899 103.18L73.5099 97.77L72.0899 102.14L81.5599 105.22L79.1899 112.51L69.7199 109.43Z" fill="#6C808D"/>
<path d="M91.3399 161.48L95.0599 164.18L83.2899 166.04L81.4299 154.27L85.1499 156.97L90.9999 148.91L97.1999 153.41L91.3399 161.48Z" fill="#6C808D"/>
<path d="M147.53 157L151.25 154.3L149.39 166.07L137.62 164.21L141.34 161.51L135.49 153.45L141.69 148.95L147.53 157Z" fill="#6C808D"/>
<path d="M160.63 102.18L159.21 97.8101L169.83 103.22L164.42 113.84L163 109.47L153.53 112.55L151.16 105.26L160.63 102.18Z" fill="#6C808D"/>
<path d="M116.37 152.85C133.993 152.85 148.28 138.564 148.28 120.94C148.28 103.317 133.993 89.0303 116.37 89.0303C98.7466 89.0303 84.46 103.317 84.46 120.94C84.46 138.564 98.7466 152.85 116.37 152.85Z" fill="#566C77"/>
<path d="M92.283 124.451V116.051H93.843V123.131H98.235V124.451H92.283ZM101.027 123.143H105.767V124.451H99.4666V116.051H105.599V117.359H101.027V119.543H105.083V120.827H101.027V123.143ZM107.506 124.451V116.051H111.178C113.902 116.051 115.762 117.731 115.762 120.251C115.762 122.771 113.902 124.451 111.178 124.451H107.506ZM109.066 123.131H111.106C112.978 123.131 114.19 121.991 114.19 120.251C114.19 118.511 112.978 117.371 111.106 117.371H109.066V123.131ZM123.156 122.771V120.155H124.632V123.503C123.756 124.211 122.532 124.571 121.344 124.571C118.74 124.571 116.82 122.759 116.82 120.251C116.82 117.743 118.74 115.931 121.368 115.931C122.772 115.931 123.948 116.399 124.74 117.299L123.756 118.259C123.096 117.599 122.34 117.299 121.44 117.299C119.652 117.299 118.392 118.511 118.392 120.251C118.392 121.955 119.652 123.203 121.428 123.203C122.028 123.203 122.616 123.083 123.156 122.771ZM128.249 123.143H132.989V124.451H126.689V116.051H132.821V117.359H128.249V119.543H132.305V120.827H128.249V123.143ZM141.904 124.451H140.224L138.508 121.991C138.4 122.003 138.292 122.003 138.184 122.003H136.288V124.451H134.728V116.051H138.184C140.392 116.051 141.76 117.179 141.76 119.039C141.76 120.311 141.112 121.247 139.972 121.691L141.904 124.451ZM140.188 119.039C140.188 117.983 139.48 117.371 138.112 117.371H136.288V120.719H138.112C139.48 120.719 140.188 120.095 140.188 119.039Z" fill="white"/>
</svg>
