<svg width="307" height="278" viewBox="0 0 307 278" fill="none" xmlns="http://www.w3.org/2000/svg">
<path d="M71.147 22.418V17.518H73.289C74.878 17.518 75.963 18.498 75.963 19.968C75.963 21.438 74.878 22.418 73.289 22.418H71.147ZM72.057 21.648H73.247C74.339 21.648 75.046 20.983 75.046 19.968C75.046 18.953 74.339 18.288 73.247 18.288H72.057V21.648ZM78.2742 18.638C79.3522 18.638 79.9752 19.149 79.9752 20.227V22.418H79.1492V21.963C78.9392 22.285 78.5332 22.467 77.9732 22.467C77.1192 22.467 76.5802 21.998 76.5802 21.347C76.5802 20.724 77.0002 20.234 78.1342 20.234H79.1002V20.178C79.1002 19.667 78.7922 19.366 78.1692 19.366C77.7492 19.366 77.3152 19.506 77.0352 19.737L76.6922 19.1C77.0912 18.792 77.6722 18.638 78.2742 18.638ZM78.1552 21.83C78.5822 21.83 78.9532 21.634 79.1002 21.249V20.815H78.1972C77.6022 20.815 77.4412 21.039 77.4412 21.312C77.4412 21.627 77.7072 21.83 78.1552 21.83ZM83.1002 21.592L83.3452 22.215C83.1352 22.383 82.8202 22.467 82.5052 22.467C81.6862 22.467 81.2172 22.033 81.2172 21.207V19.408H80.6012V18.708H81.2172V17.854H82.0922V18.708H83.0932V19.408H82.0922V21.186C82.0922 21.55 82.2742 21.746 82.6102 21.746C82.7922 21.746 82.9672 21.697 83.1002 21.592ZM85.493 18.638C86.571 18.638 87.194 19.149 87.194 20.227V22.418H86.368V21.963C86.158 22.285 85.752 22.467 85.192 22.467C84.338 22.467 83.799 21.998 83.799 21.347C83.799 20.724 84.219 20.234 85.353 20.234H86.319V20.178C86.319 19.667 86.011 19.366 85.388 19.366C84.968 19.366 84.534 19.506 84.254 19.737L83.911 19.1C84.31 18.792 84.891 18.638 85.493 18.638ZM85.374 21.83C85.801 21.83 86.172 21.634 86.319 21.249V20.815H85.416C84.821 20.815 84.66 21.039 84.66 21.312C84.66 21.627 84.926 21.83 85.374 21.83Z" fill="#231F20"/>
<path d="M65.357 30.8184V25.9184H66.267V30.0484H68.829V30.8184H65.357ZM69.9044 26.4644C69.5824 26.4644 69.3444 26.2334 69.3444 25.9394C69.3444 25.6454 69.5824 25.4144 69.9044 25.4144C70.2264 25.4144 70.4644 25.6314 70.4644 25.9184C70.4644 26.2264 70.2334 26.4644 69.9044 26.4644ZM69.4634 30.8184V27.0804H70.3384V30.8184H69.4634ZM73.6078 27.0384C74.5038 27.0384 75.1688 27.5494 75.1688 28.6764V30.8184H74.2938V28.7884C74.2938 28.1234 73.9648 27.8014 73.4048 27.8014C72.7818 27.8014 72.3618 28.1794 72.3618 28.9284V30.8184H71.4868V27.0804H72.3198V27.5634C72.6068 27.2204 73.0618 27.0384 73.6078 27.0384ZM79.827 28.9704C79.827 29.0404 79.82 29.1454 79.813 29.2294H76.88C76.985 29.7754 77.44 30.1254 78.091 30.1254C78.511 30.1254 78.84 29.9924 79.106 29.7194L79.575 30.2584C79.239 30.6574 78.714 30.8674 78.07 30.8674C76.817 30.8674 76.005 30.0624 76.005 28.9494C76.005 27.8364 76.824 27.0384 77.937 27.0384C79.029 27.0384 79.827 27.8014 79.827 28.9704ZM77.937 27.7384C77.37 27.7384 76.957 28.1024 76.873 28.6484H78.994C78.924 28.1094 78.511 27.7384 77.937 27.7384ZM81.993 27.0384C83.071 27.0384 83.694 27.5494 83.694 28.6274V30.8184H82.868V30.3634C82.658 30.6854 82.252 30.8674 81.692 30.8674C80.838 30.8674 80.299 30.3984 80.299 29.7474C80.299 29.1244 80.719 28.6344 81.853 28.6344H82.819V28.5784C82.819 28.0674 82.511 27.7664 81.888 27.7664C81.468 27.7664 81.034 27.9064 80.754 28.1374L80.411 27.5004C80.81 27.1924 81.391 27.0384 81.993 27.0384ZM81.874 30.2304C82.301 30.2304 82.672 30.0344 82.819 29.6494V29.2154H81.916C81.321 29.2154 81.16 29.4394 81.16 29.7124C81.16 30.0274 81.426 30.2304 81.874 30.2304ZM87.7281 27.0804H88.5611V30.2514C88.5611 31.6094 87.8541 32.2254 86.5451 32.2254C85.8451 32.2254 85.1521 32.0434 84.7251 31.6934L85.1171 31.0354C85.4461 31.3084 85.9781 31.4834 86.4961 31.4834C87.3221 31.4834 87.6861 31.1054 87.6861 30.3494V30.1534C87.3781 30.4894 86.9371 30.6504 86.4331 30.6504C85.3621 30.6504 84.5431 29.9224 84.5431 28.8374C84.5431 27.7524 85.3621 27.0384 86.4331 27.0384C86.9581 27.0384 87.4201 27.2064 87.7281 27.5774V27.0804ZM86.5661 29.9084C87.2241 29.9084 87.7001 29.4744 87.7001 28.8374C87.7001 28.2074 87.2241 27.7804 86.5661 27.7804C85.9011 27.7804 85.4251 28.2074 85.4251 28.8374C85.4251 29.4744 85.9011 29.9084 86.5661 29.9084ZM93.2255 28.9704C93.2255 29.0404 93.2185 29.1454 93.2115 29.2294H90.2785C90.3835 29.7754 90.8385 30.1254 91.4895 30.1254C91.9095 30.1254 92.2385 29.9924 92.5045 29.7194L92.9735 30.2584C92.6375 30.6574 92.1125 30.8674 91.4685 30.8674C90.2155 30.8674 89.4035 30.0624 89.4035 28.9494C89.4035 27.8364 90.2225 27.0384 91.3355 27.0384C92.4275 27.0384 93.2255 27.8014 93.2255 28.9704ZM91.3355 27.7384C90.7685 27.7384 90.3555 28.1024 90.2715 28.6484H92.3925C92.3225 28.1094 91.9095 27.7384 91.3355 27.7384Z" fill="#231F20"/>
<path d="M204.255 25.5059V20.6059H206.397C207.986 20.6059 209.071 21.5859 209.071 23.0559C209.071 24.5259 207.986 25.5059 206.397 25.5059H204.255ZM205.165 24.7359H206.355C207.447 24.7359 208.154 24.0709 208.154 23.0559C208.154 22.0409 207.447 21.3759 206.355 21.3759H205.165V24.7359ZM210.395 21.1519C210.073 21.1519 209.835 20.9209 209.835 20.6269C209.835 20.3329 210.073 20.1019 210.395 20.1019C210.717 20.1019 210.955 20.3189 210.955 20.6059C210.955 20.9139 210.724 21.1519 210.395 21.1519ZM209.954 25.5059V21.7679H210.829V25.5059H209.954ZM214.854 21.7679H215.687V24.9389C215.687 26.2969 214.98 26.9129 213.671 26.9129C212.971 26.9129 212.278 26.7309 211.851 26.3809L212.243 25.7229C212.572 25.9959 213.104 26.1709 213.622 26.1709C214.448 26.1709 214.812 25.7929 214.812 25.0369V24.8409C214.504 25.1769 214.063 25.3379 213.559 25.3379C212.488 25.3379 211.669 24.6099 211.669 23.5249C211.669 22.4399 212.488 21.7259 213.559 21.7259C214.084 21.7259 214.546 21.8939 214.854 22.2649V21.7679ZM213.692 24.5959C214.35 24.5959 214.826 24.1619 214.826 23.5249C214.826 22.8949 214.35 22.4679 213.692 22.4679C213.027 22.4679 212.551 22.8949 212.551 23.5249C212.551 24.1619 213.027 24.5959 213.692 24.5959ZM217.279 21.1519C216.957 21.1519 216.719 20.9209 216.719 20.6269C216.719 20.3329 216.957 20.1019 217.279 20.1019C217.601 20.1019 217.839 20.3189 217.839 20.6059C217.839 20.9139 217.608 21.1519 217.279 21.1519ZM216.838 25.5059V21.7679H217.713V25.5059H216.838ZM220.863 24.6799L221.108 25.3029C220.898 25.4709 220.583 25.5549 220.268 25.5549C219.449 25.5549 218.98 25.1209 218.98 24.2949V22.4959H218.364V21.7959H218.98V20.9419H219.855V21.7959H220.856V22.4959H219.855V24.2739C219.855 24.6379 220.037 24.8339 220.373 24.8339C220.555 24.8339 220.73 24.7849 220.863 24.6799ZM223.256 21.7259C224.334 21.7259 224.957 22.2369 224.957 23.3149V25.5059H224.131V25.0509C223.921 25.3729 223.515 25.5549 222.955 25.5549C222.101 25.5549 221.562 25.0859 221.562 24.4349C221.562 23.8119 221.982 23.3219 223.116 23.3219H224.082V23.2659C224.082 22.7549 223.774 22.4539 223.151 22.4539C222.731 22.4539 222.297 22.5939 222.017 22.8249L221.674 22.1879C222.073 21.8799 222.654 21.7259 223.256 21.7259ZM223.137 24.9179C223.564 24.9179 223.935 24.7219 224.082 24.3369V23.9029H223.179C222.584 23.9029 222.423 24.1269 222.423 24.3999C222.423 24.7149 222.689 24.9179 223.137 24.9179ZM226.08 25.5059V20.3119H226.955V25.5059H226.08Z" fill="#231F20"/>
<path d="M198.254 33.9763C197.491 33.9763 196.728 33.7382 196.322 33.3882L196.637 32.6812C197.029 32.9962 197.652 33.2202 198.254 33.2202C199.017 33.2202 199.339 32.9472 199.339 32.5832C199.339 31.5262 196.427 32.2192 196.427 30.3992C196.427 29.6082 197.057 28.9362 198.401 28.9362C198.989 28.9362 199.605 29.0902 200.032 29.3702L199.745 30.0772C199.304 29.8182 198.821 29.6922 198.394 29.6922C197.638 29.6922 197.33 29.9862 197.33 30.3572C197.33 31.4002 200.235 30.7212 200.235 32.5202C200.235 33.3042 199.598 33.9763 198.254 33.9763ZM201.494 29.5522C201.172 29.5522 200.934 29.3212 200.934 29.0272C200.934 28.7332 201.172 28.5022 201.494 28.5022C201.816 28.5022 202.054 28.7192 202.054 29.0062C202.054 29.3142 201.823 29.5522 201.494 29.5522ZM201.053 33.9062V30.1682H201.928V33.9062H201.053ZM205.953 30.1682H206.786V33.3392C206.786 34.6973 206.079 35.3133 204.77 35.3133C204.07 35.3133 203.377 35.1313 202.95 34.7812L203.342 34.1233C203.671 34.3963 204.203 34.5713 204.721 34.5713C205.547 34.5713 205.911 34.1933 205.911 33.4372V33.2412C205.603 33.5772 205.162 33.7382 204.658 33.7382C203.587 33.7382 202.768 33.0102 202.768 31.9252C202.768 30.8402 203.587 30.1262 204.658 30.1262C205.183 30.1262 205.645 30.2942 205.953 30.6652V30.1682ZM204.791 32.9962C205.449 32.9962 205.925 32.5622 205.925 31.9252C205.925 31.2952 205.449 30.8682 204.791 30.8682C204.126 30.8682 203.65 31.2952 203.65 31.9252C203.65 32.5622 204.126 32.9962 204.791 32.9962ZM210.058 30.1262C210.954 30.1262 211.619 30.6372 211.619 31.7642V33.9062H210.744V31.8762C210.744 31.2112 210.415 30.8892 209.855 30.8892C209.232 30.8892 208.812 31.2672 208.812 32.0162V33.9062H207.937V30.1682H208.77V30.6512C209.057 30.3083 209.512 30.1262 210.058 30.1262ZM214.157 30.1262C215.235 30.1262 215.858 30.6372 215.858 31.7152V33.9062H215.032V33.4512C214.822 33.7732 214.416 33.9553 213.856 33.9553C213.002 33.9553 212.463 33.4862 212.463 32.8352C212.463 32.2122 212.883 31.7222 214.017 31.7222H214.983V31.6662C214.983 31.1552 214.675 30.8542 214.052 30.8542C213.632 30.8542 213.198 30.9942 212.918 31.2252L212.575 30.5882C212.974 30.2802 213.555 30.1262 214.157 30.1262ZM214.038 33.3182C214.465 33.3182 214.836 33.1222 214.983 32.7372V32.3032H214.08C213.485 32.3032 213.324 32.5272 213.324 32.8002C213.324 33.1152 213.59 33.3182 214.038 33.3182ZM218.983 33.0802L219.228 33.7032C219.018 33.8712 218.703 33.9553 218.388 33.9553C217.569 33.9553 217.1 33.5212 217.1 32.6952V30.8962H216.484V30.1962H217.1V29.3422H217.975V30.1962H218.976V30.8962H217.975V32.6742C217.975 33.0382 218.157 33.2342 218.493 33.2342C218.675 33.2342 218.85 33.1852 218.983 33.0802ZM222.692 30.1682H223.567V33.9062H222.734V33.4302C222.454 33.7732 222.013 33.9553 221.53 33.9553C220.571 33.9553 219.92 33.4302 219.92 32.3032V30.1682H220.795V32.1842C220.795 32.8632 221.117 33.1852 221.67 33.1852C222.279 33.1852 222.692 32.8072 222.692 32.0583V30.1682ZM225.545 30.7142C225.797 30.3222 226.252 30.1262 226.875 30.1262V30.9592C226.798 30.9452 226.735 30.9382 226.672 30.9382C226.007 30.9382 225.587 31.3302 225.587 32.0932V33.9062H224.712V30.1682H225.545V30.7142ZM231.097 32.0583C231.097 32.1282 231.09 32.2332 231.083 32.3172H228.15C228.255 32.8632 228.71 33.2132 229.361 33.2132C229.781 33.2132 230.11 33.0802 230.376 32.8072L230.845 33.3462C230.509 33.7452 229.984 33.9553 229.34 33.9553C228.087 33.9553 227.275 33.1502 227.275 32.0372C227.275 30.9242 228.094 30.1262 229.207 30.1262C230.299 30.1262 231.097 30.8892 231.097 32.0583ZM229.207 30.8262C228.64 30.8262 228.227 31.1902 228.143 31.7362H230.264C230.194 31.1972 229.781 30.8262 229.207 30.8262ZM233.093 33.9553C232.47 33.9553 231.847 33.7732 231.511 33.5352L231.847 32.8702C232.176 33.0872 232.68 33.2412 233.149 33.2412C233.702 33.2412 233.933 33.0872 233.933 32.8282C233.933 32.1142 231.623 32.7862 231.623 31.2952C231.623 30.5882 232.26 30.1262 233.268 30.1262C233.765 30.1262 234.332 30.2452 234.668 30.4482L234.332 31.1132C233.975 30.9032 233.618 30.8332 233.261 30.8332C232.729 30.8332 232.477 31.0082 232.477 31.2532C232.477 32.0092 234.787 31.3372 234.787 32.8002C234.787 33.5002 234.143 33.9553 233.093 33.9553Z" fill="#231F20"/>
<path d="M262.229 139.845C261.466 139.845 260.703 139.607 260.297 139.257L260.612 138.55C261.004 138.865 261.627 139.089 262.229 139.089C262.992 139.089 263.314 138.816 263.314 138.452C263.314 137.395 260.402 138.088 260.402 136.268C260.402 135.477 261.032 134.805 262.376 134.805C262.964 134.805 263.58 134.959 264.007 135.239L263.72 135.946C263.279 135.687 262.796 135.561 262.369 135.561C261.613 135.561 261.305 135.855 261.305 136.226C261.305 137.269 264.21 136.59 264.21 138.389C264.21 139.173 263.573 139.845 262.229 139.845ZM268.543 137.927C268.543 137.997 268.536 138.102 268.529 138.186H265.596C265.701 138.732 266.156 139.082 266.807 139.082C267.227 139.082 267.556 138.949 267.822 138.676L268.291 139.215C267.955 139.614 267.43 139.824 266.786 139.824C265.533 139.824 264.721 139.019 264.721 137.906C264.721 136.793 265.54 135.995 266.653 135.995C267.745 135.995 268.543 136.758 268.543 137.927ZM266.653 136.695C266.086 136.695 265.673 137.059 265.589 137.605H267.71C267.64 137.066 267.227 136.695 266.653 136.695ZM271.098 139.824C269.915 139.824 269.075 139.026 269.075 137.906C269.075 136.786 269.915 135.995 271.098 135.995C271.826 135.995 272.407 136.296 272.694 136.863L272.022 137.255C271.798 136.898 271.462 136.737 271.091 136.737C270.447 136.737 269.957 137.185 269.957 137.906C269.957 138.634 270.447 139.075 271.091 139.075C271.462 139.075 271.798 138.914 272.022 138.557L272.694 138.949C272.407 139.509 271.826 139.824 271.098 139.824ZM276.194 136.037H277.069V139.775H276.236V139.299C275.956 139.642 275.515 139.824 275.032 139.824C274.073 139.824 273.422 139.299 273.422 138.172V136.037H274.297V138.053C274.297 138.732 274.619 139.054 275.172 139.054C275.781 139.054 276.194 138.676 276.194 137.927V136.037ZM279.048 136.583C279.3 136.191 279.755 135.995 280.378 135.995V136.828C280.301 136.814 280.238 136.807 280.175 136.807C279.51 136.807 279.09 137.199 279.09 137.962V139.775H278.215V136.037H279.048V136.583ZM284.6 137.927C284.6 137.997 284.593 138.102 284.586 138.186H281.653C281.758 138.732 282.213 139.082 282.864 139.082C283.284 139.082 283.613 138.949 283.879 138.676L284.348 139.215C284.012 139.614 283.487 139.824 282.843 139.824C281.59 139.824 280.778 139.019 280.778 137.906C280.778 136.793 281.597 135.995 282.71 135.995C283.802 135.995 284.6 136.758 284.6 137.927ZM282.71 136.695C282.143 136.695 281.73 137.059 281.646 137.605H283.767C283.697 137.066 283.284 136.695 282.71 136.695ZM290.903 134.875H291.813V139.775H290.903V137.675H288.369V139.775H287.459V134.875H288.369V136.898H290.903V134.875ZM293.483 135.421C293.161 135.421 292.923 135.19 292.923 134.896C292.923 134.602 293.161 134.371 293.483 134.371C293.805 134.371 294.043 134.588 294.043 134.875C294.043 135.183 293.812 135.421 293.483 135.421ZM293.042 139.775V136.037H293.917V139.775H293.042ZM297.943 136.037H298.776V139.208C298.776 140.566 298.069 141.182 296.76 141.182C296.06 141.182 295.367 141 294.94 140.65L295.332 139.992C295.661 140.265 296.193 140.44 296.711 140.44C297.537 140.44 297.901 140.062 297.901 139.306V139.11C297.593 139.446 297.152 139.607 296.648 139.607C295.577 139.607 294.758 138.879 294.758 137.794C294.758 136.709 295.577 135.995 296.648 135.995C297.173 135.995 297.635 136.163 297.943 136.534V136.037ZM296.781 138.865C297.439 138.865 297.915 138.431 297.915 137.794C297.915 137.164 297.439 136.737 296.781 136.737C296.116 136.737 295.64 137.164 295.64 137.794C295.64 138.431 296.116 138.865 296.781 138.865ZM302.047 135.995C302.943 135.995 303.608 136.506 303.608 137.633V139.775H302.733V137.745C302.733 137.08 302.404 136.758 301.844 136.758C301.221 136.758 300.801 137.136 300.801 137.885V139.775H299.926V134.581H300.801V136.471C301.088 136.163 301.529 135.995 302.047 135.995Z" fill="#231F20"/>
<path d="M261.186 143.276C262.474 143.276 263.272 143.934 263.272 145.019C263.272 146.097 262.474 146.762 261.186 146.762H260.08V148.176H259.17V143.276H261.186ZM261.144 145.992C261.942 145.992 262.355 145.635 262.355 145.019C262.355 144.403 261.942 144.046 261.144 144.046H260.08V145.992H261.144ZM267.597 146.328C267.597 146.398 267.59 146.503 267.583 146.587H264.65C264.755 147.133 265.21 147.483 265.861 147.483C266.281 147.483 266.61 147.35 266.876 147.077L267.345 147.616C267.009 148.015 266.484 148.225 265.84 148.225C264.587 148.225 263.775 147.42 263.775 146.307C263.775 145.194 264.594 144.396 265.707 144.396C266.799 144.396 267.597 145.159 267.597 146.328ZM265.707 145.096C265.14 145.096 264.727 145.46 264.643 146.006H266.764C266.694 145.467 266.281 145.096 265.707 145.096ZM269.271 144.984C269.523 144.592 269.978 144.396 270.601 144.396V145.229C270.524 145.215 270.461 145.208 270.398 145.208C269.733 145.208 269.313 145.6 269.313 146.363V148.176H268.438V144.438H269.271V144.984ZM272.896 143.64C272.532 143.64 272.343 143.843 272.343 144.242V144.466H273.372V145.166H272.371V148.176H271.496V145.166H270.88V144.466H271.496V144.228C271.496 143.444 271.965 142.933 272.833 142.933C273.134 142.933 273.428 142.996 273.624 143.136L273.379 143.794C273.246 143.703 273.078 143.64 272.896 143.64ZM275.587 148.225C274.439 148.225 273.599 147.427 273.599 146.307C273.599 145.187 274.439 144.396 275.587 144.396C276.749 144.396 277.582 145.187 277.582 146.307C277.582 147.427 276.749 148.225 275.587 148.225ZM275.587 147.476C276.224 147.476 276.7 147.021 276.7 146.307C276.7 145.593 276.224 145.138 275.587 145.138C274.957 145.138 274.481 145.593 274.481 146.307C274.481 147.021 274.957 147.476 275.587 147.476ZM279.251 144.984C279.503 144.592 279.958 144.396 280.581 144.396V145.229C280.504 145.215 280.441 145.208 280.378 145.208C279.713 145.208 279.293 145.6 279.293 146.363V148.176H278.418V144.438H279.251V144.984ZM286.042 144.396C286.945 144.396 287.575 144.907 287.575 146.034V148.176H286.7V146.146C286.7 145.481 286.392 145.159 285.86 145.159C285.286 145.159 284.887 145.537 284.887 146.279V148.176H284.012V146.146C284.012 145.481 283.704 145.159 283.172 145.159C282.591 145.159 282.199 145.537 282.199 146.279V148.176H281.324V144.438H282.157V144.914C282.437 144.578 282.871 144.396 283.382 144.396C283.928 144.396 284.383 144.599 284.642 145.019C284.943 144.634 285.447 144.396 286.042 144.396ZM290.121 144.396C291.199 144.396 291.822 144.907 291.822 145.985V148.176H290.996V147.721C290.786 148.043 290.38 148.225 289.82 148.225C288.966 148.225 288.427 147.756 288.427 147.105C288.427 146.482 288.847 145.992 289.981 145.992H290.947V145.936C290.947 145.425 290.639 145.124 290.016 145.124C289.596 145.124 289.162 145.264 288.882 145.495L288.539 144.858C288.938 144.55 289.519 144.396 290.121 144.396ZM290.002 147.588C290.429 147.588 290.8 147.392 290.947 147.007V146.573H290.044C289.449 146.573 289.288 146.797 289.288 147.07C289.288 147.385 289.554 147.588 290.002 147.588ZM295.066 144.396C295.962 144.396 296.627 144.907 296.627 146.034V148.176H295.752V146.146C295.752 145.481 295.423 145.159 294.863 145.159C294.24 145.159 293.82 145.537 293.82 146.286V148.176H292.945V144.438H293.778V144.921C294.065 144.578 294.52 144.396 295.066 144.396ZM299.486 148.225C298.303 148.225 297.463 147.427 297.463 146.307C297.463 145.187 298.303 144.396 299.486 144.396C300.214 144.396 300.795 144.697 301.082 145.264L300.41 145.656C300.186 145.299 299.85 145.138 299.479 145.138C298.835 145.138 298.345 145.586 298.345 146.307C298.345 147.035 298.835 147.476 299.479 147.476C299.85 147.476 300.186 147.315 300.41 146.958L301.082 147.35C300.795 147.91 300.214 148.225 299.486 148.225ZM305.297 146.328C305.297 146.398 305.29 146.503 305.283 146.587H302.35C302.455 147.133 302.91 147.483 303.561 147.483C303.981 147.483 304.31 147.35 304.576 147.077L305.045 147.616C304.709 148.015 304.184 148.225 303.54 148.225C302.287 148.225 301.475 147.42 301.475 146.307C301.475 145.194 302.294 144.396 303.407 144.396C304.499 144.396 305.297 145.159 305.297 146.328ZM303.407 145.096C302.84 145.096 302.427 145.46 302.343 146.006H304.464C304.394 145.467 303.981 145.096 303.407 145.096Z" fill="#231F20"/>
<path d="M263.368 156.575L262.878 155.441H260.428L259.945 156.575H259.007L261.212 151.675H262.108L264.32 156.575H263.368ZM260.736 154.727H262.577L261.653 152.585L260.736 154.727ZM266.959 151.675C268.247 151.675 269.045 152.333 269.045 153.418C269.045 154.496 268.247 155.161 266.959 155.161H265.853V156.575H264.943V151.675H266.959ZM266.917 154.391C267.715 154.391 268.128 154.034 268.128 153.418C268.128 152.802 267.715 152.445 266.917 152.445H265.853V154.391H266.917ZM269.954 156.575V151.675H270.864V156.575H269.954ZM277.47 155.595V154.069H278.331V156.022C277.82 156.435 277.106 156.645 276.413 156.645C274.894 156.645 273.774 155.588 273.774 154.125C273.774 152.662 274.894 151.605 276.427 151.605C277.246 151.605 277.932 151.878 278.394 152.403L277.82 152.963C277.435 152.578 276.994 152.403 276.469 152.403C275.426 152.403 274.691 153.11 274.691 154.125C274.691 155.119 275.426 155.847 276.462 155.847C276.812 155.847 277.155 155.777 277.47 155.595ZM280.875 152.795C281.953 152.795 282.576 153.306 282.576 154.384V156.575H281.75V156.12C281.54 156.442 281.134 156.624 280.574 156.624C279.72 156.624 279.181 156.155 279.181 155.504C279.181 154.881 279.601 154.391 280.735 154.391H281.701V154.335C281.701 153.824 281.393 153.523 280.77 153.523C280.35 153.523 279.916 153.663 279.636 153.894L279.293 153.257C279.692 152.949 280.273 152.795 280.875 152.795ZM280.756 155.987C281.183 155.987 281.554 155.791 281.701 155.406V154.972H280.798C280.203 154.972 280.042 155.196 280.042 155.469C280.042 155.784 280.308 155.987 280.756 155.987ZM285.701 155.749L285.946 156.372C285.736 156.54 285.421 156.624 285.106 156.624C284.287 156.624 283.818 156.19 283.818 155.364V153.565H283.202V152.865H283.818V152.011H284.693V152.865H285.694V153.565H284.693V155.343C284.693 155.707 284.875 155.903 285.211 155.903C285.393 155.903 285.568 155.854 285.701 155.749ZM290.057 154.727C290.057 154.797 290.05 154.902 290.043 154.986H287.11C287.215 155.532 287.67 155.882 288.321 155.882C288.741 155.882 289.07 155.749 289.336 155.476L289.805 156.015C289.469 156.414 288.944 156.624 288.3 156.624C287.047 156.624 286.235 155.819 286.235 154.706C286.235 153.593 287.054 152.795 288.167 152.795C289.259 152.795 290.057 153.558 290.057 154.727ZM288.167 153.495C287.6 153.495 287.187 153.859 287.103 154.405H289.224C289.154 153.866 288.741 153.495 288.167 153.495ZM295.883 152.837H296.66L295.281 156.575H294.441L293.475 153.999L292.495 156.575H291.655L290.283 152.837H291.109L292.096 155.595L293.125 152.837H293.86L294.868 155.609L295.883 152.837ZM298.574 152.795C299.652 152.795 300.275 153.306 300.275 154.384V156.575H299.449V156.12C299.239 156.442 298.833 156.624 298.273 156.624C297.419 156.624 296.88 156.155 296.88 155.504C296.88 154.881 297.3 154.391 298.434 154.391H299.4V154.335C299.4 153.824 299.092 153.523 298.469 153.523C298.049 153.523 297.615 153.663 297.335 153.894L296.992 153.257C297.391 152.949 297.972 152.795 298.574 152.795ZM298.455 155.987C298.882 155.987 299.253 155.791 299.4 155.406V154.972H298.497C297.902 154.972 297.741 155.196 297.741 155.469C297.741 155.784 298.007 155.987 298.455 155.987ZM303.989 152.837H304.829L303.079 156.876C302.736 157.723 302.26 157.982 301.637 157.982C301.266 157.982 300.874 157.856 300.636 157.639L300.986 156.995C301.154 157.156 301.392 157.254 301.63 157.254C301.938 157.254 302.12 157.107 302.288 156.736L302.351 156.589L300.72 152.837H301.63L302.806 155.602L303.989 152.837Z" fill="#231F20"/>
<path d="M202.105 254.047C200.607 254.047 199.487 252.99 199.487 251.527C199.487 250.064 200.607 249.007 202.112 249.007C202.91 249.007 203.596 249.294 204.051 249.826L203.463 250.379C203.106 249.994 202.665 249.805 202.154 249.805C201.139 249.805 200.404 250.519 200.404 251.527C200.404 252.535 201.139 253.249 202.154 253.249C202.665 253.249 203.106 253.06 203.463 252.668L204.051 253.228C203.596 253.76 202.91 254.047 202.105 254.047ZM206.233 250.197C207.311 250.197 207.934 250.708 207.934 251.786V253.977H207.108V253.522C206.898 253.844 206.492 254.026 205.932 254.026C205.078 254.026 204.539 253.557 204.539 252.906C204.539 252.283 204.959 251.793 206.093 251.793H207.059V251.737C207.059 251.226 206.751 250.925 206.128 250.925C205.708 250.925 205.274 251.065 204.994 251.296L204.651 250.659C205.05 250.351 205.631 250.197 206.233 250.197ZM206.114 253.389C206.541 253.389 206.912 253.193 207.059 252.808V252.374H206.156C205.561 252.374 205.4 252.598 205.4 252.871C205.4 253.186 205.666 253.389 206.114 253.389ZM209.89 250.785C210.142 250.393 210.597 250.197 211.22 250.197V251.03C211.143 251.016 211.08 251.009 211.017 251.009C210.352 251.009 209.932 251.401 209.932 252.164V253.977H209.057V250.239H209.89V250.785ZM214.714 248.783H215.589V253.977H214.749V253.494C214.455 253.851 214.021 254.026 213.51 254.026C212.425 254.026 211.62 253.27 211.62 252.108C211.62 250.946 212.425 250.197 213.51 250.197C213.993 250.197 214.42 250.358 214.714 250.701V248.783ZM213.615 253.277C214.245 253.277 214.728 252.822 214.728 252.108C214.728 251.394 214.245 250.939 213.615 250.939C212.985 250.939 212.502 251.394 212.502 252.108C212.502 252.822 212.985 253.277 213.615 253.277ZM221.02 254.047C219.522 254.047 218.402 252.99 218.402 251.527C218.402 250.064 219.522 249.007 221.027 249.007C221.825 249.007 222.511 249.294 222.966 249.826L222.378 250.379C222.021 249.994 221.58 249.805 221.069 249.805C220.054 249.805 219.319 250.519 219.319 251.527C219.319 252.535 220.054 253.249 221.069 253.249C221.58 253.249 222.021 253.06 222.378 252.668L222.966 253.228C222.511 253.76 221.825 254.047 221.02 254.047ZM225.298 254.026C224.15 254.026 223.31 253.228 223.31 252.108C223.31 250.988 224.15 250.197 225.298 250.197C226.46 250.197 227.293 250.988 227.293 252.108C227.293 253.228 226.46 254.026 225.298 254.026ZM225.298 253.277C225.935 253.277 226.411 252.822 226.411 252.108C226.411 251.394 225.935 250.939 225.298 250.939C224.668 250.939 224.192 251.394 224.192 252.108C224.192 252.822 224.668 253.277 225.298 253.277ZM230.25 250.197C231.146 250.197 231.811 250.708 231.811 251.835V253.977H230.936V251.947C230.936 251.282 230.607 250.96 230.047 250.96C229.424 250.96 229.004 251.338 229.004 252.087V253.977H228.129V250.239H228.962V250.722C229.249 250.379 229.704 250.197 230.25 250.197ZM234.923 253.151L235.168 253.774C234.958 253.942 234.643 254.026 234.328 254.026C233.509 254.026 233.04 253.592 233.04 252.766V250.967H232.424V250.267H233.04V249.413H233.915V250.267H234.916V250.967H233.915V252.745C233.915 253.109 234.097 253.305 234.433 253.305C234.615 253.305 234.79 253.256 234.923 253.151ZM236.721 250.785C236.973 250.393 237.428 250.197 238.051 250.197V251.03C237.974 251.016 237.911 251.009 237.848 251.009C237.183 251.009 236.763 251.401 236.763 252.164V253.977H235.888V250.239H236.721V250.785ZM240.439 254.026C239.291 254.026 238.451 253.228 238.451 252.108C238.451 250.988 239.291 250.197 240.439 250.197C241.601 250.197 242.434 250.988 242.434 252.108C242.434 253.228 241.601 254.026 240.439 254.026ZM240.439 253.277C241.076 253.277 241.552 252.822 241.552 252.108C241.552 251.394 241.076 250.939 240.439 250.939C239.809 250.939 239.333 251.394 239.333 252.108C239.333 252.822 239.809 253.277 240.439 253.277ZM243.271 253.977V248.783H244.146V253.977H243.271Z" fill="#231F20"/>
<path d="M68.8477 254.047C68.0847 254.047 67.3217 253.809 66.9157 253.459L67.2307 252.752C67.6227 253.067 68.2457 253.291 68.8477 253.291C69.6107 253.291 69.9327 253.018 69.9327 252.654C69.9327 251.597 67.0207 252.29 67.0207 250.47C67.0207 249.679 67.6507 249.007 68.9947 249.007C69.5827 249.007 70.1987 249.161 70.6257 249.441L70.3387 250.148C69.8977 249.889 69.4147 249.763 68.9877 249.763C68.2317 249.763 67.9237 250.057 67.9237 250.428C67.9237 251.471 70.8287 250.792 70.8287 252.591C70.8287 253.375 70.1917 254.047 68.8477 254.047ZM75.161 252.129C75.161 252.199 75.154 252.304 75.147 252.388H72.214C72.319 252.934 72.774 253.284 73.425 253.284C73.845 253.284 74.174 253.151 74.44 252.878L74.909 253.417C74.573 253.816 74.048 254.026 73.404 254.026C72.151 254.026 71.339 253.221 71.339 252.108C71.339 250.995 72.158 250.197 73.271 250.197C74.363 250.197 75.161 250.96 75.161 252.129ZM73.271 250.897C72.704 250.897 72.291 251.261 72.207 251.807H74.328C74.258 251.268 73.845 250.897 73.271 250.897ZM77.7165 254.026C76.5335 254.026 75.6935 253.228 75.6935 252.108C75.6935 250.988 76.5335 250.197 77.7165 250.197C78.4445 250.197 79.0255 250.498 79.3125 251.065L78.6405 251.457C78.4165 251.1 78.0805 250.939 77.7095 250.939C77.0655 250.939 76.5755 251.387 76.5755 252.108C76.5755 252.836 77.0655 253.277 77.7095 253.277C78.0805 253.277 78.4165 253.116 78.6405 252.759L79.3125 253.151C79.0255 253.711 78.4445 254.026 77.7165 254.026ZM82.8129 250.239H83.6879V253.977H82.8549V253.501C82.5749 253.844 82.1339 254.026 81.6509 254.026C80.6919 254.026 80.0409 253.501 80.0409 252.374V250.239H80.9159V252.255C80.9159 252.934 81.2379 253.256 81.7909 253.256C82.3999 253.256 82.8129 252.878 82.8129 252.129V250.239ZM85.6665 250.785C85.9185 250.393 86.3735 250.197 86.9965 250.197V251.03C86.9195 251.016 86.8565 251.009 86.7935 251.009C86.1285 251.009 85.7085 251.401 85.7085 252.164V253.977H84.8335V250.239H85.6665V250.785ZM91.2186 252.129C91.2186 252.199 91.2116 252.304 91.2046 252.388H88.2716C88.3766 252.934 88.8316 253.284 89.4826 253.284C89.9026 253.284 90.2316 253.151 90.4976 252.878L90.9666 253.417C90.6306 253.816 90.1056 254.026 89.4616 254.026C88.2086 254.026 87.3966 253.221 87.3966 252.108C87.3966 250.995 88.2156 250.197 89.3286 250.197C90.4206 250.197 91.2186 250.96 91.2186 252.129ZM89.3286 250.897C88.7616 250.897 88.3486 251.261 88.2646 251.807H90.3856C90.3156 251.268 89.9026 250.897 89.3286 250.897Z" fill="#231F20"/>
<path d="M63.0876 262.447C61.5686 262.447 60.4486 261.376 60.4486 259.927C60.4486 258.478 61.5686 257.407 63.0876 257.407C64.6066 257.407 65.7266 258.471 65.7266 259.927C65.7266 261.383 64.6066 262.447 63.0876 262.447ZM63.0876 261.649C64.0746 261.649 64.8096 260.928 64.8096 259.927C64.8096 258.926 64.0746 258.205 63.0876 258.205C62.1006 258.205 61.3656 258.926 61.3656 259.927C61.3656 260.928 62.1006 261.649 63.0876 261.649ZM68.6792 258.597C69.7712 258.597 70.5762 259.353 70.5762 260.508C70.5762 261.67 69.7712 262.426 68.6792 262.426C68.2032 262.426 67.7832 262.265 67.4822 261.922V263.735H66.6072V258.639H67.4402V259.129C67.7342 258.772 68.1682 258.597 68.6792 258.597ZM68.5812 261.677C69.2112 261.677 69.6872 261.222 69.6872 260.508C69.6872 259.794 69.2112 259.339 68.5812 259.339C67.9512 259.339 67.4682 259.794 67.4682 260.508C67.4682 261.222 67.9512 261.677 68.5812 261.677ZM74.92 260.529C74.92 260.599 74.913 260.704 74.906 260.788H71.973C72.078 261.334 72.533 261.684 73.184 261.684C73.604 261.684 73.933 261.551 74.199 261.278L74.668 261.817C74.332 262.216 73.807 262.426 73.163 262.426C71.91 262.426 71.098 261.621 71.098 260.508C71.098 259.395 71.917 258.597 73.03 258.597C74.122 258.597 74.92 259.36 74.92 260.529ZM73.03 259.297C72.463 259.297 72.05 259.661 71.966 260.207H74.087C74.017 259.668 73.604 259.297 73.03 259.297ZM77.8815 258.597C78.7775 258.597 79.4425 259.108 79.4425 260.235V262.377H78.5675V260.347C78.5675 259.682 78.2385 259.36 77.6785 259.36C77.0555 259.36 76.6355 259.738 76.6355 260.487V262.377H75.7605V258.639H76.5935V259.122C76.8805 258.779 77.3355 258.597 77.8815 258.597ZM86.2391 262.377L85.7491 261.243H83.2991L82.8161 262.377H81.8781L84.0831 257.477H84.9791L87.1911 262.377H86.2391ZM83.6071 260.529H85.4481L84.5241 258.387L83.6071 260.529ZM89.8303 257.477C91.1183 257.477 91.9163 258.135 91.9163 259.22C91.9163 260.298 91.1183 260.963 89.8303 260.963H88.7243V262.377H87.8143V257.477H89.8303ZM89.7883 260.193C90.5863 260.193 90.9993 259.836 90.9993 259.22C90.9993 258.604 90.5863 258.247 89.7883 258.247H88.7243V260.193H89.7883ZM92.825 262.377V257.477H93.735V262.377H92.825ZM96.1313 262.426C95.5083 262.426 94.8853 262.244 94.5493 262.006L94.8853 261.341C95.2143 261.558 95.7183 261.712 96.1873 261.712C96.7403 261.712 96.9713 261.558 96.9713 261.299C96.9713 260.585 94.6613 261.257 94.6613 259.766C94.6613 259.059 95.2983 258.597 96.3063 258.597C96.8033 258.597 97.3703 258.716 97.7063 258.919L97.3703 259.584C97.0133 259.374 96.6563 259.304 96.2993 259.304C95.7673 259.304 95.5153 259.479 95.5153 259.724C95.5153 260.48 97.8253 259.808 97.8253 261.271C97.8253 261.971 97.1813 262.426 96.1313 262.426Z" fill="#231F20"/>
<path d="M3.34324 141.245C1.84524 141.245 0.725236 140.188 0.725236 138.725C0.725236 137.262 1.84524 136.205 3.35024 136.205C4.14824 136.205 4.83424 136.492 5.28924 137.024L4.70124 137.577C4.34424 137.192 3.90324 137.003 3.39224 137.003C2.37724 137.003 1.64224 137.717 1.64224 138.725C1.64224 139.733 2.37724 140.447 3.39224 140.447C3.90324 140.447 4.34424 140.258 4.70124 139.866L5.28924 140.426C4.83424 140.958 4.14824 141.245 3.34324 141.245ZM8.71864 137.437H9.59364V141.175H8.76063V140.699C8.48063 141.042 8.03963 141.224 7.55663 141.224C6.59763 141.224 5.94663 140.699 5.94663 139.572V137.437H6.82163V139.453C6.82163 140.132 7.14363 140.454 7.69663 140.454C8.30563 140.454 8.71864 140.076 8.71864 139.327V137.437ZM11.8943 141.224C11.2713 141.224 10.6483 141.042 10.3123 140.804L10.6483 140.139C10.9773 140.356 11.4813 140.51 11.9503 140.51C12.5033 140.51 12.7343 140.356 12.7343 140.097C12.7343 139.383 10.4243 140.055 10.4243 138.564C10.4243 137.857 11.0613 137.395 12.0693 137.395C12.5663 137.395 13.1333 137.514 13.4693 137.717L13.1333 138.382C12.7763 138.172 12.4193 138.102 12.0623 138.102C11.5303 138.102 11.2783 138.277 11.2783 138.522C11.2783 139.278 13.5883 138.606 13.5883 140.069C13.5883 140.769 12.9443 141.224 11.8943 141.224ZM16.3438 140.349L16.5888 140.972C16.3788 141.14 16.0638 141.224 15.7488 141.224C14.9298 141.224 14.4608 140.79 14.4608 139.964V138.165H13.8448V137.465H14.4608V136.611H15.3358V137.465H16.3368V138.165H15.3358V139.943C15.3358 140.307 15.5178 140.503 15.8538 140.503C16.0358 140.503 16.2108 140.454 16.3438 140.349ZM18.8656 141.224C17.7176 141.224 16.8776 140.426 16.8776 139.306C16.8776 138.186 17.7176 137.395 18.8656 137.395C20.0276 137.395 20.8606 138.186 20.8606 139.306C20.8606 140.426 20.0276 141.224 18.8656 141.224ZM18.8656 140.475C19.5026 140.475 19.9786 140.02 19.9786 139.306C19.9786 138.592 19.5026 138.137 18.8656 138.137C18.2356 138.137 17.7596 138.592 17.7596 139.306C17.7596 140.02 18.2356 140.475 18.8656 140.475ZM26.4153 137.395C27.3183 137.395 27.9483 137.906 27.9483 139.033V141.175H27.0733V139.145C27.0733 138.48 26.7653 138.158 26.2333 138.158C25.6593 138.158 25.2603 138.536 25.2603 139.278V141.175H24.3853V139.145C24.3853 138.48 24.0773 138.158 23.5453 138.158C22.9643 138.158 22.5723 138.536 22.5723 139.278V141.175H21.6973V137.437H22.5303V137.913C22.8103 137.577 23.2443 137.395 23.7553 137.395C24.3013 137.395 24.7563 137.598 25.0153 138.018C25.3163 137.633 25.8203 137.395 26.4153 137.395Z" fill="#231F20"/>
<path d="M4.56215 145.438H1.89515V146.929H4.26115V147.699H1.89515V149.575H0.985148V144.675H4.56215V145.438ZM5.73082 145.221C5.40882 145.221 5.17082 144.99 5.17082 144.696C5.17082 144.402 5.40882 144.171 5.73082 144.171C6.05282 144.171 6.29082 144.388 6.29082 144.675C6.29082 144.983 6.05982 145.221 5.73082 145.221ZM5.28982 149.575V145.837H6.16482V149.575H5.28982ZM8.14626 146.383C8.39826 145.991 8.85326 145.795 9.47626 145.795V146.628C9.39926 146.614 9.33626 146.607 9.27326 146.607C8.60826 146.607 8.18826 146.999 8.18826 147.762V149.575H7.31326V145.837H8.14626V146.383ZM13.6984 147.727C13.6984 147.797 13.6914 147.902 13.6844 147.986H10.7514C10.8564 148.532 11.3114 148.882 11.9624 148.882C12.3824 148.882 12.7114 148.749 12.9774 148.476L13.4464 149.015C13.1104 149.414 12.5854 149.624 11.9414 149.624C10.6884 149.624 9.87635 148.819 9.87635 147.706C9.87635 146.593 10.6954 145.795 11.8084 145.795C12.9004 145.795 13.6984 146.558 13.6984 147.727ZM11.8084 146.495C11.2414 146.495 10.8284 146.859 10.7444 147.405H12.8654C12.7954 146.866 12.3824 146.495 11.8084 146.495ZM19.5245 145.837H20.3015L18.9225 149.575H18.0825L17.1165 146.999L16.1365 149.575H15.2965L13.9245 145.837H14.7505L15.7375 148.595L16.7665 145.837H17.5015L18.5095 148.609L19.5245 145.837ZM22.2149 145.795C23.2929 145.795 23.9159 146.306 23.9159 147.384V149.575H23.0899V149.12C22.8799 149.442 22.4739 149.624 21.9139 149.624C21.0599 149.624 20.5209 149.155 20.5209 148.504C20.5209 147.881 20.9409 147.391 22.0749 147.391H23.0409V147.335C23.0409 146.824 22.7329 146.523 22.1099 146.523C21.6899 146.523 21.2559 146.663 20.9759 146.894L20.6329 146.257C21.0319 145.949 21.6129 145.795 22.2149 145.795ZM22.0959 148.987C22.5229 148.987 22.8939 148.791 23.0409 148.406V147.972H22.1379C21.5429 147.972 21.3819 148.196 21.3819 148.469C21.3819 148.784 21.6479 148.987 22.0959 148.987ZM25.0388 149.575V144.381H25.9138V149.575H25.0388ZM27.0623 149.575V144.381H27.9373V149.575H27.0623Z" fill="#231F20"/>
<path d="M113.84 11.6399C135.7 5.58988 158.8 5.23988 180.8 10.5799" stroke="#83959E" stroke-width="5" stroke-miterlimit="10"/>
<path d="M169.05 16.44L179.35 10.29L173.19 0L180.17 1.76L186.32 12.05L176.03 18.2L169.05 16.44Z" fill="#83959E"/>
<path d="M22.4099 107.8C28.0999 85.8503 39.3399 65.6703 54.9699 49.2803" stroke="#83959E" stroke-width="5" stroke-miterlimit="10"/>
<path d="M54.17 62.3805L53.99 50.3905L42 50.5805L47.01 45.4105L59 45.2305L59.18 57.2105L54.17 62.3805Z" fill="#83959E"/>
<path d="M59.9601 235.06C43.8001 219.16 31.9401 199.33 25.5601 177.61" stroke="#83959E" stroke-width="5" stroke-miterlimit="10"/>
<path d="M36.51 184.84L26.04 179L20.21 189.48L18.24 182.56L24.07 172.08L34.54 177.92L36.51 184.84Z" fill="#83959E"/>
<path d="M188.95 266.159C167.09 272.209 143.99 272.559 121.99 267.219" stroke="#83959E" stroke-width="5" stroke-miterlimit="10"/>
<path d="M133.73 261.359L123.44 267.519L129.6 277.799L122.62 276.049L116.47 265.759L126.75 259.609L133.73 261.359Z" fill="#83959E"/>
<path d="M280.38 170.01C274.69 191.96 263.45 212.14 247.82 228.53" stroke="#83959E" stroke-width="5" stroke-miterlimit="10"/>
<path d="M248.62 215.43L248.8 227.42L260.79 227.23L255.78 232.4L243.79 232.58L243.61 220.59L248.62 215.43Z" fill="#83959E"/>
<path d="M242.83 42.75C258.99 58.65 270.85 78.48 277.23 100.2" stroke="#83959E" stroke-width="5" stroke-miterlimit="10"/>
<path d="M266.28 92.9701L276.75 98.8101L282.58 88.3301L284.55 95.2501L278.72 105.72L268.25 99.8901L266.28 92.9701Z" fill="#83959E"/>
</svg>
