<svg width="480" height="474" viewBox="0 0 480 474" fill="none" xmlns="http://www.w3.org/2000/svg">
<path fill-rule="evenodd" clip-rule="evenodd" d="M434.08 248.56C434.08 359.083 344.483 448.68 233.96 448.68C123.437 448.68 33.8401 359.083 33.8401 248.56C33.8401 138.036 123.437 48.4395 233.96 48.4395C344.483 48.4395 434.08 138.036 434.08 248.56ZM420.45 247.47C420.45 349.913 337.403 432.959 234.96 432.959C132.517 432.959 49.47 349.913 49.47 247.47C49.47 145.026 132.517 61.9795 234.96 61.9795C337.403 61.9795 420.45 145.026 420.45 247.47Z" fill="#889AA6"/>
<path d="M46.79 254.141C72.0791 254.141 92.58 233.64 92.58 208.351C92.58 183.061 72.0791 162.561 46.79 162.561C21.5009 162.561 1 183.061 1 208.351C1 233.64 21.5009 254.141 46.79 254.141Z" fill="white" stroke="#BDD1ED" stroke-width="1.5" stroke-miterlimit="10"/>
<path d="M46.7901 248.561C68.9974 248.561 87.0001 230.558 87.0001 208.351C87.0001 186.143 68.9974 168.141 46.7901 168.141C24.5827 168.141 6.58008 186.143 6.58008 208.351C6.58008 230.558 24.5827 248.561 46.7901 248.561Z" fill="#83959E"/>
<path d="M113.81 138.471C139.099 138.471 159.6 117.97 159.6 92.6806C159.6 67.3915 139.099 46.8906 113.81 46.8906C88.5209 46.8906 68.02 67.3915 68.02 92.6806C68.02 117.97 88.5209 138.471 113.81 138.471Z" fill="white" stroke="#BDD1ED" stroke-width="1.5" stroke-miterlimit="10"/>
<path d="M113.81 132.891C136.017 132.891 154.02 114.888 154.02 92.6807C154.02 70.4733 136.017 52.4707 113.81 52.4707C91.6027 52.4707 73.6001 70.4733 73.6001 92.6807C73.6001 114.888 91.6027 132.891 113.81 132.891Z" fill="#6C808D"/>
<path d="M239.83 92.58C265.119 92.58 285.62 72.0791 285.62 46.79C285.62 21.5009 265.119 1 239.83 1C214.541 1 194.04 21.5009 194.04 46.79C194.04 72.0791 214.541 92.58 239.83 92.58Z" fill="white" stroke="#BDD1ED" stroke-width="1.5" stroke-miterlimit="10"/>
<path d="M240.06 87.0001C262.267 87.0001 280.27 68.9974 280.27 46.7901C280.27 24.5827 262.267 6.58008 240.06 6.58008C217.853 6.58008 199.85 24.5827 199.85 46.7901C199.85 68.9974 217.853 87.0001 240.06 87.0001Z" fill="#576A73"/>
<path d="M366.12 138.81C391.409 138.81 411.91 118.31 411.91 93.0205C411.91 67.7314 391.409 47.2305 366.12 47.2305C340.831 47.2305 320.33 67.7314 320.33 93.0205C320.33 118.31 340.831 138.81 366.12 138.81Z" fill="white" stroke="#BDD1ED" stroke-width="1.5" stroke-miterlimit="10"/>
<path d="M365.85 132.891C388.057 132.891 406.06 114.888 406.06 92.6807C406.06 70.4733 388.057 52.4707 365.85 52.4707C343.643 52.4707 325.64 70.4733 325.64 92.6807C325.64 114.888 343.643 132.891 365.85 132.891Z" fill="#6A808B"/>
<path d="M433.08 253.721C458.369 253.721 478.87 233.22 478.87 207.931C478.87 182.642 458.369 162.141 433.08 162.141C407.791 162.141 387.29 182.642 387.29 207.931C387.29 233.22 407.791 253.721 433.08 253.721Z" fill="white" stroke="#BDD1ED" stroke-width="1.5" stroke-miterlimit="10"/>
<path d="M432.72 248.561C454.927 248.561 472.93 230.558 472.93 208.351C472.93 186.143 454.927 168.141 432.72 168.141C410.513 168.141 392.51 186.143 392.51 208.351C392.51 230.558 410.513 248.561 432.72 248.561Z" fill="#83959E"/>
<path d="M409.91 386.87C435.199 386.87 455.7 366.369 455.7 341.08C455.7 315.791 435.199 295.29 409.91 295.29C384.621 295.29 364.12 315.791 364.12 341.08C364.12 366.369 384.621 386.87 409.91 386.87Z" fill="white" stroke="#BDD1ED" stroke-width="1.5" stroke-miterlimit="10"/>
<path d="M410.2 381.449C432.407 381.449 450.41 363.447 450.41 341.239C450.41 319.032 432.407 301.029 410.2 301.029C387.993 301.029 369.99 319.032 369.99 341.239C369.99 363.447 387.993 381.449 410.2 381.449Z" fill="#9CAAB1"/>
<path d="M307.26 472.87C332.549 472.87 353.05 452.369 353.05 427.08C353.05 401.791 332.549 381.29 307.26 381.29C281.971 381.29 261.47 401.791 261.47 427.08C261.47 452.369 281.971 472.87 307.26 472.87Z" fill="white" stroke="#BDD1ED" stroke-width="1.5" stroke-miterlimit="10"/>
<path d="M307.26 466.71C329.467 466.71 347.47 448.707 347.47 426.5C347.47 404.293 329.467 386.29 307.26 386.29C285.053 386.29 267.05 404.293 267.05 426.5C267.05 448.707 285.053 466.71 307.26 466.71Z" fill="#B6BFC4"/>
<path d="M172.7 472.87C197.989 472.87 218.49 452.369 218.49 427.08C218.49 401.791 197.989 381.29 172.7 381.29C147.411 381.29 126.91 401.791 126.91 427.08C126.91 452.369 147.411 472.87 172.7 472.87Z" fill="white" stroke="#BDD1ED" stroke-width="1.5" stroke-miterlimit="10"/>
<path d="M172.7 466.71C194.907 466.71 212.91 448.707 212.91 426.5C212.91 404.293 194.907 386.29 172.7 386.29C150.493 386.29 132.49 404.293 132.49 426.5C132.49 448.707 150.493 466.71 172.7 466.71Z" fill="#B6BFC4"/>
<path d="M71.58 386.689C96.8692 386.689 117.37 366.188 117.37 340.899C117.37 315.61 96.8692 295.109 71.58 295.109C46.2909 295.109 25.79 315.61 25.79 340.899C25.79 366.188 46.2909 386.689 71.58 386.689Z" fill="white" stroke="#BDD1ED" stroke-width="1.5" stroke-miterlimit="10"/>
<path d="M71.5801 381.449C93.7875 381.449 111.79 363.447 111.79 341.239C111.79 319.032 93.7875 301.029 71.5801 301.029C49.3727 301.029 31.3701 319.032 31.3701 341.239C31.3701 363.447 49.3727 381.449 71.5801 381.449Z" fill="#9CAAB1"/>
<path d="M220.809 48.9059C219.29 48.9059 218.17 47.8349 218.17 46.3859C218.17 44.9369 219.29 43.8659 220.809 43.8659C222.328 43.8659 223.448 44.9299 223.448 46.3859C223.448 47.8419 222.328 48.9059 220.809 48.9059ZM220.809 48.1079C221.796 48.1079 222.531 47.3869 222.531 46.3859C222.531 45.3849 221.796 44.6639 220.809 44.6639C219.822 44.6639 219.087 45.3849 219.087 46.3859C219.087 47.3869 219.822 48.1079 220.809 48.1079ZM226.449 45.0559C227.345 45.0559 228.01 45.5669 228.01 46.6939V48.8359H227.135V46.8059C227.135 46.1409 226.806 45.8189 226.246 45.8189C225.623 45.8189 225.203 46.1969 225.203 46.9459V48.8359H224.328V45.0979H225.161V45.5809C225.448 45.2379 225.903 45.0559 226.449 45.0559ZM229.12 48.8359V43.6419H229.995V48.8359H229.12ZM231.585 44.4819C231.263 44.4819 231.025 44.2509 231.025 43.9569C231.025 43.6629 231.263 43.4319 231.585 43.4319C231.907 43.4319 232.145 43.6489 232.145 43.9359C232.145 44.2439 231.914 44.4819 231.585 44.4819ZM231.144 48.8359V45.0979H232.019V48.8359H231.144ZM235.288 45.0559C236.184 45.0559 236.849 45.5669 236.849 46.6939V48.8359H235.974V46.8059C235.974 46.1409 235.645 45.8189 235.085 45.8189C234.462 45.8189 234.042 46.1969 234.042 46.9459V48.8359H233.167V45.0979H234V45.5809C234.287 45.2379 234.742 45.0559 235.288 45.0559ZM241.507 46.9879C241.507 47.0579 241.5 47.1629 241.493 47.2469H238.56C238.665 47.7929 239.12 48.1429 239.771 48.1429C240.191 48.1429 240.52 48.0099 240.786 47.7369L241.255 48.2759C240.919 48.6749 240.394 48.8849 239.75 48.8849C238.497 48.8849 237.685 48.0799 237.685 46.9669C237.685 45.8539 238.504 45.0559 239.617 45.0559C240.709 45.0559 241.507 45.8189 241.507 46.9879ZM239.617 45.7559C239.05 45.7559 238.637 46.1199 238.553 46.6659H240.674C240.604 46.1269 240.191 45.7559 239.617 45.7559ZM241.564 49.5359L243.874 42.9419H244.658L242.348 49.5359H241.564ZM245.029 48.8359V43.9359H247.171C248.76 43.9359 249.845 44.9159 249.845 46.3859C249.845 47.8559 248.76 48.8359 247.171 48.8359H245.029ZM245.939 48.0659H247.129C248.221 48.0659 248.928 47.4009 248.928 46.3859C248.928 45.3709 248.221 44.7059 247.129 44.7059H245.939V48.0659ZM251.17 44.4819C250.848 44.4819 250.61 44.2509 250.61 43.9569C250.61 43.6629 250.848 43.4319 251.17 43.4319C251.492 43.4319 251.73 43.6489 251.73 43.9359C251.73 44.2439 251.499 44.4819 251.17 44.4819ZM250.729 48.8359V45.0979H251.604V48.8359H250.729ZM255.629 45.0979H256.462V48.2689C256.462 49.6269 255.755 50.2429 254.446 50.2429C253.746 50.2429 253.053 50.0609 252.626 49.7109L253.018 49.0529C253.347 49.3259 253.879 49.5009 254.397 49.5009C255.223 49.5009 255.587 49.1229 255.587 48.3669V48.1709C255.279 48.5069 254.838 48.6679 254.334 48.6679C253.263 48.6679 252.444 47.9399 252.444 46.8549C252.444 45.7699 253.263 45.0559 254.334 45.0559C254.859 45.0559 255.321 45.2239 255.629 45.5949V45.0979ZM254.467 47.9259C255.125 47.9259 255.601 47.4919 255.601 46.8549C255.601 46.2249 255.125 45.7979 254.467 45.7979C253.802 45.7979 253.326 46.2249 253.326 46.8549C253.326 47.4919 253.802 47.9259 254.467 47.9259ZM258.053 44.4819C257.731 44.4819 257.493 44.2509 257.493 43.9569C257.493 43.6629 257.731 43.4319 258.053 43.4319C258.375 43.4319 258.613 43.6489 258.613 43.9359C258.613 44.2439 258.382 44.4819 258.053 44.4819ZM257.612 48.8359V45.0979H258.487V48.8359H257.612ZM261.638 48.0099L261.883 48.6329C261.673 48.8009 261.358 48.8849 261.043 48.8849C260.224 48.8849 259.755 48.4509 259.755 47.6249V45.8259H259.139V45.1259H259.755V44.2719H260.63V45.1259H261.631V45.8259H260.63V47.6039C260.63 47.9679 260.812 48.1639 261.148 48.1639C261.33 48.1639 261.505 48.1149 261.638 48.0099ZM264.031 45.0559C265.109 45.0559 265.732 45.5669 265.732 46.6449V48.8359H264.906V48.3809C264.696 48.7029 264.29 48.8849 263.73 48.8849C262.876 48.8849 262.337 48.4159 262.337 47.7649C262.337 47.1419 262.757 46.6519 263.891 46.6519H264.857V46.5959C264.857 46.0849 264.549 45.7839 263.926 45.7839C263.506 45.7839 263.072 45.9239 262.792 46.1549L262.449 45.5179C262.848 45.2099 263.429 45.0559 264.031 45.0559ZM263.912 48.2479C264.339 48.2479 264.71 48.0519 264.857 47.6669V47.2329H263.954C263.359 47.2329 263.198 47.4569 263.198 47.7299C263.198 48.0449 263.464 48.2479 263.912 48.2479ZM266.855 48.8359V43.6419H267.73V48.8359H266.855Z" fill="white"/>
<path d="M337.045 85.6293C338.333 85.6293 339.131 86.2873 339.131 87.3723C339.131 88.4503 338.333 89.1153 337.045 89.1153H335.939V90.5293H335.029V85.6293H337.045ZM337.003 88.3453C337.801 88.3453 338.214 87.9883 338.214 87.3723C338.214 86.7563 337.801 86.3993 337.003 86.3993H335.939V88.3453H337.003ZM340.963 89.7593H343.273V90.5293H339.661V89.9203L341.607 88.0723C342.083 87.6173 342.167 87.3303 342.167 87.0573C342.167 86.6093 341.859 86.3503 341.257 86.3503C340.781 86.3503 340.382 86.5113 340.109 86.8613L339.472 86.3713C339.85 85.8603 340.529 85.5593 341.334 85.5593C342.398 85.5593 343.084 86.0983 343.084 86.9663C343.084 87.4423 342.951 87.8763 342.272 88.5133L340.963 89.7593ZM346.164 85.6293C347.452 85.6293 348.25 86.2873 348.25 87.3723C348.25 88.4503 347.452 89.1153 346.164 89.1153H345.058V90.5293H344.148V85.6293H346.164ZM346.122 88.3453C346.92 88.3453 347.333 87.9883 347.333 87.3723C347.333 86.7563 346.92 86.3993 346.122 86.3993H345.058V88.3453H346.122ZM350.293 91.2293L352.603 84.6353H353.387L351.077 91.2293H350.293ZM359.88 90.5293H358.9L357.899 89.0943C357.836 89.1013 357.773 89.1013 357.71 89.1013H356.604V90.5293H355.694V85.6293H357.71C358.998 85.6293 359.796 86.2873 359.796 87.3723C359.796 88.1143 359.418 88.6603 358.753 88.9193L359.88 90.5293ZM358.879 87.3723C358.879 86.7563 358.466 86.3993 357.668 86.3993H356.604V88.3523H357.668C358.466 88.3523 358.879 87.9883 358.879 87.3723ZM364.244 88.6813C364.244 88.7513 364.237 88.8563 364.23 88.9403H361.297C361.402 89.4863 361.857 89.8363 362.508 89.8363C362.928 89.8363 363.257 89.7033 363.523 89.4303L363.992 89.9693C363.656 90.3683 363.131 90.5783 362.487 90.5783C361.234 90.5783 360.422 89.7733 360.422 88.6603C360.422 87.5473 361.241 86.7493 362.354 86.7493C363.446 86.7493 364.244 87.5123 364.244 88.6813ZM362.354 87.4493C361.787 87.4493 361.374 87.8133 361.29 88.3593H363.411C363.341 87.8203 362.928 87.4493 362.354 87.4493ZM369.802 86.7493C370.705 86.7493 371.335 87.2603 371.335 88.3873V90.5293H370.46V88.4993C370.46 87.8343 370.152 87.5123 369.62 87.5123C369.046 87.5123 368.647 87.8903 368.647 88.6323V90.5293H367.772V88.4993C367.772 87.8343 367.464 87.5123 366.932 87.5123C366.351 87.5123 365.959 87.8903 365.959 88.6323V90.5293H365.084V86.7913H365.917V87.2673C366.197 86.9313 366.631 86.7493 367.142 86.7493C367.688 86.7493 368.143 86.9523 368.402 87.3723C368.703 86.9873 369.207 86.7493 369.802 86.7493ZM372.894 86.1753C372.572 86.1753 372.334 85.9443 372.334 85.6503C372.334 85.3563 372.572 85.1253 372.894 85.1253C373.216 85.1253 373.454 85.3423 373.454 85.6293C373.454 85.9373 373.223 86.1753 372.894 86.1753ZM372.453 90.5293V86.7913H373.328V90.5293H372.453ZM376.479 89.7033L376.724 90.3263C376.514 90.4943 376.199 90.5783 375.884 90.5783C375.065 90.5783 374.596 90.1443 374.596 89.3183V87.5193H373.98V86.8193H374.596V85.9653H375.471V86.8193H376.472V87.5193H375.471V89.2973C375.471 89.6613 375.653 89.8573 375.989 89.8573C376.171 89.8573 376.346 89.8083 376.479 89.7033ZM379.357 89.7033L379.602 90.3263C379.392 90.4943 379.077 90.5783 378.762 90.5783C377.943 90.5783 377.474 90.1443 377.474 89.3183V87.5193H376.858V86.8193H377.474V85.9653H378.349V86.8193H379.35V87.5193H378.349V89.2973C378.349 89.6613 378.531 89.8573 378.867 89.8573C379.049 89.8573 379.224 89.8083 379.357 89.7033ZM381.75 86.7493C382.828 86.7493 383.451 87.2603 383.451 88.3383V90.5293H382.625V90.0743C382.415 90.3963 382.009 90.5783 381.449 90.5783C380.595 90.5783 380.056 90.1093 380.056 89.4583C380.056 88.8353 380.476 88.3453 381.61 88.3453H382.576V88.2893C382.576 87.7783 382.268 87.4773 381.645 87.4773C381.225 87.4773 380.791 87.6173 380.511 87.8483L380.168 87.2113C380.567 86.9033 381.148 86.7493 381.75 86.7493ZM381.631 89.9413C382.058 89.9413 382.429 89.7453 382.576 89.3603V88.9263H381.673C381.078 88.9263 380.917 89.1503 380.917 89.4233C380.917 89.7383 381.183 89.9413 381.631 89.9413ZM386.695 86.7493C387.591 86.7493 388.256 87.2603 388.256 88.3873V90.5293H387.381V88.4993C387.381 87.8343 387.052 87.5123 386.492 87.5123C385.869 87.5123 385.449 87.8903 385.449 88.6393V90.5293H384.574V86.7913H385.407V87.2743C385.694 86.9313 386.149 86.7493 386.695 86.7493ZM391.115 90.5783C389.932 90.5783 389.092 89.7803 389.092 88.6603C389.092 87.5403 389.932 86.7493 391.115 86.7493C391.843 86.7493 392.424 87.0503 392.711 87.6173L392.039 88.0093C391.815 87.6523 391.479 87.4913 391.108 87.4913C390.464 87.4913 389.974 87.9393 389.974 88.6603C389.974 89.3883 390.464 89.8293 391.108 89.8293C391.479 89.8293 391.815 89.6683 392.039 89.3113L392.711 89.7033C392.424 90.2633 391.843 90.5783 391.115 90.5783ZM396.926 88.6813C396.926 88.7513 396.919 88.8563 396.912 88.9403H393.979C394.084 89.4863 394.539 89.8363 395.19 89.8363C395.61 89.8363 395.939 89.7033 396.205 89.4303L396.674 89.9693C396.338 90.3683 395.813 90.5783 395.169 90.5783C393.916 90.5783 393.104 89.7733 393.104 88.6603C393.104 87.5473 393.923 86.7493 395.036 86.7493C396.128 86.7493 396.926 87.5123 396.926 88.6813ZM395.036 87.4493C394.469 87.4493 394.056 87.8133 393.972 88.3593H396.093C396.023 87.8203 395.61 87.4493 395.036 87.4493Z" fill="white"/>
<path d="M358.721 99.6297L361.031 93.0357H361.815L359.505 99.6297H358.721ZM367.698 94.7927H365.031V96.2837H367.397V97.0537H365.031V98.9297H364.121V94.0297H367.698V94.7927ZM372.612 98.9297H371.562L370.232 97.0677L368.916 98.9297H367.88L369.7 96.4307L367.978 94.0297H369.007L370.26 95.7727L371.499 94.0297H372.486L370.771 96.3957L372.612 98.9297Z" fill="white"/>
<path d="M429.481 203.651C430.006 203.819 430.363 204.232 430.363 204.869C430.363 205.709 429.705 206.199 428.445 206.199H426.009V201.299H428.305C429.481 201.299 430.111 201.796 430.111 202.573C430.111 203.077 429.859 203.448 429.481 203.651ZM428.207 202.013H426.919V203.364H428.207C428.837 203.364 429.194 203.14 429.194 202.692C429.194 202.237 428.837 202.013 428.207 202.013ZM428.389 205.485C429.075 205.485 429.446 205.268 429.446 204.778C429.446 204.288 429.075 204.071 428.389 204.071H426.919V205.485H428.389ZM432.224 205.429H434.534V206.199H430.922V205.59L432.868 203.742C433.344 203.287 433.428 203 433.428 202.727C433.428 202.279 433.12 202.02 432.518 202.02C432.042 202.02 431.643 202.181 431.37 202.531L430.733 202.041C431.111 201.53 431.79 201.229 432.595 201.229C433.659 201.229 434.345 201.768 434.345 202.636C434.345 203.112 434.212 203.546 433.533 204.183L432.224 205.429ZM438.881 203.651C439.406 203.819 439.763 204.232 439.763 204.869C439.763 205.709 439.105 206.199 437.845 206.199H435.409V201.299H437.705C438.881 201.299 439.511 201.796 439.511 202.573C439.511 203.077 439.259 203.448 438.881 203.651ZM437.607 202.013H436.319V203.364H437.607C438.237 203.364 438.594 203.14 438.594 202.692C438.594 202.237 438.237 202.013 437.607 202.013ZM437.789 205.485C438.475 205.485 438.846 205.268 438.846 204.778C438.846 204.288 438.475 204.071 437.789 204.071H436.319V205.485H437.789Z" fill="white"/>
<path d="M417.267 210.82C418.359 210.82 419.164 211.576 419.164 212.731C419.164 213.893 418.359 214.649 417.267 214.649C416.791 214.649 416.371 214.488 416.07 214.145V215.958H415.195V210.862H416.028V211.352C416.322 210.995 416.756 210.82 417.267 210.82ZM417.169 213.9C417.799 213.9 418.275 213.445 418.275 212.731C418.275 212.017 417.799 211.562 417.169 211.562C416.539 211.562 416.056 212.017 416.056 212.731C416.056 213.445 416.539 213.9 417.169 213.9ZM421.374 210.82C422.452 210.82 423.075 211.331 423.075 212.409V214.6H422.249V214.145C422.039 214.467 421.633 214.649 421.073 214.649C420.219 214.649 419.68 214.18 419.68 213.529C419.68 212.906 420.1 212.416 421.234 212.416H422.2V212.36C422.2 211.849 421.892 211.548 421.269 211.548C420.849 211.548 420.415 211.688 420.135 211.919L419.792 211.282C420.191 210.974 420.772 210.82 421.374 210.82ZM421.255 214.012C421.682 214.012 422.053 213.816 422.2 213.431V212.997H421.297C420.702 212.997 420.541 213.221 420.541 213.494C420.541 213.809 420.807 214.012 421.255 214.012ZM426.79 210.862H427.63L425.88 214.901C425.537 215.748 425.061 216.007 424.438 216.007C424.067 216.007 423.675 215.881 423.437 215.664L423.787 215.02C423.955 215.181 424.193 215.279 424.431 215.279C424.739 215.279 424.921 215.132 425.089 214.761L425.152 214.614L423.521 210.862H424.431L425.607 213.627L426.79 210.862ZM432.895 210.82C433.798 210.82 434.428 211.331 434.428 212.458V214.6H433.553V212.57C433.553 211.905 433.245 211.583 432.713 211.583C432.139 211.583 431.74 211.961 431.74 212.703V214.6H430.865V212.57C430.865 211.905 430.557 211.583 430.025 211.583C429.444 211.583 429.052 211.961 429.052 212.703V214.6H428.177V210.862H429.01V211.338C429.29 211.002 429.724 210.82 430.235 210.82C430.781 210.82 431.236 211.023 431.495 211.443C431.796 211.058 432.3 210.82 432.895 210.82ZM439.094 212.752C439.094 212.822 439.087 212.927 439.08 213.011H436.147C436.252 213.557 436.707 213.907 437.358 213.907C437.778 213.907 438.107 213.774 438.373 213.501L438.842 214.04C438.506 214.439 437.981 214.649 437.337 214.649C436.084 214.649 435.272 213.844 435.272 212.731C435.272 211.618 436.091 210.82 437.204 210.82C438.296 210.82 439.094 211.583 439.094 212.752ZM437.204 211.52C436.637 211.52 436.224 211.884 436.14 212.43H438.261C438.191 211.891 437.778 211.52 437.204 211.52ZM442.056 210.82C442.952 210.82 443.617 211.331 443.617 212.458V214.6H442.742V212.57C442.742 211.905 442.413 211.583 441.853 211.583C441.23 211.583 440.81 211.961 440.81 212.71V214.6H439.935V210.862H440.768V211.345C441.055 211.002 441.51 210.82 442.056 210.82ZM446.729 213.774L446.974 214.397C446.764 214.565 446.449 214.649 446.134 214.649C445.315 214.649 444.846 214.215 444.846 213.389V211.59H444.23V210.89H444.846V210.036H445.721V210.89H446.722V211.59H445.721V213.368C445.721 213.732 445.903 213.928 446.239 213.928C446.421 213.928 446.596 213.879 446.729 213.774ZM448.848 214.649C448.225 214.649 447.602 214.467 447.266 214.229L447.602 213.564C447.931 213.781 448.435 213.935 448.904 213.935C449.457 213.935 449.688 213.781 449.688 213.522C449.688 212.808 447.378 213.48 447.378 211.989C447.378 211.282 448.015 210.82 449.023 210.82C449.52 210.82 450.087 210.939 450.423 211.142L450.087 211.807C449.73 211.597 449.373 211.527 449.016 211.527C448.484 211.527 448.232 211.702 448.232 211.947C448.232 212.703 450.542 212.031 450.542 213.494C450.542 214.194 449.898 214.649 448.848 214.649Z" fill="white"/>
<path d="M392.552 336.542C393.077 336.71 393.434 337.123 393.434 337.76C393.434 338.6 392.776 339.09 391.516 339.09H389.08V334.19H391.376C392.552 334.19 393.182 334.687 393.182 335.464C393.182 335.968 392.93 336.339 392.552 336.542ZM391.278 334.904H389.99V336.255H391.278C391.908 336.255 392.265 336.031 392.265 335.583C392.265 335.128 391.908 334.904 391.278 334.904ZM391.46 338.376C392.146 338.376 392.517 338.159 392.517 337.669C392.517 337.179 392.146 336.962 391.46 336.962H389.99V338.376H391.46ZM397.065 335.352H397.94V339.09H397.107V338.614C396.827 338.957 396.386 339.139 395.903 339.139C394.944 339.139 394.293 338.614 394.293 337.487V335.352H395.168V337.368C395.168 338.047 395.49 338.369 396.043 338.369C396.652 338.369 397.065 337.991 397.065 337.242V335.352ZM401.746 335.352H402.586L400.836 339.391C400.493 340.238 400.017 340.497 399.394 340.497C399.023 340.497 398.631 340.371 398.393 340.154L398.743 339.51C398.911 339.671 399.149 339.769 399.387 339.769C399.695 339.769 399.877 339.622 400.045 339.251L400.108 339.104L398.477 335.352H399.387L400.563 338.117L401.746 335.352ZM408.602 334.19H409.505V339.09H408.756L406.054 335.772V339.09H405.151V334.19H405.9L408.602 337.508V334.19ZM412.414 339.139C411.266 339.139 410.426 338.341 410.426 337.221C410.426 336.101 411.266 335.31 412.414 335.31C413.576 335.31 414.409 336.101 414.409 337.221C414.409 338.341 413.576 339.139 412.414 339.139ZM412.414 338.39C413.051 338.39 413.527 337.935 413.527 337.221C413.527 336.507 413.051 336.052 412.414 336.052C411.784 336.052 411.308 336.507 411.308 337.221C411.308 337.935 411.784 338.39 412.414 338.39ZM420.198 335.352H420.975L419.596 339.09H418.756L417.79 336.514L416.81 339.09H415.97L414.598 335.352H415.424L416.411 338.11L417.44 335.352H418.175L419.183 338.124L420.198 335.352ZM425.611 334.19C426.899 334.19 427.697 334.848 427.697 335.933C427.697 337.011 426.899 337.676 425.611 337.676H424.505V339.09H423.595V334.19H425.611ZM425.569 336.906C426.367 336.906 426.78 336.549 426.78 335.933C426.78 335.317 426.367 334.96 425.569 334.96H424.505V336.906H425.569ZM429.915 335.31C430.993 335.31 431.616 335.821 431.616 336.899V339.09H430.79V338.635C430.58 338.957 430.174 339.139 429.614 339.139C428.76 339.139 428.221 338.67 428.221 338.019C428.221 337.396 428.641 336.906 429.775 336.906H430.741V336.85C430.741 336.339 430.433 336.038 429.81 336.038C429.39 336.038 428.956 336.178 428.676 336.409L428.333 335.772C428.732 335.464 429.313 335.31 429.915 335.31ZM429.796 338.502C430.223 338.502 430.594 338.306 430.741 337.921V337.487H429.838C429.243 337.487 429.082 337.711 429.082 337.984C429.082 338.299 429.348 338.502 429.796 338.502ZM435.331 335.352H436.171L434.421 339.391C434.078 340.238 433.602 340.497 432.979 340.497C432.608 340.497 432.216 340.371 431.978 340.154L432.328 339.51C432.496 339.671 432.734 339.769 432.972 339.769C433.28 339.769 433.462 339.622 433.63 339.251L433.693 339.104L432.062 335.352H432.972L434.148 338.117L435.331 335.352Z" fill="white"/>
<path d="M390.19 347.49V342.59H391.1V346.72H393.662V347.49H390.19ZM395.759 343.71C396.837 343.71 397.46 344.221 397.46 345.299V347.49H396.634V347.035C396.424 347.357 396.018 347.539 395.458 347.539C394.604 347.539 394.065 347.07 394.065 346.419C394.065 345.796 394.485 345.306 395.619 345.306H396.585V345.25C396.585 344.739 396.277 344.438 395.654 344.438C395.234 344.438 394.8 344.578 394.52 344.809L394.177 344.172C394.576 343.864 395.157 343.71 395.759 343.71ZM395.64 346.902C396.067 346.902 396.438 346.706 396.585 346.321V345.887H395.682C395.087 345.887 394.926 346.111 394.926 346.384C394.926 346.699 395.192 346.902 395.64 346.902ZM400.585 346.664L400.83 347.287C400.62 347.455 400.305 347.539 399.99 347.539C399.171 347.539 398.702 347.105 398.702 346.279V344.48H398.086V343.78H398.702V342.926H399.577V343.78H400.578V344.48H399.577V346.258C399.577 346.622 399.759 346.818 400.095 346.818C400.277 346.818 400.452 346.769 400.585 346.664ZM404.941 345.642C404.941 345.712 404.934 345.817 404.927 345.901H401.994C402.099 346.447 402.554 346.797 403.205 346.797C403.625 346.797 403.954 346.664 404.22 346.391L404.689 346.93C404.353 347.329 403.828 347.539 403.184 347.539C401.931 347.539 401.119 346.734 401.119 345.621C401.119 344.508 401.938 343.71 403.051 343.71C404.143 343.71 404.941 344.473 404.941 345.642ZM403.051 344.41C402.484 344.41 402.071 344.774 401.987 345.32H404.108C404.038 344.781 403.625 344.41 403.051 344.41ZM406.614 344.298C406.866 343.906 407.321 343.71 407.944 343.71V344.543C407.867 344.529 407.804 344.522 407.741 344.522C407.076 344.522 406.656 344.914 406.656 345.677V347.49H405.781V343.752H406.614V344.298ZM411.523 348.848C410.977 348.001 410.669 346.86 410.669 345.572C410.669 344.284 410.977 343.129 411.523 342.296H412.356C411.775 343.318 411.53 344.375 411.53 345.572C411.53 346.769 411.775 347.826 412.356 348.848H411.523ZM416.638 344.942C417.163 345.11 417.52 345.523 417.52 346.16C417.52 347 416.862 347.49 415.602 347.49H413.166V342.59H415.462C416.638 342.59 417.268 343.087 417.268 343.864C417.268 344.368 417.016 344.739 416.638 344.942ZM415.364 343.304H414.076V344.655H415.364C415.994 344.655 416.351 344.431 416.351 343.983C416.351 343.528 415.994 343.304 415.364 343.304ZM415.546 346.776C416.232 346.776 416.603 346.559 416.603 346.069C416.603 345.579 416.232 345.362 415.546 345.362H414.076V346.776H415.546ZM421.942 342.59H422.845V347.49H422.096L419.394 344.172V347.49H418.491V342.59H419.24L421.942 345.908V342.59ZM426.174 342.59C427.462 342.59 428.26 343.248 428.26 344.333C428.26 345.411 427.462 346.076 426.174 346.076H425.068V347.49H424.158V342.59H426.174ZM426.132 345.306C426.93 345.306 427.343 344.949 427.343 344.333C427.343 343.717 426.93 343.36 426.132 343.36H425.068V345.306H426.132ZM429.169 347.49V342.59H430.079V346.72H432.641V347.49H429.169ZM433.688 348.848H432.855C433.436 347.826 433.688 346.769 433.688 345.572C433.688 344.375 433.436 343.318 432.855 342.296H433.688C434.241 343.129 434.542 344.284 434.542 345.572C434.542 346.86 434.241 348.001 433.688 348.848Z" fill="white"/>
<path d="M296.545 421.804C297.07 421.972 297.427 422.385 297.427 423.022C297.427 423.862 296.769 424.352 295.509 424.352H293.073V419.452H295.369C296.545 419.452 297.175 419.949 297.175 420.726C297.175 421.23 296.923 421.601 296.545 421.804ZM295.271 420.166H293.983V421.517H295.271C295.901 421.517 296.258 421.293 296.258 420.845C296.258 420.39 295.901 420.166 295.271 420.166ZM295.453 423.638C296.139 423.638 296.51 423.421 296.51 422.931C296.51 422.441 296.139 422.224 295.453 422.224H293.983V423.638H295.453ZM301.058 420.614H301.933V424.352H301.1V423.876C300.82 424.219 300.379 424.401 299.896 424.401C298.937 424.401 298.286 423.876 298.286 422.749V420.614H299.161V422.63C299.161 423.309 299.483 423.631 300.036 423.631C300.645 423.631 301.058 423.253 301.058 422.504V420.614ZM304.234 424.401C303.611 424.401 302.988 424.219 302.652 423.981L302.988 423.316C303.317 423.533 303.821 423.687 304.29 423.687C304.843 423.687 305.074 423.533 305.074 423.274C305.074 422.56 302.764 423.232 302.764 421.741C302.764 421.034 303.401 420.572 304.409 420.572C304.906 420.572 305.473 420.691 305.809 420.894L305.473 421.559C305.116 421.349 304.759 421.279 304.402 421.279C303.87 421.279 303.618 421.454 303.618 421.699C303.618 422.455 305.928 421.783 305.928 423.246C305.928 423.946 305.284 424.401 304.234 424.401ZM307.122 419.998C306.8 419.998 306.562 419.767 306.562 419.473C306.562 419.179 306.8 418.948 307.122 418.948C307.444 418.948 307.682 419.165 307.682 419.452C307.682 419.76 307.451 419.998 307.122 419.998ZM306.681 424.352V420.614H307.556V424.352H306.681ZM310.826 420.572C311.722 420.572 312.387 421.083 312.387 422.21V424.352H311.512V422.322C311.512 421.657 311.183 421.335 310.623 421.335C310 421.335 309.58 421.713 309.58 422.462V424.352H308.705V420.614H309.538V421.097C309.825 420.754 310.28 420.572 310.826 420.572ZM317.045 422.504C317.045 422.574 317.038 422.679 317.031 422.763H314.098C314.203 423.309 314.658 423.659 315.309 423.659C315.729 423.659 316.058 423.526 316.324 423.253L316.793 423.792C316.457 424.191 315.932 424.401 315.288 424.401C314.035 424.401 313.223 423.596 313.223 422.483C313.223 421.37 314.042 420.572 315.155 420.572C316.247 420.572 317.045 421.335 317.045 422.504ZM315.155 421.272C314.588 421.272 314.175 421.636 314.091 422.182H316.212C316.142 421.643 315.729 421.272 315.155 421.272ZM319.041 424.401C318.418 424.401 317.795 424.219 317.459 423.981L317.795 423.316C318.124 423.533 318.628 423.687 319.097 423.687C319.65 423.687 319.881 423.533 319.881 423.274C319.881 422.56 317.571 423.232 317.571 421.741C317.571 421.034 318.208 420.572 319.216 420.572C319.713 420.572 320.28 420.691 320.616 420.894L320.28 421.559C319.923 421.349 319.566 421.279 319.209 421.279C318.677 421.279 318.425 421.454 318.425 421.699C318.425 422.455 320.735 421.783 320.735 423.246C320.735 423.946 320.091 424.401 319.041 424.401ZM322.643 424.401C322.02 424.401 321.397 424.219 321.061 423.981L321.397 423.316C321.726 423.533 322.23 423.687 322.699 423.687C323.252 423.687 323.483 423.533 323.483 423.274C323.483 422.56 321.173 423.232 321.173 421.741C321.173 421.034 321.81 420.572 322.818 420.572C323.315 420.572 323.882 420.691 324.218 420.894L323.882 421.559C323.525 421.349 323.168 421.279 322.811 421.279C322.279 421.279 322.027 421.454 322.027 421.699C322.027 422.455 324.337 421.783 324.337 423.246C324.337 423.946 323.693 424.401 322.643 424.401Z" fill="white"/>
<path d="M297.335 430.204C297.86 430.372 298.217 430.785 298.217 431.422C298.217 432.262 297.559 432.752 296.299 432.752H293.863V427.852H296.159C297.335 427.852 297.965 428.349 297.965 429.126C297.965 429.63 297.713 430.001 297.335 430.204ZM296.061 428.566H294.773V429.917H296.061C296.691 429.917 297.048 429.693 297.048 429.245C297.048 428.79 296.691 428.566 296.061 428.566ZM296.243 432.038C296.929 432.038 297.3 431.821 297.3 431.331C297.3 430.841 296.929 430.624 296.243 430.624H294.773V432.038H296.243ZM300.532 428.972C301.61 428.972 302.233 429.483 302.233 430.561V432.752H301.407V432.297C301.197 432.619 300.791 432.801 300.231 432.801C299.377 432.801 298.838 432.332 298.838 431.681C298.838 431.058 299.258 430.568 300.392 430.568H301.358V430.512C301.358 430.001 301.05 429.7 300.427 429.7C300.007 429.7 299.573 429.84 299.293 430.071L298.95 429.434C299.349 429.126 299.93 428.972 300.532 428.972ZM300.413 432.164C300.84 432.164 301.211 431.968 301.358 431.583V431.149H300.455C299.86 431.149 299.699 431.373 299.699 431.646C299.699 431.961 299.965 432.164 300.413 432.164ZM305.477 428.972C306.373 428.972 307.038 429.483 307.038 430.61V432.752H306.163V430.722C306.163 430.057 305.834 429.735 305.274 429.735C304.651 429.735 304.231 430.113 304.231 430.862V432.752H303.356V429.014H304.189V429.497C304.476 429.154 304.931 428.972 305.477 428.972ZM310.969 432.752L309.674 431.149L309.023 431.765V432.752H308.148V427.558H309.023V430.694L310.836 429.014H311.886L310.325 430.582L312.033 432.752H310.969ZM313.005 428.398C312.683 428.398 312.445 428.167 312.445 427.873C312.445 427.579 312.683 427.348 313.005 427.348C313.327 427.348 313.565 427.565 313.565 427.852C313.565 428.16 313.334 428.398 313.005 428.398ZM312.564 432.752V429.014H313.439V432.752H312.564ZM316.709 428.972C317.605 428.972 318.27 429.483 318.27 430.61V432.752H317.395V430.722C317.395 430.057 317.066 429.735 316.506 429.735C315.883 429.735 315.463 430.113 315.463 430.862V432.752H314.588V429.014H315.421V429.497C315.708 429.154 316.163 428.972 316.709 428.972ZM322.291 429.014H323.124V432.185C323.124 433.543 322.417 434.159 321.108 434.159C320.408 434.159 319.715 433.977 319.288 433.627L319.68 432.969C320.009 433.242 320.541 433.417 321.059 433.417C321.885 433.417 322.249 433.039 322.249 432.283V432.087C321.941 432.423 321.5 432.584 320.996 432.584C319.925 432.584 319.106 431.856 319.106 430.771C319.106 429.686 319.925 428.972 320.996 428.972C321.521 428.972 321.983 429.14 322.291 429.511V429.014ZM321.129 431.842C321.787 431.842 322.263 431.408 322.263 430.771C322.263 430.141 321.787 429.714 321.129 429.714C320.464 429.714 319.988 430.141 319.988 430.771C319.988 431.408 320.464 431.842 321.129 431.842Z" fill="white"/>
<path d="M159.73 424.352H158.75L157.749 422.917C157.686 422.924 157.623 422.924 157.56 422.924H156.454V424.352H155.544V419.452H157.56C158.848 419.452 159.646 420.11 159.646 421.195C159.646 421.937 159.268 422.483 158.603 422.742L159.73 424.352ZM158.729 421.195C158.729 420.579 158.316 420.222 157.518 420.222H156.454V422.175H157.518C158.316 422.175 158.729 421.811 158.729 421.195ZM164.094 422.504C164.094 422.574 164.087 422.679 164.08 422.763H161.147C161.252 423.309 161.707 423.659 162.358 423.659C162.778 423.659 163.107 423.526 163.373 423.253L163.842 423.792C163.506 424.191 162.981 424.401 162.337 424.401C161.084 424.401 160.272 423.596 160.272 422.483C160.272 421.37 161.091 420.572 162.204 420.572C163.296 420.572 164.094 421.335 164.094 422.504ZM162.204 421.272C161.637 421.272 161.224 421.636 161.14 422.182H163.261C163.191 421.643 162.778 421.272 162.204 421.272ZM166.26 420.572C167.338 420.572 167.961 421.083 167.961 422.161V424.352H167.135V423.897C166.925 424.219 166.519 424.401 165.959 424.401C165.105 424.401 164.566 423.932 164.566 423.281C164.566 422.658 164.986 422.168 166.12 422.168H167.086V422.112C167.086 421.601 166.778 421.3 166.155 421.3C165.735 421.3 165.301 421.44 165.021 421.671L164.678 421.034C165.077 420.726 165.658 420.572 166.26 420.572ZM166.141 423.764C166.568 423.764 166.939 423.568 167.086 423.183V422.749H166.183C165.588 422.749 165.427 422.973 165.427 423.246C165.427 423.561 165.693 423.764 166.141 423.764ZM169.084 424.352V419.158H169.959V424.352H169.084ZM174.12 424.352V420.222H172.496V419.452H176.654V420.222H175.03V424.352H174.12ZM177.605 419.998C177.283 419.998 177.045 419.767 177.045 419.473C177.045 419.179 177.283 418.948 177.605 418.948C177.927 418.948 178.165 419.165 178.165 419.452C178.165 419.76 177.934 419.998 177.605 419.998ZM177.164 424.352V420.614H178.039V424.352H177.164ZM183.906 420.572C184.809 420.572 185.439 421.083 185.439 422.21V424.352H184.564V422.322C184.564 421.657 184.256 421.335 183.724 421.335C183.15 421.335 182.751 421.713 182.751 422.455V424.352H181.876V422.322C181.876 421.657 181.568 421.335 181.036 421.335C180.455 421.335 180.063 421.713 180.063 422.455V424.352H179.188V420.614H180.021V421.09C180.301 420.754 180.735 420.572 181.246 420.572C181.792 420.572 182.247 420.775 182.506 421.195C182.807 420.81 183.311 420.572 183.906 420.572ZM190.105 422.504C190.105 422.574 190.098 422.679 190.091 422.763H187.158C187.263 423.309 187.718 423.659 188.369 423.659C188.789 423.659 189.118 423.526 189.384 423.253L189.853 423.792C189.517 424.191 188.992 424.401 188.348 424.401C187.095 424.401 186.283 423.596 186.283 422.483C186.283 421.37 187.102 420.572 188.215 420.572C189.307 420.572 190.105 421.335 190.105 422.504ZM188.215 421.272C187.648 421.272 187.235 421.636 187.151 422.182H189.272C189.202 421.643 188.789 421.272 188.215 421.272Z" fill="white"/>
<path d="M157.14 427.852C158.428 427.852 159.226 428.51 159.226 429.595C159.226 430.673 158.428 431.338 157.14 431.338H156.034V432.752H155.124V427.852H157.14ZM157.098 430.568C157.896 430.568 158.309 430.211 158.309 429.595C158.309 428.979 157.896 428.622 157.098 428.622H156.034V430.568H157.098ZM161.445 428.972C162.523 428.972 163.146 429.483 163.146 430.561V432.752H162.32V432.297C162.11 432.619 161.704 432.801 161.144 432.801C160.29 432.801 159.751 432.332 159.751 431.681C159.751 431.058 160.171 430.568 161.305 430.568H162.271V430.512C162.271 430.001 161.963 429.7 161.34 429.7C160.92 429.7 160.486 429.84 160.206 430.071L159.863 429.434C160.262 429.126 160.843 428.972 161.445 428.972ZM161.326 432.164C161.753 432.164 162.124 431.968 162.271 431.583V431.149H161.368C160.773 431.149 160.612 431.373 160.612 431.646C160.612 431.961 160.878 432.164 161.326 432.164ZM166.86 429.014H167.7L165.95 433.053C165.607 433.9 165.131 434.159 164.508 434.159C164.137 434.159 163.745 434.033 163.507 433.816L163.857 433.172C164.025 433.333 164.263 433.431 164.501 433.431C164.809 433.431 164.991 433.284 165.159 432.913L165.222 432.766L163.591 429.014H164.501L165.677 431.779L166.86 429.014ZM172.965 428.972C173.868 428.972 174.498 429.483 174.498 430.61V432.752H173.623V430.722C173.623 430.057 173.315 429.735 172.783 429.735C172.209 429.735 171.81 430.113 171.81 430.855V432.752H170.935V430.722C170.935 430.057 170.627 429.735 170.095 429.735C169.514 429.735 169.122 430.113 169.122 430.855V432.752H168.247V429.014H169.08V429.49C169.36 429.154 169.794 428.972 170.305 428.972C170.851 428.972 171.306 429.175 171.565 429.595C171.866 429.21 172.37 428.972 172.965 428.972ZM179.165 430.904C179.165 430.974 179.158 431.079 179.151 431.163H176.218C176.323 431.709 176.778 432.059 177.429 432.059C177.849 432.059 178.178 431.926 178.444 431.653L178.913 432.192C178.577 432.591 178.052 432.801 177.408 432.801C176.155 432.801 175.343 431.996 175.343 430.883C175.343 429.77 176.162 428.972 177.275 428.972C178.367 428.972 179.165 429.735 179.165 430.904ZM177.275 429.672C176.708 429.672 176.295 430.036 176.211 430.582H178.332C178.262 430.043 177.849 429.672 177.275 429.672ZM182.126 428.972C183.022 428.972 183.687 429.483 183.687 430.61V432.752H182.812V430.722C182.812 430.057 182.483 429.735 181.923 429.735C181.3 429.735 180.88 430.113 180.88 430.862V432.752H180.005V429.014H180.838V429.497C181.125 429.154 181.58 428.972 182.126 428.972ZM186.799 431.926L187.044 432.549C186.834 432.717 186.519 432.801 186.204 432.801C185.385 432.801 184.916 432.367 184.916 431.541V429.742H184.3V429.042H184.916V428.188H185.791V429.042H186.792V429.742H185.791V431.52C185.791 431.884 185.973 432.08 186.309 432.08C186.491 432.08 186.666 432.031 186.799 431.926ZM188.919 432.801C188.296 432.801 187.673 432.619 187.337 432.381L187.673 431.716C188.002 431.933 188.506 432.087 188.975 432.087C189.528 432.087 189.759 431.933 189.759 431.674C189.759 430.96 187.449 431.632 187.449 430.141C187.449 429.434 188.086 428.972 189.094 428.972C189.591 428.972 190.158 429.091 190.494 429.294L190.158 429.959C189.801 429.749 189.444 429.679 189.087 429.679C188.555 429.679 188.303 429.854 188.303 430.099C188.303 430.855 190.613 430.183 190.613 431.646C190.613 432.346 189.969 432.801 188.919 432.801Z" fill="white"/>
<path d="M59.7113 332.343C60.2363 332.511 60.5933 332.924 60.5933 333.561C60.5933 334.401 59.9353 334.891 58.6753 334.891H56.2393V329.991H58.5353C59.7113 329.991 60.3413 330.488 60.3413 331.265C60.3413 331.769 60.0893 332.14 59.7113 332.343ZM58.4373 330.705H57.1493V332.056H58.4373C59.0673 332.056 59.4243 331.832 59.4243 331.384C59.4243 330.929 59.0673 330.705 58.4373 330.705ZM58.6193 334.177C59.3053 334.177 59.6763 333.96 59.6763 333.47C59.6763 332.98 59.3053 332.763 58.6193 332.763H57.1493V334.177H58.6193ZM61.9215 330.537C61.5995 330.537 61.3615 330.306 61.3615 330.012C61.3615 329.718 61.5995 329.487 61.9215 329.487C62.2435 329.487 62.4815 329.704 62.4815 329.991C62.4815 330.299 62.2505 330.537 61.9215 330.537ZM61.4805 334.891V331.153H62.3555V334.891H61.4805ZM63.5039 334.891V329.697H64.3789V334.891H63.5039ZM65.5274 334.891V329.697H66.4024V334.891H65.5274ZM67.3618 333.309V332.581H69.2868V333.309H67.3618ZM72.3442 329.991C73.6322 329.991 74.4302 330.649 74.4302 331.734C74.4302 332.812 73.6322 333.477 72.3442 333.477H71.2382V334.891H70.3282V329.991H72.3442ZM72.3022 332.707C73.1002 332.707 73.5132 332.35 73.5132 331.734C73.5132 331.118 73.1002 330.761 72.3022 330.761H71.2382V332.707H72.3022ZM76.6487 331.111C77.7267 331.111 78.3497 331.622 78.3497 332.7V334.891H77.5237V334.436C77.3137 334.758 76.9077 334.94 76.3477 334.94C75.4937 334.94 74.9547 334.471 74.9547 333.82C74.9547 333.197 75.3747 332.707 76.5087 332.707H77.4747V332.651C77.4747 332.14 77.1667 331.839 76.5437 331.839C76.1237 331.839 75.6897 331.979 75.4097 332.21L75.0667 331.573C75.4657 331.265 76.0467 331.111 76.6487 331.111ZM76.5297 334.303C76.9567 334.303 77.3277 334.107 77.4747 333.722V333.288H76.5717C75.9767 333.288 75.8157 333.512 75.8157 333.785C75.8157 334.1 76.0817 334.303 76.5297 334.303ZM82.0643 331.153H82.9043L81.1543 335.192C80.8113 336.039 80.3353 336.298 79.7123 336.298C79.3413 336.298 78.9493 336.172 78.7113 335.955L79.0613 335.311C79.2293 335.472 79.4673 335.57 79.7053 335.57C80.0133 335.57 80.1953 335.423 80.3633 335.052L80.4263 334.905L78.7953 331.153H79.7053L80.8813 333.918L82.0643 331.153ZM84.6018 335.591L86.9118 328.997H87.6958L85.3858 335.591H84.6018Z" fill="white"/>
<path d="M58.4954 343.291H57.5154L56.5144 341.856C56.4514 341.863 56.3884 341.863 56.3254 341.863H55.2194V343.291H54.3094V338.391H56.3254C57.6134 338.391 58.4114 339.049 58.4114 340.134C58.4114 340.876 58.0334 341.422 57.3684 341.681L58.4954 343.291ZM57.4944 340.134C57.4944 339.518 57.0814 339.161 56.2834 339.161H55.2194V341.114H56.2834C57.0814 341.114 57.4944 340.75 57.4944 340.134ZM62.8595 341.443C62.8595 341.513 62.8525 341.618 62.8455 341.702H59.9125C60.0175 342.248 60.4725 342.598 61.1235 342.598C61.5435 342.598 61.8725 342.465 62.1385 342.192L62.6075 342.731C62.2715 343.13 61.7465 343.34 61.1025 343.34C59.8495 343.34 59.0375 342.535 59.0375 341.422C59.0375 340.309 59.8565 339.511 60.9695 339.511C62.0615 339.511 62.8595 340.274 62.8595 341.443ZM60.9695 340.211C60.4025 340.211 59.9895 340.575 59.9055 341.121H62.0265C61.9565 340.582 61.5435 340.211 60.9695 340.211ZM65.415 343.34C64.232 343.34 63.392 342.542 63.392 341.422C63.392 340.302 64.232 339.511 65.415 339.511C66.143 339.511 66.724 339.812 67.011 340.379L66.339 340.771C66.115 340.414 65.779 340.253 65.408 340.253C64.764 340.253 64.274 340.701 64.274 341.422C64.274 342.15 64.764 342.591 65.408 342.591C65.779 342.591 66.115 342.43 66.339 342.073L67.011 342.465C66.724 343.025 66.143 343.34 65.415 343.34ZM70.5114 339.553H71.3864V343.291H70.5534V342.815C70.2734 343.158 69.8324 343.34 69.3494 343.34C68.3904 343.34 67.7394 342.815 67.7394 341.688V339.553H68.6144V341.569C68.6144 342.248 68.9364 342.57 69.4894 342.57C70.0984 342.57 70.5114 342.192 70.5114 341.443V339.553ZM73.365 340.099C73.617 339.707 74.072 339.511 74.695 339.511V340.344C74.618 340.33 74.555 340.323 74.492 340.323C73.827 340.323 73.407 340.715 73.407 341.478V343.291H72.532V339.553H73.365V340.099ZM76.2703 340.099C76.5223 339.707 76.9773 339.511 77.6003 339.511V340.344C77.5233 340.33 77.4603 340.323 77.3973 340.323C76.7323 340.323 76.3123 340.715 76.3123 341.478V343.291H75.4373V339.553H76.2703V340.099ZM78.7836 338.937C78.4616 338.937 78.2236 338.706 78.2236 338.412C78.2236 338.118 78.4616 337.887 78.7836 337.887C79.1056 337.887 79.3436 338.104 79.3436 338.391C79.3436 338.699 79.1126 338.937 78.7836 338.937ZM78.3426 343.291V339.553H79.2176V343.291H78.3426ZM82.487 339.511C83.383 339.511 84.048 340.022 84.048 341.149V343.291H83.173V341.261C83.173 340.596 82.844 340.274 82.284 340.274C81.661 340.274 81.241 340.652 81.241 341.401V343.291H80.366V339.553H81.199V340.036C81.486 339.693 81.941 339.511 82.487 339.511ZM88.0692 339.553H88.9022V342.724C88.9022 344.082 88.1952 344.698 86.8862 344.698C86.1862 344.698 85.4932 344.516 85.0662 344.166L85.4582 343.508C85.7872 343.781 86.3192 343.956 86.8372 343.956C87.6632 343.956 88.0272 343.578 88.0272 342.822V342.626C87.7192 342.962 87.2782 343.123 86.7742 343.123C85.7032 343.123 84.8842 342.395 84.8842 341.31C84.8842 340.225 85.7032 339.511 86.7742 339.511C87.2992 339.511 87.7612 339.679 88.0692 340.05V339.553ZM86.9072 342.381C87.5652 342.381 88.0412 341.947 88.0412 341.31C88.0412 340.68 87.5652 340.253 86.9072 340.253C86.2422 340.253 85.7662 340.68 85.7662 341.31C85.7662 341.947 86.2422 342.381 86.9072 342.381Z" fill="white"/>
<path d="M56.0153 346.79C57.3033 346.79 58.1013 347.448 58.1013 348.533C58.1013 349.611 57.3033 350.276 56.0153 350.276H54.9093V351.69H53.9993V346.79H56.0153ZM55.9733 349.506C56.7713 349.506 57.1843 349.149 57.1843 348.533C57.1843 347.917 56.7713 347.56 55.9733 347.56H54.9093V349.506H55.9733ZM60.3199 347.91C61.3979 347.91 62.0209 348.421 62.0209 349.499V351.69H61.1949V351.235C60.9849 351.557 60.5789 351.739 60.0189 351.739C59.1649 351.739 58.6259 351.27 58.6259 350.619C58.6259 349.996 59.0459 349.506 60.1799 349.506H61.1459V349.45C61.1459 348.939 60.8379 348.638 60.2149 348.638C59.7949 348.638 59.3609 348.778 59.0809 349.009L58.7379 348.372C59.1369 348.064 59.7179 347.91 60.3199 347.91ZM60.2009 351.102C60.6279 351.102 60.9989 350.906 61.1459 350.521V350.087H60.2429C59.6479 350.087 59.4869 350.311 59.4869 350.584C59.4869 350.899 59.7529 351.102 60.2009 351.102ZM65.7355 347.952H66.5755L64.8255 351.991C64.4825 352.838 64.0065 353.097 63.3835 353.097C63.0125 353.097 62.6205 352.971 62.3825 352.754L62.7325 352.11C62.9005 352.271 63.1385 352.369 63.3765 352.369C63.6845 352.369 63.8665 352.222 64.0345 351.851L64.0975 351.704L62.4665 347.952H63.3765L64.5525 350.717L65.7355 347.952ZM71.8403 347.91C72.7433 347.91 73.3733 348.421 73.3733 349.548V351.69H72.4983V349.66C72.4983 348.995 72.1903 348.673 71.6583 348.673C71.0843 348.673 70.6853 349.051 70.6853 349.793V351.69H69.8103V349.66C69.8103 348.995 69.5023 348.673 68.9703 348.673C68.3893 348.673 67.9973 349.051 67.9973 349.793V351.69H67.1223V347.952H67.9553V348.428C68.2353 348.092 68.6693 347.91 69.1803 347.91C69.7263 347.91 70.1813 348.113 70.4403 348.533C70.7413 348.148 71.2453 347.91 71.8403 347.91ZM78.0397 349.842C78.0397 349.912 78.0327 350.017 78.0257 350.101H75.0927C75.1977 350.647 75.6527 350.997 76.3037 350.997C76.7237 350.997 77.0527 350.864 77.3187 350.591L77.7877 351.13C77.4517 351.529 76.9267 351.739 76.2827 351.739C75.0297 351.739 74.2177 350.934 74.2177 349.821C74.2177 348.708 75.0367 347.91 76.1497 347.91C77.2417 347.91 78.0397 348.673 78.0397 349.842ZM76.1497 348.61C75.5827 348.61 75.1697 348.974 75.0857 349.52H77.2067C77.1367 348.981 76.7237 348.61 76.1497 348.61ZM81.0012 347.91C81.8972 347.91 82.5622 348.421 82.5622 349.548V351.69H81.6872V349.66C81.6872 348.995 81.3582 348.673 80.7982 348.673C80.1752 348.673 79.7552 349.051 79.7552 349.8V351.69H78.8802V347.952H79.7132V348.435C80.0002 348.092 80.4552 347.91 81.0012 347.91ZM85.6741 350.864L85.9191 351.487C85.7091 351.655 85.3941 351.739 85.0791 351.739C84.2601 351.739 83.7911 351.305 83.7911 350.479V348.68H83.1751V347.98H83.7911V347.126H84.6661V347.98H85.6671V348.68H84.6661V350.458C84.6661 350.822 84.8481 351.018 85.1841 351.018C85.3661 351.018 85.5411 350.969 85.6741 350.864ZM87.7939 351.739C87.1709 351.739 86.5479 351.557 86.2119 351.319L86.5479 350.654C86.8769 350.871 87.3809 351.025 87.8499 351.025C88.4029 351.025 88.6339 350.871 88.6339 350.612C88.6339 349.898 86.3239 350.57 86.3239 349.079C86.3239 348.372 86.9609 347.91 87.9689 347.91C88.4659 347.91 89.0329 348.029 89.3689 348.232L89.0329 348.897C88.6759 348.687 88.3189 348.617 87.9619 348.617C87.4299 348.617 87.1779 348.792 87.1779 349.037C87.1779 349.793 89.4879 349.121 89.4879 350.584C89.4879 351.284 88.8439 351.739 87.7939 351.739Z" fill="white"/>
<path d="M26.0354 206.269C24.5374 206.269 23.4174 205.212 23.4174 203.749C23.4174 202.286 24.5374 201.229 26.0424 201.229C26.8404 201.229 27.5264 201.516 27.9814 202.048L27.3934 202.601C27.0364 202.216 26.5954 202.027 26.0844 202.027C25.0694 202.027 24.3344 202.741 24.3344 203.749C24.3344 204.757 25.0694 205.471 26.0844 205.471C26.5954 205.471 27.0364 205.282 27.3934 204.89L27.9814 205.45C27.5264 205.982 26.8404 206.269 26.0354 206.269ZM30.1631 202.419C31.2411 202.419 31.8641 202.93 31.8641 204.008V206.199H31.0381V205.744C30.8281 206.066 30.4221 206.248 29.8621 206.248C29.0081 206.248 28.4691 205.779 28.4691 205.128C28.4691 204.505 28.8891 204.015 30.0231 204.015H30.9891V203.959C30.9891 203.448 30.6811 203.147 30.0581 203.147C29.6381 203.147 29.2041 203.287 28.9241 203.518L28.5811 202.881C28.9801 202.573 29.5611 202.419 30.1631 202.419ZM30.0441 205.611C30.4711 205.611 30.8421 205.415 30.9891 205.03V204.596H30.0861C29.4911 204.596 29.3301 204.82 29.3301 205.093C29.3301 205.408 29.5961 205.611 30.0441 205.611ZM33.8201 203.007C34.0721 202.615 34.5271 202.419 35.1501 202.419V203.252C35.0731 203.238 35.0101 203.231 34.9471 203.231C34.2821 203.231 33.8621 203.623 33.8621 204.386V206.199H32.9871V202.461H33.8201V203.007ZM38.6442 201.005H39.5192V206.199H38.6792V205.716C38.3852 206.073 37.9512 206.248 37.4402 206.248C36.3552 206.248 35.5502 205.492 35.5502 204.33C35.5502 203.168 36.3552 202.419 37.4402 202.419C37.9232 202.419 38.3502 202.58 38.6442 202.923V201.005ZM37.5452 205.499C38.1752 205.499 38.6582 205.044 38.6582 204.33C38.6582 203.616 38.1752 203.161 37.5452 203.161C36.9152 203.161 36.4322 203.616 36.4322 204.33C36.4322 205.044 36.9152 205.499 37.5452 205.499ZM41.8188 206.248C41.1958 206.248 40.5728 206.066 40.2368 205.828L40.5728 205.163C40.9018 205.38 41.4058 205.534 41.8748 205.534C42.4278 205.534 42.6588 205.38 42.6588 205.121C42.6588 204.407 40.3488 205.079 40.3488 203.588C40.3488 202.881 40.9858 202.419 41.9938 202.419C42.4908 202.419 43.0578 202.538 43.3938 202.741L43.0578 203.406C42.7008 203.196 42.3438 203.126 41.9868 203.126C41.4548 203.126 41.2028 203.301 41.2028 203.546C41.2028 204.302 43.5128 203.63 43.5128 205.093C43.5128 205.793 42.8688 206.248 41.8188 206.248ZM43.4824 206.899L45.7924 200.305H46.5764L44.2664 206.899H43.4824ZM50.73 201.299H51.64L49.505 206.199H48.609L46.467 201.299H47.454L49.085 205.079L50.73 201.299ZM52.5482 201.845C52.2262 201.845 51.9882 201.614 51.9882 201.32C51.9882 201.026 52.2262 200.795 52.5482 200.795C52.8702 200.795 53.1082 201.012 53.1082 201.299C53.1082 201.607 52.8772 201.845 52.5482 201.845ZM52.1072 206.199V202.461H52.9822V206.199H52.1072ZM54.9636 203.007C55.2156 202.615 55.6706 202.419 56.2936 202.419V203.252C56.2166 203.238 56.1536 203.231 56.0906 203.231C55.4256 203.231 55.0056 203.623 55.0056 204.386V206.199H54.1306V202.461H54.9636V203.007ZM59.1746 205.373L59.4196 205.996C59.2096 206.164 58.8946 206.248 58.5796 206.248C57.7606 206.248 57.2916 205.814 57.2916 204.988V203.189H56.6756V202.489H57.2916V201.635H58.1666V202.489H59.1676V203.189H58.1666V204.967C58.1666 205.331 58.3486 205.527 58.6846 205.527C58.8666 205.527 59.0416 205.478 59.1746 205.373ZM62.8834 202.461H63.7584V206.199H62.9254V205.723C62.6454 206.066 62.2044 206.248 61.7214 206.248C60.7624 206.248 60.1114 205.723 60.1114 204.596V202.461H60.9864V204.477C60.9864 205.156 61.3084 205.478 61.8614 205.478C62.4704 205.478 62.8834 205.1 62.8834 204.351V202.461ZM66.3321 202.419C67.4101 202.419 68.0331 202.93 68.0331 204.008V206.199H67.2071V205.744C66.9971 206.066 66.5911 206.248 66.0311 206.248C65.1771 206.248 64.6381 205.779 64.6381 205.128C64.6381 204.505 65.0581 204.015 66.1921 204.015H67.1581V203.959C67.1581 203.448 66.8501 203.147 66.2271 203.147C65.8071 203.147 65.3731 203.287 65.0931 203.518L64.7501 202.881C65.1491 202.573 65.7301 202.419 66.3321 202.419ZM66.2131 205.611C66.6401 205.611 67.0111 205.415 67.1581 205.03V204.596H66.2551C65.6601 204.596 65.4991 204.82 65.4991 205.093C65.4991 205.408 65.7651 205.611 66.2131 205.611ZM69.156 206.199V201.005H70.031V206.199H69.156Z" fill="white"/>
<path d="M39.3655 214.67C37.8675 214.67 36.7475 213.613 36.7475 212.15C36.7475 210.687 37.8675 209.63 39.3725 209.63C40.1705 209.63 40.8565 209.917 41.3115 210.449L40.7235 211.002C40.3665 210.617 39.9255 210.428 39.4145 210.428C38.3995 210.428 37.6645 211.142 37.6645 212.15C37.6645 213.158 38.3995 213.872 39.4145 213.872C39.9255 213.872 40.3665 213.683 40.7235 213.291L41.3115 213.851C40.8565 214.383 40.1705 214.67 39.3655 214.67ZM43.4932 210.82C44.5712 210.82 45.1942 211.331 45.1942 212.409V214.6H44.3682V214.145C44.1582 214.467 43.7522 214.649 43.1922 214.649C42.3382 214.649 41.7992 214.18 41.7992 213.529C41.7992 212.906 42.2192 212.416 43.3532 212.416H44.3192V212.36C44.3192 211.849 44.0112 211.548 43.3882 211.548C42.9682 211.548 42.5342 211.688 42.2542 211.919L41.9112 211.282C42.3102 210.974 42.8912 210.82 43.4932 210.82ZM43.3742 214.012C43.8012 214.012 44.1722 213.816 44.3192 213.431V212.997H43.4162C42.8212 212.997 42.6602 213.221 42.6602 213.494C42.6602 213.809 42.9262 214.012 43.3742 214.012ZM47.1502 211.408C47.4022 211.016 47.8572 210.82 48.4802 210.82V211.653C48.4032 211.639 48.3402 211.632 48.2772 211.632C47.6122 211.632 47.1922 212.024 47.1922 212.787V214.6H46.3172V210.862H47.1502V211.408ZM51.9743 209.406H52.8493V214.6H52.0093V214.117C51.7153 214.474 51.2813 214.649 50.7703 214.649C49.6853 214.649 48.8803 213.893 48.8803 212.731C48.8803 211.569 49.6853 210.82 50.7703 210.82C51.2533 210.82 51.6803 210.981 51.9743 211.324V209.406ZM50.8753 213.9C51.5053 213.9 51.9883 213.445 51.9883 212.731C51.9883 212.017 51.5053 211.562 50.8753 211.562C50.2453 211.562 49.7623 212.017 49.7623 212.731C49.7623 213.445 50.2453 213.9 50.8753 213.9ZM55.1489 214.649C54.5259 214.649 53.9029 214.467 53.5669 214.229L53.9029 213.564C54.2319 213.781 54.7359 213.935 55.2049 213.935C55.7579 213.935 55.9889 213.781 55.9889 213.522C55.9889 212.808 53.6789 213.48 53.6789 211.989C53.6789 211.282 54.3159 210.82 55.3239 210.82C55.8209 210.82 56.3879 210.939 56.7239 211.142L56.3879 211.807C56.0309 211.597 55.6739 211.527 55.3169 211.527C54.7849 211.527 54.5329 211.702 54.5329 211.947C54.5329 212.703 56.8429 212.031 56.8429 213.494C56.8429 214.194 56.1989 214.649 55.1489 214.649Z" fill="white"/>
<path d="M80.3447 90.5993C78.8257 90.5993 77.7057 89.5283 77.7057 88.0793C77.7057 86.6303 78.8257 85.5593 80.3447 85.5593C81.8637 85.5593 82.9837 86.6233 82.9837 88.0793C82.9837 89.5353 81.8637 90.5993 80.3447 90.5993ZM80.3447 89.8013C81.3317 89.8013 82.0667 89.0803 82.0667 88.0793C82.0667 87.0783 81.3317 86.3573 80.3447 86.3573C79.3577 86.3573 78.6227 87.0783 78.6227 88.0793C78.6227 89.0803 79.3577 89.8013 80.3447 89.8013ZM85.9853 86.7493C86.8813 86.7493 87.5463 87.2603 87.5463 88.3873V90.5293H86.6713V88.4993C86.6713 87.8343 86.3423 87.5123 85.7823 87.5123C85.1593 87.5123 84.7393 87.8903 84.7393 88.6393V90.5293H83.8643V86.7913H84.6973V87.2743C84.9843 86.9313 85.4393 86.7493 85.9853 86.7493ZM88.6563 90.5293V85.3353H89.5313V90.5293H88.6563ZM91.1207 86.1753C90.7987 86.1753 90.5607 85.9443 90.5607 85.6503C90.5607 85.3563 90.7987 85.1253 91.1207 85.1253C91.4427 85.1253 91.6807 85.3423 91.6807 85.6293C91.6807 85.9373 91.4497 86.1753 91.1207 86.1753ZM90.6797 90.5293V86.7913H91.5547V90.5293H90.6797ZM94.8242 86.7493C95.7202 86.7493 96.3852 87.2603 96.3852 88.3873V90.5293H95.5102V88.4993C95.5102 87.8343 95.1812 87.5123 94.6212 87.5123C93.9982 87.5123 93.5782 87.8903 93.5782 88.6393V90.5293H92.7032V86.7913H93.5362V87.2743C93.8232 86.9313 94.2782 86.7493 94.8242 86.7493ZM101.043 88.6813C101.043 88.7513 101.036 88.8563 101.029 88.9403H98.0963C98.2013 89.4863 98.6563 89.8363 99.3073 89.8363C99.7273 89.8363 100.056 89.7033 100.322 89.4303L100.791 89.9693C100.455 90.3683 99.9303 90.5783 99.2863 90.5783C98.0333 90.5783 97.2213 89.7733 97.2213 88.6603C97.2213 87.5473 98.0403 86.7493 99.1533 86.7493C100.245 86.7493 101.043 87.5123 101.043 88.6813ZM99.1533 87.4493C98.5863 87.4493 98.1733 87.8133 98.0893 88.3593H100.21C100.14 87.8203 99.7273 87.4493 99.1533 87.4493ZM101.1 91.2293L103.41 84.6353H104.194L101.884 91.2293H101.1ZM109.93 88.6813C109.93 88.7513 109.923 88.8563 109.916 88.9403H106.983C107.088 89.4863 107.543 89.8363 108.194 89.8363C108.614 89.8363 108.943 89.7033 109.209 89.4303L109.678 89.9693C109.342 90.3683 108.817 90.5783 108.173 90.5783C106.92 90.5783 106.108 89.7733 106.108 88.6603C106.108 87.5473 106.927 86.7493 108.04 86.7493C109.132 86.7493 109.93 87.5123 109.93 88.6813ZM108.04 87.4493C107.473 87.4493 107.06 87.8133 106.976 88.3593H109.097C109.027 87.8203 108.614 87.4493 108.04 87.4493ZM113.123 90.5993C111.625 90.5993 110.505 89.5423 110.505 88.0793C110.505 86.6163 111.625 85.5593 113.13 85.5593C113.928 85.5593 114.614 85.8463 115.069 86.3783L114.481 86.9313C114.124 86.5463 113.683 86.3573 113.172 86.3573C112.157 86.3573 111.422 87.0713 111.422 88.0793C111.422 89.0873 112.157 89.8013 113.172 89.8013C113.683 89.8013 114.124 89.6123 114.481 89.2203L115.069 89.7803C114.614 90.3123 113.928 90.5993 113.123 90.5993ZM117.4 90.5783C116.252 90.5783 115.412 89.7803 115.412 88.6603C115.412 87.5403 116.252 86.7493 117.4 86.7493C118.562 86.7493 119.395 87.5403 119.395 88.6603C119.395 89.7803 118.562 90.5783 117.4 90.5783ZM117.4 89.8293C118.037 89.8293 118.513 89.3743 118.513 88.6603C118.513 87.9463 118.037 87.4913 117.4 87.4913C116.77 87.4913 116.294 87.9463 116.294 88.6603C116.294 89.3743 116.77 89.8293 117.4 89.8293ZM124.949 86.7493C125.852 86.7493 126.482 87.2603 126.482 88.3873V90.5293H125.607V88.4993C125.607 87.8343 125.299 87.5123 124.767 87.5123C124.193 87.5123 123.794 87.8903 123.794 88.6323V90.5293H122.919V88.4993C122.919 87.8343 122.611 87.5123 122.079 87.5123C121.498 87.5123 121.106 87.8903 121.106 88.6323V90.5293H120.231V86.7913H121.064V87.2673C121.344 86.9313 121.778 86.7493 122.289 86.7493C122.835 86.7493 123.29 86.9523 123.549 87.3723C123.85 86.9873 124.354 86.7493 124.949 86.7493ZM132.319 86.7493C133.222 86.7493 133.852 87.2603 133.852 88.3873V90.5293H132.977V88.4993C132.977 87.8343 132.669 87.5123 132.137 87.5123C131.563 87.5123 131.164 87.8903 131.164 88.6323V90.5293H130.289V88.4993C130.289 87.8343 129.981 87.5123 129.449 87.5123C128.868 87.5123 128.476 87.8903 128.476 88.6323V90.5293H127.601V86.7913H128.434V87.2673C128.714 86.9313 129.148 86.7493 129.659 86.7493C130.205 86.7493 130.66 86.9523 130.919 87.3723C131.22 86.9873 131.724 86.7493 132.319 86.7493ZM138.518 88.6813C138.518 88.7513 138.511 88.8563 138.504 88.9403H135.571C135.676 89.4863 136.131 89.8363 136.782 89.8363C137.202 89.8363 137.531 89.7033 137.797 89.4303L138.266 89.9693C137.93 90.3683 137.405 90.5783 136.761 90.5783C135.508 90.5783 134.696 89.7733 134.696 88.6603C134.696 87.5473 135.515 86.7493 136.628 86.7493C137.72 86.7493 138.518 87.5123 138.518 88.6813ZM136.628 87.4493C136.061 87.4493 135.648 87.8133 135.564 88.3593H137.685C137.615 87.8203 137.202 87.4493 136.628 87.4493ZM140.191 87.3373C140.443 86.9453 140.898 86.7493 141.521 86.7493V87.5823C141.444 87.5683 141.381 87.5613 141.318 87.5613C140.653 87.5613 140.233 87.9533 140.233 88.7163V90.5293H139.358V86.7913H140.191V87.3373ZM143.945 90.5783C142.762 90.5783 141.922 89.7803 141.922 88.6603C141.922 87.5403 142.762 86.7493 143.945 86.7493C144.673 86.7493 145.254 87.0503 145.541 87.6173L144.869 88.0093C144.645 87.6523 144.309 87.4913 143.938 87.4913C143.294 87.4913 142.804 87.9393 142.804 88.6603C142.804 89.3883 143.294 89.8293 143.938 89.8293C144.309 89.8293 144.645 89.6683 144.869 89.3113L145.541 89.7033C145.254 90.2633 144.673 90.5783 143.945 90.5783ZM149.756 88.6813C149.756 88.7513 149.749 88.8563 149.742 88.9403H146.809C146.914 89.4863 147.369 89.8363 148.02 89.8363C148.44 89.8363 148.769 89.7033 149.035 89.4303L149.504 89.9693C149.168 90.3683 148.643 90.5783 147.999 90.5783C146.746 90.5783 145.934 89.7733 145.934 88.6603C145.934 87.5473 146.753 86.7493 147.866 86.7493C148.958 86.7493 149.756 87.5123 149.756 88.6813ZM147.866 87.4493C147.299 87.4493 146.886 87.8133 146.802 88.3593H148.923C148.853 87.8203 148.44 87.4493 147.866 87.4493Z" fill="white"/>
<path d="M98.2516 94.0297C99.5396 94.0297 100.338 94.6877 100.338 95.7727C100.338 96.8507 99.5396 97.5157 98.2516 97.5157H97.1456V98.9297H96.2356V94.0297H98.2516ZM98.2096 96.7457C99.0076 96.7457 99.4206 96.3887 99.4206 95.7727C99.4206 95.1567 99.0076 94.7997 98.2096 94.7997H97.1456V96.7457H98.2096ZM102.556 95.1497C103.634 95.1497 104.257 95.6607 104.257 96.7387V98.9297H103.431V98.4747C103.221 98.7967 102.815 98.9787 102.255 98.9787C101.401 98.9787 100.862 98.5097 100.862 97.8587C100.862 97.2357 101.282 96.7457 102.416 96.7457H103.382V96.6897C103.382 96.1787 103.074 95.8777 102.451 95.8777C102.031 95.8777 101.597 96.0177 101.317 96.2487L100.974 95.6117C101.373 95.3037 101.954 95.1497 102.556 95.1497ZM102.437 98.3417C102.864 98.3417 103.235 98.1457 103.382 97.7607V97.3267H102.479C101.884 97.3267 101.723 97.5507 101.723 97.8237C101.723 98.1387 101.989 98.3417 102.437 98.3417ZM107.972 95.1917H108.812L107.062 99.2307C106.719 100.078 106.243 100.337 105.62 100.337C105.249 100.337 104.857 100.211 104.619 99.9937L104.969 99.3497C105.137 99.5107 105.375 99.6087 105.613 99.6087C105.921 99.6087 106.103 99.4617 106.271 99.0907L106.334 98.9437L104.703 95.1917H105.613L106.789 97.9567L107.972 95.1917ZM114.077 95.1497C114.98 95.1497 115.61 95.6607 115.61 96.7877V98.9297H114.735V96.8997C114.735 96.2347 114.427 95.9127 113.895 95.9127C113.321 95.9127 112.922 96.2907 112.922 97.0327V98.9297H112.047V96.8997C112.047 96.2347 111.739 95.9127 111.207 95.9127C110.626 95.9127 110.234 96.2907 110.234 97.0327V98.9297H109.359V95.1917H110.192V95.6677C110.472 95.3317 110.906 95.1497 111.417 95.1497C111.963 95.1497 112.418 95.3527 112.677 95.7727C112.978 95.3877 113.482 95.1497 114.077 95.1497ZM120.276 97.0817C120.276 97.1517 120.269 97.2567 120.262 97.3407H117.329C117.434 97.8867 117.889 98.2367 118.54 98.2367C118.96 98.2367 119.289 98.1037 119.555 97.8307L120.024 98.3697C119.688 98.7687 119.163 98.9787 118.519 98.9787C117.266 98.9787 116.454 98.1737 116.454 97.0607C116.454 95.9477 117.273 95.1497 118.386 95.1497C119.478 95.1497 120.276 95.9127 120.276 97.0817ZM118.386 95.8497C117.819 95.8497 117.406 96.2137 117.322 96.7597H119.443C119.373 96.2207 118.96 95.8497 118.386 95.8497ZM123.237 95.1497C124.133 95.1497 124.798 95.6607 124.798 96.7877V98.9297H123.923V96.8997C123.923 96.2347 123.594 95.9127 123.034 95.9127C122.411 95.9127 121.991 96.2907 121.991 97.0397V98.9297H121.116V95.1917H121.949V95.6747C122.236 95.3317 122.691 95.1497 123.237 95.1497ZM127.91 98.1037L128.155 98.7267C127.945 98.8947 127.63 98.9787 127.315 98.9787C126.496 98.9787 126.027 98.5447 126.027 97.7187V95.9197H125.411V95.2197H126.027V94.3657H126.902V95.2197H127.903V95.9197H126.902V97.6977C126.902 98.0617 127.084 98.2577 127.42 98.2577C127.602 98.2577 127.777 98.2087 127.91 98.1037ZM130.03 98.9787C129.407 98.9787 128.784 98.7967 128.448 98.5587L128.784 97.8937C129.113 98.1107 129.617 98.2647 130.086 98.2647C130.639 98.2647 130.87 98.1107 130.87 97.8517C130.87 97.1377 128.56 97.8097 128.56 96.3187C128.56 95.6117 129.197 95.1497 130.205 95.1497C130.702 95.1497 131.269 95.2687 131.605 95.4717L131.269 96.1367C130.912 95.9267 130.555 95.8567 130.198 95.8567C129.666 95.8567 129.414 96.0317 129.414 96.2767C129.414 97.0327 131.724 96.3607 131.724 97.8237C131.724 98.5237 131.08 98.9787 130.03 98.9787Z" fill="white"/>
</svg>
