<svg width="622" height="477" viewBox="0 0 622 477" fill="none" xmlns="http://www.w3.org/2000/svg">
<g clip-path="url(#clip0_1655_4302)">
<path d="M559.675 428.023H518.474V428.334H559.675V428.023Z" fill="#EBEBEB"/>
<path d="M412.038 431.412H401.228V431.723H412.038V431.412Z" fill="#EBEBEB"/>
<path d="M517.23 416.461H493.358V416.772H517.23V416.461Z" fill="#EBEBEB"/>
<path d="M118.989 418.554H65.2603V418.865H118.989V418.554Z" fill="#EBEBEB"/>
<path d="M137.947 418.554H130.073V418.865H137.947V418.554Z" fill="#EBEBEB"/>
<path d="M280.087 423.812H163.549V424.123H280.087V423.812Z" fill="#EBEBEB"/>
<path d="M294.84 352.408H54.6364C50.7178 352.408 47.5332 349.219 47.5332 345.294V7.1142C47.5332 3.18955 50.7178 0 54.6364 0H294.853C298.771 0 301.956 3.18955 301.956 7.1142V345.294C301.956 349.219 298.771 352.408 294.853 352.408H294.84ZM54.6364 0.31148C50.892 0.31148 47.8442 3.36398 47.8442 7.1142V345.294C47.8442 349.044 50.892 352.097 54.6364 352.097H294.853C298.597 352.097 301.645 349.044 301.645 345.294V7.1142C301.645 3.36398 298.597 0.31148 294.853 0.31148H54.6364Z" fill="#EBEBEB"/>
<path d="M563.918 352.408H323.701C319.783 352.408 316.598 349.219 316.598 345.294V7.1142C316.598 3.18955 319.783 0 323.701 0H563.918C567.836 0 571.021 3.18955 571.021 7.1142V345.294C571.021 349.219 567.836 352.408 563.918 352.408ZM323.701 0.31148C319.957 0.31148 316.909 3.36398 316.909 7.1142V345.294C316.909 349.044 319.957 352.097 323.701 352.097H563.918C567.662 352.097 570.71 349.044 570.71 345.294V7.1142C570.71 3.36398 567.662 0.31148 563.918 0.31148H323.701Z" fill="#EBEBEB"/>
<path d="M622 407.976H0V408.288H622V407.976Z" fill="#EBEBEB"/>
<path d="M223.746 175.176H276.927V109.616H223.746V175.176Z" fill="#F5F5F5"/>
<path d="M231.334 165.807H269.326V118.973H231.334V165.807Z" fill="#EBEBEB"/>
<path d="M164.37 175.637H217.526V137.823H164.37V175.637Z" fill="#F5F5F5"/>
<path d="M168.425 171.712H213.483V141.748H168.425V171.712Z" fill="#FAFAFA"/>
<path d="M227.13 180.434H181.126V213.164H227.13V180.434Z" fill="#F5F5F5"/>
<path d="M218.77 187.062H189.486V206.536H218.77V187.062Z" fill="#FAFAFA"/>
<path d="M95.9994 121.651H91.0234V408.25H95.9994V121.651Z" fill="#F5F5F5"/>
<path d="M75.8589 87.5629C76.2073 84.4606 73.968 81.6573 70.858 81.1838C67.748 80.7104 64.7625 82.7163 64.1778 85.7813C60.0975 107.224 56.0047 128.678 51.9244 150.133C51.3397 153.21 54.6487 156.437 59.3386 157.147C64.0285 157.858 68.1337 155.765 68.482 152.65C70.9451 130.958 73.3958 109.254 75.8589 87.5629Z" fill="#F5F5F5"/>
<path d="M87.6149 88.4601C87.7269 85.3329 85.2886 82.7164 82.1538 82.4797C79.0189 82.243 76.2074 84.4607 75.8591 87.5755C73.396 109.267 70.9453 130.971 68.4822 152.662C68.1339 155.765 71.6668 158.742 76.3816 159.091C81.0964 159.453 85.0274 157.048 85.1518 153.921C85.9728 132.105 86.7939 110.276 87.6149 88.4601Z" fill="#FAFAFA"/>
<path d="M99.3954 88.4599C99.2835 85.3326 96.6462 82.9155 93.5113 82.9155C90.3764 82.9155 87.7392 85.3451 87.6272 88.4599C86.8062 110.276 85.9851 132.104 85.1641 153.92C85.0521 157.048 88.7841 159.739 93.5113 159.739C98.2385 159.739 101.983 157.048 101.859 153.92C101.038 132.104 100.216 110.276 99.3954 88.4599Z" fill="#F5F5F5"/>
<path d="M111.151 87.5631C110.803 84.4607 107.979 82.243 104.856 82.4673C101.722 82.704 99.2833 85.3204 99.3953 88.4477C100.216 110.264 101.037 132.092 101.858 153.908C101.97 157.035 105.901 159.44 110.629 159.079C115.343 158.717 118.876 155.752 118.528 152.65C116.065 130.958 113.614 109.255 111.151 87.5631Z" fill="#FAFAFA"/>
<path d="M122.833 85.7938C122.248 82.7164 119.262 80.7229 116.152 81.1964C113.042 81.6698 110.803 84.4607 111.151 87.5755C113.615 109.267 116.065 130.971 118.528 152.662C118.877 155.765 122.982 157.87 127.672 157.16C132.362 156.45 135.671 153.223 135.086 150.146C131.006 128.691 126.913 107.249 122.833 85.7938Z" fill="#F5F5F5"/>
<path d="M130.048 408.561C130.184 404.724 127.796 400.774 122.845 400.774H64.1654C59.2267 400.774 56.8382 404.724 56.9626 408.561H130.035H130.048Z" fill="#EBEBEB"/>
<path d="M505.313 337.021C504.628 335.725 505.673 334.23 504.989 333.034C504.305 331.838 502.489 332 501.705 330.754C500.648 329.06 502.165 327.502 501.207 325.845C500.623 324.836 498.993 325.397 498.272 324.4C497.488 323.316 498.682 321.908 497.898 320.899C497.115 319.89 495.896 320.326 495.05 319.292C493.893 317.871 495.211 314.731 495.211 314.731C495.211 314.731 498.558 313.897 499.789 315.404C500.685 316.501 500.001 317.61 500.797 318.656C501.605 319.703 503.31 318.968 504.143 320.126C504.915 321.198 503.857 322.568 504.616 323.515C505.86 325.085 507.913 324.338 509.057 326.169C509.903 327.515 508.92 329.097 509.654 330.355C510.376 331.614 512.229 331.564 512.976 332.972C513.635 334.205 512.864 335.576 513.423 336.734C513.983 337.893 515.538 338.117 516.111 339.401C516.733 340.796 515.675 342.192 516.198 343.487C516.733 344.783 518.462 345.032 518.997 346.465C519.569 348.022 518.238 349.38 518.648 350.838C518.984 352.009 520.502 352.346 520.875 353.617C521.572 355.984 520.377 358.364 518.312 358.887C516.247 359.41 514.12 358.027 513.461 355.822C513.112 354.638 514.182 353.542 513.772 352.458C513.262 351.1 511.396 350.925 510.861 349.493C510.376 348.172 511.495 346.864 510.998 345.63C510.5 344.397 508.771 344.26 508.199 342.976C507.664 341.793 508.497 340.51 507.962 339.413C507.427 338.317 505.91 338.192 505.3 337.046L505.313 337.021Z" fill="#F0F0F0"/>
<path d="M513.05 348.733C513.822 349.044 514.593 349.368 515.377 349.692C514.543 347.3 513.623 344.945 512.615 342.628C512.615 342.615 512.603 342.59 512.59 342.578C511.682 340.497 510.724 338.441 509.692 336.423C508.771 336.174 507.85 335.924 506.93 335.7C506.706 335.65 506.805 335.302 507.029 335.351C507.838 335.551 508.647 335.763 509.455 335.974C508.46 334.056 507.403 332.162 506.295 330.293C506.295 330.28 506.271 330.268 506.271 330.243C505.014 328.137 503.671 326.069 502.265 324.038C502.252 324.026 502.24 324.014 502.24 323.989C501.618 323.092 500.971 322.207 500.324 321.322C499.205 319.815 498.048 318.332 496.841 316.887C496.692 316.7 496.965 316.476 497.115 316.663C498.943 318.868 500.673 321.135 502.315 323.478C502.489 322.655 502.663 321.821 502.825 320.986C502.874 320.749 503.235 320.824 503.185 321.061C502.999 322.008 502.812 322.954 502.601 323.889C503.932 325.795 505.188 327.751 506.383 329.732C506.619 328.922 506.843 328.113 507.067 327.29C507.129 327.066 507.477 327.153 507.427 327.39C507.179 328.324 506.917 329.246 506.644 330.168C507.813 332.124 508.908 334.118 509.953 336.149C509.953 336.161 509.978 336.174 509.978 336.199C510.973 338.13 511.893 340.098 512.764 342.092C513.1 341.319 513.436 340.547 513.759 339.749C513.847 339.538 514.182 339.675 514.095 339.886C513.722 340.784 513.349 341.668 512.963 342.54C514.008 344.957 514.966 347.424 515.824 349.916C515.824 349.929 515.837 349.954 515.837 349.966C515.912 350.178 515.986 350.39 516.048 350.589C516.658 352.371 517.205 354.177 517.728 355.996C517.79 356.233 517.454 356.32 517.392 356.096C516.832 354.09 516.21 352.109 515.526 350.14C514.655 349.754 513.772 349.393 512.901 349.044C512.69 348.957 512.839 348.633 513.05 348.72V348.733Z" fill="white"/>
<path d="M509.181 318.818C508.422 316.488 510.587 314.333 509.803 312.152C509.02 309.972 505.972 309.71 505.051 307.43C503.807 304.341 506.756 302.21 505.648 299.182C504.977 297.351 502.128 297.787 501.232 295.943C500.249 293.937 502.625 291.956 501.643 290.062C500.647 288.169 498.508 288.542 497.413 286.574C495.908 283.895 499.005 279.098 499.005 279.098C499.005 279.098 504.778 278.7 506.37 281.54C507.539 283.621 506.071 285.241 507.091 287.209C508.111 289.165 511.134 288.455 512.179 290.598C513.15 292.579 511.01 294.535 511.968 296.317C513.56 299.257 517.168 298.634 518.524 301.986C519.519 304.453 517.454 306.77 518.287 309.063C519.121 311.355 522.181 311.804 523.002 314.333C523.724 316.563 522.069 318.594 522.666 320.662C523.263 322.73 525.751 323.565 526.324 325.845C526.958 328.325 524.794 330.318 525.291 332.61C525.789 334.903 528.588 335.812 529.048 338.342C529.546 341.07 526.946 342.914 527.207 345.443C527.418 347.462 529.819 348.459 530.068 350.676C530.541 354.788 527.879 358.351 524.308 358.613C520.738 358.874 517.641 355.959 517.205 352.146C516.969 350.091 519.046 348.596 518.698 346.689C518.25 344.31 515.227 343.475 514.767 340.958C514.344 338.628 516.583 336.797 516.11 334.629C515.638 332.461 512.839 331.726 512.266 329.433C511.732 327.34 513.473 325.446 512.913 323.503C512.354 321.547 509.878 320.886 509.206 318.831L509.181 318.818Z" fill="#F5F5F5"/>
<path d="M518.549 340.385C519.731 341.12 520.925 341.88 522.094 342.652C521.41 338.479 520.577 334.33 519.594 330.218C519.594 330.193 519.581 330.156 519.569 330.131C518.686 326.431 517.678 322.768 516.571 319.129C515.128 318.444 513.685 317.784 512.229 317.148C511.881 316.986 512.142 316.451 512.491 316.613C513.772 317.173 515.041 317.759 516.322 318.357C515.24 314.893 514.058 311.467 512.764 308.078C512.752 308.053 512.739 308.028 512.727 307.991C511.259 304.141 509.654 300.341 507.925 296.603C507.913 296.578 507.9 296.553 507.888 296.516C507.116 294.859 506.32 293.202 505.499 291.57C504.094 288.754 502.601 285.988 501.046 283.247C500.847 282.898 501.357 282.599 501.556 282.948C503.932 287.109 506.134 291.37 508.149 295.694C508.684 294.386 509.206 293.065 509.704 291.732C509.841 291.37 510.413 291.582 510.276 291.956C509.704 293.464 509.107 294.959 508.497 296.441C510.127 299.967 511.645 303.555 513.038 307.181C513.66 305.91 514.269 304.639 514.867 303.344C515.028 302.982 515.588 303.244 515.426 303.605C514.742 305.075 514.046 306.521 513.336 307.954C514.692 311.517 515.936 315.13 517.056 318.768C517.069 318.793 517.081 318.818 517.081 318.855C518.151 322.331 519.121 325.845 519.979 329.383C520.763 328.212 521.534 327.016 522.293 325.82C522.505 325.484 523.027 325.82 522.816 326.156C521.957 327.527 521.074 328.873 520.178 330.193C521.199 334.492 522.057 338.827 522.766 343.201C522.766 343.226 522.778 343.263 522.778 343.288C522.841 343.649 522.89 344.023 522.953 344.384C523.438 347.499 523.836 350.639 524.147 353.778C524.184 354.177 523.599 354.239 523.562 353.841C523.214 350.377 522.766 346.913 522.219 343.487C520.888 342.603 519.544 341.743 518.201 340.908C517.877 340.709 518.201 340.198 518.536 340.41L518.549 340.385Z" fill="white"/>
<path d="M537.781 316.65C538.117 314.221 535.616 312.476 536.014 310.196C536.413 307.916 539.361 307.131 539.871 304.727C540.568 301.463 537.283 299.88 537.856 296.716C538.204 294.797 541.078 294.735 541.65 292.754C542.272 290.611 539.585 289.066 540.232 287.035C540.878 285.004 543.056 284.992 543.802 282.873C544.822 279.97 540.953 275.784 540.953 275.784C540.953 275.784 535.206 276.382 534.124 279.46C533.327 281.715 535.057 283.06 534.385 285.166C533.713 287.272 530.616 287.097 529.956 289.39C529.347 291.508 531.797 293.065 531.15 294.984C530.093 298.161 526.423 298.161 525.677 301.699C525.117 304.303 527.555 306.234 527.132 308.627C526.709 311.019 523.773 312.003 523.4 314.632C523.077 316.962 525.055 318.669 524.831 320.812C524.607 322.955 522.293 324.201 522.119 326.543C521.932 329.097 524.396 330.692 524.308 333.034C524.209 335.376 521.621 336.759 521.609 339.326C521.596 342.104 524.47 343.475 524.644 346.004C524.794 348.035 522.592 349.43 522.729 351.648C522.977 355.772 526.212 358.825 529.77 358.463C533.327 358.102 535.878 354.701 535.654 350.863C535.529 348.795 533.215 347.686 533.24 345.743C533.265 343.325 536.102 341.98 536.126 339.413C536.139 337.046 533.614 335.638 533.713 333.408C533.8 331.19 536.437 329.982 536.612 327.627C536.773 325.471 534.733 323.914 534.945 321.896C535.156 319.877 537.482 318.793 537.781 316.65Z" fill="#F0F0F0"/>
<path d="M532.27 339.501C531.225 340.435 530.192 341.382 529.16 342.341C529.11 338.105 529.222 333.869 529.471 329.658C529.471 329.633 529.471 329.596 529.471 329.571C529.707 325.771 530.056 321.983 530.528 318.22C531.835 317.298 533.141 316.389 534.459 315.517C534.783 315.305 534.422 314.819 534.111 315.031C532.954 315.803 531.797 316.601 530.64 317.41C531.113 313.81 531.685 310.234 532.369 306.671C532.369 306.646 532.382 306.608 532.382 306.583C533.166 302.547 534.086 298.522 535.144 294.535C535.156 294.51 535.168 294.473 535.168 294.448C535.641 292.679 536.139 290.91 536.661 289.153C537.569 286.138 538.552 283.148 539.609 280.182C539.746 279.809 539.187 279.597 539.05 279.983C537.433 284.493 536.002 289.066 534.758 293.676C534.012 292.48 533.265 291.271 532.544 290.05C532.345 289.714 531.81 290.025 532.021 290.374C532.855 291.757 533.688 293.14 534.546 294.486C533.551 298.248 532.68 302.036 531.922 305.848C531.088 304.715 530.267 303.556 529.458 302.385C529.235 302.061 528.725 302.41 528.961 302.734C529.881 304.054 530.827 305.362 531.772 306.658C531.051 310.408 530.454 314.171 529.981 317.959C529.981 317.984 529.969 318.021 529.981 318.046C529.521 321.659 529.185 325.285 528.948 328.91C527.978 327.889 527.008 326.854 526.05 325.795C525.789 325.509 525.328 325.92 525.602 326.207C526.684 327.403 527.792 328.574 528.899 329.733C528.637 334.143 528.538 338.566 528.6 342.989C528.6 343.014 528.6 343.051 528.6 343.076C528.6 343.45 528.6 343.811 528.625 344.185C528.687 347.337 528.836 350.49 529.073 353.654C529.098 354.053 529.695 354.016 529.67 353.604C529.409 350.128 529.259 346.652 529.21 343.176C530.367 342.08 531.536 340.996 532.718 339.937C533.004 339.675 532.593 339.239 532.295 339.501H532.27Z" fill="white"/>
<path d="M549.014 331.763C550.097 330.156 548.927 328.051 549.997 326.58C551.067 325.11 553.43 325.571 554.625 324.051C556.242 321.983 554.475 319.715 555.968 317.672C556.876 316.426 558.941 317.386 560.024 316.177C561.205 314.869 559.837 312.85 560.994 311.629C562.163 310.408 563.693 311.168 564.962 309.923C566.691 308.216 565.398 303.917 565.398 303.917C565.398 303.917 561.118 302.347 559.29 304.154C557.946 305.475 558.705 307.032 557.498 308.29C556.292 309.549 554.164 308.353 552.896 309.748C551.726 311.044 552.92 312.987 551.801 314.121C549.947 316.003 547.36 314.732 545.593 316.974C544.299 318.632 545.357 320.837 544.225 322.382C543.093 323.939 540.679 323.603 539.498 325.347C538.465 326.879 539.274 328.786 538.378 330.219C537.482 331.651 535.405 331.739 534.472 333.333C533.452 335.078 534.658 337.059 533.775 338.691C532.904 340.323 530.578 340.398 529.682 342.204C528.712 344.16 530.28 346.129 529.521 347.985C528.924 349.468 526.883 349.692 526.212 351.312C524.955 354.327 526.199 357.604 528.849 358.588C531.499 359.572 534.484 358.04 535.641 355.237C536.263 353.729 535.019 352.134 535.703 350.776C536.562 349.069 539.037 349.107 539.933 347.288C540.767 345.618 539.46 343.737 540.294 342.192C541.127 340.647 543.404 340.709 544.349 339.102C545.208 337.632 544.299 335.825 545.158 334.467C546.004 333.109 548.031 333.146 548.989 331.739L549.014 331.763Z" fill="#F5F5F5"/>
<path d="M537.209 346.042C536.151 346.341 535.081 346.652 534.024 346.976C535.455 343.961 536.997 340.996 538.639 338.105C538.652 338.093 538.664 338.068 538.676 338.043C540.157 335.439 541.712 332.872 543.354 330.368C544.598 330.169 545.842 329.982 547.073 329.807C547.372 329.77 547.297 329.297 546.986 329.334C545.892 329.483 544.797 329.645 543.702 329.82C545.282 327.44 546.924 325.098 548.641 322.818C548.653 322.805 548.678 322.78 548.678 322.755C550.631 320.164 552.672 317.635 554.799 315.18C554.824 315.168 554.836 315.143 554.848 315.13C555.794 314.034 556.764 312.963 557.735 311.904C559.414 310.084 561.143 308.303 562.922 306.571C563.146 306.347 562.823 306.01 562.599 306.235C559.887 308.876 557.299 311.605 554.824 314.445C554.699 313.336 554.6 312.227 554.513 311.106C554.488 310.795 554.003 310.832 554.027 311.144C554.139 312.414 554.251 313.673 554.401 314.931C552.398 317.249 550.47 319.628 548.616 322.07C548.417 320.974 548.23 319.877 548.069 318.769C548.019 318.457 547.546 318.532 547.584 318.843C547.783 320.102 547.994 321.348 548.218 322.594C546.414 324.998 544.685 327.465 543.043 329.969C543.03 329.982 543.018 330.007 543.006 330.032C541.438 332.436 539.933 334.878 538.515 337.37C538.179 336.311 537.855 335.24 537.544 334.168C537.457 333.869 536.997 334.006 537.084 334.305C537.445 335.526 537.818 336.747 538.204 337.943C536.487 340.971 534.895 344.073 533.402 347.225C533.389 347.25 533.377 347.263 533.377 347.288C533.253 347.549 533.128 347.811 533.004 348.085C531.959 350.34 530.976 352.633 530.043 354.938C529.919 355.237 530.354 355.411 530.479 355.112C531.499 352.558 532.593 350.041 533.763 347.562C534.969 347.188 536.164 346.827 537.37 346.49C537.669 346.403 537.52 345.954 537.221 346.042H537.209Z" fill="white"/>
<path d="M509.268 351.374H541.836C547.546 356.233 551.191 363.459 551.191 371.558C551.191 380.803 542.633 408.562 542.633 408.562H508.472C508.472 408.562 499.914 380.815 499.914 371.558C499.914 363.459 503.546 356.233 509.268 351.374Z" fill="#F0F0F0"/>
<path d="M305.004 459.445C438.214 459.445 546.203 453.13 546.203 445.341C546.203 437.552 438.214 431.237 305.004 431.237C171.793 431.237 63.8047 437.552 63.8047 445.341C63.8047 453.13 171.793 459.445 305.004 459.445Z" fill="#F5F5F5"/>
<path d="M373.051 274.65L335.47 246.106L380.341 191.174L373.051 274.65Z" fill="#407BFF"/>
<path opacity="0.7" d="M380.341 191.174L373.051 274.65L335.47 246.106L380.341 191.174Z" fill="white"/>
<path d="M467.209 43.2461H486.715C487.673 43.2461 487.81 41.751 486.852 41.751H467.346C466.388 41.751 466.251 43.2461 467.209 43.2461Z" fill="#407BFF"/>
<path d="M493.868 43.2461H499.479C500.436 43.2461 500.573 41.751 499.615 41.751H494.005C493.047 41.751 492.91 43.2461 493.881 43.2461H493.868Z" fill="#407BFF"/>
<g opacity="0.3">
<path d="M467.209 43.2461H486.715C487.673 43.2461 487.81 41.751 486.852 41.751H467.346C466.388 41.751 466.251 43.2461 467.209 43.2461Z" fill="white"/>
</g>
<g opacity="0.3">
<path d="M493.868 43.2461H499.479C500.436 43.2461 500.573 41.751 499.615 41.751H494.005C493.047 41.751 492.91 43.2461 493.881 43.2461H493.868Z" fill="white"/>
</g>
<path d="M527.481 316.202C527.108 320.438 523.351 323.902 519.121 323.902H365.487C361.258 323.902 358.11 320.438 358.484 316.202L382.207 44.6663C382.58 40.4302 386.337 36.979 390.566 36.979H544.2C548.43 36.979 551.577 40.4427 551.204 44.6663L527.481 316.202Z" fill="#407BFF"/>
<path opacity="0.7" d="M527.481 316.202C527.108 320.438 523.351 323.902 519.121 323.902H365.487C361.258 323.902 358.11 320.438 358.484 316.202L382.207 44.6663C382.58 40.4302 386.337 36.979 390.566 36.979H544.2C548.43 36.979 551.577 40.4427 551.204 44.6663L527.481 316.202Z" fill="white"/>
<path d="M527.481 316.202C527.108 320.438 523.351 323.902 519.121 323.902H365.487C361.258 323.902 358.11 320.438 358.484 316.202L382.207 44.6663C382.58 40.4302 386.337 36.979 390.566 36.979H544.2C548.43 36.979 551.577 40.4427 551.204 44.6663L527.481 316.202Z" fill="#407BFF"/>
<path opacity="0.7" d="M527.481 316.202C527.108 320.438 523.351 323.902 519.121 323.902H365.487C361.258 323.902 358.11 320.438 358.484 316.202L382.207 44.6663C382.58 40.4302 386.337 36.979 390.566 36.979H544.2C548.43 36.979 551.577 40.4427 551.204 44.6663L527.481 316.202Z" fill="white"/>
<path d="M547.261 36.9663H544.188C548.418 36.9663 551.565 40.43 551.192 44.6536L527.469 316.189C527.095 320.425 523.338 323.889 519.109 323.889H522.182C526.411 323.889 530.168 320.425 530.541 316.189L554.264 44.6536C554.638 40.4175 551.478 36.9663 547.261 36.9663Z" fill="#407BFF"/>
<path opacity="0.4" d="M547.261 36.9663H544.188C548.418 36.9663 551.565 40.43 551.192 44.6536L527.469 316.189C527.095 320.425 523.338 323.889 519.109 323.889H522.182C526.411 323.889 530.168 320.425 530.541 316.189L554.264 44.6536C554.638 40.4175 551.478 36.9663 547.261 36.9663Z" fill="white"/>
<path d="M434.492 255.301C433.746 255.052 433.285 254.865 433.335 254.292C433.385 253.731 433.87 253.345 434.529 253.345C435.301 253.345 435.612 253.819 435.749 254.217L435.786 254.317L436.321 254.03L436.296 253.956C436.047 253.208 435.413 252.772 434.579 252.772C433.559 252.772 432.8 253.407 432.726 254.317C432.639 255.314 433.46 255.588 434.33 255.887H434.355C435.226 256.186 435.637 256.41 435.587 256.958C435.537 257.569 435.027 257.943 434.243 257.943C433.46 257.943 432.937 257.569 432.813 256.933L432.788 256.809L432.228 257.12V257.195C432.44 258.03 433.173 258.528 434.181 258.528C435.301 258.528 436.097 257.893 436.184 256.958C436.271 255.937 435.363 255.625 434.48 255.326L434.492 255.301Z" fill="#263238"/>
<path d="M439.269 254.305C438.722 254.305 438.274 254.504 437.938 254.89L437.975 254.392H437.403L437.055 258.429H437.627L437.814 256.298C437.888 255.401 438.411 254.865 439.182 254.865C439.829 254.865 440.177 255.264 440.115 255.937L439.903 258.429H440.488L440.7 255.937C440.787 254.94 440.214 254.305 439.257 254.305H439.269Z" fill="#263238"/>
<path d="M443.859 254.304C442.653 254.304 441.695 255.189 441.595 256.41C441.483 257.631 442.304 258.516 443.523 258.516C444.295 258.516 444.954 258.179 445.364 257.594L445.427 257.506L444.942 257.207L444.892 257.295C444.631 257.706 444.145 257.943 443.586 257.943C442.789 257.943 442.242 257.444 442.18 256.697H445.638V256.597C445.638 256.597 445.651 256.535 445.663 256.51C445.663 256.472 445.663 256.447 445.663 256.41C445.75 255.388 445.153 254.292 443.859 254.292V254.304ZM443.809 254.865C444.419 254.865 445.041 255.264 445.091 256.136H442.217C442.391 255.376 443.026 254.865 443.809 254.865Z" fill="#263238"/>
<path d="M450.141 255.04C449.818 254.566 449.283 254.305 448.649 254.305C447.479 254.305 446.484 255.227 446.385 256.41C446.285 257.594 447.118 258.516 448.288 258.516C448.922 258.516 449.495 258.254 449.905 257.781L449.843 258.429H450.428L450.776 254.392H450.191L450.129 255.04H450.141ZM448.363 257.955C447.504 257.955 446.895 257.282 446.969 256.41C447.044 255.551 447.778 254.865 448.636 254.865C449.495 254.865 450.104 255.538 450.029 256.41C449.955 257.27 449.221 257.955 448.375 257.955H448.363Z" fill="#263238"/>
<path d="M455.217 254.392H454.396L452.443 256.024L452.717 252.859H452.144L451.659 258.429H452.231L452.381 256.659L454.11 258.404L454.135 258.429H454.931L452.878 256.335L455.217 254.392Z" fill="#263238"/>
<path d="M457.481 254.304C456.275 254.304 455.317 255.189 455.217 256.41C455.105 257.631 455.926 258.516 457.145 258.516C457.917 258.516 458.576 258.179 458.987 257.594L459.049 257.506L458.564 257.207L458.514 257.295C458.253 257.706 457.767 257.943 457.208 257.943C456.411 257.943 455.864 257.444 455.802 256.697H459.26V256.597C459.26 256.597 459.273 256.535 459.285 256.51C459.285 256.472 459.285 256.447 459.285 256.41C459.372 255.388 458.775 254.292 457.481 254.292V254.304ZM457.432 254.865C458.166 254.865 458.663 255.376 458.713 256.136H455.839C456.013 255.376 456.648 254.865 457.432 254.865Z" fill="#263238"/>
<path d="M460.964 254.878L461.002 254.392H460.429L460.081 258.428H460.653L460.852 256.198C460.939 255.239 461.574 254.902 462.146 254.902H462.246L462.295 254.342H462.196C461.686 254.342 461.263 254.529 460.964 254.89V254.878Z" fill="#263238"/>
<path d="M464.273 256.136C463.689 255.987 463.34 255.862 463.378 255.488C463.415 255.052 463.85 254.865 464.261 254.865C464.671 254.865 465.007 255.065 465.107 255.389L465.144 255.488L465.667 255.202L465.642 255.127C465.455 254.604 464.97 254.305 464.323 254.305C463.514 254.305 462.88 254.803 462.818 255.488C462.743 256.298 463.452 256.485 464.074 256.659C464.659 256.821 465.02 256.934 464.982 257.32C464.945 257.781 464.447 257.943 464.037 257.943C463.514 257.943 463.141 257.718 463.054 257.332L463.029 257.22L462.507 257.519L462.532 257.594C462.693 258.167 463.241 258.516 464 258.516C464.87 258.516 465.517 258.03 465.58 257.332C465.654 256.497 464.945 256.311 464.311 256.149L464.273 256.136Z" fill="#263238"/>
<path d="M436.296 273.255L436.196 274.339H435.338L435.438 273.267C434.057 273.168 433.086 272.458 432.75 271.274L434.529 270.29C434.741 270.875 435.064 271.224 435.612 271.324L435.761 269.629C435.761 269.629 435.649 269.592 435.612 269.567C434.579 269.131 433.348 268.533 433.497 266.888C433.634 265.294 434.915 264.459 436.234 264.334L436.333 263.263H437.192L437.092 264.359C438.137 264.496 438.97 265.057 439.356 266.141L437.615 267.113C437.49 266.677 437.266 266.44 436.918 266.315L436.769 267.972C437.801 268.433 439.219 268.832 439.058 270.639C438.921 272.183 437.789 273.093 436.308 273.267L436.296 273.255ZM435.935 267.561L436.047 266.265C435.686 266.353 435.475 266.589 435.45 266.876C435.425 267.113 435.525 267.312 435.935 267.549V267.561ZM437.08 270.651C437.105 270.34 436.943 270.153 436.582 269.978L436.47 271.299C436.893 271.187 437.055 270.913 437.08 270.663V270.651Z" fill="#263238"/>
<path d="M447.604 264.484L446.845 273.106H444.879L445.452 266.565L443.884 266.988L443.548 265.306L445.875 264.496H447.591L447.604 264.484Z" fill="#263238"/>
<path d="M448.425 271.672L451.572 268.67C452.12 268.147 452.53 267.648 452.58 267.137C452.63 266.602 452.319 266.228 451.734 266.228C451.149 266.228 450.664 266.626 450.39 267.162L448.811 266.19C449.47 264.907 450.689 264.309 451.871 264.309C453.413 264.309 454.695 265.318 454.545 267.05C454.458 268.084 453.824 268.969 452.966 269.754L451.411 271.199H454.297L454.135 273.093H448.288L448.412 271.66L448.425 271.672Z" fill="#263238"/>
<path d="M455.678 268.794C455.914 266.128 457.345 264.309 459.571 264.309C461.798 264.309 462.918 266.128 462.681 268.794C462.445 271.448 461.014 273.28 458.788 273.28C456.561 273.28 455.441 271.461 455.678 268.794ZM460.716 268.794C460.865 267.137 460.43 266.228 459.397 266.228C458.365 266.228 457.78 267.125 457.631 268.794C457.481 270.451 457.917 271.361 458.949 271.361C459.982 271.361 460.566 270.464 460.716 268.794Z" fill="#263238"/>
<path d="M462.868 52.877L462.918 52.3163C462.967 51.7681 462.569 51.332 462.022 51.332H452.978C452.431 51.332 451.958 51.7681 451.908 52.3163L451.858 52.877H462.868Z" fill="#407BFF"/>
<path d="M451.759 54.0356L451.386 58.3091C451.336 58.8574 451.734 59.2934 452.281 59.2934H461.325C461.872 59.2934 462.345 58.8574 462.395 58.3091L462.768 54.0356H451.759Z" fill="#407BFF"/>
<path d="M481.08 59.2933C474.412 62.1589 471.712 56.4277 465.044 59.2933C465.318 56.1162 465.455 54.5214 465.741 51.3443C472.409 48.4787 475.108 54.2099 481.776 51.3443C481.503 54.5214 481.353 56.1162 481.08 59.2933Z" fill="#407BFF"/>
<path d="M475.755 55.3187C475.643 56.6144 474.499 57.6734 473.193 57.6734C471.887 57.6734 470.929 56.6144 471.041 55.3187C471.153 54.0229 472.297 52.9639 473.603 52.9639C474.909 52.9639 475.867 54.0229 475.755 55.3187Z" fill="white"/>
<path d="M533.539 115.061C533.166 119.297 529.409 122.748 525.179 122.748H396.089C391.86 122.748 388.713 119.284 389.086 115.061L389.782 107.124C390.156 102.888 393.912 99.4243 398.142 99.4243H527.232C531.462 99.4243 534.609 102.888 534.236 107.124L533.539 115.061Z" fill="white"/>
<path d="M529.359 163.003C528.986 167.24 525.229 170.691 521 170.691H391.91C387.68 170.691 384.533 167.227 384.906 163.003L385.603 155.067C385.976 150.831 389.733 147.367 393.962 147.367H523.052C527.282 147.367 530.429 150.831 530.056 155.067L529.359 163.003Z" fill="white"/>
<path d="M525.926 202.2C525.553 206.436 521.796 209.9 517.566 209.9H388.476C384.247 209.9 381.099 206.436 381.472 202.2L382.169 194.264C382.542 190.028 386.299 186.564 390.529 186.564H519.619C523.848 186.564 526.996 190.028 526.622 194.264L525.926 202.2Z" fill="white"/>
<path d="M392.644 90.1422H395.592L395.654 89.4819H392.706L392.905 87.1645H396.09L396.139 86.5166H392.283L391.698 93.1698H395.604L395.667 92.5095H392.445L392.644 90.1422Z" fill="#263238"/>
<path d="M402.061 88.261C401.414 88.261 400.841 88.56 400.456 89.0833C400.219 88.56 399.734 88.261 399.075 88.261C398.503 88.261 398.005 88.4977 397.632 88.9213L397.682 88.3607H397.035L396.612 93.1699H397.259L397.495 90.5036C397.595 89.32 398.329 88.8964 398.963 88.8964C399.647 88.8964 400.008 89.3574 399.933 90.1423L399.672 93.1574H400.319L400.555 90.4912C400.642 89.4695 401.165 88.8839 401.986 88.8839C402.695 88.8839 403.081 89.3574 403.006 90.1299L402.745 93.145H403.392L403.653 90.1299C403.752 88.9836 403.118 88.2485 402.048 88.2485L402.061 88.261Z" fill="#263238"/>
<path d="M409.189 89.1705C408.803 88.5849 408.157 88.2485 407.385 88.2485C405.992 88.2485 404.81 89.3449 404.686 90.7528C404.561 92.1607 405.557 93.2571 406.95 93.2571C407.721 93.2571 408.418 92.9207 408.915 92.3351L408.841 93.145H409.5L409.923 88.3357H409.264L409.189 89.1456V89.1705ZM407.037 92.6217C405.992 92.6217 405.246 91.7994 405.345 90.7528C405.432 89.7063 406.328 88.8839 407.36 88.8839C408.393 88.8839 409.139 89.7063 409.04 90.7528C408.953 91.7994 408.069 92.6217 407.025 92.6217H407.037Z" fill="#263238"/>
<path d="M410.943 93.1696H411.602L412.013 88.3604H411.366L410.943 93.1696Z" fill="#263238"/>
<path d="M411.851 86.5166C411.602 86.5166 411.366 86.7284 411.341 86.9776C411.316 87.2392 411.503 87.4386 411.764 87.4386C412.025 87.4386 412.249 87.2268 412.274 86.9776C412.299 86.7284 412.1 86.5166 411.851 86.5166Z" fill="#263238"/>
<path d="M413.618 86.23L413.021 93.1697H413.667L414.277 86.23H413.618Z" fill="#263238"/>
<path d="M390.542 132.678H388.253L387.668 139.331H388.352L388.564 136.864H390.168C391.363 136.864 392.345 135.967 392.457 134.771C392.557 133.575 391.736 132.678 390.542 132.678ZM390.231 136.216H388.626L388.875 133.338H390.479C391.3 133.338 391.848 133.949 391.773 134.783C391.699 135.618 391.052 136.216 390.218 136.216H390.231Z" fill="#263238"/>
<path d="M397.408 135.332C397.023 134.746 396.376 134.41 395.605 134.41C394.211 134.41 393.029 135.506 392.905 136.914C392.781 138.322 393.776 139.418 395.169 139.418C395.94 139.418 396.637 139.082 397.135 138.496L397.06 139.306H397.719L398.142 134.497H397.483L397.408 135.307V135.332ZM395.256 138.783C394.211 138.783 393.465 137.961 393.564 136.914C393.664 135.867 394.547 135.045 395.58 135.045C396.612 135.045 397.359 135.867 397.259 136.914C397.16 137.961 396.289 138.783 395.244 138.783H395.256Z" fill="#263238"/>
<path d="M401.041 136.615C400.432 136.453 399.909 136.316 399.946 135.817C399.996 135.282 400.531 135.045 401.029 135.045C401.551 135.045 401.937 135.282 402.061 135.68L402.098 135.78L402.683 135.456L402.658 135.381C402.434 134.771 401.85 134.397 401.091 134.397C400.133 134.397 399.374 134.983 399.299 135.805C399.212 136.764 400.058 136.988 400.792 137.188C401.414 137.35 401.949 137.499 401.899 137.998C401.85 138.571 401.24 138.77 400.743 138.77C400.108 138.77 399.66 138.496 399.548 138.023L399.523 137.91L398.926 138.247L398.951 138.322C399.15 139.007 399.797 139.406 400.693 139.406C401.725 139.406 402.484 138.832 402.559 137.998C402.646 137.013 401.8 136.789 401.054 136.59L401.041 136.615Z" fill="#263238"/>
<path d="M405.47 136.615C404.86 136.453 404.338 136.316 404.375 135.817C404.425 135.282 404.959 135.045 405.457 135.045C405.98 135.045 406.365 135.282 406.49 135.68L406.527 135.78L407.112 135.456L407.087 135.381C406.863 134.771 406.278 134.397 405.519 134.397C404.561 134.397 403.803 134.983 403.74 135.805C403.653 136.764 404.499 136.988 405.233 137.188C405.855 137.35 406.39 137.499 406.34 137.998C406.291 138.571 405.681 138.77 405.183 138.77C404.549 138.77 404.101 138.496 403.989 138.023L403.964 137.91L403.367 138.247L403.392 138.322C403.591 139.007 404.238 139.406 405.134 139.406C406.166 139.406 406.925 138.832 407 137.998C407.087 137.013 406.241 136.789 405.494 136.59L405.47 136.615Z" fill="#263238"/>
<path d="M412.436 138.309L411.553 134.521H410.931L409.388 138.309L408.58 134.584L408.555 134.521H407.871L408.953 139.256L408.965 139.331H409.612L411.142 135.605L412.013 139.256L412.038 139.331H412.685L414.613 134.521H413.929L412.436 138.309Z" fill="#263238"/>
<path d="M417.661 134.422C416.243 134.422 415.048 135.518 414.924 136.926C414.8 138.334 415.807 139.43 417.225 139.43C418.644 139.43 419.838 138.334 419.95 136.926C420.074 135.518 419.066 134.422 417.661 134.422ZM417.275 138.795C416.23 138.795 415.484 137.973 415.583 136.926C415.683 135.88 416.566 135.057 417.599 135.057C418.631 135.057 419.377 135.88 419.278 136.926C419.178 137.973 418.308 138.795 417.263 138.795H417.275Z" fill="#263238"/>
<path d="M421.903 135.145L421.953 134.522H421.306L420.883 139.331H421.53L421.766 136.665C421.866 135.506 422.649 135.095 423.346 135.095H423.445L423.495 134.459H423.396C422.761 134.459 422.251 134.696 421.89 135.157L421.903 135.145Z" fill="#263238"/>
<path d="M428.372 132.678L428.135 135.356C427.75 134.758 427.115 134.422 426.332 134.422C424.938 134.422 423.756 135.518 423.632 136.926C423.508 138.334 424.503 139.431 425.896 139.431C426.68 139.431 427.377 139.094 427.862 138.496L427.787 139.331H428.434L429.019 132.678H428.372ZM425.983 138.795C424.938 138.795 424.192 137.973 424.291 136.926C424.391 135.88 425.274 135.057 426.307 135.057C427.339 135.057 428.098 135.88 427.998 136.926C427.899 137.973 427.016 138.795 425.983 138.795Z" fill="#263238"/>
<path d="M407.509 199.322C407.111 199.983 406.34 200.406 405.544 200.406C404.238 200.406 403.342 199.422 403.454 198.114C403.566 196.805 404.636 195.821 405.942 195.821C406.726 195.821 407.422 196.232 407.708 196.88L407.746 196.967L408.306 196.656L408.268 196.569C407.87 195.746 406.999 195.223 406.004 195.223C404.362 195.223 403.006 196.457 402.857 198.101C402.72 199.733 403.852 200.967 405.494 200.967C406.514 200.967 407.472 200.444 408.019 199.596L408.069 199.509L407.572 199.21L407.522 199.297L407.509 199.322Z" fill="#263238"/>
<path d="M412.548 197.503C412.224 197.03 411.689 196.768 411.055 196.768C409.885 196.768 408.89 197.69 408.791 198.874C408.691 200.057 409.525 200.979 410.694 200.979C411.329 200.979 411.901 200.718 412.311 200.244L412.249 200.892H412.834L413.182 196.855H412.597L412.535 197.503H412.548ZM410.769 200.419C409.91 200.419 409.301 199.746 409.375 198.874C409.45 198.014 410.184 197.329 411.042 197.329C411.901 197.329 412.51 198.002 412.436 198.874C412.361 199.746 411.627 200.419 410.781 200.419H410.769Z" fill="#263238"/>
<path d="M414.949 197.354L414.986 196.868H414.414L414.065 200.904H414.638L414.837 198.674C414.924 197.715 415.558 197.379 416.13 197.379H416.23L416.28 196.818H416.18C415.67 196.818 415.247 197.005 414.949 197.366V197.354Z" fill="#263238"/>
<path d="M420.372 195.323L420.186 197.516C419.862 197.042 419.34 196.768 418.693 196.768C417.524 196.768 416.528 197.69 416.429 198.874C416.329 200.057 417.163 200.979 418.332 200.979C418.967 200.979 419.551 200.718 419.949 200.232L419.887 200.892H420.46L420.945 195.323H420.372ZM418.394 200.419C417.536 200.419 416.927 199.746 417.001 198.874C417.076 198.014 417.81 197.329 418.668 197.329C419.526 197.329 420.136 198.001 420.061 198.874C419.987 199.746 419.253 200.419 418.394 200.419Z" fill="#263238"/>
<path d="M402.708 108.794C402.061 108.794 401.488 109.093 401.103 109.616C400.866 109.093 400.381 108.794 399.722 108.794C399.15 108.794 398.652 109.03 398.279 109.454L398.329 108.893H397.682L397.259 113.703H397.906L398.142 111.036C398.242 109.853 398.976 109.429 399.61 109.429C400.294 109.429 400.655 109.89 400.58 110.675L400.319 113.69H400.966L401.202 111.024C401.289 110.002 401.812 109.417 402.633 109.417C403.342 109.417 403.728 109.89 403.653 110.663L403.392 113.678H404.039L404.3 110.663C404.399 109.516 403.765 108.781 402.695 108.781L402.708 108.794Z" fill="#263238"/>
<path d="M407.149 112.855L405.706 108.906H404.997L406.738 113.703L406.639 113.914C406.427 114.326 405.979 114.998 405.27 114.936H405.171L405.121 115.559H405.208C405.208 115.559 405.295 115.559 405.332 115.559C406.079 115.559 406.813 114.998 407.261 114.076L409.749 108.906H409.04L407.149 112.855Z" fill="#263238"/>
<path d="M412.56 108.794C411.117 108.794 409.985 109.853 409.86 111.298C409.736 112.744 410.706 113.803 412.162 113.803C413.07 113.803 413.866 113.404 414.351 112.719L414.413 112.631L413.866 112.295L413.816 112.382C413.505 112.881 412.908 113.167 412.236 113.167C411.266 113.167 410.594 112.557 410.532 111.635H414.687V111.535C414.687 111.535 414.699 111.46 414.712 111.435C414.712 111.398 414.712 111.361 414.724 111.323C414.836 110.102 414.115 108.806 412.572 108.806L412.56 108.794ZM412.51 109.429C413.406 109.429 414.015 110.052 414.065 110.987H410.582C410.793 110.052 411.565 109.429 412.522 109.429H412.51Z" fill="#263238"/>
<path d="M421.069 108.794C420.422 108.794 419.85 109.093 419.464 109.616C419.228 109.093 418.743 108.794 418.083 108.794C417.511 108.794 417.013 109.03 416.64 109.454L416.69 108.893H416.043L415.62 113.703H416.267L416.503 111.036C416.603 109.853 417.337 109.429 417.971 109.429C418.655 109.429 419.016 109.89 418.942 110.675L418.68 113.69H419.327L419.564 111.024C419.651 110.002 420.173 109.417 420.994 109.417C421.703 109.417 422.089 109.89 422.014 110.663L421.753 113.678H422.4L422.661 110.663C422.761 109.516 422.126 108.781 421.056 108.781L421.069 108.794Z" fill="#263238"/>
<path d="M428.197 109.716C427.811 109.13 427.164 108.794 426.393 108.794C425 108.794 423.818 109.89 423.694 111.298C423.569 112.706 424.564 113.803 425.958 113.803C426.729 113.803 427.426 113.479 427.923 112.881L427.849 113.69H428.508L428.931 108.881H428.272L428.197 109.691V109.716ZM426.045 113.167C425 113.167 424.253 112.345 424.353 111.298C424.452 110.252 425.336 109.429 426.368 109.429C427.401 109.429 428.147 110.252 428.048 111.298C427.948 112.345 427.077 113.167 426.032 113.167H426.045Z" fill="#263238"/>
<path d="M429.951 113.703H430.61L431.021 108.906H430.374L429.951 113.703Z" fill="#263238"/>
<path d="M430.859 107.049C430.611 107.049 430.374 107.261 430.349 107.51C430.325 107.772 430.511 107.971 430.772 107.971C431.034 107.971 431.258 107.759 431.282 107.51C431.307 107.261 431.108 107.049 430.859 107.049Z" fill="#263238"/>
<path d="M432.029 113.703H432.676L433.285 106.775H432.626L432.029 113.703Z" fill="#263238"/>
<path d="M437.851 107.872C435.922 107.872 434.268 109.379 434.106 111.311C433.932 113.267 435.363 114.749 437.415 114.749C438.037 114.749 438.585 114.662 439.07 114.5L439.144 114.475V114.039L439.007 114.089C438.56 114.263 438.05 114.338 437.44 114.338C435.599 114.338 434.367 113.067 434.517 111.323C434.666 109.629 436.109 108.308 437.801 108.308C439.493 108.308 440.575 109.529 440.438 111.136C440.351 112.12 439.965 112.706 439.418 112.706C438.995 112.706 438.945 112.307 438.97 111.958L439.157 109.803H438.522L438.497 110.127C438.261 109.878 437.925 109.741 437.54 109.741C436.631 109.741 435.897 110.414 435.81 111.311C435.736 112.208 436.358 112.88 437.266 112.88C437.676 112.88 438.062 112.718 438.361 112.419C438.46 112.88 438.808 113.142 439.318 113.142C439.953 113.142 440.749 112.606 440.886 111.111C441.023 109.516 439.928 107.859 437.851 107.859V107.872ZM438.398 111.311C438.348 111.859 437.9 112.27 437.341 112.27C436.781 112.27 436.408 111.871 436.457 111.311C436.507 110.762 436.955 110.351 437.515 110.351C438.075 110.351 438.448 110.75 438.398 111.311Z" fill="#263238"/>
<path d="M444.481 108.794C443.038 108.794 441.906 109.853 441.782 111.298C441.657 112.744 442.628 113.803 444.083 113.803C444.991 113.803 445.787 113.404 446.273 112.719L446.335 112.631L445.787 112.295L445.738 112.382C445.427 112.881 444.83 113.167 444.158 113.167C443.187 113.167 442.516 112.557 442.453 111.635H446.608V111.535C446.608 111.535 446.621 111.46 446.633 111.435C446.633 111.398 446.633 111.361 446.646 111.323C446.758 110.102 446.036 108.806 444.494 108.806L444.481 108.794ZM444.431 109.429C445.327 109.429 445.937 110.052 445.986 110.987H442.503C442.715 110.052 443.486 109.429 444.444 109.429H444.431Z" fill="#263238"/>
<path d="M452.978 108.794C452.331 108.794 451.758 109.093 451.373 109.616C451.136 109.093 450.651 108.794 449.992 108.794C449.42 108.794 448.922 109.03 448.549 109.454L448.599 108.893H447.952L447.529 113.703H448.176L448.412 111.036C448.512 109.853 449.246 109.429 449.88 109.429C450.564 109.429 450.925 109.89 450.85 110.675L450.589 113.69H451.236L451.472 111.024C451.559 110.002 452.082 109.417 452.903 109.417C453.612 109.417 453.998 109.89 453.923 110.663L453.662 113.678H454.309L454.57 110.663C454.669 109.516 454.035 108.781 452.965 108.781L452.978 108.794Z" fill="#263238"/>
<path d="M460.118 109.716C459.733 109.13 459.086 108.794 458.314 108.794C456.921 108.794 455.739 109.89 455.615 111.298C455.491 112.706 456.486 113.803 457.879 113.803C458.65 113.803 459.347 113.479 459.845 112.881L459.77 113.69H460.429L460.852 108.881H460.193L460.118 109.691V109.716ZM457.966 113.167C456.921 113.167 456.175 112.345 456.274 111.298C456.374 110.252 457.257 109.429 458.29 109.429C459.322 109.429 460.069 110.252 459.969 111.298C459.869 112.345 458.999 113.167 457.954 113.167H457.966Z" fill="#263238"/>
<path d="M462.78 107.049C462.532 107.049 462.295 107.261 462.27 107.51C462.245 107.772 462.432 107.971 462.693 107.971C462.954 107.971 463.178 107.759 463.203 107.51C463.228 107.261 463.029 107.049 462.78 107.049Z" fill="#263238"/>
<path d="M461.872 113.703H462.519L462.942 108.906H462.295L461.872 113.703Z" fill="#263238"/>
<path d="M463.937 113.703H464.596L465.193 106.775H464.547L463.937 113.703Z" fill="#263238"/>
<path d="M466.475 112.781C466.189 112.781 465.94 113.005 465.915 113.292C465.89 113.578 466.089 113.802 466.375 113.802C466.662 113.802 466.91 113.578 466.935 113.292C466.96 113.005 466.749 112.781 466.475 112.781Z" fill="#263238"/>
<path d="M471.936 112.27C471.588 112.843 470.966 113.18 470.282 113.18C469.237 113.18 468.49 112.357 468.59 111.311C468.677 110.239 469.548 109.442 470.605 109.442C471.302 109.442 471.862 109.791 472.073 110.351L472.11 110.451L472.683 110.127L472.658 110.052C472.372 109.292 471.613 108.819 470.667 108.819C469.237 108.819 468.055 109.89 467.931 111.323C467.806 112.756 468.789 113.827 470.232 113.827C471.152 113.827 472.011 113.354 472.471 112.606L472.521 112.532L471.998 112.208L471.949 112.295L471.936 112.27Z" fill="#263238"/>
<path d="M476.016 108.794C474.598 108.794 473.404 109.89 473.279 111.298C473.155 112.706 474.163 113.803 475.581 113.803C476.999 113.803 478.181 112.706 478.305 111.298C478.43 109.89 477.422 108.794 476.016 108.794ZM475.631 113.167C474.586 113.167 473.839 112.345 473.939 111.298C474.026 110.252 474.921 109.429 475.954 109.429C476.987 109.429 477.733 110.252 477.633 111.298C477.534 112.345 476.663 113.167 475.618 113.167H475.631Z" fill="#263238"/>
<path d="M484.687 108.794C484.04 108.794 483.468 109.093 483.082 109.616C482.846 109.093 482.361 108.794 481.701 108.794C481.129 108.794 480.632 109.03 480.258 109.454L480.308 108.893H479.661L479.238 113.703H479.885L480.122 111.036C480.221 109.853 480.955 109.429 481.589 109.429C482.274 109.429 482.634 109.89 482.56 110.675L482.299 113.69H482.945L483.182 111.024C483.269 110.002 483.791 109.417 484.612 109.417C485.321 109.417 485.707 109.89 485.632 110.663L485.371 113.678H486.018L486.279 110.663C486.379 109.516 485.744 108.781 484.675 108.781L484.687 108.794Z" fill="#263238"/>
<path d="M441.334 197.503H440.724L440.575 199.185H438.398L440.762 195.323H440.102L437.689 199.247L437.639 199.771H440.525L440.426 200.892H441.035L441.135 199.771H441.819L441.869 199.185H441.185L441.334 197.503Z" fill="#263238"/>
<path d="M444.494 197.516H443.586L443.835 195.896H446.323L446.372 195.323H443.349L442.914 198.101H444.457C445.24 198.101 445.701 198.55 445.638 199.247C445.576 199.945 445.029 200.394 444.257 200.394C443.623 200.394 443.188 200.095 443.076 199.571L443.051 199.459L442.503 199.758L442.528 199.833C442.715 200.543 443.362 200.979 444.22 200.979C445.327 200.979 446.173 200.269 446.26 199.247C446.347 198.226 445.638 197.516 444.531 197.516H444.494Z" fill="#263238"/>
<path d="M448.91 197.516H448.002L448.25 195.896H450.738L450.788 195.323H447.765L447.33 198.101H448.872C449.656 198.101 450.116 198.55 450.054 199.247C449.992 199.945 449.445 200.394 448.673 200.394C448.039 200.394 447.604 200.095 447.492 199.571L447.467 199.459L446.919 199.758L446.944 199.833C447.131 200.543 447.778 200.979 448.636 200.979C449.743 200.979 450.589 200.269 450.676 199.247C450.763 198.226 450.054 197.516 448.947 197.516H448.91Z" fill="#263238"/>
<path d="M453.314 197.516H452.406L452.654 195.896H455.142L455.192 195.323H452.169L451.734 198.101H453.276C454.06 198.101 454.52 198.55 454.458 199.247C454.396 199.945 453.849 200.394 453.077 200.394C452.443 200.394 452.007 200.095 451.896 199.571L451.871 199.459L451.323 199.758L451.348 199.833C451.535 200.543 452.182 200.979 453.04 200.979C454.147 200.979 454.993 200.269 455.08 199.247C455.167 198.226 454.458 197.516 453.351 197.516H453.314Z" fill="#263238"/>
<path d="M460.479 195.235C459.185 195.235 458.277 196.332 458.115 198.113C457.966 199.883 458.675 200.979 459.969 200.979C461.263 200.979 462.171 199.883 462.332 198.113C462.482 196.344 461.773 195.235 460.479 195.235ZM460.031 200.393C459.086 200.393 458.601 199.534 458.725 198.101C458.849 196.668 459.484 195.808 460.429 195.808C461.375 195.808 461.86 196.668 461.735 198.101C461.611 199.534 460.977 200.393 460.031 200.393Z" fill="#263238"/>
<path d="M465.642 195.235C464.335 195.235 463.44 196.332 463.278 198.113C463.129 199.883 463.838 200.979 465.132 200.979C466.425 200.979 467.333 199.883 467.495 198.113C467.644 196.344 466.935 195.235 465.642 195.235ZM465.194 200.393C464.248 200.393 463.763 199.534 463.888 198.101C464.012 196.668 464.646 195.808 465.592 195.808C466.537 195.808 467.022 196.668 466.898 198.101C466.774 199.534 466.139 200.393 465.194 200.393Z" fill="#263238"/>
<path d="M470.817 195.235C469.511 195.235 468.615 196.332 468.453 198.113C468.304 199.883 469.013 200.979 470.307 200.979C471.601 200.979 472.509 199.883 472.67 198.113C472.82 196.344 472.111 195.235 470.817 195.235ZM470.369 200.393C469.424 200.393 468.938 199.534 469.063 198.101C469.187 196.668 469.822 195.808 470.767 195.808C471.713 195.808 472.198 196.668 472.073 198.101C471.949 199.534 471.314 200.393 470.369 200.393Z" fill="#263238"/>
<path d="M475.979 195.235C474.673 195.235 473.778 196.332 473.616 198.113C473.467 199.883 474.176 200.979 475.469 200.979C476.763 200.979 477.671 199.883 477.833 198.113C477.982 196.344 477.273 195.235 475.979 195.235ZM475.532 200.393C474.586 200.393 474.101 199.534 474.225 198.101C474.35 196.668 474.984 195.808 475.93 195.808C476.875 195.808 477.36 196.668 477.236 198.101C477.111 199.534 476.477 200.393 475.532 200.393Z" fill="#263238"/>
<path d="M483.729 198.014C484.177 197.74 484.463 197.304 484.501 196.793C484.588 195.734 483.754 195.248 482.933 195.248C482.112 195.248 481.192 195.734 481.092 196.793C481.042 197.304 481.254 197.74 481.652 198.014C481.092 198.288 480.744 198.786 480.682 199.372C480.595 200.344 481.291 200.992 482.423 200.992C483.555 200.992 484.351 200.344 484.439 199.372C484.488 198.786 484.215 198.301 483.705 198.014H483.729ZM482.485 200.406C481.689 200.406 481.254 200.02 481.304 199.372C481.366 198.724 481.863 198.35 482.66 198.35C483.456 198.35 483.891 198.737 483.841 199.372C483.779 200.02 483.282 200.406 482.485 200.406ZM482.722 197.752C482.062 197.752 481.652 197.366 481.702 196.793C481.764 196.083 482.361 195.834 482.884 195.834C483.406 195.834 483.966 196.083 483.904 196.793C483.854 197.366 483.381 197.752 482.722 197.752Z" fill="#263238"/>
<path d="M488.32 198.014C488.768 197.74 489.054 197.304 489.091 196.793C489.178 195.734 488.345 195.248 487.524 195.248C486.703 195.248 485.782 195.734 485.683 196.793C485.633 197.304 485.844 197.74 486.242 198.014C485.682 198.288 485.334 198.786 485.272 199.372C485.185 200.344 485.882 200.992 487.014 200.992C488.146 200.992 488.942 200.344 489.029 199.372C489.079 198.786 488.805 198.301 488.295 198.014H488.32ZM487.076 200.406C486.28 200.406 485.844 200.02 485.894 199.372C485.956 198.724 486.454 198.35 487.25 198.35C488.046 198.35 488.481 198.737 488.432 199.372C488.37 200.02 487.872 200.406 487.076 200.406ZM487.312 197.752C486.653 197.752 486.242 197.366 486.292 196.793C486.354 196.083 486.951 195.834 487.474 195.834C487.996 195.834 488.556 196.083 488.494 196.793C488.444 197.366 487.971 197.752 487.312 197.752Z" fill="#263238"/>
<path d="M492.91 198.014C493.358 197.74 493.644 197.304 493.681 196.793C493.768 195.734 492.935 195.248 492.114 195.248C491.293 195.248 490.372 195.734 490.273 196.793C490.223 197.304 490.435 197.74 490.833 198.014C490.273 198.288 489.924 198.786 489.862 199.372C489.775 200.344 490.472 200.992 491.604 200.992C492.736 200.992 493.532 200.344 493.619 199.372C493.669 198.786 493.395 198.301 492.885 198.014H492.91ZM491.666 200.406C490.87 200.406 490.435 200.02 490.484 199.372C490.546 198.724 491.044 198.35 491.84 198.35C492.636 198.35 493.072 198.737 493.022 199.372C492.96 200.02 492.462 200.406 491.666 200.406ZM491.902 197.752C491.243 197.752 490.833 197.366 490.882 196.793C490.945 196.083 491.542 195.834 492.064 195.834C492.587 195.834 493.146 196.083 493.084 196.793C493.034 197.366 492.562 197.752 491.902 197.752Z" fill="#263238"/>
<path d="M497.488 198.014C497.936 197.74 498.222 197.304 498.26 196.793C498.347 195.734 497.513 195.248 496.692 195.248C495.871 195.248 494.95 195.734 494.851 196.793C494.801 197.304 495.013 197.74 495.411 198.014C494.851 198.288 494.503 198.786 494.44 199.372C494.353 200.344 495.05 200.992 496.182 200.992C497.314 200.992 498.11 200.344 498.197 199.372C498.247 198.786 497.973 198.301 497.463 198.014H497.488ZM496.244 200.406C495.448 200.406 495.013 200.02 495.062 199.372C495.125 198.724 495.622 198.35 496.418 198.35C497.215 198.35 497.65 198.737 497.6 199.372C497.538 200.02 497.04 200.406 496.244 200.406ZM496.481 197.752C495.821 197.752 495.411 197.366 495.461 196.793C495.523 196.083 496.12 195.834 496.642 195.834C497.165 195.834 497.725 196.083 497.662 196.793C497.613 197.366 497.14 197.752 496.481 197.752Z" fill="#263238"/>
<path d="M504.666 197.503H504.069L503.919 199.185H501.73L504.106 195.323H503.447L501.033 199.247L500.971 199.771H503.87L503.77 200.892H504.367L504.467 199.771H505.151L505.213 199.185H504.517L504.666 197.503Z" fill="#263238"/>
<path d="M509.468 197.503H508.87L508.721 199.185H506.532L508.908 195.323H508.248L505.835 199.247L505.773 199.771H508.671L508.572 200.892H509.169L509.269 199.771H509.965L510.015 199.185H509.318L509.468 197.503Z" fill="#263238"/>
<path d="M514.269 197.503H513.672L513.523 199.185H511.334L513.71 195.323H513.05L510.637 199.247L510.575 199.771H513.473L513.374 200.892H513.971L514.07 199.771H514.767L514.817 199.185H514.12L514.269 197.503Z" fill="#263238"/>
<path d="M518.935 199.185L519.071 197.503H518.474L518.325 199.185H516.148L518.512 195.323H517.852L515.439 199.247L515.389 199.771H518.275L518.176 200.892H518.785L518.872 199.771H519.569L519.619 199.185H518.935Z" fill="#263238"/>
<path d="M463.092 217.836C458.862 217.836 455.105 221.3 454.732 225.536L454.035 233.473C453.662 237.709 456.822 241.172 461.039 241.172H514.83C519.059 241.172 522.816 237.709 523.189 233.473L523.886 225.536C524.259 221.3 521.099 217.836 516.882 217.836H463.092Z" fill="white"/>
<path d="M448.587 225.536C448.96 221.3 445.8 217.836 441.583 217.836H387.792C383.563 217.836 379.806 221.3 379.433 225.536L378.736 233.473C378.363 237.709 381.523 241.172 385.74 241.172H439.53C443.76 241.172 447.517 237.709 447.89 233.473L448.587 225.536Z" fill="white"/>
<path d="M383.5 178.976H527.954C528.401 178.976 528.464 178.278 528.016 178.278H383.562C383.115 178.278 383.052 178.976 383.5 178.976Z" fill="#407BFF"/>
<path d="M377.343 249.458H521.796C522.244 249.458 522.306 248.76 521.858 248.76H377.405C376.957 248.76 376.895 249.458 377.343 249.458Z" fill="#407BFF"/>
<path d="M374.855 277.927H519.308C519.756 277.927 519.818 277.229 519.37 277.229H374.917C374.469 277.229 374.407 277.927 374.855 277.927Z" fill="#407BFF"/>
<path d="M398.441 195.796L398.491 195.235C398.541 194.687 398.142 194.251 397.595 194.251H388.551C388.004 194.251 387.531 194.687 387.481 195.235L387.432 195.796H398.441Z" fill="#407BFF"/>
<path d="M387.332 196.955L386.959 201.228C386.909 201.776 387.307 202.212 387.854 202.212H396.898C397.446 202.212 397.918 201.776 397.968 201.228L398.341 196.955H387.332Z" fill="#407BFF"/>
<path d="M398.503 159.029C398.391 160.325 397.247 161.384 395.94 161.384C394.634 161.384 393.676 160.325 393.788 159.029C393.9 157.733 395.045 156.674 396.351 156.674C397.657 156.674 398.615 157.733 398.503 159.029Z" fill="#263238"/>
<path d="M408.356 159.029C408.244 160.325 407.099 161.384 405.793 161.384C404.487 161.384 403.529 160.325 403.641 159.029C403.753 157.733 404.897 156.674 406.203 156.674C407.51 156.674 408.467 157.733 408.356 159.029Z" fill="#263238"/>
<path d="M418.22 159.029C418.108 160.325 416.964 161.384 415.658 161.384C414.351 161.384 413.394 160.325 413.505 159.029C413.617 157.733 414.762 156.674 416.068 156.674C417.374 156.674 418.332 157.733 418.22 159.029Z" fill="#263238"/>
<path d="M428.073 159.029C427.961 160.325 426.816 161.384 425.51 161.384C424.204 161.384 423.246 160.325 423.358 159.029C423.47 157.733 424.614 156.674 425.921 156.674C427.227 156.674 428.185 157.733 428.073 159.029Z" fill="#263238"/>
<path d="M437.938 159.029C437.826 160.325 436.681 161.384 435.375 161.384C434.069 161.384 433.111 160.325 433.223 159.029C433.335 157.733 434.479 156.674 435.785 156.674C437.092 156.674 438.049 157.733 437.938 159.029Z" fill="#263238"/>
<path d="M447.79 159.029C447.678 160.325 446.534 161.384 445.227 161.384C443.921 161.384 442.963 160.325 443.075 159.029C443.187 157.733 444.332 156.674 445.638 156.674C446.944 156.674 447.902 157.733 447.79 159.029Z" fill="#263238"/>
<path d="M457.655 159.029C457.543 160.325 456.399 161.384 455.093 161.384C453.786 161.384 452.829 160.325 452.941 159.029C453.052 157.733 454.197 156.674 455.503 156.674C456.809 156.674 457.767 157.733 457.655 159.029Z" fill="#263238"/>
<path d="M390.616 226.969H387.929L388.103 225.026H390.554L390.604 224.44H388.153L388.315 222.546H390.964L391.014 221.973H387.767L387.282 227.542H390.566L390.616 226.969Z" fill="#263238"/>
<path d="M391.835 227.542L393.228 225.935L394.335 227.542H395.045L393.626 225.461L395.306 223.505H394.597L393.303 225.013L392.308 223.543L392.283 223.505H391.561L392.917 225.474L391.126 227.542H391.835Z" fill="#263238"/>
<path d="M400.12 225.524C400.22 224.34 399.386 223.418 398.217 223.418C397.582 223.418 397.01 223.68 396.6 224.166L396.662 223.505H396.09L395.604 229.074H396.177L396.363 226.882C396.687 227.355 397.209 227.629 397.856 227.629C399.025 227.629 400.021 226.707 400.12 225.524ZM398.142 223.979C399.001 223.979 399.61 224.651 399.536 225.524C399.461 226.383 398.727 227.069 397.869 227.069C397.01 227.069 396.401 226.396 396.475 225.524C396.55 224.664 397.284 223.979 398.142 223.979Z" fill="#263238"/>
<path d="M401.85 223.505H401.265L400.917 227.542H401.489L401.85 223.505Z" fill="#263238"/>
<path d="M401.688 221.973C401.464 221.973 401.265 222.16 401.252 222.372C401.227 222.596 401.402 222.771 401.626 222.771C401.85 222.771 402.049 222.584 402.061 222.372C402.086 222.16 401.912 221.973 401.688 221.973Z" fill="#263238"/>
<path d="M403.479 225.312C403.566 224.353 404.2 224.016 404.773 224.016H404.872L404.922 223.456H404.822C404.312 223.456 403.889 223.642 403.591 224.004L403.628 223.518H403.056L402.708 227.555H403.28L403.479 225.324V225.312Z" fill="#263238"/>
<path d="M408.828 224.153C408.505 223.68 407.97 223.418 407.336 223.418C406.166 223.418 405.171 224.34 405.072 225.524C404.972 226.707 405.805 227.629 406.975 227.629C407.609 227.629 408.182 227.368 408.592 226.894L408.53 227.542H409.115L409.463 223.505H408.878L408.816 224.153H408.828ZM407.049 227.069C406.191 227.069 405.582 226.396 405.656 225.524C405.731 224.664 406.465 223.979 407.323 223.979C408.182 223.979 408.791 224.651 408.716 225.524C408.642 226.383 407.908 227.069 407.062 227.069H407.049Z" fill="#263238"/>
<path d="M411.777 222.396L411.18 222.571L411.092 223.505H410.247L410.197 224.078H411.043L410.831 226.483C410.794 226.882 410.881 227.168 411.068 227.355C411.242 227.517 411.491 227.592 411.851 227.592C412.001 227.592 412.175 227.58 412.374 227.555H412.461L412.511 227.006H412.411C411.988 227.056 411.64 227.069 411.503 226.932C411.428 226.857 411.391 226.707 411.416 226.483L411.627 224.078H412.772L412.822 223.505H411.677L411.777 222.396Z" fill="#263238"/>
<path d="M414.103 221.973C413.879 221.973 413.68 222.16 413.667 222.372C413.643 222.596 413.817 222.771 414.041 222.771C414.265 222.771 414.464 222.584 414.476 222.372C414.501 222.16 414.327 221.973 414.103 221.973Z" fill="#263238"/>
<path d="M413.319 227.542H413.904L414.252 223.505H413.68L413.319 227.542Z" fill="#263238"/>
<path d="M417.324 223.418C416.143 223.418 415.123 224.34 415.023 225.524C414.924 226.707 415.77 227.629 416.951 227.629C418.133 227.629 419.141 226.707 419.24 225.524C419.34 224.34 418.494 223.418 417.312 223.418H417.324ZM417.001 227.069C416.143 227.069 415.533 226.396 415.608 225.524C415.682 224.664 416.416 223.979 417.275 223.979C418.133 223.979 418.743 224.651 418.668 225.524C418.593 226.383 417.859 227.069 417.013 227.069H417.001Z" fill="#263238"/>
<path d="M422.276 223.418C421.728 223.418 421.281 223.617 420.945 224.004L420.982 223.505H420.41L420.062 227.542H420.634L420.82 225.411C420.895 224.514 421.417 223.979 422.189 223.979C422.836 223.979 423.184 224.377 423.122 225.05L422.91 227.542H423.495L423.706 225.05C423.794 224.053 423.221 223.418 422.263 223.418H422.276Z" fill="#263238"/>
<path d="M429.516 221.973H427.401L426.916 227.542H429.031C430.536 227.542 431.768 226.346 431.904 224.751C432.041 223.157 431.021 221.96 429.516 221.96V221.973ZM429.081 226.969H427.563L427.949 222.546H429.466C430.623 222.546 431.419 223.493 431.307 224.751C431.195 226.01 430.238 226.957 429.081 226.957V226.969Z" fill="#263238"/>
<path d="M436.37 224.153C436.047 223.68 435.512 223.418 434.878 223.418C433.708 223.418 432.713 224.34 432.614 225.524C432.514 226.707 433.347 227.629 434.517 227.629C435.151 227.629 435.724 227.368 436.134 226.894L436.072 227.542H436.657L437.005 223.505H436.42L436.358 224.153H436.37ZM434.591 227.069C433.733 227.069 433.124 226.396 433.198 225.524C433.273 224.664 434.007 223.979 434.865 223.979C435.724 223.979 436.333 224.651 436.258 225.524C436.184 226.383 435.45 227.069 434.604 227.069H434.591Z" fill="#263238"/>
<path d="M441.085 223.506L439.518 226.77L438.324 223.506H437.702L439.157 227.517L439.07 227.679C438.896 228.016 438.523 228.577 437.95 228.527H437.851L437.801 229.075H437.888C437.888 229.075 437.963 229.075 437.988 229.075C438.622 229.075 439.232 228.601 439.605 227.829L441.695 223.493H441.073L441.085 223.506Z" fill="#263238"/>
<path d="M386.349 231.716L386.461 232.264L387.705 231.878L387.282 236.774H387.879L388.364 231.205H387.917L386.349 231.716Z" fill="#263238"/>
<path d="M391.437 234.644C391.997 234.121 392.569 233.498 392.631 232.763C392.731 231.691 391.922 231.118 391.076 231.118C390.317 231.118 389.658 231.504 389.272 232.177L389.223 232.252L389.708 232.563L389.757 232.464C390.031 231.965 390.467 231.704 391.014 231.704C391.561 231.704 392.071 232.028 392.009 232.763C391.959 233.274 391.499 233.784 391.039 234.221L388.887 236.251L388.862 236.276L388.812 236.775H392.382L392.432 236.189H389.77L391.412 234.644H391.437Z" fill="#263238"/>
<path d="M392.893 237.547H393.415L397.184 230.433H396.674L392.893 237.547Z" fill="#263238"/>
<path d="M399.585 233.46L400.954 231.716L401.004 231.205H397.719L397.67 231.778H400.207L398.752 233.61L398.963 233.983H399.125C399.909 233.983 400.369 234.432 400.307 235.13C400.245 235.815 399.697 236.276 398.939 236.276C398.292 236.276 397.856 236.002 397.719 235.503L397.695 235.391L397.16 235.69L397.185 235.765C397.396 236.438 398.03 236.849 398.889 236.849C399.984 236.849 400.817 236.139 400.904 235.117C400.979 234.245 400.469 233.597 399.573 233.448L399.585 233.46Z" fill="#263238"/>
<path d="M404.176 231.118C402.87 231.118 401.974 232.215 401.812 233.996C401.663 235.765 402.372 236.862 403.666 236.862C404.959 236.862 405.868 235.765 406.029 233.996C406.179 232.227 405.469 231.118 404.176 231.118ZM403.728 236.276C402.782 236.276 402.297 235.417 402.422 233.984C402.546 232.551 403.181 231.691 404.126 231.691C405.071 231.691 405.557 232.551 405.432 233.984C405.308 235.417 404.673 236.276 403.728 236.276Z" fill="#263238"/>
<path d="M463.838 227.629C464.609 227.629 465.331 227.23 465.716 226.608L465.766 226.533L465.306 226.246L465.256 226.333C464.97 226.807 464.46 227.081 463.888 227.081C463.017 227.081 462.42 226.421 462.494 225.536C462.569 224.651 463.291 223.991 464.161 223.991C464.734 223.991 465.194 224.278 465.368 224.739L465.405 224.838L465.915 224.552L465.891 224.477C465.654 223.842 465.007 223.443 464.224 223.443C463.017 223.443 462.034 224.352 461.922 225.548C461.823 226.745 462.644 227.654 463.85 227.654L463.838 227.629Z" fill="#263238"/>
<path d="M468.304 227.542L470.356 223.505H469.734L468.067 226.807L466.973 223.505H466.351L467.707 227.542H468.304Z" fill="#263238"/>
<path d="M474.748 223.505H474.138L472.459 226.807L471.364 223.505H470.742L472.098 227.542H472.695L474.748 223.505Z" fill="#263238"/>
<path d="M463.602 231.118C462.295 231.118 461.4 232.214 461.238 233.996C461.089 235.765 461.798 236.861 463.092 236.861C464.385 236.861 465.293 235.765 465.455 233.996C465.604 232.227 464.895 231.118 463.602 231.118ZM463.154 236.276C462.208 236.276 461.723 235.416 461.848 233.983C461.972 232.55 462.606 231.691 463.552 231.691C464.497 231.691 464.982 232.55 464.858 233.983C464.734 235.416 464.099 236.276 463.154 236.276Z" fill="#263238"/>
<path d="M468.764 231.118C467.458 231.118 466.562 232.214 466.401 233.996C466.251 235.765 466.96 236.861 468.254 236.861C469.548 236.861 470.456 235.765 470.618 233.996C470.767 232.227 470.058 231.118 468.764 231.118ZM468.316 236.276C467.371 236.276 466.886 235.416 467.01 233.983C467.134 232.55 467.769 231.691 468.714 231.691C469.66 231.691 470.145 232.55 470.021 233.983C469.896 235.416 469.262 236.276 468.316 236.276Z" fill="#263238"/>
<path d="M473.927 231.118C472.621 231.118 471.725 232.214 471.563 233.996C471.414 235.765 472.123 236.861 473.417 236.861C474.71 236.861 475.619 235.765 475.78 233.996C475.93 232.227 475.22 231.118 473.927 231.118ZM473.479 236.276C472.533 236.276 472.048 235.416 472.173 233.983C472.297 232.55 472.931 231.691 473.877 231.691C474.822 231.691 475.308 232.55 475.183 233.983C475.059 235.416 474.424 236.276 473.479 236.276Z" fill="#263238"/>
<path d="M419.552 285.253C415.322 285.253 411.565 288.717 411.192 292.953L410.495 300.889C410.122 305.125 413.282 308.577 417.499 308.577H471.29C475.519 308.577 479.276 305.113 479.649 300.889L480.346 292.953C480.719 288.717 477.559 285.253 473.342 285.253H419.552Z" fill="#407BFF"/>
<path d="M429.491 293.625H427.202L426.617 300.279H427.301L427.513 297.812H429.118C430.312 297.812 431.295 296.915 431.407 295.719C431.506 294.523 430.685 293.625 429.491 293.625ZM429.18 297.164H427.575L427.824 294.286H429.429C430.25 294.286 430.797 294.896 430.722 295.731C430.648 296.566 430.001 297.164 429.167 297.164H429.18Z" fill="white"/>
<path d="M436.358 296.292C435.972 295.707 435.325 295.37 434.554 295.37C433.16 295.37 431.979 296.467 431.854 297.874C431.73 299.282 432.725 300.379 434.118 300.379C434.89 300.379 435.586 300.055 436.084 299.457L436.009 300.267H436.669L437.091 295.457H436.432L436.358 296.267V296.292ZM434.205 299.743C433.16 299.743 432.414 298.921 432.514 297.874C432.601 296.828 433.496 296.006 434.529 296.006C435.561 296.006 436.308 296.828 436.208 297.874C436.121 298.921 435.238 299.743 434.193 299.743H434.205Z" fill="white"/>
<path d="M440.052 299.431L438.609 295.482H437.9L439.642 300.279L439.542 300.491C439.331 300.902 438.883 301.574 438.174 301.512H438.075L438.025 302.135H438.112C438.112 302.135 438.199 302.135 438.236 302.135C438.983 302.135 439.717 301.574 440.164 300.652L442.652 295.482H441.943L440.052 299.431Z" fill="white"/>
<path d="M448.425 296.666L448.636 294.224C449.121 294.311 449.445 294.597 449.594 295.058L449.631 295.158L450.241 294.834L450.216 294.759C450.005 294.099 449.445 293.663 448.698 293.551L448.773 292.704H448.151L448.076 293.538C447.031 293.638 446.26 294.361 446.173 295.295C446.074 296.404 446.795 296.778 447.765 297.139L447.541 299.706C446.795 299.643 446.335 299.295 446.185 298.696L446.161 298.584L445.539 298.921L445.563 298.996C445.787 299.793 446.484 300.291 447.492 300.366L447.417 301.188H448.039L448.114 300.354C449.196 300.217 449.98 299.494 450.067 298.522C450.166 297.401 449.358 296.99 448.437 296.653L448.425 296.666ZM449.358 298.535C449.308 299.157 448.86 299.581 448.163 299.693L448.362 297.363C449.034 297.625 449.407 297.912 449.358 298.535ZM446.845 295.308C446.895 294.734 447.355 294.311 448.014 294.211L447.815 296.441C447.131 296.167 446.795 295.906 446.845 295.308Z" fill="white"/>
<path d="M451.012 294.248L451.137 294.859L452.642 294.398L452.119 300.279H452.804L453.388 293.625H452.878L451.012 294.248Z" fill="white"/>
<path d="M456.995 297.725C457.655 297.102 458.351 296.354 458.426 295.482C458.538 294.199 457.58 293.526 456.585 293.526C455.677 293.526 454.893 293.987 454.433 294.784L454.383 294.859L454.93 295.208L454.98 295.108C455.316 294.51 455.851 294.186 456.51 294.186C457.17 294.186 457.804 294.585 457.717 295.47C457.667 296.092 457.095 296.715 456.548 297.226L453.973 299.656L453.948 299.681L453.898 300.254H458.14L458.202 299.594H454.98L456.983 297.7L456.995 297.725Z" fill="white"/>
<path d="M462.034 293.526C460.491 293.526 459.409 294.834 459.222 296.952C459.036 299.07 459.882 300.378 461.437 300.378C462.992 300.378 464.061 299.07 464.248 296.952C464.435 294.834 463.589 293.526 462.034 293.526ZM461.499 299.718C460.354 299.718 459.77 298.684 459.919 296.952C460.068 295.22 460.84 294.186 461.984 294.186C463.128 294.186 463.713 295.22 463.564 296.952C463.415 298.684 462.643 299.718 461.499 299.718Z" fill="white"/>
<path d="M113.054 262.964H190.531C193.529 262.964 196.203 265.393 196.514 268.396L208.855 386.023C209.166 389.026 207.001 391.455 204.003 391.455H126.527L113.042 262.976L113.054 262.964Z" fill="#407BFF"/>
<path opacity="0.5" d="M113.054 262.964H190.531C193.529 262.964 196.203 265.393 196.514 268.396L208.855 386.023C209.166 389.026 207.001 391.455 204.003 391.455H126.527L113.042 262.976L113.054 262.964Z" fill="white"/>
<path d="M291.021 380.728C290.623 376.99 280.186 277.417 279.788 273.679C279.166 267.761 273.879 262.964 267.957 262.964H201.353C198.355 262.964 196.191 265.393 196.502 268.396L208.842 386.023C209.153 389.026 211.84 391.455 214.826 391.455H281.43C287.339 391.455 291.631 386.659 291.009 380.741L291.021 380.728Z" fill="#407BFF"/>
<path opacity="0.5" d="M291.021 380.728C290.623 376.99 280.186 277.417 279.788 273.679C279.166 267.761 273.879 262.964 267.957 262.964H201.353C198.355 262.964 196.191 265.393 196.502 268.396L208.842 386.023C209.153 389.026 211.84 391.455 214.826 391.455H281.43C287.339 391.455 291.631 386.659 291.009 380.741L291.021 380.728Z" fill="white"/>
<path d="M124.885 273.691C124.263 267.773 118.976 262.977 113.067 262.977C107.158 262.977 102.866 267.773 103.488 273.691C103.973 278.301 114.236 376.131 114.721 380.741C115.343 386.659 120.63 391.456 126.552 391.456C132.473 391.456 136.753 386.659 136.131 380.741C135.733 377.003 125.295 277.429 124.897 273.691H124.885Z" fill="#407BFF"/>
<path opacity="0.4" d="M124.885 273.691C124.263 267.773 118.976 262.977 113.067 262.977C107.158 262.977 102.866 267.773 103.488 273.691C103.973 278.301 114.236 376.131 114.721 380.741C115.343 386.659 120.63 391.456 126.552 391.456C132.473 391.456 136.753 386.659 136.131 380.741C135.733 377.003 125.295 277.429 124.897 273.691H124.885Z" fill="white"/>
<path d="M169.719 311.742H98.4002C86.5822 311.742 77.0034 321.335 77.0034 333.171C77.0034 345.008 86.5822 354.601 98.4002 354.601V434.166C98.4002 437.492 101.087 440.196 104.421 440.196H185.107C188.428 440.196 191.128 437.505 191.128 434.166V333.171C191.128 321.335 181.549 311.742 169.731 311.742H169.719Z" fill="#407BFF"/>
<path opacity="0.3" d="M169.719 311.742H98.4002C86.5822 311.742 77.0034 321.335 77.0034 333.171C77.0034 345.008 86.5822 354.601 98.4002 354.601V434.166C98.4002 437.492 101.087 440.196 104.421 440.196H185.107C188.428 440.196 191.128 437.505 191.128 434.166V333.171C191.128 321.335 181.549 311.742 169.731 311.742H169.719Z" fill="white"/>
<path d="M306.982 311.742H378.3C390.118 311.742 399.697 321.335 399.697 333.171C399.697 345.008 390.118 354.601 378.3 354.601V434.166C378.3 437.492 375.613 440.196 372.279 440.196H291.593C288.272 440.196 285.572 437.505 285.572 434.166V333.171C285.572 321.335 295.151 311.742 306.969 311.742H306.982Z" fill="#407BFF"/>
<path opacity="0.3" d="M306.982 311.742H378.3C390.118 311.742 399.697 321.335 399.697 333.171C399.697 345.008 390.118 354.601 378.3 354.601V434.166C378.3 437.492 375.613 440.196 372.279 440.196H291.593C288.272 440.196 285.572 437.505 285.572 434.166V333.171C285.572 321.335 295.151 311.742 306.969 311.742H306.982Z" fill="white"/>
<path d="M169.719 311.742C157.901 311.742 148.322 321.335 148.322 333.171C148.322 345.008 157.901 354.601 169.719 354.601V434.166C169.719 437.492 172.418 440.196 175.74 440.196H185.107C188.428 440.196 191.128 437.505 191.128 434.166V333.171C191.128 321.335 181.549 311.742 169.731 311.742H169.719Z" fill="#407BFF"/>
<path opacity="0.6" d="M169.719 311.742C157.901 311.742 148.322 321.335 148.322 333.171C148.322 345.008 157.901 354.601 169.719 354.601V434.166C169.719 437.492 172.418 440.196 175.74 440.196H185.107C188.428 440.196 191.128 437.505 191.128 434.166V333.171C191.128 321.335 181.549 311.742 169.731 311.742H169.719Z" fill="white"/>
<path d="M378.3 311.742C390.118 311.742 399.697 321.335 399.697 333.171C399.697 345.008 390.118 354.601 378.3 354.601V434.166C378.3 437.492 375.613 440.196 372.279 440.196H362.912C359.591 440.196 356.891 437.505 356.891 434.166V333.171C356.891 321.335 366.47 311.742 378.288 311.742H378.3Z" fill="#407BFF"/>
<path opacity="0.6" d="M378.3 311.742C390.118 311.742 399.697 321.335 399.697 333.171C399.697 345.008 390.118 354.601 378.3 354.601V434.166C378.3 437.492 375.613 440.196 372.279 440.196H362.912C359.591 440.196 356.891 437.505 356.891 434.166V333.171C356.891 321.335 366.47 311.742 378.288 311.742H378.3Z" fill="white"/>
<path d="M334.947 379.657H199.786C194.998 379.657 191.116 383.545 191.116 388.341V431.512C191.116 436.308 194.998 440.196 199.786 440.196H334.947C339.736 440.196 343.618 436.308 343.618 431.512V388.341C343.618 383.545 339.736 379.657 334.947 379.657Z" fill="#407BFF"/>
<path opacity="0.4" d="M334.947 379.657H199.786C194.998 379.657 191.116 383.545 191.116 388.341V431.512C191.116 436.308 194.998 440.196 199.786 440.196H334.947C339.736 440.196 343.618 436.308 343.618 431.512V388.341C343.618 383.545 339.736 379.657 334.947 379.657Z" fill="white"/>
<path d="M274.003 383.83V375.495C274.003 371.284 270.595 367.87 266.39 367.87H198.729C194.524 367.87 191.116 371.284 191.116 375.495V383.83C191.116 388.042 194.524 391.455 198.729 391.455H266.39C270.595 391.455 274.003 388.042 274.003 383.83Z" fill="#407BFF"/>
<path opacity="0.6" d="M274.003 383.83V375.495C274.003 371.284 270.595 367.87 266.39 367.87H198.729C194.524 367.87 191.116 371.284 191.116 375.495V383.83C191.116 388.042 194.524 391.455 198.729 391.455H266.39C270.595 391.455 274.003 388.042 274.003 383.83Z" fill="white"/>
<path d="M356.891 383.818V375.483C356.891 371.272 353.483 367.858 349.278 367.858H281.617C277.412 367.858 274.003 371.272 274.003 375.483V383.818C274.003 388.029 277.412 391.443 281.617 391.443H349.278C353.483 391.443 356.891 388.029 356.891 383.818Z" fill="#407BFF"/>
<path opacity="0.6" d="M356.891 383.818V375.483C356.891 371.272 353.483 367.858 349.278 367.858H281.617C277.412 367.858 274.003 371.272 274.003 375.483V383.818C274.003 388.029 277.412 391.443 281.617 391.443H349.278C353.483 391.443 356.891 388.029 356.891 383.818Z" fill="white"/>
<path d="M200.06 308.278C200.222 309.873 200.396 311.455 200.557 313.05C200.595 313.399 201.155 313.411 201.117 313.05C200.956 311.455 200.781 309.873 200.62 308.278C200.582 307.929 200.023 307.917 200.06 308.278Z" fill="#407BFF"/>
<path d="M197.298 282.051C198.069 289.353 198.828 296.654 199.6 303.955C199.637 304.304 200.197 304.316 200.159 303.955C199.388 296.654 198.629 289.353 197.858 282.051C197.821 281.703 197.261 281.69 197.298 282.051Z" fill="#407BFF"/>
<g opacity="0.3">
<path d="M200.06 308.278C200.222 309.873 200.396 311.455 200.557 313.05C200.595 313.399 201.155 313.411 201.117 313.05C200.956 311.455 200.781 309.873 200.62 308.278C200.582 307.929 200.023 307.917 200.06 308.278Z" fill="white"/>
</g>
<g opacity="0.3">
<path d="M197.298 282.051C198.069 289.353 198.828 296.654 199.6 303.955C199.637 304.304 200.197 304.316 200.159 303.955C199.388 296.654 198.629 289.353 197.858 282.051C197.821 281.703 197.261 281.69 197.298 282.051Z" fill="white"/>
</g>
<path d="M273.767 423.787V427.848C273.767 428.147 274.24 428.147 274.24 427.848V423.787C274.24 423.488 273.767 423.488 273.767 423.787Z" fill="#407BFF"/>
<path d="M273.767 403.902V419.389C273.767 419.688 274.24 419.688 274.24 419.389V403.902C274.24 403.603 273.767 403.603 273.767 403.902Z" fill="#407BFF"/>
<g opacity="0.2">
<path d="M273.767 423.787V427.848C273.767 428.147 274.24 428.147 274.24 427.848V423.787C274.24 423.488 273.767 423.488 273.767 423.787Z" fill="white"/>
</g>
<g opacity="0.2">
<path d="M273.767 403.902V419.389C273.767 419.688 274.24 419.688 274.24 419.389V403.902C274.24 403.603 273.767 403.603 273.767 403.902Z" fill="white"/>
</g>
<path d="M148.322 333.171H77.0034C77.0034 345.008 86.5822 354.601 98.4002 354.601H169.719C157.901 354.601 148.322 345.008 148.322 333.171Z" fill="#407BFF"/>
<g opacity="0.2">
<path d="M148.322 333.171H77.0034C77.0034 345.008 86.5822 354.601 98.4002 354.601H169.719C157.901 354.601 148.322 345.008 148.322 333.171Z" fill="white"/>
</g>
<path d="M322.171 257.855L313.924 258.129C313.214 258.154 312.68 257.593 312.729 256.883L314.048 238.431C314.098 237.721 314.72 237.123 315.429 237.098L323.676 236.824C324.386 236.799 324.92 237.36 324.871 238.07L323.552 256.522C323.502 257.232 322.88 257.83 322.171 257.855Z" fill="#407BFF"/>
<path d="M323.714 257.805L315.466 258.079C314.757 258.104 314.222 257.544 314.272 256.834L315.59 238.381C315.64 237.671 316.262 237.073 316.971 237.048L325.219 236.774C325.928 236.749 326.463 237.31 326.413 238.02L325.095 256.472C325.045 257.182 324.423 257.78 323.714 257.805Z" fill="#407BFF"/>
<path d="M314.272 256.821L315.59 238.369C315.64 237.659 316.262 237.061 316.971 237.036L315.429 237.086C314.72 237.111 314.098 237.709 314.048 238.419L312.729 256.871C312.68 257.581 313.214 258.142 313.924 258.117L315.466 258.067C314.757 258.092 314.222 257.532 314.272 256.821Z" fill="#407BFF"/>
<path opacity="0.5" d="M314.272 256.821L315.59 238.369C315.64 237.659 316.262 237.061 316.971 237.036L315.429 237.086C314.72 237.111 314.098 237.709 314.048 238.419L312.729 256.871C312.68 257.581 313.214 258.142 313.924 258.117L315.466 258.067C314.757 258.092 314.222 257.532 314.272 256.821Z" fill="white"/>
<path d="M319.074 239.167C319.024 239.79 318.489 240.313 317.867 240.338C317.245 240.363 316.772 239.864 316.822 239.241C316.872 238.618 317.407 238.095 318.029 238.07C318.651 238.045 319.123 238.544 319.074 239.167Z" fill="#263238"/>
<path d="M317.842 450.35L321.549 462.373L332.584 460.329L329.499 446.948L317.842 450.35Z" fill="#FAB27B"/>
<path opacity="0.2" d="M320.044 457.476L331.302 454.748L330.419 450.96L319.173 454.673L320.044 457.476Z" fill="black"/>
<path d="M335.308 460.417C335.183 460.417 335.059 460.342 335.009 460.23C334.959 460.105 334.984 459.968 335.084 459.881C335.246 459.719 339.052 456.168 341.291 456.255C341.702 456.255 342.1 456.43 342.399 456.729C342.772 457.04 342.909 457.563 342.722 458.024C342.361 458.822 340.806 459.495 339.251 459.856C337.958 460.155 336.639 460.342 335.308 460.404V460.417ZM336.179 459.781C338.592 459.52 341.764 458.747 342.15 457.788C342.212 457.663 342.249 457.464 341.938 457.152C341.764 456.965 341.515 456.853 341.254 456.878C341.055 456.878 340.856 456.878 340.669 456.94C339.003 457.601 337.485 458.573 336.179 459.794V459.781Z" fill="#407BFF"/>
<path d="M335.146 460.442C335.047 460.404 334.972 460.317 334.947 460.205C334.922 460.043 334.462 456.567 335.756 454.86C336.129 454.361 336.676 454.038 337.298 453.95C338.144 453.838 338.493 454.199 338.605 454.523C339.202 455.881 336.826 459.333 335.482 460.354C335.445 460.379 335.408 460.392 335.358 460.392C335.296 460.429 335.221 460.442 335.146 460.429V460.442ZM337.224 454.573C336.851 454.66 336.515 454.885 336.278 455.196C335.594 456.504 335.333 458 335.519 459.457C336.863 458.161 338.343 455.558 338.057 454.723C338.02 454.648 337.933 454.449 337.385 454.523L337.224 454.573Z" fill="#407BFF"/>
<path d="M333.604 458.959L319.857 462.211C319.335 462.335 318.974 462.796 318.987 463.332L319.148 475.118C319.148 476.165 320.007 477.012 321.052 477C321.188 477 321.313 476.987 321.45 476.95C326.388 475.692 330.73 474.371 336.9 472.926C344.178 471.206 342.536 472.515 351.132 470.608C356.307 469.462 355.859 463.357 353.607 463.594C343.294 464.703 341.54 461.924 336.838 459.245C335.83 458.76 334.686 458.647 333.616 458.946L333.604 458.959Z" fill="#263238"/>
<path d="M371.26 432.819L376.97 444.02L387.482 440.12L382.17 427.462L371.26 432.819Z" fill="#FAB27B"/>
<path opacity="0.2" d="M374.644 439.46L385.267 434.838L383.762 431.25L373.312 436.844L374.644 439.46Z" fill="black"/>
<path d="M390.193 439.746C390.069 439.771 389.944 439.722 389.87 439.609C389.795 439.497 389.808 439.36 389.87 439.261C390.007 439.074 393.142 434.925 395.368 434.626C395.779 434.563 396.202 434.663 396.538 434.912C396.961 435.161 397.172 435.647 397.085 436.133C396.861 436.98 395.455 437.903 393.975 438.538C392.756 439.049 391.487 439.46 390.193 439.759V439.746ZM390.94 438.974C393.266 438.301 396.264 436.993 396.488 435.984C396.525 435.859 396.525 435.647 396.164 435.386C395.965 435.224 395.692 435.161 395.443 435.224C395.244 435.249 395.057 435.299 394.871 435.386C393.341 436.32 392.009 437.529 390.94 438.962V438.974Z" fill="#407BFF"/>
<path d="M390.032 439.784C389.92 439.759 389.833 439.684 389.795 439.585C389.746 439.423 388.688 436.084 389.671 434.177C389.945 433.617 390.442 433.205 391.039 433.019C391.848 432.769 392.259 433.056 392.42 433.367C393.241 434.601 391.487 438.413 390.33 439.647C390.305 439.684 390.256 439.697 390.218 439.709C390.169 439.759 390.094 439.784 390.019 439.784H390.032ZM391.077 433.642C390.716 433.791 390.43 434.065 390.256 434.414C389.808 435.822 389.795 437.329 390.231 438.75C391.338 437.242 392.346 434.426 391.923 433.642C391.873 433.579 391.749 433.392 391.226 433.567L391.077 433.654V433.642Z" fill="#407BFF"/>
<path d="M388.265 438.588L375.278 444.145C374.793 444.357 374.507 444.88 374.606 445.403L376.771 456.99C376.957 458.024 377.94 458.71 378.973 458.523C379.109 458.498 379.234 458.46 379.358 458.411C384.011 456.33 388.066 454.287 393.901 451.795C400.78 448.854 399.387 450.424 407.522 447.073C412.424 445.054 410.943 439.124 408.766 439.734C398.802 442.587 396.6 440.145 391.5 438.326C390.43 438.015 389.285 438.102 388.278 438.588H388.265Z" fill="#263238"/>
<path d="M269.239 330.554C269.239 330.554 332.472 324.836 347.425 339.251C362.377 353.666 386.125 429.406 386.125 429.406L369.331 436.918C369.331 436.918 342.859 394.794 329.971 362.973C329.971 362.973 251.375 373.975 245.802 357.578L248.477 329.146L269.252 330.542L269.239 330.554Z" fill="#407BFF"/>
<path d="M366.172 435.311L368.71 439.335L388.141 430.053L385.603 424.646L366.172 435.311Z" fill="#407BFF"/>
<path opacity="0.3" d="M366.172 435.311L368.71 439.335L388.141 430.053L385.603 424.646L366.172 435.311Z" fill="black"/>
<path d="M221.183 329.209C221.183 329.209 217.078 363.073 231.621 367.832C246.163 372.579 289.579 367.458 289.579 367.458C289.579 367.458 289.666 402.568 315.914 454.411L331.427 448.979C331.427 448.979 322.283 361.204 315.018 349.33C309.818 340.833 294.915 328.287 221.171 329.221L221.183 329.209Z" fill="#407BFF"/>
<path d="M313.438 452.281L315.217 457.14L333.803 450.237L332.397 445.54L313.438 452.281Z" fill="#407BFF"/>
<path opacity="0.3" d="M313.438 452.281L315.217 457.14L333.803 450.237L332.397 445.54L313.438 452.281Z" fill="black"/>
<path opacity="0.1" d="M317.606 346.726C306.758 334.766 259.275 338.242 245.242 338.167V338.279C276.417 341.867 309.171 338.678 315.031 349.305C316.374 351.747 318.004 357.092 319.521 364.232C321.45 364.02 321.922 363.82 323.378 363.646C321.251 354.825 321.674 351.212 317.606 346.714V346.726Z" fill="black"/>
<path d="M262.634 248.822C262.634 248.822 270.496 248.561 279.614 270.913L289.89 291.047C289.89 291.047 303.823 281.578 311.486 269.53C311.486 269.53 312.63 248.299 320.131 249.956C327.62 251.613 328.802 259.026 327.073 262.802C325.344 266.589 320.02 274.214 320.02 274.214C320.02 274.214 301.857 305.549 290.089 305.935C278.333 306.334 266.739 283.446 266.739 283.446L263.082 261.842L262.646 248.822H262.634Z" fill="#FAB27B"/>
<path d="M264.126 248.424C264.126 248.424 272.324 250.168 278.731 267.598C278.731 267.598 281.132 268.122 280.958 271.56C280.958 271.56 284.963 285.564 273.755 295.955C273.755 295.955 271.404 296.092 270.446 292.18L265.296 283.235L260.792 262.303L260.531 254.653L260.904 247.95L264.126 248.436V248.424Z" fill="#263238"/>
<path d="M264.126 248.424C264.126 248.424 272.324 250.168 278.731 267.598C278.731 267.598 281.132 268.122 280.958 271.56C280.958 271.56 284.963 285.564 273.755 295.955C273.755 295.955 271.404 296.092 270.446 292.18L265.296 283.235L260.792 262.303L260.531 254.653L260.904 247.95L264.126 248.436V248.424Z" fill="#263238"/>
<path d="M309.109 272.271C309.109 272.271 313.14 274.077 315.951 277.503L318.191 275.149C318.191 275.149 316.474 271.361 310.391 270.364L309.109 272.271Z" fill="#407BFF"/>
<path opacity="0.7" d="M309.109 272.271C309.109 272.271 313.14 274.077 315.951 277.503L318.191 275.149C318.191 275.149 316.474 271.361 310.391 270.364L309.109 272.271Z" fill="white"/>
<path d="M319.696 277.965C318.701 279.534 316.959 280.207 315.802 279.46C314.645 278.725 314.521 276.856 315.528 275.286C316.536 273.716 318.265 273.043 319.422 273.791C320.579 274.538 320.703 276.395 319.696 277.965Z" fill="#407BFF"/>
<path d="M319.223 277.666C318.452 278.887 317.096 279.397 316.2 278.824C315.305 278.251 315.205 276.806 315.989 275.585C316.773 274.364 318.116 273.853 319.012 274.426C319.908 274.999 320.007 276.444 319.223 277.666Z" fill="#263238"/>
<path opacity="0.3" d="M264.064 277.566L265.284 283.235L270.434 292.18C271.392 296.092 273.743 295.955 273.743 295.955C275.994 293.862 277.624 291.632 278.806 289.389C274.912 282.973 267.784 279.185 264.064 277.553V277.566Z" fill="black"/>
<path d="M268.717 251.825C267.025 249.533 263.542 247.053 258.304 245.209L255.132 253.108L250.057 255.064L246.014 253.943L242.419 252.199L238.338 246.106L237.791 242.493C233.238 242.618 228.225 243.129 222.701 244.175C196.167 249.209 218.77 332.087 218.77 332.087C261.551 340.435 278.395 328.86 278.395 328.86C272.76 313.286 272.934 257.556 268.717 251.813V251.825Z" fill="#263238"/>
<path opacity="0.3" d="M225.114 256.036L210.671 261.331C209.813 266.626 209.651 272.744 209.938 279.123C229.543 275.884 225.127 256.036 225.127 256.036H225.114Z" fill="black"/>
<path d="M269.712 198.761C269.712 198.761 274.165 202.138 272.859 205.576C272.859 205.576 275.745 213.039 269.96 212.79C269.96 212.79 263.579 207.458 269.712 198.761Z" fill="#263238"/>
<path d="M251.835 253.744L255.443 250.081L258.192 245.147C257.321 244.848 256.401 244.561 255.418 244.287L256.239 232.526L242.505 224.477C242.505 224.477 242.941 239.416 239.594 242.443C238.898 243.079 238.923 242.443 237.94 242.468L239.557 248.648L244.695 255.052L251.823 253.731L251.835 253.744Z" fill="#FAB27B"/>
<path d="M238.823 242.094C238.823 242.094 242.642 251.688 248.613 253.731C248.613 253.731 245.615 262.353 241.162 257.569C236.72 252.784 236.21 242.181 236.21 242.181L238.81 242.094H238.823Z" fill="#407BFF"/>
<path opacity="0.7" d="M238.823 242.094C238.823 242.094 242.642 251.688 248.613 253.731C248.613 253.731 245.615 262.353 241.162 257.569C236.72 252.784 236.21 242.181 236.21 242.181L238.81 242.094H238.823Z" fill="white"/>
<path d="M247.369 254.23C247.369 254.23 254.037 252.872 256.687 244.449L259.66 245.695C259.66 245.695 258.491 258.902 253.801 258.69C249.111 258.466 247.357 254.23 247.357 254.23H247.369Z" fill="#407BFF"/>
<path opacity="0.7" d="M247.369 254.23C247.369 254.23 254.037 252.872 256.687 244.449L259.66 245.695C259.66 245.695 258.491 258.902 253.801 258.69C249.111 258.466 247.357 254.23 247.357 254.23H247.369Z" fill="white"/>
<path opacity="0.2" d="M242.418 225.499C242.418 225.499 242.729 236.226 255.729 239.926L256.164 233.784L242.418 225.499Z" fill="black"/>
<path d="M271.466 213.6C272.909 225.785 269.6 236.201 259.523 237.397C249.447 238.593 241.485 230.769 240.042 218.584C238.599 206.399 241.759 194.749 251.835 193.553C261.912 192.357 270.023 201.415 271.466 213.6Z" fill="#FAB27B"/>
<path d="M242.555 217.039C242.555 217.039 246.138 211.719 246.013 205.489C246.013 205.489 250.007 205.016 251.002 202.86C251.002 202.86 263.467 208.093 268.978 203.845C268.978 203.845 280.174 200.331 272.113 194.102C272.113 194.102 273.717 189.23 266.975 186.9C260.232 184.57 256.289 186.452 256.289 186.452C256.289 186.452 250.641 182.589 244.284 188.196C244.284 188.196 233.039 189.379 234.892 197.117C234.892 197.117 228.722 198.948 231.123 204.754C231.123 204.754 228.075 208.99 231.782 212.778C231.782 212.778 231.807 222.322 237.927 222.683C237.927 222.683 243.55 231.99 242.555 217.026V217.039Z" fill="#263238"/>
<path d="M244.11 216.74C245.541 218.995 245.392 221.661 243.774 222.683C242.157 223.704 239.694 222.708 238.263 220.453C236.833 218.197 236.982 215.531 238.599 214.51C240.217 213.488 242.68 214.485 244.11 216.74Z" fill="#FAB27B"/>
<path d="M236.335 190.937C236.671 190.663 236.31 190.09 235.974 190.364C234.083 191.909 233.063 194.039 233.735 195.971C232.342 195.31 230.675 195.123 229.344 196.045C228.983 196.294 229.344 196.855 229.705 196.618C230.799 195.871 232.13 195.995 233.275 196.506C231.645 196.656 230.177 198.3 229.356 199.933C229.157 200.319 229.754 200.643 229.953 200.256C230.924 198.338 232.877 196.207 234.855 197.677C235.004 197.815 235.153 197.964 235.327 198.089C235.663 198.35 236.086 197.914 235.788 197.603C235.626 197.428 235.452 197.279 235.29 197.154C233.362 195.173 234.258 192.656 236.347 190.949L236.335 190.937Z" fill="#263238"/>
<path d="M258.155 217.101C258.279 217.886 258.814 218.459 259.324 218.347C259.834 218.235 260.145 217.587 260.021 216.802C259.896 216.017 259.361 215.432 258.839 215.556C258.316 215.681 258.018 216.316 258.155 217.101Z" fill="#263238"/>
<path d="M267.074 217.151C267.199 217.936 267.721 218.509 268.244 218.397C268.766 218.285 269.065 217.637 268.94 216.839C268.816 216.042 268.281 215.481 267.758 215.593C267.236 215.706 266.937 216.353 267.074 217.151Z" fill="#263238"/>
<path d="M264.3 217.923C265.656 220.203 267.298 222.297 269.202 224.153C268.032 225.636 265.557 225.399 265.557 225.399L264.3 217.923Z" fill="#ED893E"/>
<path d="M262.696 229.149C260.842 229.199 259.038 228.489 257.72 227.168C257.633 227.081 257.633 226.931 257.72 226.844C257.807 226.757 257.956 226.744 258.055 226.844C259.511 228.264 261.551 228.912 263.566 228.601C263.691 228.563 263.828 228.626 263.865 228.75C263.902 228.875 263.84 229.012 263.716 229.049C263.691 229.049 263.653 229.062 263.629 229.049C263.318 229.099 263.007 229.137 262.696 229.137V229.149Z" fill="#263238"/>
<path d="M256.339 213.401C256.264 213.388 256.202 213.351 256.14 213.301C255.99 213.089 256.04 212.803 256.239 212.653C256.239 212.653 256.239 212.653 256.252 212.653C257.471 211.769 259.063 211.557 260.469 212.08C260.705 212.18 260.805 212.454 260.705 212.691C260.705 212.691 260.705 212.691 260.705 212.703C260.606 212.94 260.332 213.039 260.095 212.94C260.095 212.94 260.095 212.94 260.083 212.94C258.976 212.541 257.757 212.703 256.799 213.376C256.662 213.488 256.475 213.5 256.326 213.426L256.339 213.401Z" fill="#263238"/>
<path d="M270.134 213.189C270.209 213.164 270.271 213.127 270.321 213.064C270.445 212.84 270.371 212.566 270.159 212.429C270.159 212.429 270.159 212.429 270.147 212.429C268.841 211.669 267.248 211.607 265.892 212.255C265.668 212.379 265.594 212.653 265.706 212.877C265.706 212.877 265.706 212.877 265.706 212.89C265.83 213.114 266.104 213.189 266.328 213.077C266.328 213.077 266.328 213.077 266.34 213.077C267.398 212.578 268.642 212.616 269.649 213.201C269.798 213.301 269.985 213.301 270.122 213.201L270.134 213.189Z" fill="#263238"/>
<path d="M221.283 246.492C221.283 246.492 185.941 243.34 163.325 254.828C163.325 254.828 159.68 262.091 163.76 267.935C167.841 273.778 181.661 297.201 181.661 297.201L183.565 308.415C183.565 308.415 182.682 315.093 186.04 317.31C189.399 319.528 197.796 315.367 198.294 311.754C198.791 308.141 191.091 293.289 191.091 293.289C191.091 293.289 182.918 269.38 179.746 263.798C179.746 263.798 210.908 266.938 221.843 263.586C221.843 263.586 227.926 257.855 221.27 246.48L221.283 246.492Z" fill="#FAB27B"/>
<path d="M221.681 245.134C221.681 245.134 211.232 244.025 204.203 245.047C204.203 245.047 202.922 243.614 199.973 245.857C199.973 245.857 202.648 255.65 199.725 265.281C199.725 265.281 202.262 266.452 204.278 265.58C204.278 265.58 217.091 269.28 223.124 265.219C227.292 262.415 231.87 255.338 221.669 245.147L221.681 245.134Z" fill="#263238"/>
<path d="M453.699 71.6528C453.575 73.0856 452.318 74.2443 450.838 74.2443H449.706L449.495 76.6115H447.778L448.437 69.0737H451.286C452.766 69.0737 453.824 70.2324 453.699 71.6652V71.6528ZM451.983 71.6528C452.032 71.1046 451.684 70.681 451.149 70.681H450.017L449.843 72.6246H450.975C451.497 72.6246 451.92 72.201 451.97 71.6528H451.983Z" fill="#263238"/>
<path d="M458.426 75.4279H455.627L455.142 76.6115H453.264L456.486 69.0737H458.675L460.578 76.6115H458.7L458.426 75.4279ZM458.053 73.8082L457.419 71.0423L456.299 73.8082H458.066H458.053Z" fill="#263238"/>
<path d="M464.659 73.7083L464.41 76.6113H462.693L462.942 73.7083L460.815 69.061H462.768L463.95 71.9765L465.629 69.061H467.582L464.646 73.7083H464.659Z" fill="#263238"/>
<path d="M475.37 76.6115H473.653L474.039 72.2259L471.812 75.4279H471.613L469.946 72.2259L469.56 76.6115H467.844L468.503 69.0737H470.22L471.974 72.4253L474.313 69.0737H476.029L475.37 76.6115Z" fill="#263238"/>
<path d="M481.926 74.9545L481.776 76.6115H477.037L477.696 69.0737H482.373L482.224 70.7308H479.263L479.151 71.9767H481.838L481.702 73.6089H479.015L478.903 74.942H481.913L481.926 74.9545Z" fill="#263238"/>
<path d="M489.8 69.0737L489.141 76.6115H487.847L485.297 72.5125L484.936 76.6115H483.219L483.879 69.0737H485.172L487.723 73.1728L488.083 69.0737H489.8Z" fill="#263238"/>
<path d="M496.207 70.7308H494.266L493.756 76.6115H492.039L492.55 70.7308H490.609L490.758 69.0737H496.356L496.207 70.7308Z" fill="#263238"/>
<path d="M496.443 74.9045L497.998 74.0448C498.21 74.6677 498.632 75.0914 499.491 75.0914C500.349 75.0914 500.536 74.7674 500.561 74.4809C500.598 74.0199 500.188 73.833 499.08 73.5215C497.986 73.21 496.941 72.6743 497.065 71.229C497.189 69.7713 498.496 68.9365 499.789 68.9365C501.083 68.9365 501.942 69.5346 502.389 70.6434L500.859 71.4907C500.648 70.9549 500.324 70.6185 499.628 70.6185C499.093 70.6185 498.794 70.8926 498.769 71.1916C498.744 71.5405 498.906 71.7772 500.038 72.1261C501.145 72.4749 502.389 72.8736 502.253 74.4684C502.128 75.9261 500.884 76.7858 499.254 76.7858C497.625 76.7858 496.729 76.0258 496.406 74.9169L496.443 74.9045Z" fill="#263238"/>
<path d="M435.661 75.6644L434.865 74.1943C434.542 73.6336 434.33 73.2723 434.144 72.886H434.119C433.92 73.2598 433.733 73.6087 433.372 74.1693L432.551 75.5897L431.581 75.5648L433.659 72.3005L431.817 69.0112L432.8 69.0361L433.621 70.5935C433.858 71.0296 434.032 71.366 434.193 71.7149H434.218C434.417 71.3286 434.579 71.0296 434.84 70.6185L435.773 69.0984L436.744 69.1234L434.679 72.2631L436.632 75.6769L435.649 75.652L435.661 75.6644Z" fill="#F05A37" stroke="#F05A37" stroke-width="0.5" stroke-miterlimit="10"/>
<path d="M438.933 69.273C439.455 69.2107 440.065 69.1608 440.737 69.1858C441.956 69.2107 442.814 69.5222 443.374 70.0704C443.946 70.6186 444.27 71.391 444.245 72.4501C444.22 73.5091 443.872 74.3937 443.237 74.9793C442.615 75.5773 441.595 75.8888 440.314 75.8514C439.717 75.839 439.207 75.7891 438.784 75.7393L438.945 69.2854L438.933 69.273ZM439.642 75.0914C439.854 75.1412 440.165 75.1537 440.5 75.1662C442.304 75.216 443.312 74.2193 443.349 72.4501C443.399 70.9051 442.541 69.8959 440.762 69.8585C440.326 69.8585 439.99 69.8835 439.766 69.9208L439.642 75.0914Z" fill="#F05A37" stroke="#F05A37" stroke-width="0.5" stroke-miterlimit="10"/>
</g>
<defs>
<clipPath id="clip0_1655_4302">
<rect width="622" height="477" fill="white"/>
</clipPath>
</defs>
</svg>
