<?xml version="1.0" encoding="UTF-8"?>
<svg id="Layer_1" data-name="Layer 1" xmlns="http://www.w3.org/2000/svg" xmlns:xlink="http://www.w3.org/1999/xlink" viewBox="0 0 191.53 208.4">
  <defs>
    <style>
      .cls-1 {
        stroke: #0d4f8c;
        stroke-miterlimit: 10;
        stroke-width: 2px;
      }

      .cls-1, .cls-2, .cls-3 {
        fill: none;
      }

      .cls-4 {
        fill: #0d4f8c;
      }

      .cls-3 {
        clip-path: url(#clippath);
      }
    </style>
    <clipPath id="clippath">
      <rect class="cls-2" x="21.35" y="8.2" width="148.84" height="192"/>
    </clipPath>
  </defs>
  <rect class="cls-2" width="191.53" height="208.4"/>
  <g class="cls-3">
    <g>
      <path class="cls-4" d="m151.96,200.2v-8.11c-3.43-.41-6.39-1.57-8.87-3.49-2.48-1.92-4.34-4.55-5.56-7.92l3.45-1.57c1.19,3.03,2.79,5.34,4.82,6.93,2.02,1.59,4.78,2.39,8.29,2.39,3.14,0,5.98-.77,8.53-2.31,2.55-1.54,3.82-4,3.82-7.41,0-2.88-.94-5.22-2.81-7.03-1.87-1.81-5.41-3.52-10.62-5.12-5.11-1.58-8.71-3.39-10.82-5.43-2.11-2.04-3.16-4.79-3.16-8.27,0-3.68,1.44-6.64,4.32-8.86,2.88-2.22,5.75-3.42,8.61-3.61v-8.07h3.75v8.07c2.89.28,5.31,1.07,7.25,2.37,1.94,1.3,3.54,3.01,4.83,5.15l-3.3,1.71c-.96-1.62-2.31-2.98-4.05-4.08-1.74-1.1-3.92-1.65-6.55-1.65-3.08,0-5.71.82-7.87,2.45-2.16,1.64-3.24,3.81-3.24,6.51,0,2.41.81,4.39,2.44,5.95s5.04,3.13,10.23,4.73c5.03,1.59,8.75,3.55,11.15,5.9,2.41,2.34,3.6,5.42,3.59,9.23-.04,3.94-1.48,7.1-4.3,9.49-2.83,2.39-6.22,3.71-10.18,3.98v8.06h-3.75.02Z"/>
      <path class="cls-4" d="m35.3,65.76h27.87v-3.74h-27.87v3.74Zm0-16.06h27.87v-3.74h-27.87v3.74Zm-7.72,30.1c-1.74,0-3.22-.6-4.43-1.8-1.2-1.2-1.81-2.67-1.81-4.41V14.41c0-1.74.6-3.21,1.81-4.41,1.21-1.2,2.68-1.8,4.44-1.8h31.77l17.71,17.6v47.77c0,1.75-.6,3.22-1.81,4.43-1.2,1.2-2.68,1.8-4.43,1.8H27.58Zm29.94-52.11v-15.75h-29.92c-.62,0-1.2.26-1.72.78-.52.52-.78,1.09-.78,1.71v59.15c0,.62.26,1.19.78,1.71.52.52,1.09.78,1.72.78h43.23c.62,0,1.2-.26,1.72-.78.52-.52.78-1.09.78-1.71V27.69h-15.81Z"/>
      <path class="cls-1" d="m93.32,41.75h67.03v76.42"/>
      <path class="cls-4" d="m160.34,124.49c-1.11-2.97-2.99-6.66-4.99-8.94l4.99,1.8,4.99-1.8c-2,2.29-3.89,5.98-4.99,8.94Z"/>
      <path class="cls-1" d="m113.24,178.59H46.21v-76.42"/>
      <path class="cls-4" d="m46.21,95.85c1.11,2.97,2.99,6.66,4.99,8.94l-4.99-1.8-4.99,1.8c2-2.29,3.89-5.98,4.99-8.94Z"/>
    </g>
  </g>
</svg>