<?xml version="1.0" encoding="UTF-8"?>
<svg id="Layer_1" data-name="Layer 1" xmlns="http://www.w3.org/2000/svg" viewBox="0 0 191.53 208.4">
  <defs>
    <style>
      .cls-1 {
        fill: #f0f0f0;
      }

      .cls-2 {
        fill: #fff;
      }

      .cls-3, .cls-4, .cls-5 {
        fill: #fafafa;
      }

      .cls-6 {
        fill: #f5f5f5;
      }

      .cls-7 {
        fill: #e0e0e0;
      }

      .cls-8 {
        fill: #e6e6e6;
      }

      .cls-9 {
        opacity: .3;
      }

      .cls-9, .cls-10, .cls-4, .cls-5, .cls-11, .cls-12 {
        isolation: isolate;
      }

      .cls-13 {
        fill: #ed847e;
      }

      .cls-10, .cls-5 {
        opacity: .2;
      }

      .cls-4 {
        opacity: .7;
      }

      .cls-14, .cls-11 {
        fill: #ebebeb;
      }

      .cls-15 {
        fill: #407bff;
      }

      .cls-16 {
        fill: none;
      }

      .cls-17 {
        fill: #ffc3bd;
      }

      .cls-11 {
        opacity: .6;
      }

      .cls-12 {
        opacity: .5;
      }

      .cls-18 {
        fill: #263238;
      }
    </style>
  </defs>
  <rect class="cls-16" width="191.53" height="208.4"/>
  <g>
    <path class="cls-14" d="m191.27,151.43H.26v.1h191.01v-.1Z"/>
    <path class="cls-14" d="m172.13,157.58h-12.65v.1h12.65v-.1Z"/>
    <path class="cls-14" d="m126.79,158.62h-3.32v.1h3.32v-.1Z"/>
    <path class="cls-14" d="m159.1,154.04h-7.33v.1h7.33v-.1Z"/>
    <path class="cls-14" d="m36.8,154.68h-16.5v.1h16.5v-.1Z"/>
    <path class="cls-14" d="m42.62,154.68h-2.42v.1h2.42v-.1Z"/>
    <path class="cls-14" d="m86.27,156.29h-35.79v.1h35.79v-.1Z"/>
    <path class="cls-14" d="m90.8,134.4H17.04c-1.2,0-2.18-.98-2.18-2.18V28.52c0-1.2.98-2.18,2.18-2.18h73.77c1.2,0,2.18.98,2.18,2.18v103.69c0,1.2-.98,2.18-2.18,2.18ZM17.04,26.44c-1.15,0-2.09.94-2.09,2.09v103.69c0,1.15.94,2.09,2.09,2.09h73.77c1.15,0,2.09-.94,2.09-2.09V28.52c0-1.15-.94-2.09-2.09-2.09H17.04Z"/>
    <path class="cls-14" d="m173.43,134.4h-73.77c-1.2,0-2.18-.98-2.18-2.18V28.52c0-1.2.98-2.18,2.18-2.18h73.77c1.2,0,2.18.98,2.18,2.18v103.69c0,1.2-.98,2.18-2.18,2.18ZM99.67,26.44c-1.15,0-2.09.94-2.09,2.09v103.69c0,1.15.94,2.09,2.09,2.09h73.77c1.15,0,2.09-.94,2.09-2.09V28.52c0-1.15-.94-2.09-2.09-2.09h-73.77Z"/>
    <path class="cls-8" d="m160.91,36.84h-86.42v49.58h86.42v-49.58Z"/>
    <path class="cls-1" d="m163.22,36.84h-87.65v49.58h87.65v-49.58Z"/>
    <path class="cls-8" d="m160.91,86.41h-86.42v4.29h86.42v-4.29Z"/>
    <path class="cls-1" d="m167.07,86.41h-87.65v4.29h87.65v-4.29Z"/>
    <path class="cls-3" d="m159.98,83.18v-43.11h-81.19v43.11h81.19Z"/>
    <path class="cls-2" d="m84.76,83.18l18.98-43.11h8.96l-18.98,43.11h-8.96Z"/>
    <path class="cls-1" d="m80.3,79.96c-.13,0-.23-.1-.23-.23v-37.56c0-.13.1-.23.23-.23s.23.1.23.23v37.56c0,.13-.1.23-.23.23Z"/>
    <path class="cls-2" d="m95.65,83.18l18.98-43.11h3.49l-18.98,43.11h-3.49Z"/>
    <path class="cls-8" d="m159.98,83.18v-43.11h-.41v43.11h.41Z"/>
    <path class="cls-11" d="m163.98,44.95h-86.42l-.3-3.62h86.42l.3,3.62Z"/>
    <path class="cls-11" d="m163.98,50.88h-86.42l-.3-3.62h86.42l.3,3.62Z"/>
    <path class="cls-11" d="m163.98,56.82h-86.42l-.3-3.62h86.42l.3,3.62Z"/>
    <path class="cls-11" d="m163.98,62.75h-86.42l-.3-3.62h86.42l.3,3.62Z"/>
    <path class="cls-11" d="m163.98,68.69h-86.42l-.3-3.62h86.42l.3,3.62Z"/>
    <path class="cls-11" d="m163.98,74.62h-86.42l-.3-3.62h86.42l.3,3.62Z"/>
    <path class="cls-8" d="m54.56,50.93h-29.64v39.78h29.64v-39.78Z"/>
    <path class="cls-1" d="m56.63,50.93h-31.26v39.78h31.26v-39.78Z"/>
    <path class="cls-2" d="m54,88.08v-34.54h-26.02v34.54h26.02Z"/>
    <path class="cls-1" d="m40.82,79.95l-4.78-4.78c-2.4-2.4-2.4-6.31,0-8.71l4.78-4.78c.1-.1.26-.1.36,0l4.78,4.78c2.4,2.4,2.4,6.31,0,8.71l-4.78,4.78c-.1.1-.26.1-.36,0Zm.18-17.73l-4.6,4.6c-2.21,2.21-2.21,5.8,0,8l4.6,4.6,4.6-4.6c2.21-2.21,2.21-5.8,0-8l-4.6-4.6Z"/>
    <path class="cls-1" d="m85.58,110.51c-.19,0-.39,0-.59.02-4.19.34-7.57,4.32-7.84,9.23-.06,1.12.04,2.2.27,3.22.96,4.2,1.33,8.56,1.33,12.9v12.67c0,.92.63,1.66,1.42,1.66h5.42-.93,23.48v-39.72h-22.55Z"/>
    <path class="cls-3" d="m116.58,120.41c0-5.7-4.11-10.28-9.04-9.88-4.19.34-7.57,4.32-7.84,9.23-.06,1.12.04,2.2.27,3.22.96,4.2,1.33,8.56,1.33,12.9v12.67c0,.92.63,1.66,1.42,1.66h10.83c.78,0,1.42-.75,1.42-1.66v-13.41c0-4.08.38-8.16,1.31-12.09.2-.84.31-1.73.31-2.65Z"/>
    <path class="cls-6" d="m96.48,127.77h-29.51v22.46h29.51v-22.46Z"/>
    <path class="cls-8" d="m48.45,100.85h32.43c3.82,0,6.93,3.1,6.93,6.93v23.78h-46.28v-23.78c0-3.82,3.1-6.93,6.93-6.93h0Z"/>
    <path class="cls-6" d="m53.49,100.85h29.2c3.77,0,6.83,3.06,6.83,6.83v23.88h-42.85v-23.88c0-3.77,3.06-6.83,6.83-6.83Z"/>
    <path class="cls-14" d="m68.88,126.96h27.58c.82,0,1.49.66,1.49,1.49v2.39c0,.82-.66,1.49-1.49,1.49h-27.58c-.24,0-.44-.2-.44-.44v-4.47c0-.25.2-.44.44-.44h0Z"/>
    <path class="cls-8" d="m38.06,150.23h70.5v.09c0,.61-.5,1.12-1.12,1.12H39.17c-.62,0-1.12-.5-1.12-1.12v-.09h0Z"/>
    <path class="cls-1" d="m38.48,110.51c-.19,0-.39,0-.59.02-4.19.34-7.57,4.32-7.84,9.23-.06,1.12.04,2.2.27,3.22.96,4.2,1.33,8.56,1.33,12.9v12.67c0,.92.63,1.66,1.42,1.66h34.31v-39.72h-28.89Z"/>
    <path class="cls-3" d="m75.83,120.41c0-5.7-4.11-10.28-9.04-9.88-4.19.34-7.57,4.32-7.84,9.23-.06,1.12.04,2.2.27,3.22.96,4.2,1.33,8.56,1.33,12.9v12.67c0,.92.63,1.66,1.42,1.66h10.83c.78,0,1.42-.75,1.42-1.66v-13.41c0-4.08.38-8.16,1.31-12.09.2-.84.31-1.73.31-2.65Z"/>
    <path class="cls-6" d="m153.61,113.87c1.49,0,2.26-1.8,1.21-2.86-.78-.79-2.02-1.43-4.01-1.43s-3.24.64-4.01,1.43c-1.05,1.06-.28,2.86,1.21,2.86h5.59Z"/>
    <path class="cls-6" d="m159.22,113.25c.96,0,1.45-1.15.78-1.84-.5-.5-1.3-.92-2.57-.92s-2.08.41-2.57.92c-.67.68-.18,1.84.78,1.84h3.59Z"/>
    <path class="cls-1" d="m145.03,112.76s.22,2.23,8.59,2.23,8.59-2.23,8.59-2.23h-17.18Z"/>
    <path class="cls-8" d="m136.17,109.01c-.07,0-.14.01-.21.02v-.76c0-.33-.27-.6-.6-.6h-3.24c-.33,0-.6.27-.6.6v6.72h4.45v-1.08c.07,0,.14.02.21.02.98,0,1.78-.8,1.78-1.78v-1.35c0-.98-.8-1.78-1.78-1.78h0Zm1.02,3.13c0,.56-.46,1.02-1.02,1.02-.07,0-.15,0-.21-.02v-3.34c.07-.02.14-.02.21-.02.56,0,1.02.46,1.02,1.02v1.35h0Z"/>
    <path class="cls-8" d="m139.83,114.99h-16.59v36.44h16.59v-36.44Z"/>
    <path class="cls-6" d="m139.82,151.43h29.18v-36.44h-29.18v36.44Z"/>
    <path class="cls-8" d="m167.47,151.43v-34.92h-26.12v34.92h26.12Z"/>
    <path class="cls-7" d="m147.95,151.43v-34.92h-6.59v34.92h6.59Z"/>
    <path class="cls-6" d="m168.3,134.74v-1.53h-26.95v1.53h26.95Z"/>
    <path class="cls-8" d="m150.14,133.21h-5.73l1.7-12.55h4.03v12.55Z"/>
    <path class="cls-1" d="m158.54,133.21h-10.85l-2.02-14.69h10.85l2.02,14.69Z"/>
    <path class="cls-6" d="m159.99,133.21h-11.3l-2.02-14.69h11.3l2.02,14.69Z"/>
    <path class="cls-2" d="m149.7,132.05l-1.7-12.38h8.98l1.7,12.38h-8.98Z"/>
    <path class="cls-6" d="m151.94,128.07l-.56-4.1c-.1-.68.44-1.29,1.13-1.29h1.1c.57,0,1.05.42,1.13.99l.56,4.09c.1.68-.44,1.3-1.13,1.3h-1.1c-.57,0-1.05-.42-1.13-.99Z"/>
    <path class="cls-6" d="m95.77,168.68c40.91,0,74.07-1.94,74.07-4.32s-33.16-4.32-74.07-4.32-74.07,1.94-74.07,4.32,33.16,4.32,74.07,4.32Z"/>
    <path class="cls-15" d="m62.65,81.99c1.59-9.77-5.05-18.98-14.82-20.57-9.77-1.59-18.98,5.05-20.57,14.82-1.59,9.77,5.05,18.98,14.82,20.57,9.77,1.59,18.98-5.05,20.57-14.82Z"/>
    <path class="cls-4" d="m62.65,81.99c1.59-9.77-5.05-18.98-14.82-20.57-9.77-1.59-18.98,5.05-20.57,14.82-1.59,9.77,5.05,18.98,14.82,20.57,9.77,1.59,18.98-5.05,20.57-14.82Z"/>
    <path class="cls-3" d="m35.26,78.81c0-2.25.4-3.84,1.22-4.73.81-.9,2.05-1.35,3.71-1.35.8,0,1.46.1,1.97.29.51.2.93.45,1.25.77.32.32.58.65.76,1,.18.35.34.75.45,1.22.22.89.33,1.81.33,2.77,0,2.15-.36,3.73-1.09,4.73-.73,1-1.98,1.5-3.76,1.5-1,0-1.81-.16-2.42-.48-.62-.32-1.12-.79-1.51-1.4-.29-.44-.51-1.04-.67-1.79s-.24-1.6-.24-2.51Zm3.27,0c0,1.51.13,2.54.4,3.09.27.55.65.83,1.16.83.34,0,.62-.12.87-.35.24-.23.43-.61.54-1.11.11-.51.18-1.3.18-2.37,0-1.57-.13-2.64-.4-3.18-.27-.54-.67-.81-1.2-.81s-.94.28-1.18.83c-.24.55-.36,1.58-.36,3.07h0Z"/>
    <path class="cls-3" d="m53.79,72.72v12.07h-3.33v-7.91c-.54.41-1.06.74-1.57,1-.5.25-1.14.5-1.9.73v-2.7c1.12-.36,1.99-.79,2.61-1.3.62-.51,1.11-1.13,1.46-1.88h2.73Z"/>
    <path class="cls-15" d="m98.25,83.23c2.27-9.64-3.69-19.29-13.33-21.57-9.64-2.27-19.29,3.69-21.57,13.33-2.27,9.64,3.69,19.29,13.33,21.57,9.64,2.27,19.29-3.69,21.57-13.33Z"/>
    <path class="cls-4" d="m98.25,83.23c2.27-9.64-3.69-19.29-13.33-21.57-9.64-2.27-19.29,3.69-21.57,13.33-2.27,9.64,3.69,19.29,13.33,21.57,9.64,2.27,19.29-3.69,21.57-13.33Z"/>
    <path class="cls-3" d="m70.37,78.81c0-2.25.4-3.84,1.22-4.73.81-.9,2.05-1.35,3.71-1.35.8,0,1.46.1,1.97.29.51.2.93.45,1.25.77.32.32.58.65.76,1,.19.35.34.75.45,1.22.22.89.33,1.81.33,2.77,0,2.15-.36,3.73-1.09,4.73-.73,1-1.98,1.5-3.76,1.5-1,0-1.81-.16-2.42-.48-.62-.32-1.12-.79-1.51-1.4-.29-.44-.51-1.04-.67-1.79s-.24-1.6-.24-2.51Zm3.27,0c0,1.51.13,2.54.4,3.09.27.55.65.83,1.16.83.34,0,.62-.12.87-.35.24-.23.43-.61.54-1.11.11-.51.18-1.3.18-2.37,0-1.57-.13-2.64-.4-3.18-.27-.54-.67-.81-1.2-.81s-.94.28-1.18.83c-.24.55-.36,1.58-.36,3.07h0Z"/>
    <path class="cls-3" d="m91.08,84.79h-9.89c.11-.98.46-1.89,1.03-2.75.57-.86,1.65-1.88,3.23-3.05.97-.72,1.59-1.26,1.85-1.64.27-.37.4-.73.4-1.06,0-.36-.13-.67-.4-.93-.27-.26-.6-.39-1.01-.39s-.76.13-1.03.4c-.27.26-.45.73-.54,1.4l-3.3-.27c.13-.93.37-1.65.71-2.17.34-.52.83-.92,1.46-1.2.63-.28,1.5-.42,2.61-.42s2.06.13,2.71.4c.65.26,1.15.67,1.52,1.22.37.55.55,1.16.55,1.84,0,.72-.21,1.41-.63,2.07-.42.66-1.2,1.38-2.31,2.17-.66.46-1.11.78-1.33.96-.23.18-.49.42-.79.72h5.15v2.69h0Z"/>
    <path class="cls-15" d="m116.32,86.59c9.89-.5,17.5-8.92,17.01-18.81-.5-9.89-8.92-17.5-18.81-17-9.89.5-17.5,8.92-17.01,18.81.5,9.89,8.92,17.5,18.81,17Z"/>
    <path class="cls-4" d="m116.32,86.59c9.89-.5,17.5-8.92,17.01-18.81-.5-9.89-8.92-17.5-18.81-17-9.89.5-17.5,8.92-17.01,18.81.5,9.89,8.92,17.5,18.81,17Z"/>
    <path class="cls-3" d="m106.26,72.13c-.86-2.09-1.08-3.7-.68-4.84.41-1.14,1.38-2.03,2.91-2.66.74-.31,1.38-.46,1.93-.48.55-.01,1.04.06,1.45.23.42.17.78.38,1.08.63.31.25.6.57.88.96.54.73,1,1.54,1.36,2.43.82,1.99,1.08,3.59.79,4.79-.29,1.2-1.26,2.14-2.91,2.82-.92.38-1.73.54-2.42.48-.69-.06-1.33-.3-1.93-.72-.43-.29-.86-.76-1.3-1.4-.44-.64-.83-1.38-1.18-2.23h0Zm3.03-1.24c.58,1.4,1.09,2.3,1.55,2.71.46.41.92.52,1.39.32.31-.13.53-.35.67-.66.14-.31.16-.72.08-1.23-.09-.51-.33-1.26-.74-2.26-.6-1.46-1.13-2.38-1.58-2.78-.45-.4-.93-.5-1.42-.29-.5.21-.76.62-.78,1.22-.02.6.26,1.6.83,2.98h0Z"/>
    <path class="cls-3" d="m118.5,64.44l-3.09.67c-.14-1.02.03-1.91.51-2.68.48-.77,1.34-1.41,2.59-1.93,1.43-.59,2.58-.75,3.43-.48.86.27,1.46.81,1.79,1.62.19.47.24.96.14,1.45-.1.49-.35.99-.76,1.49.47-.07.84-.08,1.12-.03.46.07.86.25,1.21.53.35.28.63.68.84,1.19.26.64.35,1.32.26,2.04-.09.73-.39,1.38-.89,1.95-.5.58-1.26,1.07-2.28,1.5-1,.41-1.83.62-2.51.62-.67,0-1.29-.15-1.85-.44-.56-.3-1.08-.75-1.56-1.35l2.88-1.66c.37.57.73.91,1.08,1.05.35.13.72.12,1.11-.04.41-.17.69-.46.84-.87.15-.41.12-.87-.08-1.36-.21-.51-.5-.85-.88-1.02-.38-.17-.79-.16-1.24.02-.24.1-.54.29-.91.59l-.74-2.24c.18-.05.32-.09.41-.13.4-.16.68-.43.84-.79.16-.36.17-.72.03-1.07-.14-.33-.35-.56-.63-.68-.28-.12-.6-.1-.95.04-.36.15-.61.38-.74.69-.13.31-.13.75.02,1.33h0Z"/>
    <path class="cls-15" d="m169.96,83.23c2.27-9.64-3.69-19.29-13.33-21.57-9.64-2.27-19.29,3.69-21.57,13.33-2.27,9.64,3.69,19.29,13.33,21.57,9.64,2.27,19.29-3.69,21.57-13.33Z"/>
    <path class="cls-4" d="m169.96,83.23c2.27-9.64-3.69-19.29-13.33-21.57-9.64-2.27-19.29,3.69-21.57,13.33-2.27,9.64,3.69,19.29,13.33,21.57,9.64,2.27,19.29-3.69,21.57-13.33Z"/>
    <path class="cls-3" d="m141.74,78.81c0-2.25.41-3.84,1.22-4.73.81-.9,2.05-1.35,3.71-1.35.8,0,1.46.1,1.97.29.51.2.93.45,1.25.77.32.32.58.65.76,1,.18.35.34.75.45,1.22.22.89.33,1.81.33,2.77,0,2.15-.36,3.73-1.09,4.73-.73,1-1.98,1.5-3.76,1.5-1,0-1.81-.16-2.42-.48-.62-.32-1.12-.79-1.51-1.4-.29-.44-.51-1.04-.67-1.79-.16-.76-.24-1.6-.24-2.51Zm3.27,0c0,1.51.13,2.54.4,3.09.27.55.65.83,1.16.83.34,0,.62-.12.87-.35.25-.23.43-.61.54-1.11.11-.51.18-1.3.18-2.37,0-1.57-.13-2.64-.4-3.18-.27-.54-.67-.81-1.2-.81s-.94.28-1.18.83c-.25.55-.36,1.58-.36,3.07h0Z"/>
    <path class="cls-3" d="m158.46,82.58h-6.01v-2.71l6.01-7.14h2.87v7.29h1.49v2.56h-1.49v2.22h-2.87v-2.22Zm0-2.56v-3.74l-3.18,3.74h3.18Z"/>
    <path class="cls-15" d="m152.51,98.7c-1.05,0-1.91-.86-1.91-1.91s.86-1.91,1.91-1.91c8.83,0,16.02-7.19,16.02-16.02s-7.19-16.02-16.02-16.02-16.02,7.19-16.02,16.02c0,10.94-8.9,19.83-19.84,19.83s-19.84-8.9-19.84-19.83c0-8.83-7.19-16.02-16.02-16.02s-16.02,7.19-16.02,16.02c0,10.94-8.9,19.83-19.84,19.83s-19.84-8.9-19.84-19.84,8.9-19.84,19.84-19.84c1.05,0,1.91.86,1.91,1.91s-.86,1.91-1.91,1.91c-8.83,0-16.02,7.19-16.02,16.02s7.19,16.02,16.02,16.02,16.02-7.19,16.02-16.01c0-10.94,8.9-19.84,19.84-19.84s19.83,8.9,19.84,19.83c0,8.83,7.19,16.02,16.02,16.02s16.02-7.19,16.02-16.01c0-10.94,8.9-19.84,19.84-19.84s19.84,8.9,19.84,19.84-8.9,19.84-19.84,19.84Z"/>
    <path class="cls-15" d="m133.12,92.17l-.3-.24c.87-1.07,1.63-2.24,2.28-3.46l.34.18c-.65,1.24-1.43,2.43-2.31,3.52h0Z"/>
    <path class="cls-15" d="m124.48,98.54l-.14-.36c2.4-.96,4.59-2.35,6.49-4.12l.26.28c-1.94,1.81-4.16,3.22-6.61,4.2Z"/>
    <path class="cls-17" d="m72.91,161.5h2.81l.28-6.5h-2.8l-.28,6.5Z"/>
    <path class="cls-10" d="m76,155l-.14,3.35h-2.81l.14-3.35h2.81Z"/>
    <path class="cls-17" d="m52.34,159.29l2.74.59,2.75-6.05-2.74-.6-2.75,6.05Z"/>
    <path class="cls-10" d="m55.1,153.24l2.74.59-1.42,3.12-2.74-.59,1.42-3.12Z"/>
    <path class="cls-17" d="m66.91,70.01c-.96,1.69-1.93,3.45-2.86,5.18-.93,1.73-1.84,3.48-2.61,5.23-.2.44-.37.87-.55,1.3-.02.04,0,.01,0,.02h0s0-.02,0-.01c0,0-.01.03-.02.06,0,.07,0,.19.02.33.05.29.17.66.34,1.04.17.38.37.78.6,1.18.92,1.59,2.11,3.2,3.3,4.72l-1.44,1.54c-1.7-1.28-3.22-2.66-4.6-4.39-.68-.88-1.33-1.8-1.77-3.15-.1-.34-.19-.72-.21-1.16-.01-.22-.01-.45.02-.7.01-.12.03-.25.06-.37.01-.06.03-.13.05-.19l.05-.16c.17-.51.33-1.03.52-1.52.73-1.99,1.6-3.86,2.51-5.71.93-1.84,1.89-3.62,2.97-5.4l3.66,2.17h0Z"/>
    <path class="cls-17" d="m64.59,88.56l1.97.65-1.65,2.79s-1.45-.65-1.74-1.98l1.42-1.46Z"/>
    <path class="cls-17" d="m69.25,90.28l-1.92,2.15-2.43-.44,1.66-2.79,2.69,1.08Z"/>
    <path class="cls-18" d="m76.33,54.77c.05.22.2.38.34.35.15-.03.23-.23.18-.45-.05-.22-.2-.38-.34-.35-.15.03-.23.23-.18.45Z"/>
    <path class="cls-13" d="m76.51,55.15s.76,1.18,1.44,1.68c-.32.45-1.02.41-1.02.41l-.43-2.1h0Z"/>
    <path class="cls-18" d="m75.27,53.7s-.06-.01-.09-.03c-.05-.05-.06-.13,0-.19.5-.54,1.1-.44,1.13-.44.07.01.12.08.11.15-.01.07-.08.12-.15.11-.02,0-.49-.07-.89.36-.03.03-.06.04-.1.04h0Z"/>
    <path class="cls-17" d="m70.02,57.89c.4,2.05.81,5.81-.63,7.19,0,0,.56,2.08,4.38,2.08,4.19,0,2.01-2.08,2.01-2.08-2.29-.55-2.23-2.25-1.83-3.84l-3.92-3.34h0Z"/>
    <path class="cls-2" d="m68.81,65.53c-.3-.4-.64-.86.05-1,.76-.16,4.91-.32,6.35-.02,1.43.3,1.03,1.11,1.03,1.11l-7.43-.08Z"/>
    <path class="cls-15" d="m56.16,160.27c.28.06.56.08.7-.04.06-.05.11-.14.06-.31-.03-.09-.08-.15-.17-.2-.38-.18-1.25.18-1.29.19-.02.01-.04.03-.04.06s.02.05.04.06c.13.06.42.17.7.23h0Zm.46-.45s.05.02.08.03c.05.03.08.06.1.11.03.12,0,.16-.02.17-.15.13-.71.01-1.11-.15.27-.1.7-.21.95-.16h0Z"/>
    <path class="cls-15" d="m55.47,160.04h.03c.32-.09,1-.57,1-.89,0-.06-.02-.16-.17-.21-.1-.04-.2-.03-.29.02-.37.19-.61.97-.62,1,0,.02,0,.05.02.06,0,0,.02.02.03.02Zm.79-.99s.02,0,.03,0c.08.03.08.07.08.09,0,.19-.45.56-.78.72.08-.23.27-.67.51-.79.05-.03.11-.03.16-.02Z"/>
    <path class="cls-15" d="m76.85,161.64c.36,0,.71-.05.83-.21.04-.06.07-.15,0-.29-.04-.08-.11-.13-.21-.16-.47-.13-1.45.43-1.49.45-.02.02-.04.04-.03.07,0,.03.03.05.05.05.18.03.53.08.86.08h0Zm.44-.54s.09,0,.13.02c.06.02.1.05.13.09.05.08.03.12.01.15-.13.18-.84.19-1.36.11.26-.13.76-.37,1.09-.37h0Z"/>
    <path class="cls-15" d="m76,161.56s.02,0,.03,0c.34-.15,1.01-.76.96-1.08-.01-.07-.06-.17-.25-.19-.14-.02-.26.02-.37.11-.36.29-.43,1.05-.44,1.08,0,.02,0,.05.03.06.01,0,.03.01.04.01h0Zm.68-1.14h.04c.12.01.13.06.13.08.03.19-.42.67-.77.87.03-.22.14-.67.37-.87.07-.06.15-.09.23-.09h0Z"/>
    <path class="cls-18" d="m55.35,159.61l-3.08-.67c-.11-.02-.23.03-.28.14l-1.07,2.32c-.11.24.03.52.29.57,1.08.21,1.62.26,2.97.56.83.18,2.72.64,3.87.89,1.13.25,1.55-.86,1.1-1.06-2.01-.92-2.85-1.73-3.4-2.48-.1-.14-.24-.23-.41-.26h0Z"/>
    <path class="cls-18" d="m75.7,161.17h-3.06c-.11,0-.21.08-.24.19l-.55,2.49c-.06.26.14.5.4.5,1.1-.02,2.7-.08,4.09-.08,1.62,0,3.03.09,4.93.09,1.15,0,1.47-1.16.99-1.27-2.2-.48-3.99-.53-5.89-1.7-.21-.13-.44-.22-.68-.22h0Z"/>
    <path class="cls-17" d="m76.71,65.76c2.18-.23,4.43-.51,6.61-.86,2.18-.35,4.37-.77,6.31-1.41.24-.08.47-.17.7-.26.15-.06.34-.15.55-.27.42-.24.88-.52,1.34-.83.91-.61,1.83-1.25,2.75-1.91l5.54-3.98,1.41,1.57c-1.56,1.72-3.18,3.36-4.89,4.94-.86.79-1.73,1.56-2.66,2.31-.47.37-.94.75-1.49,1.12-.27.18-.58.37-.95.56-.3.14-.59.28-.89.4-1.18.49-2.34.84-3.5,1.15-1.16.31-2.32.56-3.48.78-2.33.44-4.61.74-6.99.93l-.35-4.24h0Z"/>
    <path class="cls-18" d="m64.36,65.71c-2.63.6-7.05,13.66-7.05,13.66l4.3,1.43s4.39-6.5,5.88-9.63c1.56-3.28-.44-6.08-3.12-5.46Z"/>
    <path class="cls-18" d="m62.36,80.16s-4.21-.8-5.17-1.4c-.34.49-.75,2.25-.47,2.78.29.52,4.19,1.27,4.73.97.53-.31.91-2.34.91-2.34h0Z"/>
    <path class="cls-5" d="m62.36,80.16s-4.21-.8-5.17-1.4c-.34.49-.75,2.25-.47,2.78.29.52,4.19,1.27,4.73.97.53-.31.91-2.34.91-2.34h0Z"/>
    <path class="cls-18" d="m80.08,65.85s2.99,3.37.17,24.26h-15.01c-.1-2.3,1.34-13.55-.88-24.4,0,0,2.57-.52,5.02-.63,1.92-.09,4.69-.15,6.38,0,2.22.2,4.32.78,4.32.78Z"/>
    <path class="cls-18" d="m74.77,70.32c2.69,2.78,16.19-2.76,16.19-2.76l-2.17-4.17s-8.44,1.75-11.91,1.68c-4.29-.09-4.16,3.13-2.11,5.25Z"/>
    <path class="cls-18" d="m88.13,63.31s2.15,3.71,2.32,4.82c.59-.06,2.2-.91,2.4-1.46.21-.55-1.78-4-2.37-4.21-.58-.2-2.36.85-2.36.85h0Z"/>
    <path class="cls-5" d="m88.13,63.31s2.15,3.71,2.32,4.82c.59-.06,2.2-.91,2.4-1.46.21-.55-1.78-4-2.37-4.21-.58-.2-2.36.85-2.36.85h0Z"/>
    <path class="cls-17" d="m100.44,56.29l1.92-2.25,2.06,2.28s-1.26,2.13-3.28,1.8l-.7-1.82Z"/>
    <path class="cls-17" d="m105.03,52.97l1.85,1.06-2.46,2.28-2.06-2.28,2.67-1.06Z"/>
    <path class="cls-17" d="m68.84,55.8c.72,2.69,1,4.3,2.67,5.42,2.5,1.68,5.61-.25,5.7-3.1.09-2.57-1.11-6.54-3.99-7.08-2.85-.53-5.1,2.07-4.38,4.76Z"/>
    <path class="cls-18" d="m74.73,45.57c1.9,4.02-8.01,1.79-8.07,5.44v.02h0c0,.16,0,.29.02.43-.29-.26-.86-.55-1.84-.16.54.13,1.16.65,1.54,1-.39.32-.96.5-.71,2.05.12.74.88,1.91,1.87,2.93.43.69,1.83,2.26,1.81,2.64.25,0,.47-.05.62-.13.07.21.11.37.08.45.52.1.93.03.97-.33.42.04.73-.07.74-.42.4.06.68-.07.66-.5.96-.53,1.29-1.64,1.47-2.88.22-1.57.98-3.02,2.2-4.03,1.92-1.58,2.69-4.03-1.36-6.51h0Z"/>
    <path class="cls-17" d="m72.7,55.66c.18.71.65,1.31,1.13,1.67.73.54,1.28,0,1.22-.82-.05-.74-.48-1.92-1.29-2.14-.79-.22-1.28.48-1.07,1.29h0Z"/>
    <path class="cls-15" d="m74.92,90.11s-3.19,21.45-4.93,29.48c-1.91,8.8-12.15,37.01-12.15,37.01l-5.02-1.09s7.66-26.41,8.76-35.12c1.18-9.45,3.67-30.28,3.67-30.28h9.68Z"/>
    <path class="cls-12" d="m74.92,90.11s-3.19,21.45-4.93,29.48c-1.91,8.8-12.15,37.01-12.15,37.01l-5.02-1.09s7.66-26.41,8.76-35.12c1.18-9.45,3.67-30.28,3.67-30.28h9.68Z"/>
    <path class="cls-9" d="m72.91,97.75c-3.68.72-3.29,14.46-2.85,21.52,1.06-4.99,2.62-14.6,3.68-21.42-.24-.12-.52-.16-.83-.1Z"/>
    <path class="cls-15" d="m80.25,90.11s.39,20.98.08,29.54c-.32,8.9-3.43,38.05-3.43,38.05h-4.75s-.18-28.63-.39-37.37c-.23-9.53-1.38-30.22-1.38-30.22h9.87Z"/>
    <path class="cls-12" d="m80.25,90.11s.39,20.98.08,29.54c-.32,8.9-3.43,38.05-3.43,38.05h-4.75s-.18-28.63-.39-37.37c-.23-9.53-1.38-30.22-1.38-30.22h9.87Z"/>
    <path class="cls-5" d="m75.91,154.28h0s-.05-.03-.04-.05c.84-8.06,2.81-27.57,3.06-34.58.26-7.16.02-23.18-.05-27.93,0-.03.02-.05.05-.05s.05.02.05.05c.08,4.74.31,20.77.05,27.93-.25,7.01-2.23,26.52-3.06,34.59,0,.02-.02.04-.05.04h0Z"/>
    <path class="cls-18" d="m59.04,154.92s-.94,1.82-.94,1.82l-5.65-1.22.48-1.7,6.11,1.11h0Z"/>
    <path class="cls-18" d="m77.82,155.8s-.27,1.97-.27,1.97h-5.78l-.16-1.76,6.21-.21Z"/>
  </g>
</svg>