<?xml version="1.0" encoding="UTF-8"?>
<svg id="Layer_1" data-name="Layer 1" xmlns="http://www.w3.org/2000/svg" xmlns:xlink="http://www.w3.org/1999/xlink" viewBox="0 0 191.53 208.4">
  <defs>
    <style>
      .cls-1 {
        fill: #1b1c1e;
      }

      .cls-2 {
        fill: #ffece7;
      }

      .cls-3, .cls-4 {
        fill: none;
      }

      .cls-4 {
        clip-path: url(#clippath);
      }
    </style>
    <clipPath id="clippath">
      <rect class="cls-3" x="6.47" y="31.34" width="178.59" height="134.99"/>
    </clipPath>
  </defs>
  <rect class="cls-3" width="191.53" height="208.4"/>
  <g class="cls-4">
    <g>
      <path class="cls-2" d="m106.2,163.18c32.65,0,59.12-26.21,59.12-58.53s-26.47-58.53-59.12-58.53-59.12,26.21-59.12,58.53,26.47,58.53,59.12,58.53Z"/>
      <path class="cls-1" d="m170.67,109.78c-.3,0-.6-.12-.83-.34l-.46-.45c-.45-.45-.45-1.19,0-1.63l.46-.45c.45-.45,1.2-.45,1.65,0l.46.45c.45.45.45,1.19,0,1.63l-.46.45c-.23.22-.53.34-.83.34Zm0-2.45c-.1,0-.2.04-.27.12l-.46.45c-.15.15-.15.39,0,.55l.46.45c.16.15.4.15.55,0l.46-.45c.15-.15.15-.39,0-.55l-.46-.45c-.08-.08-.18-.12-.27-.12h0Z"/>
      <path class="cls-1" d="m175.08,109.78c-.31,0-.61-.12-.83-.34l-.46-.45c-.45-.45-.45-1.19,0-1.63l.46-.45c.45-.45,1.2-.45,1.65,0l.46.45c.45.45.45,1.19,0,1.63l-.46.45c-.22.22-.51.34-.83.34Zm0-2.45c-.1,0-.2.04-.27.12l-.46.45c-.15.15-.15.39,0,.55l.46.45c.15.15.4.15.55,0l.46-.45c.15-.15.15-.39,0-.55l-.46-.45c-.08-.08-.18-.12-.27-.12h0Z"/>
      <path class="cls-1" d="m179.48,109.78c-.31,0-.61-.12-.83-.34l-.46-.45c-.45-.45-.45-1.19,0-1.63l.46-.45c.45-.45,1.2-.45,1.65,0l.46.45c.45.45.45,1.19,0,1.63l-.46.45c-.22.22-.51.34-.83.34Zm0-2.45c-.1,0-.2.04-.27.12l-.46.45c-.15.15-.15.39,0,.55l.46.45c.15.15.4.15.55,0l.46-.45c.15-.15.15-.39,0-.55l-.46-.45c-.08-.08-.18-.12-.27-.12h0Z"/>
      <path class="cls-1" d="m14.5,108.56c-.3,0-.6-.12-.83-.34l-.46-.45c-.45-.45-.45-1.19,0-1.63l.46-.45c.46-.45,1.2-.45,1.65,0l.46.45c.45.45.45,1.19,0,1.63l-.46.45c-.23.22-.53.34-.83.34Zm0-2.45c-.1,0-.2.04-.27.12l-.46.45c-.16.15-.16.39,0,.55l.46.45c.16.15.4.15.55,0l.46-.45c.16-.15.16-.39,0-.55l-.46-.45c-.08-.08-.18-.12-.27-.12h0Z"/>
      <path class="cls-1" d="m18.91,108.56c-.31,0-.61-.12-.82-.34l-.46-.45c-.46-.45-.46-1.19,0-1.63l.46-.45c.44-.44,1.21-.44,1.65,0l.46.45c.46.45.46,1.19,0,1.63l-.46.45c-.22.22-.51.34-.83.34Zm0-2.45c-.1,0-.2.04-.27.12l-.46.45c-.16.15-.16.39,0,.55l.46.45c.15.15.4.15.55,0l.46-.45c.15-.15.15-.39,0-.55l-.46-.45c-.08-.07-.17-.12-.27-.12h0Z"/>
      <path class="cls-1" d="m23.32,108.56c-.31,0-.61-.12-.83-.34l-.46-.45c-.45-.45-.45-1.19,0-1.63l.46-.45c.44-.44,1.21-.44,1.65,0l.46.45c.45.45.45,1.19,0,1.63l-.46.45c-.22.22-.51.34-.83.34Zm0-2.45c-.1,0-.2.04-.27.12l-.46.45c-.16.15-.16.39,0,.55l.46.45c.15.15.4.15.55,0l.46-.45c.16-.15.16-.39,0-.55l-.46-.45c-.07-.07-.17-.12-.27-.12h0Z"/>
      <path class="cls-1" d="m28.47,158.74c-.08,0-.16-.02-.23-.07l-2.55-1.76c-.18-.12-.22-.36-.09-.54.12-.18.37-.22.54-.09l2.55,1.76c.18.12.22.36.09.54-.08.11-.19.16-.32.16Z"/>
      <path class="cls-1" d="m24.12,155.15c-.22,0-.39-.17-.39-.39v-3.08c0-.22.17-.39.39-.39s.39.17.39.39v3.08c0,.22-.17.39-.39.39Z"/>
      <path class="cls-1" d="m19.77,158.74c-.12,0-.24-.05-.32-.16-.12-.18-.08-.42.09-.54l2.55-1.76c.18-.12.42-.08.54.09.12.18.08.42-.09.54l-2.55,1.76c-.07.05-.15.07-.23.07Z"/>
      <path class="cls-1" d="m43.07,87.95h-4.67c-.22,0-.39-.17-.39-.39s.17-.39.39-.39h4.67c.22,0,.39.17.39.39s-.17.39-.39.39Zm-9.34,0h-4.67c-.22,0-.39-.17-.39-.39s.17-.39.39-.39h4.67c.22,0,.39.17.39.39s-.17.39-.39.39Z"/>
      <path class="cls-1" d="m124.04,37.64h-4.67c-.22,0-.39-.17-.39-.39s.17-.39.39-.39h4.67c.22,0,.39.17.39.39s-.17.39-.39.39Zm-9.34,0h-4.67c-.22,0-.39-.17-.39-.39s.17-.39.39-.39h4.67c.22,0,.39.17.39.39s-.17.39-.39.39Zm-9.34,0h-4.67c-.22,0-.39-.17-.39-.39s.17-.39.39-.39h4.67c.22,0,.39.17.39.39s-.17.39-.39.39Zm-9.34,0h-4.67c-.22,0-.39-.17-.39-.39s.17-.39.39-.39h4.67c.22,0,.39.17.39.39s-.17.39-.39.39Z"/>
      <path class="cls-1" d="m125.56,39.8c-.12,0-.23-.05-.3-.15-.13-.17-.11-.41.06-.54l2.37-1.86-2.26-1.86c-.16-.14-.19-.38-.05-.54.14-.16.38-.18.54-.05l2.63,2.17c.09.08.14.18.14.3s-.05.22-.15.3l-2.75,2.17c-.07.05-.16.08-.24.08h0Z"/>
      <path class="cls-1" d="m165.22,166.33c-.3,0-.6-.12-.83-.34l-.46-.45c-.45-.45-.45-1.19,0-1.63l.46-.45c.46-.45,1.2-.45,1.65,0l.46.45c.45.45.45,1.19,0,1.63l-.46.45c-.23.22-.53.34-.82.34Zm0-2.45c-.1,0-.2.04-.27.11l-.46.46c-.16.15-.16.39,0,.55l.46.45c.16.15.4.15.55,0l.46-.45c.15-.15.15-.39,0-.55l-.46-.46c-.08-.08-.18-.11-.27-.11h0Z"/>
      <path class="cls-1" d="m169.63,166.33c-.31,0-.61-.12-.82-.34l-.46-.46c-.45-.45-.45-1.19,0-1.63l.46-.45c.44-.44,1.21-.44,1.65,0l.46.45c.45.45.45,1.19,0,1.63l-.46.46c-.22.22-.51.34-.83.34Zm0-2.45c-.1,0-.2.04-.27.12l-.46.46c-.16.15-.16.39,0,.55l.46.45c.15.15.4.15.55,0l.46-.45c.16-.15.16-.39,0-.55l-.46-.46c-.07-.07-.17-.12-.27-.12h0Z"/>
      <path class="cls-1" d="m174.03,166.33c-.31,0-.61-.12-.83-.34l-.46-.46c-.45-.45-.45-1.19,0-1.63l.46-.45c.44-.44,1.21-.44,1.65,0l.46.45c.45.45.45,1.19,0,1.63l-.46.46c-.22.22-.51.34-.83.34Zm0-2.45c-.1,0-.2.04-.27.12l-.46.46c-.16.15-.16.39,0,.55l.46.45c.15.15.4.15.55,0l.46-.45c.16-.15.16-.39,0-.55l-.46-.46c-.07-.07-.17-.12-.27-.12h0Z"/>
      <path class="cls-1" d="m39.93,112.24c-.1,0-.21-.04-.29-.12-.15-.15-.13-.4.02-.55,4.37-3.98,9.77-6.48,15.62-7.25.22-.03.41.12.44.33.03.21-.12.4-.33.43-5.7.75-10.95,3.19-15.19,7.06-.08.07-.17.1-.26.1Z"/>
      <path class="cls-1" d="m31.07,128.85h-.05c-.21-.03-.36-.22-.33-.44.72-4.89,2.72-9.53,5.81-13.43.13-.17.37-.19.54-.06.17.13.2.37.06.54-3,3.79-4.96,8.32-5.65,13.07-.03.19-.19.33-.38.33h0Z"/>
      <path class="cls-1" d="m36.41,149.68c-.12,0-.23-.05-.31-.15-2.88-3.81-4.76-8.3-5.42-12.99-.03-.21.12-.41.33-.44.21-.03.41.11.44.32.65,4.56,2.48,8.93,5.28,12.64.13.17.09.41-.08.54-.07.05-.16.08-.23.08h0Z"/>
      <path class="cls-1" d="m55.77,160.75h-.05c-6.26-.73-12.2-3.55-16.72-7.93-.16-.15-.16-.39,0-.55.15-.15.4-.15.55,0,4.4,4.27,10.17,7,16.26,7.71.21.02.37.22.34.43-.02.19-.19.34-.39.34h0Z"/>
      <path class="cls-1" d="m59.21,114.79c-5.9,0-11.57-1.76-16.39-5.08-.18-.12-.22-.36-.09-.54.12-.18.37-.22.54-.09,4.69,3.24,10.2,4.95,15.95,4.95.22,0,.39.17.39.39s-.17.39-.39.39h0Z"/>
      <path class="cls-1" d="m44.11,156.12c-.13,0-.26-.07-.33-.19-.11-.19-.05-.42.13-.53,4.48-2.69,9.63-4.12,14.89-4.12.22,0,.39.17.39.39s-.17.38-.39.38c-5.12,0-10.13,1.39-14.48,4.01-.06.04-.13.05-.2.05Z"/>
      <path class="cls-1" d="m44.91,130.56h-.02c-.22,0-.38-.19-.37-.4.53-12.04,4.96-22.09,11.01-25.03.19-.09.43-.02.52.18.09.19.02.42-.18.52-5.81,2.81-10.06,12.61-10.58,24.37,0,.21-.18.37-.39.37Z"/>
      <path class="cls-1" d="m55.86,160.19c-.05,0-.11,0-.16-.04-6.21-2.87-10.7-13.06-11.18-25.37,0-.22.16-.39.37-.4.21,0,.4.15.4.37.47,11.84,4.88,22,10.73,24.71.19.09.28.32.19.51-.06.14-.21.22-.35.22Z"/>
      <path class="cls-1" d="m57.02,124.28h-.02c-9.39-.27-17.82-2.37-22.58-5.62-.18-.12-.22-.36-.1-.54.12-.18.37-.22.54-.1,4.63,3.16,12.91,5.21,22.16,5.48.22,0,.38.18.38.39s-.18.38-.39.38h0Z"/>
      <path class="cls-1" d="m34.65,146.62c-.12,0-.24-.06-.32-.17-.12-.18-.08-.42.1-.54,4.75-3.24,13.18-5.34,22.56-5.62.19.02.4.16.4.38s-.16.39-.38.39c-9.24.27-17.51,2.32-22.14,5.48-.07.05-.15.07-.22.07h0Z"/>
      <path class="cls-1" d="m59.11,157.11c-.22,0-.39-.17-.39-.39v-13.93c0-.22.17-.39.39-.39s.39.17.39.39v13.93c0,.22-.17.39-.39.39Z"/>
      <path class="cls-1" d="m59.11,138.99c-.22,0-.39-.17-.39-.38v-12.66c0-.22.17-.39.39-.39s.39.17.39.39v12.66c0,.22-.17.38-.39.38Z"/>
      <path class="cls-1" d="m59.11,122.2c-.22,0-.39-.17-.39-.39v-13.52c0-.22.17-.39.39-.39s.39.17.39.39v13.52c0,.22-.17.39-.39.39Z"/>
      <path class="cls-1" d="m59.05,132.89h-12.15c-.22,0-.39-.17-.39-.39s.17-.38.39-.38h12.15c.22,0,.39.17.39.38s-.17.39-.39.39Z"/>
      <path class="cls-1" d="m42.9,132.89h-7.97c-.22,0-.39-.17-.39-.39s.17-.38.39-.38h7.97c.22,0,.39.17.39.38s-.17.39-.39.39Z"/>
      <path class="cls-1" d="m30.78,136.41c-2.18,0-3.95-1.76-3.95-3.91s1.77-3.91,3.95-3.91,3.95,1.76,3.95,3.91-1.77,3.91-3.95,3.91Zm0-7.05c-1.75,0-3.17,1.41-3.17,3.14s1.42,3.14,3.17,3.14,3.17-1.41,3.17-3.14-1.42-3.14-3.17-3.14Z"/>
      <path class="cls-1" d="m58.91,108.08c-2.09,0-3.79-1.69-3.79-3.75s1.7-3.75,3.79-3.75,3.79,1.69,3.79,3.75-1.7,3.75-3.79,3.75Zm0-6.74c-1.66,0-3.01,1.34-3.01,2.98s1.35,2.98,3.01,2.98,3.01-1.34,3.01-2.98-1.35-2.98-3.01-2.98Z"/>
      <path class="cls-1" d="m59.26,164.35c-2.09,0-3.79-1.69-3.79-3.75s1.7-3.75,3.79-3.75,3.79,1.69,3.79,3.75-1.7,3.75-3.79,3.75Zm0-6.73c-1.66,0-3.01,1.34-3.01,2.98s1.35,2.98,3.01,2.98,3.01-1.34,3.01-2.98-1.35-2.98-3.01-2.98Z"/>
      <path class="cls-1" d="m44.86,134.83c-1.29,0-2.35-1.04-2.35-2.33s1.05-2.33,2.35-2.33,2.35,1.04,2.35,2.33-1.05,2.33-2.35,2.33Zm0-3.88c-.86,0-1.57.69-1.57,1.56s.71,1.56,1.57,1.56,1.57-.7,1.57-1.56-.7-1.56-1.57-1.56Z"/>
      <path class="cls-1" d="m59.19,142.99c-1.29,0-2.35-1.04-2.35-2.33s1.05-2.33,2.35-2.33,2.35,1.04,2.35,2.33-1.05,2.33-2.35,2.33Zm0-3.88c-.86,0-1.57.7-1.57,1.56s.7,1.56,1.57,1.56,1.57-.7,1.57-1.56-.7-1.56-1.57-1.56Z"/>
      <path class="cls-1" d="m59.11,126.25c-1.29,0-2.35-1.04-2.35-2.33s1.05-2.33,2.35-2.33,2.35,1.04,2.35,2.33-1.05,2.33-2.35,2.33Zm0-3.88c-.86,0-1.57.7-1.57,1.56s.7,1.56,1.57,1.56,1.57-.69,1.57-1.56-.7-1.56-1.57-1.56Z"/>
      <path class="cls-1" d="m38.37,115.89c-1.29,0-2.35-1.04-2.35-2.33s1.05-2.33,2.35-2.33,2.35,1.04,2.35,2.33-1.05,2.33-2.35,2.33Zm0-3.88c-.86,0-1.57.7-1.57,1.56s.7,1.56,1.57,1.56,1.57-.7,1.57-1.56-.71-1.56-1.57-1.56Z"/>
      <path class="cls-1" d="m37.9,153.41c-1.29,0-2.35-1.04-2.35-2.33s1.05-2.33,2.35-2.33,2.35,1.04,2.35,2.33-1.05,2.33-2.35,2.33Zm0-3.88c-.86,0-1.57.69-1.57,1.56s.71,1.56,1.57,1.56,1.57-.7,1.57-1.56-.7-1.56-1.57-1.56Z"/>
      <path class="cls-1" d="m78.54,112.24c-.09,0-.19-.03-.26-.1-4.25-3.87-9.5-6.31-15.19-7.06-.21-.03-.37-.22-.33-.43.03-.21.23-.36.44-.33,5.85.77,11.25,3.28,15.62,7.25.16.15.17.39.02.55-.08.08-.18.12-.29.12Z"/>
      <path class="cls-1" d="m87.41,128.85c-.19,0-.36-.14-.38-.33-.69-4.75-2.65-9.28-5.65-13.07-.13-.17-.1-.41.07-.54.17-.13.41-.1.54.06,3.09,3.9,5.1,8.55,5.81,13.43.03.21-.12.41-.33.44h-.06Z"/>
      <path class="cls-1" d="m82.07,149.68c-.08,0-.16-.02-.23-.08-.17-.13-.21-.37-.08-.54,2.8-3.7,4.62-8.07,5.28-12.64.03-.21.23-.35.44-.32.21.03.36.22.33.44-.67,4.69-2.55,9.19-5.42,12.99-.08.1-.19.15-.31.15h0Z"/>
      <path class="cls-1" d="m62.71,160.75c-.19,0-.37-.15-.39-.34-.02-.21.12-.4.34-.43,6.09-.71,11.86-3.45,16.26-7.71.16-.15.4-.15.55,0,.15.15.15.39,0,.55-4.52,4.39-10.45,7.2-16.71,7.93h-.05Z"/>
      <path class="cls-1" d="m59.26,114.79c-.22,0-.39-.17-.39-.39s.17-.39.39-.39c5.74,0,11.25-1.71,15.95-4.95.18-.12.42-.08.54.09.12.18.08.42-.09.54-4.83,3.32-10.49,5.08-16.39,5.08h0Z"/>
      <path class="cls-1" d="m74.37,156.12c-.07,0-.14-.02-.2-.05-4.35-2.62-9.36-4.01-14.48-4.01-.22,0-.39-.17-.39-.38s.17-.39.39-.39c5.26,0,10.41,1.43,14.89,4.12.19.11.24.35.13.53-.07.12-.2.19-.33.19Z"/>
      <path class="cls-1" d="m73.57,130.56c-.21,0-.38-.16-.39-.37-.52-11.76-4.77-21.55-10.58-24.37-.19-.09-.27-.32-.18-.52.09-.19.33-.27.52-.18,6.06,2.94,10.48,12.99,11.01,25.03,0,.22-.16.39-.37.4h-.02Z"/>
      <path class="cls-1" d="m62.62,160.19c-.15,0-.29-.08-.35-.22-.09-.19,0-.42.19-.51,5.86-2.7,10.27-12.86,10.73-24.71,0-.22.19-.36.4-.37.22,0,.38.19.37.4-.48,12.31-4.97,22.51-11.18,25.37-.05.02-.11.04-.16.04Z"/>
      <path class="cls-1" d="m61.46,124.28c-.21,0-.38-.16-.39-.38,0-.22.16-.39.38-.39,9.24-.27,17.53-2.31,22.16-5.48.18-.12.42-.08.54.1.12.18.08.42-.1.54-4.75,3.24-13.19,5.34-22.58,5.62h-.02Z"/>
      <path class="cls-1" d="m83.82,146.62c-.08,0-.16-.02-.22-.07-4.63-3.16-12.9-5.21-22.14-5.48-.22,0-.38-.18-.38-.39s.22-.36.4-.38c9.38.27,17.82,2.37,22.56,5.62.18.12.22.36.1.54-.08.11-.19.17-.32.17h0Z"/>
      <path class="cls-1" d="m71.58,132.89h-12.15c-.22,0-.39-.17-.39-.39s.17-.38.39-.38h12.15c.22,0,.39.17.39.38s-.17.39-.39.39Z"/>
      <path class="cls-1" d="m83.55,132.89h-7.97c-.22,0-.39-.17-.39-.39s.17-.38.39-.38h7.97c.22,0,.39.17.39.38s-.17.39-.39.39Z"/>
      <path class="cls-1" d="m87.7,136.41c-2.18,0-3.95-1.76-3.95-3.91s1.77-3.91,3.95-3.91,3.95,1.76,3.95,3.91-1.77,3.91-3.95,3.91Zm0-7.05c-1.75,0-3.17,1.41-3.17,3.14s1.42,3.14,3.17,3.14,3.17-1.41,3.17-3.14-1.42-3.14-3.17-3.14Z"/>
      <path class="cls-1" d="m73.62,134.83c-1.29,0-2.35-1.04-2.35-2.33s1.05-2.33,2.35-2.33,2.35,1.04,2.35,2.33-1.05,2.33-2.35,2.33Zm0-3.88c-.86,0-1.57.69-1.57,1.56s.7,1.56,1.57,1.56,1.57-.7,1.57-1.56-.7-1.56-1.57-1.56Z"/>
      <path class="cls-1" d="m80.1,115.89c-1.29,0-2.35-1.04-2.35-2.33s1.05-2.33,2.35-2.33,2.35,1.04,2.35,2.33-1.05,2.33-2.35,2.33Zm0-3.88c-.86,0-1.57.7-1.57,1.56s.7,1.56,1.57,1.56,1.57-.7,1.57-1.56-.7-1.56-1.57-1.56Z"/>
      <path class="cls-1" d="m80.57,153.41c-1.29,0-2.35-1.04-2.35-2.33s1.05-2.33,2.35-2.33,2.35,1.04,2.35,2.33-1.05,2.33-2.35,2.33Zm0-3.88c-.86,0-1.57.69-1.57,1.56s.7,1.56,1.57,1.56,1.57-.7,1.57-1.56-.7-1.56-1.57-1.56Z"/>
      <path class="cls-1" d="m180,152.06h-25.95c-.16,0-.29-.13-.29-.29s.13-.29.29-.29h25.95c.59,0,1.07-.48,1.07-1.06v-27.75c0-.59-.48-1.06-1.07-1.06h-28.53c-.59,0-1.07.48-1.07,1.06v16.15c0,.16-.13.29-.29.29s-.29-.13-.29-.29v-16.15c0-.9.74-1.64,1.66-1.64h28.53c.91,0,1.66.73,1.66,1.64v27.75c0,.9-.74,1.64-1.66,1.64h0Z"/>
      <path class="cls-1" d="m179.76,121.61h-2.68v-3.94h2.68v3.94Zm-2.09-.58h1.51v-2.79h-1.51v2.79Z"/>
      <path class="cls-1" d="m176.11,121.61h-2.68v-3.94h2.68v3.94Zm-2.09-.58h1.51v-2.79h-1.51v2.79Z"/>
      <path class="cls-1" d="m172.47,121.61h-2.68v-3.94h2.68v3.94Zm-2.09-.58h1.51v-2.79h-1.51v2.79Z"/>
      <path class="cls-1" d="m168.83,121.61h-2.68v-3.94h2.68v3.94Zm-2.09-.58h1.51v-2.79h-1.51v2.79Z"/>
      <path class="cls-1" d="m165.18,121.61h-2.68v-3.94h2.68v3.94Zm-2.09-.58h1.51v-2.79h-1.51v2.79Z"/>
      <path class="cls-1" d="m161.53,121.61h-2.68v-3.94h2.68v3.94Zm-2.09-.58h1.51v-2.79h-1.51v2.79Z"/>
      <path class="cls-1" d="m157.88,121.61h-2.68v-3.94h2.68v3.94Zm-2.09-.58h1.51v-2.79h-1.51v2.79Z"/>
      <path class="cls-1" d="m154.24,121.61h-2.68v-3.94h2.68v3.94Zm-2.09-.58h1.51v-2.79h-1.51v2.79Z"/>
      <path class="cls-1" d="m179.85,155.43h-2.68v-3.95h2.68v3.95Zm-2.09-.58h1.51v-2.79h-1.51v2.79Z"/>
      <path class="cls-1" d="m176.2,155.43h-2.68v-3.95h2.68v3.95Zm-2.09-.58h1.51v-2.79h-1.51v2.79Z"/>
      <path class="cls-1" d="m172.56,155.43h-2.68v-3.95h2.68v3.95Zm-2.09-.58h1.51v-2.79h-1.51v2.79Z"/>
      <path class="cls-1" d="m168.9,155.43h-2.68v-3.95h2.68v3.95Zm-2.09-.58h1.51v-2.79h-1.51v2.79Z"/>
      <path class="cls-1" d="m165.26,155.43h-2.68v-3.95h2.68v3.95Zm-2.09-.58h1.51v-2.79h-1.51v2.79Z"/>
      <path class="cls-1" d="m161.61,155.43h-2.68v-3.95h2.68v3.95Zm-2.09-.58h1.51v-2.79h-1.51v2.79Z"/>
      <path class="cls-1" d="m175.13,147.32h-18.77c-.59,0-1.07-.48-1.07-1.06v-19.01c0-.59.48-1.06,1.07-1.06h18.77c.59,0,1.07.48,1.07,1.06v19.01c0,.59-.48,1.06-1.07,1.06Zm-18.77-20.55c-.26,0-.48.22-.48.48v19.01c0,.26.22.48.48.48h18.77c.26,0,.48-.22.48-.48v-19.01c0-.26-.22-.48-.48-.48h-18.77Z"/>
      <path class="cls-1" d="m150.41,125.33h-3.99v-2.65h3.99v2.65Zm-3.4-.58h2.82v-1.49h-2.82v1.49Z"/>
      <path class="cls-1" d="m150.41,128.95h-3.99v-2.65h3.99v2.65Zm-3.4-.58h2.82v-1.49h-2.82v1.49Z"/>
      <path class="cls-1" d="m150.41,132.55h-3.99v-2.65h3.99v2.65Zm-3.4-.58h2.82v-1.49h-2.82v1.49Z"/>
      <path class="cls-1" d="m185.06,125.24h-3.99v-2.65h3.99v2.65Zm-3.4-.58h2.82v-1.49h-2.82v1.49Z"/>
      <path class="cls-1" d="m185.06,128.85h-3.99v-2.65h3.99v2.65Zm-3.4-.58h2.82v-1.49h-2.82v1.49Z"/>
      <path class="cls-1" d="m185.06,132.46h-3.99v-2.65h3.99v2.65Zm-3.4-.58h2.82v-1.49h-2.82v1.49Z"/>
      <path class="cls-1" d="m185.06,136.07h-3.99v-2.65h3.99v2.65Zm-3.4-.58h2.82v-1.49h-2.82v1.49Z"/>
      <path class="cls-1" d="m185.06,139.68h-3.99v-2.65h3.99v2.65Zm-3.4-.58h2.82v-1.49h-2.82v1.49Z"/>
      <path class="cls-1" d="m185.06,143.29h-3.99v-2.65h3.99v2.65Zm-3.4-.58h2.82v-1.49h-2.82v1.49Z"/>
      <path class="cls-1" d="m185.06,146.9h-3.99v-2.65h3.99v2.65Zm-3.4-.58h2.82v-1.49h-2.82v1.49Z"/>
      <path class="cls-1" d="m185.06,150.51h-3.99v-2.65h3.99v2.65Zm-3.4-.58h2.82v-1.49h-2.82v1.49Z"/>
      <path class="cls-1" d="m165.84,135.43c-1.66,0-3-1.33-3-2.97s1.35-2.97,3-2.97,3,1.33,3,2.97-1.35,2.97-3,2.97Zm0-5.37c-1.34,0-2.42,1.08-2.42,2.4s1.09,2.4,2.42,2.4,2.42-1.08,2.42-2.4-1.09-2.4-2.42-2.4Z"/>
      <path class="cls-1" d="m173.18,139.92h-14.69c-.16,0-.29-.13-.29-.29s.13-.29.29-.29h14.69c.16,0,.29.13.29.29s-.13.29-.29.29Z"/>
      <path class="cls-1" d="m171.66,143.18h-11.64c-.16,0-.29-.13-.29-.29s.13-.29.29-.29h11.64c.16,0,.29.13.29.29s-.13.29-.29.29Z"/>
      <path class="cls-1" d="m151.42,146.43c-.16,0-.29-.13-.29-.29v-3.43c0-2.82-2.31-5.11-5.16-5.11s-5.16,2.29-5.16,5.11v3.43c0,.16-.13.29-.29.29s-.29-.13-.29-.29v-3.43c0-3.14,2.58-5.69,5.74-5.69s5.74,2.55,5.74,5.69v3.43c0,.16-.13.29-.29.29h-.02Z"/>
      <path class="cls-1" d="m152.12,160.04h-12.06c-1.02,0-1.84-.83-1.84-1.83v-10.26c0-1.01.83-1.83,1.84-1.83h12.06c1.02,0,1.84.82,1.84,1.83v10.26c0,1.01-.83,1.83-1.84,1.83Zm-12.06-13.35c-.7,0-1.26.56-1.26,1.25v10.26c0,.69.57,1.25,1.26,1.25h12.06c.7,0,1.26-.56,1.26-1.25v-10.26c0-.69-.57-1.25-1.26-1.25h-12.06Z"/>
      <path class="cls-1" d="m146.09,154.71c-.91,0-1.65-.73-1.65-1.63s.74-1.63,1.65-1.63,1.65.73,1.65,1.63-.74,1.63-1.65,1.63Zm0-2.69c-.59,0-1.07.47-1.07,1.06s.47,1.06,1.07,1.06,1.07-.47,1.07-1.06-.47-1.06-1.07-1.06Z"/>
      <path class="cls-1" d="m157.97,155.43h-2.68v-3.95h2.68v3.95Zm-2.09-.58h1.51v-2.79h-1.51v2.79Z"/>
      <path class="cls-1" d="m150.41,136.07h-3.99v-2.65h3.99v2.65Zm-3.4-.58h2.82v-1.49h-2.82v1.49Z"/>
      <path class="cls-1" d="m21.01,52.46h-11.13c-1.88,0-3.41-1.52-3.41-3.38,0-1.31.77-2.5,1.95-3.05-.02-.22-.03-.45-.03-.67,0-3.91,3.22-7.1,7.18-7.1,2.4,0,4.59,1.16,5.93,3.11.26-.04.51-.05.78-.05,2.28,0,4.3,1.43,5.07,3.52,1.4-.45,3.08-.02,4.1,1.1.15.16.13.4-.02.55-.16.15-.4.13-.55-.02-.9-.98-2.43-1.29-3.61-.76l-.41.18-.12-.44c-.54-1.98-2.37-3.36-4.44-3.36-.3,0-.59.03-.89.08l-.26.05-.14-.22c-1.18-1.86-3.2-2.96-5.41-2.96-3.53,0-6.4,2.84-6.4,6.33,0,.29.02.58.06.86l.05.31-.3.11c-1.03.38-1.72,1.36-1.72,2.45,0,1.44,1.18,2.6,2.63,2.6h11.13c.22,0,.39.17.39.39s-.17.39-.39.39l-.02-.02Z"/>
      <path class="cls-1" d="m34.2,72.05c-.22,0-.39-.17-.39-.39v-4.89c0-.22.17-.39.39-.39s.39.17.39.39v4.89c0,.22-.17.39-.39.39Z"/>
      <path class="cls-1" d="m52.28,74.16h-15.61c-.22,0-.39-.17-.39-.39s.17-.39.39-.39h15.61c.22,0,.39.17.39.39s-.17.39-.39.39Z"/>
      <path class="cls-1" d="m31.4,74.16h-15.27c-.22,0-.39-.17-.39-.39s.17-.39.39-.39h15.27c.22,0,.39.17.39.39s-.17.39-.39.39Z"/>
      <path class="cls-1" d="m34.2,76.85c-1.58,0-2.86-1.27-2.86-2.84s1.28-2.84,2.86-2.84,2.86,1.27,2.86,2.84-1.28,2.84-2.86,2.84Zm0-4.89c-1.15,0-2.09.92-2.09,2.07s.93,2.07,2.09,2.07,2.09-.92,2.09-2.07-.93-2.07-2.09-2.07Z"/>
      <path class="cls-1" d="m50.21,67.16h-31.12c-4.23,0-7.68-3.41-7.68-7.61s3.45-7.61,7.68-7.61c.45,0,.9.04,1.33.12,1.67-3.48,5.21-5.69,9.11-5.69.26,0,.52,0,.78.03,2.46-3.21,6.34-5.12,10.41-5.12,7.21,0,13.08,5.8,13.08,12.94,0,.17,0,.34,0,.51,1.98,1.23,3.21,3.39,3.21,5.71,0,3.71-3.04,6.72-6.79,6.72h0Zm-31.12-14.44c-3.81,0-6.9,3.07-6.9,6.84s3.1,6.84,6.9,6.84h31.12c3.32,0,6.01-2.67,6.01-5.95,0-2.12-1.16-4.1-3.02-5.17l-.21-.12.02-.24c.02-.23.02-.47.02-.7,0-6.71-5.52-12.17-12.3-12.17-3.91,0-7.61,1.86-9.92,4.98l-.13.18-.22-.02c-.3-.03-.61-.05-.93-.05-3.7,0-7.04,2.17-8.53,5.52l-.12.29-.31-.07c-.48-.1-.97-.15-1.47-.15h0Z"/>
      <path class="cls-1" d="m35.53,62.42h-2.64c-.4,0-.72-.32-.72-.72v-4.32h-2.21c-.28,0-.54-.16-.66-.42-.12-.25-.08-.56.11-.77l4.25-4.92c.27-.32.83-.32,1.11,0l4.25,4.92c.19.22.23.52.11.77-.12.25-.38.42-.66.42h-2.21v4.32c0,.4-.33.72-.72.72h0Zm-2.58-.77h2.58l-.05-5.05h2.87l-4.14-4.8-4.14,4.8h2.87v5.05h0Z"/>
      <path class="cls-1" d="m128.53,150.92h-46c-.22,0-.39-.17-.39-.39s.17-.38.39-.38h46c2.26,0,4.1-1.83,4.1-4.06V62.85c0-2.24-1.84-4.07-4.1-4.07h-44.95c-2.26,0-4.1,1.83-4.1,4.07v49c0,.22-.17.39-.39.39s-.39-.17-.39-.39v-49c0-2.67,2.19-4.84,4.88-4.84h44.95c2.69,0,4.88,2.17,4.88,4.84v83.23c0,2.67-2.19,4.83-4.88,4.83Z"/>
      <path class="cls-1" d="m124.18,146c-1.97,0-3.57-1.59-3.57-3.54s1.6-3.53,3.57-3.53,3.56,1.59,3.56,3.53-1.6,3.54-3.56,3.54Zm0-6.3c-1.54,0-2.79,1.24-2.79,2.76s1.25,2.77,2.79,2.77,2.79-1.24,2.79-2.77-1.25-2.76-2.79-2.76Z"/>
      <path class="cls-1" d="m98.05,70.11c-1.19,0-2.16-.96-2.16-2.14s.97-2.14,2.16-2.14,2.16.96,2.16,2.14-.97,2.14-2.16,2.14Zm0-3.51c-.76,0-1.39.62-1.39,1.37s.62,1.37,1.39,1.37,1.39-.62,1.39-1.37-.62-1.37-1.39-1.37Z"/>
      <path class="cls-1" d="m105.54,70.11c-1.19,0-2.16-.96-2.16-2.14s.97-2.14,2.16-2.14,2.16.96,2.16,2.14-.97,2.14-2.16,2.14Zm0-3.51c-.76,0-1.39.62-1.39,1.37s.62,1.37,1.39,1.37,1.39-.62,1.39-1.37-.62-1.37-1.39-1.37Z"/>
      <path class="cls-1" d="m113.02,70.11c-1.19,0-2.16-.96-2.16-2.14s.97-2.14,2.16-2.14,2.16.96,2.16,2.14-.97,2.14-2.16,2.14Zm0-3.51c-.76,0-1.39.62-1.39,1.37s.62,1.37,1.39,1.37,1.39-.62,1.39-1.37-.62-1.37-1.39-1.37Z"/>
      <path class="cls-1" d="m117.95,81.75h-23.77c-.22,0-.39-.17-.39-.39s.17-.39.39-.39h23.77c.22,0,.39.17.39.39s-.17.39-.39.39Z"/>
      <path class="cls-1" d="m117.95,90.84h-23.77c-.22,0-.39-.17-.39-.39s.17-.39.39-.39h23.77c.22,0,.39.17.39.39s-.17.39-.39.39Z"/>
      <path class="cls-1" d="m117.95,99.93h-23.77c-.22,0-.39-.17-.39-.39s.17-.39.39-.39h23.77c.22,0,.39.17.39.39s-.17.39-.39.39Z"/>
      <path class="cls-1" d="m117.95,109.02h-23.77c-.22,0-.39-.17-.39-.39s.17-.39.39-.39h23.77c.22,0,.39.17.39.39s-.17.39-.39.39Z"/>
      <path class="cls-1" d="m117.95,118.11h-23.77c-.22,0-.39-.17-.39-.38s.17-.39.39-.39h23.77c.22,0,.39.17.39.39s-.17.38-.39.38Z"/>
      <path class="cls-1" d="m117.95,127.2h-23.77c-.22,0-.39-.17-.39-.38s.17-.39.39-.39h23.77c.22,0,.39.17.39.39s-.17.38-.39.38Z"/>
      <path class="cls-1" d="m63.09,105.09c-.22,0-.39-.17-.39-.39v-31.3c0-.42.09-1.49.99-2.37.64-.63,1.49-.98,2.4-.98h12.17c.22,0,.39.17.39.39s-.17.39-.39.39h-12.17c-.69,0-1.35.27-1.84.76-.71.7-.76,1.57-.76,1.83v31.3c0,.22-.17.39-.39.39Z"/>
      <path class="cls-1" d="m70.12,84.17c-1.19,0-2.16-.96-2.16-2.14s.97-2.14,2.16-2.14,2.16.96,2.16,2.14-.97,2.14-2.16,2.14Zm0-3.51c-.76,0-1.39.62-1.39,1.37s.62,1.37,1.39,1.37,1.39-.62,1.39-1.37-.62-1.37-1.39-1.37Z"/>
      <path class="cls-1" d="m149.03,122.89c-.22,0-.39-.17-.39-.38v-49.11c0-1.43-1.17-2.58-2.61-2.58h-12.17c-.22,0-.39-.17-.39-.39s.17-.39.39-.39h12.17c1.87,0,3.39,1.5,3.39,3.35v49.11c0,.22-.17.38-.39.38Z"/>
      <path class="cls-1" d="m140.52,142.02h-6.86c-.22,0-.39-.17-.39-.38s.17-.39.39-.39h6.86c.22,0,.39.17.39.39s-.17.38-.39.38Z"/>
      <path class="cls-1" d="m142.01,84.17c-1.19,0-2.16-.96-2.16-2.14s.97-2.14,2.16-2.14,2.16.96,2.16,2.14-.97,2.14-2.16,2.14Zm0-3.51c-.76,0-1.39.62-1.39,1.37s.62,1.37,1.39,1.37,1.39-.62,1.39-1.37-.62-1.37-1.39-1.37Z"/>
      <path class="cls-1" d="m156.9,61.61c-.05,0-.11,0-.16-.04-5.66-2.58-9.32-8.23-9.32-14.39,0-8.73,7.18-15.84,15.99-15.84s15.99,7.1,15.99,15.84c0,.22-.17.39-.39.39s-.39-.17-.39-.39c0-8.31-6.83-15.07-15.22-15.07s-15.22,6.76-15.22,15.07c0,5.86,3.48,11.24,8.86,13.69.19.09.28.32.19.51-.06.14-.21.22-.35.22h0Z"/>
      <path class="cls-1" d="m178.95,47.82l-3.6-2.56c-.17-.12-.22-.36-.09-.54.12-.17.37-.22.54-.08l3.32,2.36,2.76-3c.15-.15.39-.17.55-.02.16.15.17.39.02.55l-2.99,3.24-.51.05h0Z"/>
      <path class="cls-1" d="m163.53,46.43c-.22,0-.39-.17-.39-.39v-7.98c0-.22.17-.39.39-.39s.39.17.39.39v7.98c0,.22-.17.39-.39.39Z"/>
      <path class="cls-1" d="m172.65,49.54h-6.44c-.22,0-.39-.17-.39-.39s.17-.39.39-.39h6.44c.22,0,.39.17.39.39s-.17.39-.39.39Z"/>
      <path class="cls-1" d="m163.53,52.19c-1.69,0-3.07-1.36-3.07-3.04s1.38-3.04,3.07-3.04,3.07,1.36,3.07,3.04-1.38,3.04-3.07,3.04Zm0-5.29c-1.26,0-2.29,1.02-2.29,2.27s1.03,2.27,2.29,2.27,2.29-1.02,2.29-2.27-1.03-2.27-2.29-2.27Z"/>
      <path class="cls-1" d="m182.88,69.6h-4.67c-.22,0-.39-.17-.39-.39s.17-.39.39-.39h4.67c.22,0,.39.17.39.39s-.17.39-.39.39Zm-9.34,0h-4.67c-.22,0-.39-.17-.39-.39s.17-.39.39-.39h4.67c.22,0,.39.17.39.39s-.17.39-.39.39Z"/>
      <path class="cls-1" d="m63.94,46.96c-.3,0-.6-.12-.83-.34l-.46-.45c-.46-.45-.46-1.19,0-1.63l.46-.45c.45-.45,1.2-.45,1.65,0l.46.45c.45.45.45,1.19,0,1.63l-.46.45c-.23.22-.53.34-.83.34Zm0-2.45c-.1,0-.2.04-.27.12l-.46.45c-.15.15-.15.39,0,.55l.46.45c.16.15.4.15.55,0l.46-.45c.15-.15.15-.39,0-.55l-.46-.45c-.08-.08-.18-.12-.27-.12h0Z"/>
      <path class="cls-1" d="m68.35,46.97c-.31,0-.61-.12-.83-.34l-.46-.45c-.45-.45-.45-1.19,0-1.63l.46-.45c.45-.45,1.2-.45,1.65,0l.46.45c.46.45.46,1.19,0,1.63l-.46.45c-.22.22-.51.34-.83.34Zm0-2.45c-.1,0-.2.04-.27.12l-.46.45c-.15.15-.15.39,0,.55l.46.45c.15.15.4.15.55,0l.46-.45c.15-.15.15-.39,0-.55l-.46-.45c-.08-.08-.18-.12-.27-.12h0Z"/>
      <path class="cls-1" d="m72.75,46.97c-.31,0-.61-.12-.83-.34l-.46-.45c-.46-.45-.46-1.19,0-1.63l.46-.45c.46-.45,1.2-.45,1.65,0l.46.45c.45.45.45,1.19,0,1.63l-.46.45c-.22.22-.51.34-.82.34Zm0-2.45c-.1,0-.2.04-.27.12l-.46.45c-.15.15-.15.39,0,.55l.46.45c.15.15.4.15.55,0l.46-.45c.15-.15.15-.39,0-.55l-.46-.45c-.08-.08-.18-.12-.27-.12h0Z"/>
    </g>
  </g>
</svg>