<?xml version="1.0" encoding="UTF-8"?>
<svg id="Layer_1" data-name="Layer 1" xmlns="http://www.w3.org/2000/svg" xmlns:xlink="http://www.w3.org/1999/xlink" viewBox="0 0 191.53 208.4">
  <defs>
    <style>
      .cls-1 {
        fill: #23292f;
      }

      .cls-2, .cls-3, .cls-4 {
        fill: none;
      }

      .cls-5 {
        fill: #6b527a;
      }

      .cls-3 {
        clip-path: url(#clippath);
      }

      .cls-6 {
        fill: #fcb905;
      }

      .cls-4 {
        stroke: #6b527a;
        stroke-linecap: round;
        stroke-linejoin: round;
        stroke-width: 1.14px;
      }
    </style>
    <clipPath id="clippath">
      <rect class="cls-2" x="6.27" y="8.2" width="179" height="192"/>
    </clipPath>
  </defs>
  <rect class="cls-2" width="191.53" height="208.4"/>
  <g class="cls-3">
    <g>
      <path class="cls-4" d="m145.73,147.15s-25.84-5.87-27.65-14.36v-27.21"/>
      <path class="cls-4" d="m70.62,105.59v27.21s-5.56,11.23-25.05,14.63"/>
      <path class="cls-5" d="m6.27,200.2c0-33.88,39.03-53.7,39.03-53.7l49.2,20.49,51.73-20.49s39.04,19.83,39.04,53.7H6.27Z"/>
      <path class="cls-5" d="m71.14,106.31s7.01,13.96,18.35,20.45c8.23,4.71,18.88,2.88,24.46-4.8,2.79-3.84,4.91-9.47,4.91-17.76,0,0-9.08,12-22.61,12.57-13.53.56-25.11-10.44-25.11-10.44Z"/>
      <path class="cls-1" d="m130.47,39.89c0-6.11-3.58-11.66-9.14-14.16l-6.45-3.43c-3.02-7.59-9.36-14.45-22.53-14.11-1.22.03-2.43.26-3.58.65-3.67,1.21-11.16,4.59-12.87,12.2l-8.8,4.68c-5.56,2.5-9.14,8.03-9.14,14.16v23.08c-.06,1.64-.06,3.26,0,4.8v.23-.2c.06,1.49.2,2.93.39,4.24,0,0,7.96-16.02,6.45-25.98-.53-3.49-.02-7.11,1.96-10.02.51-.76,1.07-1.46,1.66-2.11,2.69-2.96,5.59-4.94,8.34-6.31,1.86,5.4,6.99,13.08,21.22,16.28,0,0-9.35-6.26-14.6-13.7,4.58,4.37,14.22,10.13,33.92,11.49,0,0,.62-5.26-.36-11.6,1.37,1,2.75,2.18,4.03,3.59.01.02.03.05.06.06,2.9,3.21,3.87,7.72,2.93,11.94-2.66,11.97,5.18,26.36,5.18,26.36.33-2.09.47-4.46.47-6.94.05,1.97,0,3.3,0,3.62l.85-28.84v-.02Z"/>
      <path class="cls-6" d="m91.53,82.77v-.84c0-.84.07-1.58.23-2.21.16-.63.44-1.23.84-1.79.4-.56.96-1.14,1.67-1.73.89-.75,1.58-1.38,2.09-1.89.51-.51.84-1,1.05-1.49.19-.47.3-1.07.3-1.75,0-1.1-.37-1.96-1.09-2.58-.72-.61-1.75-.91-3.12-.91-1.11,0-2.09.14-2.91.42-.84.28-1.63.6-2.39.95l-.93-2.17c.86-.44,1.82-.82,2.89-1.12,1.05-.3,2.25-.46,3.56-.46,2.09,0,3.7.51,4.84,1.54,1.14,1.03,1.7,2.45,1.7,4.27,0,1-.16,1.86-.49,2.56-.32.72-.77,1.37-1.37,1.94-.6.6-1.28,1.21-2.09,1.87-.77.65-1.37,1.21-1.75,1.68-.39.47-.65.96-.77,1.45-.12.49-.18,1.07-.18,1.73v.47h-2.07l-.02.04Zm-.74,4.33c0-.75.18-1.28.51-1.58.35-.3.79-.46,1.35-.46.51,0,.95.16,1.32.46.37.3.54.82.54,1.58s-.18,1.26-.54,1.59c-.37.33-.81.51-1.32.51-.56,0-1-.16-1.35-.51-.35-.33-.51-.86-.51-1.59Z"/>
    </g>
  </g>
</svg>