<?xml version="1.0" encoding="UTF-8"?>
<svg id="Layer_1" data-name="Layer 1" xmlns="http://www.w3.org/2000/svg" xmlns:xlink="http://www.w3.org/1999/xlink" viewBox="0 0 191.53 208.4">
  <defs>
    <style>
      .cls-1 {
        stroke: #fff;
        stroke-width: 2px;
      }

      .cls-1, .cls-2 {
        fill: #f7941f;
      }

      .cls-1, .cls-3 {
        stroke-miterlimit: 10;
      }

      .cls-4 {
        fill: #fff;
      }

      .cls-5 {
        fill: #0d2e45;
      }

      .cls-6, .cls-7, .cls-8, .cls-3 {
        fill: none;
      }

      .cls-7 {
        clip-path: url(#clippath);
      }

      .cls-8 {
        stroke-linejoin: round;
        stroke-width: 5px;
      }

      .cls-8, .cls-3 {
        stroke: #0d2e45;
        stroke-linecap: round;
      }

      .cls-3 {
        stroke-width: 3px;
      }
    </style>
    <clipPath id="clippath">
      <rect class="cls-6" x="22.22" y="13.72" width="147.1" height="180.96"/>
    </clipPath>
  </defs>
  <rect class="cls-6" width="191.53" height="208.4"/>
  <g class="cls-7">
    <g>
      <path class="cls-3" d="m104.73,30.21c6.75,0,12.23,5.45,12.23,12.17s-5.48,12.17-12.23,12.17"/>
      <path class="cls-3" d="m104.73,135.32c6.75,0,12.23,5.45,12.23,12.17s-5.48,12.17-12.23,12.17"/>
      <path class="cls-3" d="m134.24,85.46c6.75,0,12.23-5.45,12.23-12.17s-5.48-12.17-12.23-12.17-12.23,5.45-12.23,12.17,5.47,12.17,12.23,12.17Z"/>
      <path class="cls-3" d="m155.6,141.3c6.75,0,12.23-5.45,12.23-12.17s-5.47-12.17-12.23-12.17-12.23,5.45-12.23,12.17,5.47,12.17,12.23,12.17Z"/>
      <path class="cls-2" d="m96.82,187.76c1.37,0,2.48-1.11,2.48-2.47V23.11c0-1.36-1.11-2.47-2.48-2.47s-2.48,1.11-2.48,2.47v162.18c0,1.36,1.11,2.47,2.48,2.47Z"/>
      <path class="cls-5" d="m134.24,54.56c-1.37,0-2.48-.91-2.48-1.07v-19.86c0-.17,1.11-1.07,2.48-1.07s2.48.91,2.48,1.07v19.86c0,.17-1.11,1.07-2.48,1.07Z"/>
      <path class="cls-5" d="m155.6,110.19c-1.37,0-2.48-.91-2.48-1.07v-19.86c0-.17,1.11-1.07,2.48-1.07s2.48.91,2.48,1.07v19.86c0,.17-1.11,1.07-2.48,1.07Z"/>
      <path class="cls-5" d="m155.6,170.06c-1.37,0-2.48-.91-2.48-1.07v-19.86c0-.17,1.11-1.07,2.48-1.07s2.48.91,2.48,1.07v19.86c0,.17-1.11,1.07-2.48,1.07Z"/>
      <path class="cls-5" d="m134.24,121.19c-1.37,0-2.48-.91-2.48-1.07v-19.86c0-.17,1.11-1.07,2.48-1.07s2.48.91,2.48,1.07v19.86c0,.17-1.11,1.07-2.48,1.07Z"/>
      <path class="cls-5" d="m134.24,163.31c-1.37,0-2.48-.91-2.48-1.07v-19.86c0-.17,1.11-1.07,2.48-1.07s2.48.91,2.48,1.07v19.86c0,.17-1.11,1.07-2.48,1.07Z"/>
      <path class="cls-5" d="m110.85,185.31c-1.37,0-2.48-.91-2.48-1.07v-19.86c0-.17,1.11-1.07,2.48-1.07s2.48.91,2.48,1.07v19.86c0,.17-1.11,1.07-2.48,1.07Z"/>
      <path class="cls-1" d="m96.82,69.34l-33.58,14.85v22.28c0,20.61,14.32,39.89,33.58,44.57,19.25-4.68,33.58-23.95,33.58-44.57v-22.28l-33.58-14.85Z"/>
      <path class="cls-4" d="m92.67,115.47c-.39.31-.81.42-1.29.38-.48-.06-.86-.28-1.17-.65-.31-.38-.43-.81-.38-1.28.06-.47.28-.86.66-1.17.38-.31.81-.42,1.29-.38.48.06.86.28,1.17.65.31.38.43.81.38,1.28-.06.47-.28.86-.66,1.17Zm3.33,4.18c-1.55,1.22-3.29,1.72-5.24,1.49-1.95-.23-3.53-1.11-4.75-2.64-1.22-1.53-1.73-3.27-1.5-5.22.23-1.94,1.11-3.52,2.65-4.73,1.14-.9,2.42-1.41,3.83-1.52,1.41-.11,2.72.16,3.93.81l10.26-8.1,4,.46-.77,6.31-3.05.08-.84,3.06-3.04.25-3.03,2.39c.35,1.3.32,2.63-.11,3.98-.43,1.35-1.2,2.48-2.35,3.38h0Zm-.88-1.11c1.1-.87,1.78-1.94,2.02-3.2.25-1.27.13-2.44-.38-3.52l4.19-3.31,2.45-.19.89-3.11,2.89-.07.43-3.7-1.99-.23-10.62,8.39c-.94-.73-2.05-1.13-3.35-1.17-1.3-.05-2.5.37-3.59,1.24-1.23.97-1.93,2.23-2.11,3.79-.19,1.56.22,2.94,1.19,4.17.97,1.23,2.24,1.92,3.81,2.1,1.57.19,2.96-.22,4.19-1.19v-.02Z"/>
      <path class="cls-8" d="m77.36,174.31H24.7v-56.72s2.75-15.29,30.23-21.21c0,0-32.22-46.48,22.43-59.41"/>
    </g>
  </g>
</svg>